<svg width="104" height="150" viewBox="0 0 104 150" fill="none" xmlns="http://www.w3.org/2000/svg">
<path d="M22.5039 10.7461C22.4453 10.1471 22.1751 9.67839 21.6934 9.33984C21.2181 9.0013 20.5964 8.83203 19.8281 8.83203C19.3073 8.83203 18.8516 8.91016 18.4609 9.06641C18.0703 9.22266 17.7708 9.44076 17.5625 9.7207C17.3542 10.0007 17.25 10.3164 17.25 10.668C17.25 11.2083 17.4746 11.6283 17.9238 11.9277C18.373 12.2207 18.9557 12.4518 19.6719 12.6211L21 12.9727C22.2174 13.2526 23.2103 13.7181 23.9785 14.3691C24.7533 15.0137 25.1406 15.9023 25.1406 17.0352C25.1406 17.862 24.929 18.5911 24.5059 19.2227C24.0827 19.8542 23.4674 20.3457 22.6602 20.6973C21.8594 21.0423 20.9023 21.2148 19.7891 21.2148C18.6888 21.2148 17.735 21.0456 16.9277 20.707C16.1204 20.362 15.4889 19.8639 15.0332 19.2129C14.584 18.5553 14.3398 17.7643 14.3008 16.8398H16.8008C16.8594 17.556 17.1589 18.1029 17.6992 18.4805C18.2461 18.8581 18.9362 19.0469 19.7695 19.0469C20.3229 19.0469 20.8145 18.9622 21.2441 18.793C21.6738 18.6237 22.0059 18.3861 22.2402 18.0801C22.4811 17.7676 22.6016 17.4128 22.6016 17.0156C22.6016 16.5013 22.3867 16.1009 21.957 15.8145C21.5339 15.5215 20.8958 15.2643 20.043 15.043L18.4414 14.6328C15.9284 13.9753 14.6719 12.7057 14.6719 10.8242C14.6719 10.0039 14.8965 9.28125 15.3457 8.65625C15.7949 8.02474 16.4134 7.53646 17.2012 7.19141C17.9954 6.83984 18.8841 6.66406 19.8672 6.66406C20.8568 6.66406 21.7324 6.83984 22.4941 7.19141C23.2624 7.53646 23.8581 8.01823 24.2812 8.63672C24.7109 9.25521 24.9323 9.95833 24.9453 10.7461H22.5039ZM26.125 6.85938H37.3945V8.98828H33.0391V21H30.5V8.98828H26.125V6.85938ZM38.8867 6.85938H48.0859V8.98828H41.4258V12.8555H47.5977V14.9844H41.4258V18.8516H48.125V21H38.8867V6.85938ZM50.0273 6.85938H55.3398C56.3945 6.85938 57.2962 7.05794 58.0449 7.45508C58.7936 7.85221 59.36 8.4056 59.7441 9.11523C60.1283 9.81836 60.3203 10.6289 60.3203 11.5469C60.3203 12.4583 60.125 13.2689 59.7344 13.9785C59.3503 14.6816 58.7806 15.2318 58.0254 15.6289C57.2702 16.0195 56.362 16.2148 55.3008 16.2148H52.5664V21H50.0273V6.85938ZM54.9492 14.125C55.8737 14.125 56.5671 13.8939 57.0293 13.4316C57.4915 12.9629 57.7227 12.3346 57.7227 11.5469C57.7227 10.7526 57.4915 10.1276 57.0293 9.67188C56.5671 9.21615 55.8737 8.98828 54.9492 8.98828H52.5664V14.125H54.9492ZM71.1953 21.1953C70.0625 21.1953 69.0892 20.9121 68.2754 20.3457C67.4681 19.7728 66.8464 18.9427 66.4102 17.8555C65.9805 16.7682 65.7656 15.4596 65.7656 13.9297C65.7656 12.4062 65.9805 11.1009 66.4102 10.0137C66.8464 8.91992 67.4714 8.08984 68.2852 7.52344C69.099 6.95052 70.069 6.66406 71.1953 6.66406C72.3151 6.66406 73.2819 6.95052 74.0957 7.52344C74.916 8.08984 75.541 8.91992 75.9707 10.0137C76.4069 11.1009 76.625 12.4062 76.625 13.9297C76.625 15.4596 76.4069 16.7682 75.9707 17.8555C75.541 18.9427 74.9193 19.7728 74.1055 20.3457C73.2982 20.9121 72.3281 21.1953 71.1953 21.1953ZM71.1953 19.0664C71.7943 19.0664 72.3053 18.8743 72.7285 18.4902C73.1582 18.0996 73.487 17.5234 73.7148 16.7617C73.9492 15.9935 74.0664 15.0495 74.0664 13.9297C74.0664 12.8229 73.9492 11.8854 73.7148 11.1172C73.487 10.3424 73.1582 9.75977 72.7285 9.36914C72.2988 8.97201 71.7878 8.77344 71.1953 8.77344C70.6029 8.77344 70.0918 8.97201 69.6621 9.36914C69.2324 9.75977 68.9004 10.3424 68.666 11.1172C68.4382 11.8854 68.3242 12.8229 68.3242 13.9297C68.3242 15.0495 68.4382 15.9935 68.666 16.7617C68.9004 17.5234 69.2292 18.0996 69.6523 18.4902C70.082 18.8743 70.5964 19.0664 71.1953 19.0664ZM78 16.332L84.1133 6.85938H87.2773V16.2734H89.1328V18.3633H87.2773V21H84.8555V18.3633H78V16.332ZM84.8945 16.2734V9.75H84.7383L80.5977 16.1758V16.2734H84.8945Z" fill="#767676"/>
<g clip-path="url(#clip0_222_9158)">
<path d="M60.8161 72.2484C62.5486 81.1042 56.8021 89.6971 47.9783 91.4359C39.1544 93.1747 30.5925 87.4074 28.86 78.5516C27.1274 69.6958 32.874 61.1028 41.6978 59.364C50.5217 57.6252 59.0836 63.3926 60.8161 72.2484Z" fill="#007FFF"/>
<path d="M81.9538 134.28C81.43 114.152 65.0213 97.9922 44.8353 97.9922C24.6493 97.9922 8.24059 114.152 7.7168 134.28H81.9538Z" fill="#007FFF"/>
<mask id="mask0_222_9158" style="mask-type:luminance" maskUnits="userSpaceOnUse" x="24" y="72" width="80" height="78">
<path d="M24.7402 137.656L24.7402 85.1173C24.7402 78.4148 30.1594 72.976 36.8377 72.976H91.1959C97.8742 72.976 103.293 78.4148 103.293 85.1173V137.656C103.293 144.358 97.8692 149.797 91.1959 149.797H36.8428C30.1645 149.797 24.7453 144.358 24.7453 137.656H24.7402Z" fill="white"/>
</mask>
<g mask="url(#mask0_222_9158)">
<path opacity="0.05" d="M44.6893 52.3895C55.6738 52.2985 65.2329 60.1282 67.3533 70.9603C69.7858 83.3695 61.7376 95.4502 49.4085 97.9573C47.9529 98.2556 46.4672 98.4072 44.9865 98.4173C34.002 98.5083 24.4429 90.6786 22.3225 79.8464C19.8899 67.4372 27.9331 55.3515 40.2673 52.8494C41.7229 52.5512 43.2086 52.3996 44.6893 52.3895Z" fill="#F2F8FF"/>
<path opacity="0.11" d="M44.5231 52.7727C55.3867 52.5907 64.8904 60.3041 66.9906 71.0302C69.3728 83.1917 61.5311 95.0298 49.4789 97.552C48.0536 97.8503 46.6031 98.012 45.1526 98.0322C34.2891 98.2142 24.7853 90.5008 22.6851 79.7747C20.3029 67.6132 28.1446 55.7752 40.1968 53.2529C41.6221 52.9547 43.0726 52.7929 44.5231 52.7727Z" fill="#E4F2FF"/>
<path opacity="0.16" d="M44.3568 53.1622C55.0996 52.9145 64.5479 60.4864 66.6279 71.1012C68.9598 83.01 61.3195 94.6054 49.5494 97.1429C48.1594 97.4411 46.7391 97.6079 45.3188 97.6382C34.5761 97.9112 25.1278 90.314 23.0477 79.6992C20.7159 67.7904 28.3561 56.195 40.1262 53.6575C41.5163 53.3593 42.9366 53.1925 44.3568 53.1622Z" fill="#D7EBFF"/>
<path opacity="0.21" d="M44.1909 53.5518C54.8128 53.2182 64.2057 60.6738 66.2656 71.1774C68.5521 82.8386 61.1083 94.1913 49.6252 96.744C48.2654 97.0472 46.8753 97.2191 45.4903 97.2595C34.8685 97.6285 25.4756 90.1375 23.4157 79.6339C21.1291 67.9728 28.573 56.62 40.056 54.0674C41.4108 53.7641 42.8009 53.5973 44.1909 53.5518Z" fill="#C9E4FF"/>
<path opacity="0.26" d="M44.0247 53.9409C54.5307 53.5214 63.8632 60.8557 65.8979 71.2481C68.1341 82.6616 60.8917 93.7667 49.6907 96.3345C48.3661 96.6378 47.0063 96.8197 45.6515 96.8652C35.1505 97.3252 25.813 89.9504 23.7783 79.558C21.5421 68.1446 28.7845 57.0395 39.9855 54.4717C41.3101 54.1684 42.6699 53.9915 44.0247 53.9409Z" fill="#BCDDFF"/>
<path opacity="0.32" d="M43.8587 54.3258C54.2438 53.8203 63.5209 61.0333 65.5355 71.3196C67.7213 82.4803 60.6854 93.3428 49.7614 95.9308C48.4671 96.2391 47.1425 96.4211 45.8179 96.4817C35.4328 97.0327 26.1557 89.7742 24.1411 79.4879C21.9553 68.3272 28.9912 57.4647 39.9152 54.8767C41.2045 54.5684 42.5341 54.3915 43.8587 54.3258Z" fill="#AED7FF"/>
<path opacity="0.37" d="M43.6917 54.7141C53.956 54.1227 63.1827 61.2144 65.1721 71.3895C67.3075 82.3025 60.4731 92.9224 49.8311 95.5205C48.572 95.8288 47.2777 96.0209 45.9783 96.0866C35.714 96.7285 26.4873 89.5863 24.4979 79.4112C22.3625 68.4982 29.1969 57.8783 39.8389 55.2802C41.098 54.9719 42.3923 54.7849 43.6917 54.7141Z" fill="#A1D0FF"/>
<path opacity="0.42" d="M43.5259 55.104C53.6743 54.4267 62.8406 61.3971 64.8098 71.466C66.9 82.1263 60.2619 92.5035 49.907 95.1218C48.6832 95.4302 47.419 95.6273 46.1499 95.7082C36.0065 96.4411 26.8352 89.4151 24.8659 79.3462C22.7758 68.6859 29.4138 58.3087 39.7687 55.6903C40.9926 55.382 42.2567 55.1899 43.5259 55.104Z" fill="#94C9FF"/>
<path opacity="0.47" d="M43.3597 55.4883C53.3873 54.72 62.4982 61.5792 64.4473 71.5319C66.487 81.9445 60.0505 92.0791 49.9776 94.7126C48.784 95.026 47.5551 95.2282 46.3161 95.3141C36.2936 96.138 27.1777 89.2232 25.2286 79.2706C23.1888 68.8579 29.6254 58.7233 39.6983 56.0898C40.8919 55.7764 42.1208 55.5793 43.3597 55.4883Z" fill="#86C2FF"/>
<path opacity="0.53" d="M43.1938 55.8764C53.1005 55.0171 62.156 61.7601 64.0849 71.6066C66.0743 81.7664 59.8443 91.6584 50.0484 94.3071C48.89 94.6205 47.6914 94.8328 46.4826 94.9288C36.581 95.8437 27.5205 89.0452 25.5915 79.1987C23.6021 69.0388 29.8322 59.1468 39.628 56.4981C40.7864 56.1847 41.9851 55.9826 43.1938 55.8764Z" fill="#79BCFF"/>
<path opacity="0.58" d="M43.0276 56.2663C52.8184 55.316 61.8135 61.9427 63.7223 71.678C65.6613 81.5902 59.6327 91.2345 50.1239 93.9034C48.9958 94.2218 47.8323 94.4341 46.6538 94.5403C36.8731 95.5462 27.8679 88.8639 25.9591 79.1286C24.0201 69.2164 30.0487 59.5721 39.5575 56.9032C40.6856 56.5847 41.8491 56.3775 43.0276 56.2663Z" fill="#6BB5FF"/>
<path opacity="0.63" d="M42.861 56.6561C52.531 55.6148 61.4706 62.1252 63.3593 71.7544C65.253 81.4138 59.4208 90.8206 50.1941 93.4996C49.1012 93.818 47.968 94.0404 46.8197 94.1567C37.1547 95.2586 28.21 88.6875 26.3214 79.0584C24.4277 69.3989 30.2599 59.9921 39.4866 57.3132C40.5795 56.9947 41.7127 56.7824 42.861 56.6561Z" fill="#5EAEFF"/>
<path opacity="0.68" d="M42.6951 57.0389C52.2442 55.9016 61.1335 62.3008 62.997 71.8187C64.8403 81.2306 59.2096 90.3896 50.2649 93.0888C49.2022 93.4073 48.1042 93.6347 46.9811 93.7661C37.4371 94.959 28.5428 88.5042 26.6793 78.9863C24.8359 69.5745 30.4667 60.4154 39.4114 57.7162C40.4741 57.3978 41.572 57.1754 42.6951 57.0389Z" fill="#51A7FF"/>
<path opacity="0.74" d="M42.5235 57.4295C51.9517 56.1962 60.7856 62.4892 62.6289 71.8909C64.4219 81.05 58.9976 89.9715 50.3299 92.6808C49.3025 93.0043 48.2348 93.2368 47.1419 93.3733C37.7187 94.6572 28.8798 88.3135 27.0364 78.9119C25.2435 69.7477 30.6677 60.8313 39.3354 58.122C40.3628 57.7985 41.4306 57.571 42.5235 57.4295Z" fill="#43A1FF"/>
<path opacity="0.79" d="M42.3578 57.8183C51.6702 56.4889 60.4437 62.6708 62.2618 71.9663C64.0094 80.8777 58.7816 89.5515 50.401 92.2811C49.4038 92.6046 48.3713 92.8472 47.3087 92.9938C38.0064 94.3686 29.2228 88.1413 27.4047 78.8457C25.657 69.9344 30.8849 61.2605 39.2655 58.531C40.2627 58.2075 41.2952 57.9699 42.3578 57.8183Z" fill="#369AFF"/>
<path opacity="0.84" d="M42.1909 58.2065C51.3824 56.776 60.1005 62.8517 61.8985 72.0361C63.5957 80.6998 58.5694 89.1259 50.4708 91.8757C49.5089 92.2042 48.5066 92.4468 47.4741 92.6035C38.2927 94.0694 29.5646 87.9583 27.7666 78.7739C26.0693 70.1102 31.0957 61.6841 39.1942 58.9343C40.1562 58.6058 41.1635 58.3682 42.1909 58.2065Z" fill="#2893FF"/>
<path opacity="0.89" d="M42.025 58.591C51.0956 57.0594 59.7583 63.029 61.5361 72.1072C63.183 80.5182 58.3581 88.7067 50.5416 91.4666C49.6099 91.7951 48.6378 92.0479 47.6406 92.2147C38.5751 93.7715 29.9074 87.7767 28.1295 78.6985C26.4826 70.2875 31.3075 62.0989 39.124 59.3391C40.0558 59.0105 41.0278 58.7629 42.025 58.591Z" fill="#1B8CFF"/>
<path opacity="0.95" d="M41.8591 58.9798C50.8038 57.332 59.4161 63.2106 61.1739 72.1776C62.7704 80.3409 58.152 88.2818 50.6125 91.0618C49.716 91.3954 48.7742 91.6482 47.8072 91.8251C38.8625 93.4729 30.2502 87.5943 28.4925 78.6273C26.8959 70.464 31.5194 62.5232 39.0539 59.7431C39.9503 59.4095 40.8922 59.1567 41.8591 58.9798Z" fill="#0D86FF"/>
<path d="M60.8161 72.2484C62.5486 81.1042 56.8021 89.6971 47.9783 91.4359C39.1544 93.1747 30.5925 87.4074 28.86 78.5516C27.1274 69.6958 32.874 61.1028 41.6978 59.364C50.5217 57.6252 59.0836 63.3926 60.8161 72.2484Z" fill="#007FFF"/>
<path opacity="0.05" d="M14.2496 104.049C22.459 96.002 33.3176 91.5488 44.8359 91.5488C56.3542 91.5488 67.2127 96.002 75.4221 104.049C79.5167 108.062 82.74 112.758 84.9762 117.894C87.1822 122.959 88.4262 128.453 88.5924 134.124C88.6024 134.2 88.7888 141.135 88.7888 141.211H0.87793C0.87793 141.135 1.06428 134.195 1.07435 134.124C1.24055 128.448 2.48455 122.959 4.69051 117.894C6.92668 112.763 10.15 108.062 14.2496 104.049Z" fill="#F2F8FF"/>
<path opacity="0.11" d="M14.5116 104.316C22.6353 96.3548 33.4032 91.9219 44.841 91.9219C56.2787 91.9219 67.0415 96.3498 75.1703 104.316C79.2247 108.289 82.4228 112.944 84.6388 118.029C86.7995 122.983 88.0233 128.356 88.2097 133.906C88.2298 134.058 88.4111 140.689 88.4162 140.841H1.26074C1.26074 140.684 1.44709 134.053 1.46724 133.906C1.65358 128.356 2.87744 122.988 5.03806 118.029C7.25913 112.939 10.4522 108.289 14.5066 104.311L14.5116 104.316Z" fill="#E4F2FF"/>
<path opacity="0.16" d="M14.7686 104.585C22.8118 96.7045 33.479 92.2969 44.8361 92.2969C56.1933 92.2969 66.8655 96.7045 74.9036 104.585C78.9176 108.517 82.0855 113.127 84.2865 118.172C86.4018 123.019 87.6105 128.266 87.812 133.69C87.8422 133.912 88.0235 140.24 88.0285 140.473H1.63867C1.64371 140.24 1.82502 133.917 1.85524 133.69C2.06173 128.261 3.27047 123.014 5.38074 118.172C7.58166 113.127 10.7496 108.517 14.7636 104.585H14.7686Z" fill="#D7EBFF"/>
<path opacity="0.21" d="M15.0255 104.846C22.9831 97.0465 33.5546 92.6641 44.8362 92.6641C56.1178 92.6641 66.6892 97.0465 74.6468 104.846C78.6205 108.738 81.7582 113.302 83.944 118.306C86.009 123.043 87.2076 128.168 87.4292 133.47C87.4695 133.769 87.6458 139.789 87.6559 140.102H2.02148C2.03156 139.794 2.2028 133.774 2.24812 133.47C2.46973 128.168 3.66336 123.043 5.73333 118.306C7.91914 113.302 11.0619 108.738 15.0306 104.846H15.0255Z" fill="#C9E4FF"/>
<path opacity="0.26" d="M15.2867 105.115C23.1586 97.4012 33.6394 93.0391 44.8404 93.0391C56.0414 93.0391 66.5172 97.4012 74.3942 105.115C78.3226 108.966 81.4401 113.485 83.6058 118.444C85.6254 123.069 86.8039 128.073 87.0457 133.254C87.1011 133.628 87.2723 139.345 87.2824 139.729H2.39844C2.40851 139.345 2.57975 133.628 2.63515 133.254C2.8769 128.073 4.05542 123.069 6.07503 118.444C8.24069 113.485 11.3582 108.966 15.2867 105.115Z" fill="#BCDDFF"/>
<path opacity="0.32" d="M15.5436 105.378C23.3299 97.7451 33.715 93.4082 44.8354 93.4082C55.9559 93.4082 66.341 97.7451 74.1273 105.378C78.0154 109.189 81.1028 113.667 83.2533 118.58C85.2276 123.094 86.391 127.977 86.6479 133.032C86.7133 133.482 86.8795 138.89 86.8896 139.355H2.78125C2.79132 138.89 2.96256 133.482 3.023 133.032C3.27986 127.977 4.44327 123.094 6.41755 118.58C8.56811 113.667 11.6554 109.189 15.5436 105.378Z" fill="#AED7FF"/>
<path opacity="0.37" d="M15.8006 105.645C23.5063 98.0979 33.7958 93.7812 44.8356 93.7812C55.8755 93.7812 66.1649 98.0979 73.8706 105.645C77.7185 109.415 80.7756 113.848 82.911 118.716C84.8349 123.119 85.9832 127.88 86.2603 132.813C86.3358 133.334 86.497 138.444 86.5121 138.985H3.15918C3.17429 138.444 3.33545 133.339 3.411 132.813C3.688 127.88 4.83631 123.119 6.76023 118.716C8.89567 113.843 11.9528 109.41 15.8006 105.645Z" fill="#A1D0FF"/>
<path opacity="0.42" d="M16.0627 105.908C23.6828 98.4418 33.8766 94.1504 44.8358 94.1504C55.7951 94.1504 65.9939 98.4418 73.614 105.908C77.4165 109.638 80.4484 114.025 82.5687 118.853C84.4473 123.144 85.5805 127.784 85.8777 132.596C85.9633 133.193 86.1245 137.995 86.1396 138.611H3.53711C3.55222 137.995 3.71338 133.193 3.799 132.596C4.09112 127.784 5.22431 123.149 7.10794 118.853C9.22324 114.025 12.2552 109.638 16.0627 105.908Z" fill="#94C9FF"/>
<path opacity="0.47" d="M16.3196 106.176C23.8541 98.7915 33.9521 94.5254 44.8359 94.5254C55.7196 94.5254 65.8176 98.7966 73.3521 106.176C77.1143 109.861 80.1211 114.208 82.2213 118.995C84.0545 123.18 85.1726 127.694 85.4849 132.38C85.5806 133.052 85.7367 137.551 85.7569 138.243H3.91992C3.94007 137.551 4.0962 133.052 4.19189 132.38C4.50415 127.694 5.62223 123.175 7.45549 118.995C9.55569 114.213 12.5574 109.866 16.3246 106.176H16.3196Z" fill="#86C2FF"/>
<path opacity="0.53" d="M16.5767 106.443C24.0255 99.1444 34.0329 94.8984 44.8361 94.8984C55.6392 94.8984 65.6416 99.1444 73.0955 106.443C76.8174 110.088 79.7939 114.389 81.874 119.131C83.6619 123.205 84.7598 127.597 85.0922 132.161C85.198 132.91 85.3541 137.1 85.3743 137.873H4.29785C4.318 137.1 4.46909 132.91 4.57989 132.161C4.9123 127.597 6.01024 123.205 7.79817 119.131C9.87821 114.389 12.8598 110.088 16.5767 106.443Z" fill="#79BCFF"/>
<path opacity="0.58" d="M16.8386 106.707C24.2069 99.4894 34.1136 95.2637 44.8361 95.2637C55.5587 95.2637 65.4704 99.4894 72.8387 106.707C76.5203 110.311 79.4666 114.573 81.5315 119.268C83.2691 123.231 84.357 127.502 84.7045 131.945C84.8203 132.769 84.9714 136.651 84.9915 137.501H4.68066C4.70081 136.651 4.8519 132.764 4.96774 131.945C5.31525 127.507 6.40312 123.231 8.14069 119.268C10.2056 114.573 13.157 110.316 16.8336 106.707H16.8386Z" fill="#6BB5FF"/>
<path opacity="0.63" d="M17.0947 106.974C24.3774 99.8372 34.1883 95.6367 44.8353 95.6367C55.4823 95.6367 65.2933 99.8372 72.576 106.974C76.2123 110.538 79.1384 114.753 81.1832 119.404C82.8755 123.255 83.9482 127.405 84.3109 131.722C84.4368 132.617 84.5828 136.2 84.608 137.125H5.05762C5.0828 136.2 5.22886 132.617 5.35477 131.722C5.72243 127.405 6.79015 123.255 8.48239 119.404C10.5322 114.753 13.4533 110.538 17.0896 106.974H17.0947Z" fill="#5EAEFF"/>
<path opacity="0.68" d="M17.3516 107.237C24.5486 100.186 34.2689 96.0059 44.8354 96.0059C55.4018 96.0059 65.1221 100.181 72.3192 107.237C75.9152 110.76 78.8111 114.931 80.8408 119.54C82.4877 123.281 83.5403 127.309 83.9281 131.505C84.0641 132.475 84.2102 135.751 84.2354 136.757H5.44043C5.46561 135.751 5.61167 132.475 5.74765 131.505C6.13042 127.315 7.18807 123.281 8.83498 119.54C10.8647 114.931 13.7606 110.76 17.3566 107.237H17.3516Z" fill="#51A7FF"/>
<path opacity="0.74" d="M17.6137 107.506C24.7251 100.536 34.3497 96.3809 44.8356 96.3809C55.3214 96.3809 64.946 100.536 72.0575 107.506C75.6132 110.989 78.4789 115.113 80.4935 119.678C82.0951 123.307 83.1326 127.219 83.5355 131.288C83.6866 132.335 83.8226 135.307 83.8528 136.389H5.81836C5.84858 135.307 5.98456 132.335 6.13565 131.288C6.53857 127.219 7.57607 123.312 9.17766 119.678C11.1922 115.113 14.058 110.989 17.6137 107.506Z" fill="#43A1FF"/>
<path opacity="0.79" d="M17.8706 107.773C24.9014 100.884 34.4304 96.7539 44.8356 96.7539C55.2409 96.7539 64.7748 100.884 71.8007 107.773C75.311 111.215 78.1516 115.299 80.151 119.818C81.7023 123.341 82.7297 127.127 83.1477 131.07C83.3089 132.192 83.4449 134.856 83.4751 136.014H6.20117C6.23139 134.856 6.36737 132.187 6.52854 131.07C6.94656 127.122 7.97399 123.336 9.52521 119.818C11.5196 115.299 14.3602 111.215 17.8756 107.773H17.8706Z" fill="#369AFF"/>
<path opacity="0.84" d="M18.1276 108.036C25.0729 101.232 34.5061 97.123 44.8358 97.123C55.1655 97.123 64.5988 101.232 71.544 108.036C75.0141 111.438 77.8295 115.477 79.8088 119.955C81.3147 123.367 82.322 127.032 82.7601 130.853C82.9314 132.051 83.0623 134.411 83.0976 135.645H6.5791C6.60932 134.411 6.7453 132.051 6.91654 130.853C7.35471 127.032 8.362 123.367 9.86789 119.955C11.8472 115.477 14.6626 111.438 18.1327 108.036H18.1276Z" fill="#2893FF"/>
<path opacity="0.89" d="M18.3897 108.305C25.2493 101.582 34.5869 97.498 44.836 97.498C55.0851 97.498 64.4227 101.582 71.2823 108.305C74.7121 111.666 77.4972 115.659 79.4615 120.092C80.922 123.393 81.9142 126.936 82.3675 130.631C82.5488 131.9 82.6797 133.957 82.71 135.272H6.95703C6.99229 133.957 7.1182 131.905 7.29951 130.631C7.75279 126.931 8.75 123.388 10.2055 120.092C12.1697 115.659 14.9549 111.666 18.3847 108.305H18.3897Z" fill="#1B8CFF"/>
<path opacity="0.95" d="M18.6466 108.568C25.4206 101.931 34.6675 97.8672 44.8361 97.8672C55.0046 97.8672 64.2515 101.931 71.0255 108.568C74.415 111.889 77.1699 115.837 79.114 120.229C80.5242 123.419 81.5063 126.841 81.9797 130.414C82.1711 131.759 82.297 133.513 82.3323 134.898H7.33984C7.3751 133.508 7.50101 131.759 7.69239 130.414C8.16582 126.841 9.14288 123.419 10.5581 120.229C12.5022 115.842 15.2621 111.889 18.6466 108.568Z" fill="#0D86FF"/>
<path d="M81.9538 134.528C81.8228 129.493 80.6997 124.712 78.7707 120.365C76.8418 116.018 74.112 112.11 70.7678 108.835C64.0744 102.279 54.9283 98.2402 44.8353 98.2402C34.7423 98.2402 25.5961 102.279 18.9027 108.835C15.5585 112.115 12.8237 116.023 10.8998 120.365C8.97087 124.712 7.84774 129.493 7.7168 134.528H81.9538Z" fill="#007FFF"/>
</g>
<g opacity="0.8">
<g opacity="0.8">
<path d="M24.7402 137.656L24.7402 85.1173C24.7402 78.4148 30.1594 72.976 36.8377 72.976H91.1959C97.8742 72.976 103.293 78.4148 103.293 85.1173V137.656C103.293 144.358 97.8692 149.797 91.1959 149.797H36.8428C30.1645 149.797 24.7453 144.358 24.7453 137.656H24.7402Z" fill="url(#paint0_linear_222_9158)" fill-opacity="0.4"/>
<path d="M24.7402 137.656L24.7402 85.1173C24.7402 78.4148 30.1594 72.976 36.8377 72.976H91.1959C97.8742 72.976 103.293 78.4148 103.293 85.1173V137.656C103.293 144.358 97.8692 149.797 91.1959 149.797H36.8428C30.1645 149.797 24.7453 144.358 24.7453 137.656H24.7402Z" fill="url(#paint1_linear_222_9158)" fill-opacity="0.3"/>
</g>
</g>
<path d="M72.9537 105.302C73.7141 100.35 70.3302 95.7162 65.3956 94.9531C60.461 94.1899 55.8442 97.5861 55.0838 102.539C54.3235 107.491 57.7073 112.125 62.642 112.888C67.5766 113.651 72.1933 110.255 72.9537 105.302Z" fill="white"/>
<path d="M68.1537 110.71L70.0071 125.692C70.1531 126.874 69.2315 127.921 68.0479 127.921H60.0047C58.8161 127.921 57.8945 126.874 58.0456 125.692L59.8939 110.71C60.0148 109.714 60.8559 108.971 61.8581 108.971H66.1995C67.1967 108.971 68.0378 109.719 68.1587 110.71H68.1537Z" fill="white"/>
<path d="M91.2012 149.999H36.8431C30.059 149.999 24.5391 144.459 24.5391 137.651V85.1122C24.5391 78.3036 30.059 72.7637 36.8431 72.7637H91.2012C97.9853 72.7637 103.505 78.3036 103.505 85.1122V137.651C103.505 144.459 97.9853 149.999 91.2012 149.999ZM36.8431 73.1731C30.2806 73.1731 24.947 78.5311 24.947 85.1122V137.651C24.947 144.237 30.2856 149.59 36.8431 149.59H91.2012C97.7587 149.59 103.097 144.232 103.097 137.651V85.1122C103.097 78.5311 97.7587 73.1731 91.2012 73.1731H36.8431Z" fill="url(#paint2_linear_222_9158)"/>
</g>
<defs>
<linearGradient id="paint0_linear_222_9158" x1="87.6743" y1="142.048" x2="41.7032" y2="79.7349" gradientUnits="userSpaceOnUse">
<stop stop-color="#F2F8FF"/>
<stop offset="1" stop-color="#D9F0FF"/>
</linearGradient>
<linearGradient id="paint1_linear_222_9158" x1="32.6112" y1="140.011" x2="73.411" y2="61.523" gradientUnits="userSpaceOnUse">
<stop stop-color="#5A81FF" stop-opacity="0.9"/>
<stop offset="0.447036" stop-color="#567DFF" stop-opacity="0.955296"/>
<stop offset="1" stop-color="#4E78FF" stop-opacity="0.9"/>
</linearGradient>
<linearGradient id="paint2_linear_222_9158" x1="64.0196" y1="149.999" x2="64.0196" y2="72.7637" gradientUnits="userSpaceOnUse">
<stop stop-color="#E6F1FF"/>
<stop offset="1" stop-color="#F7FBFF"/>
</linearGradient>
<clipPath id="clip0_222_9158">
<rect width="103" height="98" fill="white" transform="translate(0.5 52)"/>
</clipPath>
</defs>
</svg>