<svg width="86" height="150" viewBox="0 0 86 150" fill="none" xmlns="http://www.w3.org/2000/svg">
<path d="M18.5039 10.7461C18.4453 10.1471 18.1751 9.67839 17.6934 9.33984C17.2181 9.0013 16.5964 8.83203 15.8281 8.83203C15.3073 8.83203 14.8516 8.91016 14.4609 9.06641C14.0703 9.22266 13.7708 9.44076 13.5625 9.7207C13.3542 10.0007 13.25 10.3164 13.25 10.668C13.25 11.2083 13.4746 11.6283 13.9238 11.9277C14.373 12.2207 14.9557 12.4518 15.6719 12.6211L17 12.9727C18.2174 13.2526 19.2103 13.7181 19.9785 14.3691C20.7533 15.0137 21.1406 15.9023 21.1406 17.0352C21.1406 17.862 20.929 18.5911 20.5059 19.2227C20.0827 19.8542 19.4674 20.3457 18.6602 20.6973C17.8594 21.0423 16.9023 21.2148 15.7891 21.2148C14.6888 21.2148 13.735 21.0456 12.9277 20.707C12.1204 20.362 11.4889 19.8639 11.0332 19.2129C10.584 18.5553 10.3398 17.7643 10.3008 16.8398H12.8008C12.8594 17.556 13.1589 18.1029 13.6992 18.4805C14.2461 18.8581 14.9362 19.0469 15.7695 19.0469C16.3229 19.0469 16.8145 18.9622 17.2441 18.793C17.6738 18.6237 18.0059 18.3861 18.2402 18.0801C18.4811 17.7676 18.6016 17.4128 18.6016 17.0156C18.6016 16.5013 18.3867 16.1009 17.957 15.8145C17.5339 15.5215 16.8958 15.2643 16.043 15.043L14.4414 14.6328C11.9284 13.9753 10.6719 12.7057 10.6719 10.8242C10.6719 10.0039 10.8965 9.28125 11.3457 8.65625C11.7949 8.02474 12.4134 7.53646 13.2012 7.19141C13.9954 6.83984 14.8841 6.66406 15.8672 6.66406C16.8568 6.66406 17.7324 6.83984 18.4941 7.19141C19.2624 7.53646 19.8581 8.01823 20.2812 8.63672C20.7109 9.25521 20.9323 9.95833 20.9453 10.7461H18.5039ZM22.125 6.85938H33.3945V8.98828H29.0391V21H26.5V8.98828H22.125V6.85938ZM34.8867 6.85938H44.0859V8.98828H37.4258V12.8555H43.5977V14.9844H37.4258V18.8516H44.125V21H34.8867V6.85938ZM46.0273 6.85938H51.3398C52.3945 6.85938 53.2962 7.05794 54.0449 7.45508C54.7936 7.85221 55.36 8.4056 55.7441 9.11523C56.1283 9.81836 56.3203 10.6289 56.3203 11.5469C56.3203 12.4583 56.125 13.2689 55.7344 13.9785C55.3503 14.6816 54.7806 15.2318 54.0254 15.6289C53.2702 16.0195 52.362 16.2148 51.3008 16.2148H48.5664V21H46.0273V6.85938ZM50.9492 14.125C51.8737 14.125 52.5671 13.8939 53.0293 13.4316C53.4915 12.9629 53.7227 12.3346 53.7227 11.5469C53.7227 10.7526 53.4915 10.1276 53.0293 9.67188C52.5671 9.21615 51.8737 8.98828 50.9492 8.98828H48.5664V14.125H50.9492ZM67.1953 21.1953C66.0625 21.1953 65.0892 20.9121 64.2754 20.3457C63.4681 19.7728 62.8464 18.9427 62.4102 17.8555C61.9805 16.7682 61.7656 15.4596 61.7656 13.9297C61.7656 12.4062 61.9805 11.1009 62.4102 10.0137C62.8464 8.91992 63.4714 8.08984 64.2852 7.52344C65.099 6.95052 66.069 6.66406 67.1953 6.66406C68.3151 6.66406 69.2819 6.95052 70.0957 7.52344C70.916 8.08984 71.541 8.91992 71.9707 10.0137C72.4069 11.1009 72.625 12.4062 72.625 13.9297C72.625 15.4596 72.4069 16.7682 71.9707 17.8555C71.541 18.9427 70.9193 19.7728 70.1055 20.3457C69.2982 20.9121 68.3281 21.1953 67.1953 21.1953ZM67.1953 19.0664C67.7943 19.0664 68.3053 18.8743 68.7285 18.4902C69.1582 18.0996 69.487 17.5234 69.7148 16.7617C69.9492 15.9935 70.0664 15.0495 70.0664 13.9297C70.0664 12.8229 69.9492 11.8854 69.7148 11.1172C69.487 10.3424 69.1582 9.75977 68.7285 9.36914C68.2988 8.97201 67.7878 8.77344 67.1953 8.77344C66.6029 8.77344 66.0918 8.97201 65.6621 9.36914C65.2324 9.75977 64.9004 10.3424 64.666 11.1172C64.4382 11.8854 64.3242 12.8229 64.3242 13.9297C64.3242 15.0495 64.4382 15.9935 64.666 16.7617C64.9004 17.5234 65.2292 18.0996 65.6523 18.4902C66.082 18.8743 66.5964 19.0664 67.1953 19.0664ZM74.2539 19.1641L79.2539 14.3398C79.7943 13.7995 80.2109 13.3568 80.5039 13.0117C80.8034 12.6602 81.0312 12.3151 81.1875 11.9766C81.3438 11.6315 81.4219 11.2669 81.4219 10.8828C81.4219 10.4531 81.3177 10.0755 81.1094 9.75C80.901 9.42448 80.6113 9.17383 80.2402 8.99805C79.8757 8.82227 79.4622 8.73438 79 8.73438C78.5182 8.73438 78.0951 8.83203 77.7305 9.02734C77.3724 9.21615 77.0957 9.48958 76.9004 9.84766C76.7051 10.1992 76.6107 10.6094 76.6172 11.0781H74.1953C74.1888 10.1992 74.3906 9.42773 74.8008 8.76367C75.2109 8.0931 75.7806 7.57552 76.5098 7.21094C77.2454 6.84635 78.082 6.66406 79.0195 6.66406C79.9701 6.66406 80.8099 6.83984 81.5391 7.19141C82.2747 7.54297 82.8444 8.03125 83.248 8.65625C83.6582 9.27474 83.8633 9.97786 83.8633 10.7656C83.8633 11.3125 83.7559 11.8398 83.541 12.3477C83.3327 12.8555 82.9746 13.4186 82.4668 14.0371C81.959 14.6491 81.2396 15.3945 80.3086 16.2734L77.7891 18.7734V18.8711H84.0781V21H74.2539V19.1641Z" fill="#767676"/>
<g clip-path="url(#clip0_222_8606)">
<path d="M58.1106 57.8379H17.4133C11.3629 57.8379 6.45605 62.6478 6.45605 68.5785V125.31C6.45605 131.241 11.3629 136.051 17.4133 136.051H60.6408C66.6912 136.051 71.5981 131.241 71.5981 125.31V71.0588C71.5981 70.0299 71.18 69.0428 70.4418 68.3192L60.9096 58.9755C60.1672 58.2478 59.1602 57.8421 58.1149 57.8421L58.1106 57.8379Z" fill="#007FFF"/>
<mask id="mask0_222_8606" style="mask-type:luminance" maskUnits="userSpaceOnUse" x="20" y="71" width="66" height="79">
<path d="M85.3296 84.9153V139.091C85.3296 145.022 80.4227 149.832 74.3723 149.832H31.1448C25.0944 149.832 20.1875 145.022 20.1875 139.091V82.3598C20.1875 76.429 25.0944 71.6191 31.1448 71.6191H71.7695C77.0647 76.8096 80.0344 79.7206 85.3296 84.9111V84.9153Z" fill="white"/>
</mask>
<g mask="url(#mask0_222_8606)">
<path opacity="0.01" d="M58.1112 52.0664C60.7395 52.0664 63.2143 53.0702 65.0704 54.8938L74.6025 64.2375C76.4629 66.061 77.4869 68.4827 77.4869 71.0591V125.31C77.4869 134.416 69.9303 141.823 60.6414 141.823H17.4139C8.12496 141.823 0.568359 134.416 0.568359 125.31V68.5789C0.568359 59.4736 8.12496 52.0664 17.4139 52.0664H58.1112Z" fill="#FCFDFF"/>
<path opacity="0.02" d="M58.1109 52.0918C60.7351 52.0918 63.2013 53.0914 65.0531 54.9108L74.5853 64.2545C76.4413 66.0739 77.4611 68.4914 77.4611 71.0594V125.311C77.4611 134.403 69.9173 141.798 60.6412 141.798H17.4137C8.13755 141.798 0.59375 134.403 0.59375 125.311V68.5792C0.59375 59.4864 8.13755 52.0918 17.4137 52.0918H58.1109Z" fill="#FBFDFF"/>
<path opacity="0.02" d="M58.1111 52.1133C60.7267 52.1133 63.1886 53.1129 65.0362 54.9239L74.5683 64.2676C76.4202 66.0828 77.4357 68.4919 77.4357 71.0558V125.307C77.4357 134.387 69.9004 141.773 60.6371 141.773H17.4138C8.1505 141.778 0.615234 134.391 0.615234 125.311V68.5798C0.615234 59.4996 8.1505 52.1133 17.4138 52.1133H58.1111Z" fill="#FAFCFF"/>
<path opacity="0.02" d="M58.1109 52.1387C60.7222 52.1387 63.1756 53.1341 65.0232 54.9451L74.5553 64.2888C76.4029 66.0998 77.4184 68.5048 77.4184 71.0645V125.316C77.4184 134.383 69.8959 141.757 60.6454 141.757H17.4136C8.16309 141.753 0.640625 134.379 0.640625 125.311V68.5801C0.640625 59.5124 8.16309 52.1387 17.4136 52.1387H58.1109Z" fill="#F9FCFF"/>
<path opacity="0.03" d="M58.111 52.1582C60.7138 52.1582 63.163 53.1536 65.0063 54.9563L74.5384 64.3C76.3817 66.1068 77.3929 68.5034 77.3929 71.0589V125.31C77.3929 134.365 69.879 141.73 60.6413 141.73H17.4138C8.17604 141.73 0.662109 134.365 0.662109 125.31V68.5787C0.662109 59.5236 8.17604 52.1582 17.4138 52.1582H58.111Z" fill="#F8FBFF"/>
<path opacity="0.03" d="M58.1108 52.1836C60.7093 52.1836 63.15 53.1748 64.989 54.9775L74.5211 64.3212C76.3559 66.1238 77.3714 68.5162 77.3714 71.0634V125.314C77.3714 134.357 69.8703 141.71 60.6453 141.71H17.4136C8.18863 141.706 0.6875 134.353 0.6875 125.31V68.579C0.6875 59.5364 8.18863 52.1836 17.4136 52.1836H58.1108Z" fill="#F7FBFF"/>
<path opacity="0.04" d="M58.111 52.2051C60.701 52.2051 63.1416 53.1963 64.9721 54.9906L74.5042 64.3343C76.3347 66.1328 77.3459 68.521 77.3459 71.0598V125.311C77.3459 134.341 69.8533 141.685 60.6412 141.685H17.4137C8.20158 141.685 0.708984 134.341 0.708984 125.311V68.5795C0.708984 59.5495 8.20158 52.2051 17.4137 52.2051H58.111Z" fill="#F6FAFF"/>
<path opacity="0.04" d="M58.1108 52.2305C60.6965 52.2305 63.1286 53.2175 64.9548 55.0076L74.4869 64.3513C76.3132 66.1414 77.3201 68.5255 77.3201 71.0601V125.311C77.3201 134.329 69.8361 141.661 60.641 141.661H17.4135C8.21417 141.661 0.734375 134.324 0.734375 125.311V68.5798C0.734375 59.5624 8.21417 52.2305 17.4135 52.2305H58.1108Z" fill="#F5FAFF"/>
<path opacity="0.04" d="M58.1109 52.25C60.6881 52.25 63.1159 53.2329 64.9379 55.023L74.47 64.3667C76.292 66.1526 77.299 68.5324 77.299 71.0587V125.31C77.299 134.315 69.8277 141.638 60.6412 141.638H17.4137C8.22712 141.638 0.755859 134.315 0.755859 125.31V68.5785C0.755859 59.5735 8.22712 52.25 17.4137 52.25H58.1109Z" fill="#F4F9FF"/>
<path opacity="0.05" d="M58.1107 52.2754C60.6836 52.2754 63.1029 53.2583 64.9206 55.04L74.4528 64.3837C76.2704 66.1655 77.2731 68.5369 77.2731 71.059V125.31C77.2731 134.302 69.8104 141.613 60.6409 141.613H17.4134C8.23971 141.613 0.78125 134.298 0.78125 125.31V68.5788C0.78125 59.5864 8.23971 52.2754 17.4134 52.2754H58.1107Z" fill="#F3F9FF"/>
<path opacity="0.05" d="M58.1108 52.2969C60.6752 52.2969 63.0903 53.2756 64.9037 55.0573L74.4358 64.401C76.2492 66.1786 77.252 68.5459 77.252 71.0595V125.311C77.252 134.29 69.802 141.593 60.6411 141.593H17.4136C8.25266 141.593 0.802734 134.29 0.802734 125.311V68.5793C0.802734 59.5995 8.25266 52.2969 17.4136 52.2969H58.1108Z" fill="#F2F8FF"/>
<path opacity="0.05" d="M58.1106 52.3223C60.6707 52.3223 63.0773 53.301 64.8907 55.0743L74.4228 64.418C76.232 66.1914 77.2304 68.5545 77.2304 71.064V125.315C77.2304 134.282 69.789 141.572 60.6451 141.572H17.4134C8.26525 141.572 0.828125 134.278 0.828125 125.315V68.5796C0.828125 59.6124 8.26525 52.3223 17.4134 52.3223H58.1106Z" fill="#F1F8FF"/>
<path opacity="0.06" d="M58.1108 52.3438C60.6624 52.3438 63.0689 53.3183 64.8737 55.0875L74.4059 64.4312C76.2108 66.2004 77.205 68.5551 77.205 71.0604V125.312C77.205 134.266 69.7764 141.548 60.641 141.548H17.4135C8.2782 141.548 0.849609 134.266 0.849609 125.312V68.5802C0.849609 59.6255 8.2782 52.3438 17.4135 52.3438H58.1108Z" fill="#F0F7FF"/>
<path opacity="0.06" d="M58.1106 52.3672C60.6579 52.3672 63.0559 53.3417 64.8565 55.1067L74.3886 64.4504C76.1892 66.2154 77.1834 68.566 77.1834 71.0629V125.314C77.1834 134.256 69.7634 141.525 60.6451 141.525H17.4133C8.29079 141.525 0.875 134.252 0.875 125.314V68.5785C0.875 59.6364 8.29079 52.3672 17.4133 52.3672H58.1106Z" fill="#EFF7FF"/>
<path opacity="0.07" d="M58.1107 52.3887C60.6538 52.3887 63.0432 53.359 64.8396 55.1198L74.3717 64.4635C76.1681 66.2244 77.158 68.5666 77.158 71.0593V125.31C77.158 134.24 69.7507 141.501 60.641 141.501H17.4135C8.30801 141.501 0.896484 134.24 0.896484 125.31V68.5791C0.896484 59.6495 8.30374 52.3887 17.4135 52.3887H58.1107Z" fill="#EEF6FF"/>
<path opacity="0.07" d="M58.1115 52.4141C60.646 52.4141 63.0312 53.3802 64.8233 55.141L74.3554 64.4847C76.1475 66.2414 77.1374 68.5794 77.1374 71.0638V125.315C77.1374 134.232 69.7387 141.48 60.646 141.48H17.4142C8.32158 141.48 0.922852 134.228 0.922852 125.315V68.5794C0.922852 59.6623 8.31731 52.4141 17.4142 52.4141H58.1115Z" fill="#EDF6FF"/>
<path opacity="0.07" d="M58.1107 52.4355C60.6409 52.4355 63.0176 53.4017 64.8054 55.1542L74.3375 64.4979C76.1253 66.2503 77.111 68.5842 77.111 71.0602V125.311C77.111 134.216 69.7251 141.456 60.6409 141.456H17.4134C8.33355 141.456 0.943359 134.216 0.943359 125.311V68.58C0.943359 59.6754 8.32928 52.4355 17.4134 52.4355H58.1107Z" fill="#ECF5FF"/>
<path opacity="0.08" d="M58.1114 52.4609C60.6331 52.4609 63.0055 53.4229 64.7891 55.1712L74.3212 64.5149C76.1048 66.2632 77.0861 68.5886 77.0861 71.0605V125.312C77.0861 134.204 69.7087 141.431 60.6417 141.431H17.4142C8.34712 141.431 0.969727 134.199 0.969727 125.312V68.5803C0.969727 59.6883 8.34285 52.4609 17.4142 52.4609H58.1114Z" fill="#EBF5FF"/>
<path opacity="0.08" d="M58.1106 52.4805C60.6281 52.4805 62.9962 53.4424 64.7754 55.1865L74.3076 64.5302C76.0869 66.2743 77.0682 68.5956 77.0682 71.0591V125.31C77.0682 134.19 69.7037 141.409 60.6451 141.409H17.4134C8.35909 141.409 0.990234 134.19 0.990234 125.31V68.5789C0.990234 59.6995 8.35482 52.4805 17.4134 52.4805H58.1106Z" fill="#EAF4FF"/>
<path opacity="0.09" d="M58.1114 52.502C60.6203 52.502 62.9841 53.4597 64.7591 55.1997L74.2913 64.5434C76.0663 66.2833 77.0434 68.5962 77.0434 71.0597V125.311C77.0434 134.174 69.6874 141.384 60.6459 141.384H17.4141C8.37266 141.384 1.0166 134.174 1.0166 125.311V68.5795C1.01234 59.7126 8.36839 52.502 17.4141 52.502H58.1114Z" fill="#E9F4FF"/>
<path opacity="0.09" d="M58.1115 52.5273C60.6162 52.5273 62.9715 53.4851 64.7422 55.2209L74.2744 64.5646C76.0451 66.3003 77.0222 68.609 77.0222 71.0642V125.315C77.0222 134.165 69.679 141.368 60.646 141.368H17.4143C8.38561 141.368 1.03809 134.17 1.03809 125.315V68.5798C1.03809 59.7254 8.38134 52.5273 17.4143 52.5273H58.1115Z" fill="#E8F3FF"/>
<path opacity="0.09" d="M58.1113 52.5488C60.6074 52.5488 62.9585 53.5024 64.7249 55.234L74.2571 64.5777C76.0236 66.3092 76.9964 68.6138 76.9964 71.0605V125.312C76.9964 134.149 69.6617 141.343 60.6416 141.343H17.4141C8.3982 141.343 1.06348 134.153 1.06348 125.312V68.5803C1.05921 59.7385 8.39393 52.5488 17.4141 52.5488H58.1113Z" fill="#E7F3FF"/>
<path opacity="0.1" d="M58.1115 52.5723C60.6033 52.5723 62.9458 53.5259 64.708 55.2491L74.2402 64.5928C76.0024 66.3201 76.971 68.6163 76.971 71.0589V125.31C76.971 134.135 69.6448 141.316 60.6417 141.316H17.4142C8.41115 141.316 1.08496 134.135 1.08496 125.31V68.5787C1.08496 59.7494 8.40688 52.5723 17.4142 52.5723H58.1115Z" fill="#E6F2FF"/>
<path opacity="0.1" d="M58.1106 52.5938C60.5939 52.5938 62.9322 53.5432 64.6901 55.2664L74.2223 64.6101C75.9802 66.3332 76.9488 68.6252 76.9488 71.0595V125.311C76.9488 134.123 69.6354 141.296 60.6409 141.296H17.4134C8.42312 141.296 1.10547 134.127 1.10547 125.311V68.5792C1.10547 59.7625 8.41886 52.5938 17.4134 52.5938H58.1106Z" fill="#E5F2FF"/>
<path opacity="0.11" d="M58.1114 52.6191C60.5905 52.6191 62.9244 53.5644 64.6738 55.2834L74.206 64.6271C75.9597 66.3461 76.924 68.6297 76.924 71.0598V125.311C76.924 134.111 69.6191 141.271 60.6416 141.271H17.4142C8.43669 141.271 1.13184 134.111 1.13184 125.311V68.5795C1.13184 59.7754 8.43242 52.6191 17.4142 52.6191H58.1114Z" fill="#E4F1FF"/>
<path opacity="0.11" d="M58.1106 52.6406C60.5811 52.6406 62.9108 53.5859 64.6559 55.3007L74.1881 64.6444C75.9375 66.3592 76.9018 68.6387 76.9018 71.0603V125.311C76.9018 134.099 69.6097 141.251 60.6408 141.251H17.4133C8.44866 141.251 1.15234 134.103 1.15234 125.311V68.5801C1.15234 59.7885 8.4444 52.6406 17.4133 52.6406H58.1106Z" fill="#E3F1FF"/>
<path opacity="0.11" d="M58.1113 52.6641C60.5776 52.6641 62.8988 53.6051 64.6439 55.3158L74.176 64.6595C75.9212 66.3701 76.8812 68.6454 76.8812 71.0629V125.314C76.8812 134.089 69.5977 141.228 60.6459 141.228H17.4141C8.46223 141.228 1.17871 134.089 1.17871 125.314V68.5784C1.17871 59.8036 8.45796 52.6641 17.4141 52.6641H58.1113Z" fill="#E2F0FF"/>
<path opacity="0.12" d="M58.1115 52.6855C60.5692 52.6855 62.8861 53.6266 64.627 55.3289L74.1591 64.6726C75.9 66.379 76.8558 68.6459 76.8558 71.0592V125.31C76.8558 134.073 69.5851 141.204 60.6417 141.204H17.4142C8.47518 141.204 1.2002 134.077 1.2002 125.31V68.579C1.2002 59.8167 8.47518 52.6855 17.4142 52.6855H58.1115Z" fill="#E1F0FF"/>
<path opacity="0.12" d="M58.1113 52.7109C60.5647 52.7109 62.8731 53.6478 64.6097 55.3501L74.1419 64.6938C75.8785 66.3961 76.8342 68.6588 76.8342 71.0637V125.315C76.8342 134.065 69.5721 141.183 60.6458 141.183H17.414C8.48777 141.183 1.22559 134.065 1.22559 125.315V68.5793C1.22559 59.8295 8.48777 52.7109 17.414 52.7109H58.1113Z" fill="#E0EFFF"/>
<path opacity="0.13" d="M58.1114 52.7324C60.5606 52.7324 62.8604 53.6693 64.5928 55.3632L74.1249 64.7069C75.8573 66.405 76.8088 68.6594 76.8088 71.0601V125.311C76.8088 134.048 69.5594 141.159 60.6417 141.159H17.4142C8.50072 141.159 1.24707 134.053 1.24707 125.311V68.5799C1.24707 59.8427 8.50072 52.7324 17.4142 52.7324H58.1114Z" fill="#DFEFFF"/>
<path opacity="0.13" d="M58.1112 52.7578C60.5519 52.7578 62.8517 53.6905 64.5755 55.3844L74.1077 64.7281C75.8357 66.422 76.7872 68.6722 76.7872 71.0646V125.316C76.7872 134.04 69.5464 141.138 60.6457 141.138H17.414C8.51331 141.138 1.27246 134.04 1.27246 125.316V68.5802C1.27246 59.8555 8.51331 52.7578 17.414 52.7578H58.1112Z" fill="#DEEEFF"/>
<path opacity="0.13" d="M58.1114 52.7773C60.5477 52.7773 62.839 53.7059 64.5586 55.3956L74.0907 64.7393C75.8103 66.429 76.7618 68.675 76.7618 71.059V125.31C76.7618 134.022 69.5337 141.112 60.6416 141.112H17.4141C8.52626 141.112 1.29395 134.026 1.29395 125.31V68.5788C1.29395 59.8667 8.52626 52.7773 17.4141 52.7773H58.1114Z" fill="#DDEEFF"/>
<path opacity="0.14" d="M58.1112 52.8027C60.539 52.8027 62.826 53.7312 64.5413 55.4126L74.0735 64.7563C75.7887 66.4377 76.736 68.6795 76.736 71.0593V125.31C76.736 134.01 69.5165 141.087 60.6414 141.087H17.4139C8.53885 141.087 1.31934 134.01 1.31934 125.31V68.5791C1.31934 59.8795 8.53885 52.8027 17.4139 52.8027H58.1112Z" fill="#DCEDFF"/>
<path opacity="0.14" d="M58.1113 52.8242C60.5349 52.8242 62.8134 53.7485 64.5244 55.4299L74.0565 64.7736C75.7676 66.4508 76.7148 68.6884 76.7148 71.0599V125.311C76.7148 133.998 69.5081 141.066 60.6416 141.066H17.4141C8.5518 141.066 1.34082 134.002 1.34082 125.311V68.5797C1.34082 59.8926 8.5518 52.8242 17.4141 52.8242H58.1113Z" fill="#DBEDFF"/>
<path opacity="0.15" d="M58.1111 52.8496C60.5261 52.8496 62.8004 53.7739 64.5114 55.4469L74.0435 64.7906C75.7503 66.4636 76.6933 68.6929 76.6933 71.0644V125.315C76.6933 133.99 69.4951 141.046 60.6456 141.046H17.4138C8.56439 141.046 1.36621 133.99 1.36621 125.315V68.58C1.36621 59.9055 8.56439 52.8496 17.4138 52.8496H58.1111Z" fill="#DAECFF"/>
<path opacity="0.15" d="M58.1113 52.8691C60.522 52.8691 62.7877 53.7893 64.4945 55.4623L74.0266 64.806C75.7291 66.4748 76.6721 68.6999 76.6721 71.063V125.314C76.6721 133.976 69.4824 141.024 60.6458 141.024H17.414C8.57734 141.024 1.3877 133.976 1.3877 125.314V68.5786C1.3877 59.9166 8.57734 52.8691 17.414 52.8691H58.1113Z" fill="#D9ECFF"/>
<path opacity="0.15" d="M58.111 52.8945C60.5133 52.8945 62.779 53.8147 64.4772 55.4793L74.0093 64.823C75.7076 66.4876 76.6463 68.7085 76.6463 71.0633V125.314C76.6463 133.964 69.4694 140.999 60.6456 140.999H17.4138C8.58993 140.999 1.41309 133.964 1.41309 125.314V68.5789C1.41309 59.9295 8.58993 52.8945 17.4138 52.8945H58.111Z" fill="#D8EBFF"/>
<path opacity="0.16" d="M58.1112 52.916C60.5092 52.916 62.7663 53.832 64.4603 55.4924L73.9924 64.8361C75.6864 66.4966 76.6208 68.7091 76.6208 71.0597V125.311C76.6208 133.948 69.4525 140.974 60.6414 140.974H17.4139C8.60289 140.974 1.43457 133.948 1.43457 125.311V68.5795C1.43457 59.9426 8.60289 52.916 17.4139 52.916H58.1112Z" fill="#D7EBFF"/>
<path opacity="0.16" d="M58.111 52.9414C60.5004 52.9414 62.7533 53.8574 64.443 55.5136L73.9751 64.8573C75.6648 66.5136 76.5993 68.722 76.5993 71.0641V125.315C76.5993 133.94 69.4438 140.954 60.6455 140.954H17.4137C8.61548 140.954 1.45996 133.94 1.45996 125.315V68.5797C1.4557 59.9554 8.61548 52.9414 17.4137 52.9414H58.111Z" fill="#D6EAFF"/>
<path opacity="0.16" d="M58.1111 52.9629C60.4963 52.9629 62.7407 53.8747 64.4261 55.5268L73.9582 64.8704C75.6436 66.5225 76.5738 68.7225 76.5738 71.0605V125.312C76.5738 133.923 69.4268 140.929 60.6414 140.929H17.4139C8.62843 140.929 1.48145 133.923 1.48145 125.312V68.5803C1.48145 59.9686 8.62843 52.9629 17.4139 52.9629H58.1111Z" fill="#D5EAFF"/>
<path opacity="0.17" d="M58.1109 52.9824C60.4876 52.9824 62.7277 53.89 64.4088 55.5379L73.9409 64.8816C75.6221 66.5295 76.5523 68.7253 76.5523 71.055V125.306C76.5523 133.905 69.4181 140.898 60.6454 140.898H17.4137C8.64102 140.898 1.50684 133.905 1.50684 125.306V68.5789C1.50257 59.9797 8.64102 52.9824 17.4137 52.9824H58.1109Z" fill="#D4E9FF"/>
<path opacity="0.17" d="M58.1111 53.0078C60.4834 53.0078 62.715 53.9154 64.3919 55.5591L73.924 64.9028C75.6009 66.5465 76.5268 68.7382 76.5268 71.0595V125.311C76.5268 133.897 69.4012 140.882 60.6413 140.882H17.4138C8.65397 140.882 1.52832 133.897 1.52832 125.311V68.5792C1.52832 59.9926 8.65397 53.0078 17.4138 53.0078H58.1111Z" fill="#D3E9FF"/>
<path opacity="0.18" d="M58.1109 53.0293C60.4747 53.0293 62.7063 53.9327 64.3789 55.5723L73.911 64.9159C75.5836 66.5555 76.5053 68.7387 76.5053 71.06V125.311C76.5053 133.885 69.3924 140.862 60.6411 140.862H17.4136C8.66656 140.862 1.55371 133.889 1.55371 125.311V68.5798C1.54945 60.0057 8.66656 53.0293 17.4136 53.0293H58.1109Z" fill="#D2E8FF"/>
<path opacity="0.18" d="M58.111 53.0547C60.4706 53.0547 62.6936 53.9581 64.3619 55.5935L73.8941 64.9372C75.5624 66.5725 76.4841 68.7516 76.4841 71.0645V125.316C76.4841 133.877 69.3798 140.841 60.6455 140.841H17.4138C8.67951 140.841 1.5752 133.877 1.5752 125.316V68.5801C1.5752 60.0185 8.67951 53.0547 17.4138 53.0547H58.111Z" fill="#D1E8FF"/>
<path opacity="0.18" d="M58.1112 53.0742C60.4622 53.0742 62.681 53.9735 64.345 55.6046L73.8772 64.9483C75.5413 66.5795 76.4586 68.7502 76.4586 71.0589V125.31C76.4586 133.859 69.3671 140.815 60.6414 140.815H17.4139C8.69246 140.815 1.59668 133.863 1.59668 125.31V68.5787C1.59668 60.0297 8.69246 53.0742 17.4139 53.0742H58.1112Z" fill="#D0E7FF"/>
<path opacity="0.19" d="M58.111 53.0996C60.4577 53.0996 62.6679 53.9988 64.3278 55.6217L73.8599 64.9653C75.5197 66.5923 76.4328 68.7589 76.4328 71.0592V125.31C76.4328 133.847 69.3498 140.79 60.6412 140.79H17.4137C8.70505 140.79 1.62207 133.847 1.62207 125.31V68.579C1.62207 60.0425 8.70505 53.0996 17.4137 53.0996H58.111Z" fill="#CFE7FF"/>
<path opacity="0.19" d="M58.1111 53.1211C60.4536 53.1211 62.6553 54.0161 64.3108 55.639L73.843 64.9826C75.4985 66.6055 76.4116 68.7678 76.4116 71.0598V125.311C76.4116 133.835 69.3415 140.769 60.6413 140.769H17.4138C8.718 140.769 1.64355 133.839 1.64355 125.311V68.5796C1.64355 60.0557 8.718 53.1211 17.4138 53.1211H58.1111Z" fill="#CEE6FF"/>
<path opacity="0.2" d="M58.1109 53.1465C60.4449 53.1465 62.6423 54.0374 64.2936 55.656L73.8257 64.9997C75.477 66.6183 76.3858 68.7723 76.3858 71.0601V125.311C76.3858 133.823 69.3242 140.745 60.6411 140.745H17.4136C8.73059 140.745 1.66895 133.823 1.66895 125.311V68.5799C1.66895 60.0685 8.73059 53.1465 17.4136 53.1465H58.1109Z" fill="#CDE6FF"/>
<path opacity="0.2" d="M58.111 53.166C60.4407 53.166 62.6339 54.0569 64.2766 55.6713L73.8088 65.015C75.4558 66.6295 76.3646 68.7793 76.3646 71.0587V125.31C76.3646 133.809 69.3158 140.722 60.6413 140.722H17.4138C8.74354 140.722 1.69043 133.813 1.69043 125.31V68.5785C1.69043 60.0797 8.74354 53.166 17.4138 53.166H58.111Z" fill="#CCE5FF"/>
<path opacity="0.2" d="M58.1108 53.1914C60.432 53.1914 62.6209 54.0781 64.2594 55.6884L73.7915 65.032C75.4343 66.6423 76.3388 68.7837 76.3388 71.059V125.31C76.3388 133.796 69.2985 140.698 60.6411 140.698H17.4136C8.75613 140.698 1.71582 133.796 1.71582 125.31V68.5788C1.71582 60.0925 8.75613 53.1914 17.4136 53.1914H58.1108Z" fill="#CBE5FF"/>
<path opacity="0.21" d="M58.111 53.2129C60.4279 53.2129 62.6082 54.0996 64.2467 55.7015L73.7789 65.0452C75.4173 66.6512 76.3176 68.7885 76.3176 71.0596V125.311C76.3176 133.784 69.2859 140.677 60.6412 140.677H17.4137C8.76908 140.677 1.7373 133.784 1.7373 125.311V68.5794C1.7373 60.1056 8.76908 53.2129 17.4137 53.2129H58.111Z" fill="#CAE4FF"/>
<path opacity="0.21" d="M58.1108 53.2383C60.4191 53.2383 62.5952 54.1208 64.2294 55.7227L73.7616 65.0664C75.3958 66.6683 76.2961 68.8013 76.2961 71.0641V125.315C76.2961 133.776 69.2771 140.657 60.6453 140.657H17.4135C8.78167 140.657 1.7627 133.776 1.7627 125.315V68.5797C1.7627 60.1185 8.78167 53.2383 17.4135 53.2383H58.1108Z" fill="#C9E4FF"/>
<path opacity="0.22" d="M58.1109 53.2598C60.415 53.2598 62.5826 54.1423 64.2125 55.7358L73.7447 65.0795C75.3746 66.6772 76.2707 68.8019 76.2707 71.0605V125.312C76.2707 133.76 69.2602 140.632 60.6412 140.632H17.4137C8.79462 140.632 1.78418 133.76 1.78418 125.312V68.5802C1.78418 60.1316 8.79462 53.2598 17.4137 53.2598H58.1109Z" fill="#C8E3FF"/>
<path opacity="0.22" d="M58.1107 53.2832C60.4063 53.2832 62.5696 54.1615 64.1952 55.7551L73.7274 65.0987C75.3531 66.6923 76.2491 68.8128 76.2491 71.063V125.314C76.2491 133.75 69.2515 140.609 60.6452 140.609H17.4135C8.80721 140.609 1.80957 133.75 1.80957 125.314V68.5786C1.80957 60.1425 8.80721 53.2832 17.4135 53.2832H58.1107Z" fill="#C7E3FF"/>
<path opacity="0.22" d="M58.1109 53.3047C60.4022 53.3047 62.5612 54.1788 64.1783 55.7682L73.7105 65.1119C75.3319 66.7012 76.2237 68.8134 76.2237 71.0594V125.31C76.2237 133.734 69.2346 140.585 60.6411 140.585H17.4136C8.82016 140.585 1.83105 133.734 1.83105 125.31V68.5792C1.83105 60.1556 8.82016 53.3047 17.4136 53.3047H58.1109Z" fill="#C6E2FF"/>
<path opacity="0.23" d="M58.1107 53.3301C60.3934 53.3301 62.5482 54.2042 64.161 55.7852L73.6932 65.1289C75.3103 66.7141 76.1978 68.822 76.1978 71.0597V125.311C76.1978 133.722 69.2215 140.56 60.6409 140.56H17.4134C8.83275 140.56 1.85645 133.722 1.85645 125.311V68.5794C1.85645 60.1685 8.83275 53.3301 17.4134 53.3301H58.1107Z" fill="#C5E2FF"/>
<path opacity="0.23" d="M58.1108 53.3516C60.3893 53.3516 62.5355 54.2215 64.1441 55.8025L73.6763 65.1462C75.2849 66.7272 76.1767 68.831 76.1767 71.0602V125.311C76.1767 133.71 69.2089 140.54 60.641 140.54H17.4135C8.8457 140.54 1.87793 133.71 1.87793 125.311V68.58C1.87793 60.1816 8.8457 53.3516 17.4135 53.3516H58.1108Z" fill="#C4E1FF"/>
<path opacity="0.24" d="M58.1106 53.377C60.3806 53.377 62.5225 54.2469 64.1269 55.8195L73.659 65.1632C75.2633 66.74 76.1508 68.8354 76.1508 71.0605V125.312C76.1508 133.698 69.1959 140.515 60.6408 140.515H17.4133C8.85829 140.515 1.90332 133.698 1.90332 125.312V68.5803C1.90332 60.1944 8.85829 53.377 17.4133 53.377H58.1106Z" fill="#C3E1FF"/>
<path opacity="0.24" d="M58.1107 53.3965C60.3764 53.3965 62.5099 54.2623 64.1142 55.8349L73.6463 65.1786C75.2464 66.747 76.1339 68.8424 76.1339 71.0633V125.314C76.1339 133.688 69.1875 140.497 60.6453 140.497H17.4135C8.87124 140.497 1.9248 133.688 1.9248 125.314V68.5789C1.9248 60.2056 8.87124 53.3965 17.4135 53.3965H58.1107Z" fill="#C2E0FF"/>
<path opacity="0.24" d="M58.1115 53.418C60.3687 53.418 62.4978 54.2837 64.0979 55.848L73.6301 65.1917C75.2259 66.7559 76.1091 68.843 76.1091 71.0597V125.311C76.1091 133.672 69.1755 140.468 60.646 140.468H17.4143C8.88481 140.468 1.95117 133.672 1.95117 125.311V68.5795C1.94691 60.2187 8.88481 53.418 17.4143 53.418H58.1115Z" fill="#C1E0FF"/>
<path opacity="0.25" d="M58.1107 53.4434C60.3636 53.4434 62.4885 54.305 64.08 55.865L73.6122 65.2087C75.2037 66.7688 76.0827 68.8517 76.0827 71.06V125.311C76.0827 133.659 69.1576 140.448 60.6409 140.448H17.4134C8.89678 140.448 1.97168 133.659 1.97168 125.311V68.5798C1.97168 60.2315 8.89678 53.4434 17.4134 53.4434H58.1107Z" fill="#C0DFFF"/>
<path opacity="0.25" d="M58.1114 53.4648C60.3558 53.4648 62.4764 54.3264 64.0637 55.8823L73.5959 65.226C75.1831 66.7819 76.0621 68.8606 76.0621 71.0606V125.312C76.0621 133.647 69.1498 140.423 60.646 140.423H17.4142C8.91035 140.423 1.99805 133.647 1.99805 125.312V68.5804C1.99378 60.2447 8.91035 53.4648 17.4142 53.4648H58.1114Z" fill="#BFDFFF"/>
<path opacity="0.25" d="M58.1106 53.4883C60.3507 53.4883 62.4628 54.3457 64.0458 55.8974L73.578 65.2411C75.161 66.7928 76.0357 68.8631 76.0357 71.0589V125.31C76.0357 133.633 69.1319 140.4 60.6409 140.4H17.4134C8.92232 140.4 2.01855 133.633 2.01855 125.31V68.5787C2.01855 60.2556 8.92232 53.4883 17.4134 53.4883H58.1106Z" fill="#BEDEFF"/>
<path opacity="0.26" d="M58.1114 53.5098C60.3472 53.5098 62.4508 54.363 64.0295 55.9147L73.5617 65.2584C75.1404 66.8059 76.0151 68.8721 76.0151 71.0595V125.311C76.0151 133.621 69.1241 140.38 60.6416 140.38H17.4141C8.93589 140.38 2.04492 133.625 2.04492 125.311V68.5793C2.04066 60.2687 8.93589 53.5098 17.4141 53.5098H58.1114Z" fill="#BDDEFF"/>
<path opacity="0.26" d="M58.1115 53.5352C60.3388 53.5352 62.4381 54.3884 64.0126 55.9317L73.5447 65.2754C75.1192 66.8188 75.9896 68.8765 75.9896 71.0598V125.311C75.9896 133.609 69.1072 140.355 60.6418 140.355H17.4143C8.94884 140.355 2.06641 133.609 2.06641 125.311V68.5796C2.06641 60.2815 8.94884 53.5352 17.4143 53.5352H58.1115Z" fill="#BCDDFF"/>
<path opacity="0.27" d="M58.1107 53.5566C60.3337 53.5566 62.4245 54.4057 63.999 55.9448L73.5311 65.2885C75.1013 66.8277 75.9675 68.8813 75.9675 71.0604V125.311C75.9675 133.597 69.0936 140.335 60.6409 140.335H17.4135C8.96081 140.335 2.08691 133.597 2.08691 125.311V68.5802C2.08691 60.2946 8.96081 53.5566 17.4135 53.5566H58.1107Z" fill="#BBDDFF"/>
<path opacity="0.27" d="M58.1115 53.5801C60.326 53.5801 62.4167 54.4291 63.9827 55.9641L73.5148 65.3078C75.0808 66.8428 75.9469 68.888 75.9469 71.0629V125.314C75.9469 133.587 69.0858 140.312 60.646 140.312H17.4142C8.97438 140.312 2.11328 133.587 2.11328 125.314V68.5785C2.11328 60.3055 8.97438 53.5801 17.4142 53.5801H58.1115Z" fill="#BADCFF"/>
<path opacity="0.27" d="M58.1106 53.6016C60.3209 53.6016 62.4031 54.4464 63.9648 55.9772L73.4969 65.3209C75.0586 66.8517 75.9205 68.8928 75.9205 71.0593V125.31C75.9205 133.571 69.0679 140.288 60.6409 140.288H17.4134C8.98635 140.288 2.13379 133.571 2.13379 125.31V68.5791C2.13379 60.3186 8.98635 53.6016 17.4134 53.6016H58.1106Z" fill="#B9DCFF"/>
<path opacity="0.28" d="M58.1114 53.627C60.3131 53.627 62.3911 54.4718 63.9485 55.9984L73.4806 65.3421C75.038 66.8687 75.8999 68.9056 75.8999 71.0638V125.315C75.8999 133.563 69.0602 140.267 60.6459 140.267H17.4142C8.99992 140.267 2.16016 133.563 2.16016 125.315V68.5794C2.16016 60.3315 8.99992 53.627 17.4142 53.627H58.1114Z" fill="#B8DBFF"/>
<path opacity="0.28" d="M58.1106 53.6484C60.308 53.6484 62.3774 54.4891 63.9306 56.0115L73.4627 65.3552C75.0159 66.8777 75.8735 68.9062 75.8735 71.0602V125.311C75.8735 133.547 69.0423 140.243 60.6408 140.243H17.4133C9.0119 140.243 2.18066 133.547 2.18066 125.311V68.5799C2.18066 60.3446 9.0119 53.6484 17.4133 53.6484H58.1106Z" fill="#B7DBFF"/>
<path opacity="0.29" d="M58.1114 53.6738C60.3003 53.6738 62.3654 54.5103 63.9143 56.0286L73.4464 65.3723C74.9953 66.8905 75.8487 68.9148 75.8487 71.0605V125.312C75.8487 133.534 69.0302 140.218 60.6416 140.218H17.4141C9.02546 140.218 2.20703 133.534 2.20703 125.312V68.5802C2.20703 60.3575 9.02546 53.6738 17.4141 53.6738H58.1114Z" fill="#B6DAFF"/>
<path opacity="0.29" d="M58.1115 53.6934C60.2961 53.6934 62.3528 54.5299 63.8974 56.0439L73.4295 65.3876C74.9741 66.9017 75.8275 68.9176 75.8275 71.0591V125.31C75.8275 133.52 69.0176 140.196 60.6417 140.196H17.4142C9.03841 140.196 2.22852 133.52 2.22852 125.31V68.5789C2.22852 60.3686 9.03841 53.6934 17.4142 53.6934H58.1115Z" fill="#B5DAFF"/>
<path opacity="0.29" d="M58.1113 53.7188C60.2874 53.7188 62.344 54.5511 63.8801 56.0609L73.4122 65.4046C74.9526 66.9145 75.8017 68.9263 75.8017 71.0594V125.31C75.8017 133.508 69.0046 140.171 60.6415 140.171H17.414C9.051 140.171 2.25391 133.508 2.25391 125.31V68.5791C2.25391 60.3815 9.051 53.7188 17.414 53.7188H58.1113Z" fill="#B4D9FF"/>
<path opacity="0.3" d="M58.1114 53.7402C60.2833 53.7402 62.3314 54.5726 63.8674 56.0782L73.3996 65.4219C74.9356 66.9276 75.7848 68.9352 75.7848 71.0641V125.315C75.7848 133.5 68.9962 140.155 60.646 140.155H17.4142C9.06396 140.155 2.27539 133.5 2.27539 125.315V68.5797C2.27539 60.3946 9.06396 53.7402 17.4142 53.7402H58.1114Z" fill="#B3D9FF"/>
<path opacity="0.3" d="M58.1112 53.7656C60.2745 53.7656 62.3183 54.5938 63.8502 56.0953L73.3823 65.439C74.9141 66.9405 75.7589 68.9397 75.7589 71.0644V125.316C75.7589 133.488 68.9832 140.13 60.6457 140.13H17.414C9.07654 140.13 2.30078 133.488 2.30078 125.316V68.58C2.30078 60.4074 9.07654 53.7656 17.414 53.7656H58.1112Z" fill="#B2D8FF"/>
<path opacity="0.31" d="M58.1114 53.7852C60.2704 53.7852 62.3057 54.6133 63.8332 56.1064L73.3654 65.4501C74.8929 66.9475 75.7335 68.9425 75.7335 71.0589V125.31C75.7335 133.47 68.9663 140.103 60.6416 140.103H17.4141C9.0895 140.103 2.32227 133.47 2.32227 125.31V68.5786C2.32227 60.4186 9.0895 53.7852 17.4141 53.7852H58.1114Z" fill="#B1D8FF"/>
<path opacity="0.31" d="M58.1112 53.8105C60.2617 53.8105 62.2927 54.6345 63.816 56.1276L73.3481 65.4713C74.8714 66.9645 75.7119 68.9512 75.7119 71.0633V125.314C75.7119 133.462 68.9575 140.083 60.6457 140.083H17.4139C9.10209 140.083 2.34766 133.462 2.34766 125.314V68.5789C2.34766 60.4314 9.10209 53.8105 17.4139 53.8105H58.1112Z" fill="#B0D7FF"/>
<path opacity="0.31" d="M58.1113 53.832C60.2575 53.832 62.28 54.6518 63.799 56.1408L73.3312 65.4845C74.8502 66.9734 75.6865 68.9559 75.6865 71.0597V125.311C75.6865 133.446 68.9406 140.058 60.6416 140.058H17.4141C9.11504 140.058 2.36914 133.446 2.36914 125.311V68.5795C2.36914 60.4446 9.11504 53.832 17.4141 53.832H58.1113Z" fill="#AFD7FF"/>
<path opacity="0.32" d="M58.1111 53.8574C60.2531 53.8574 62.2713 54.6772 63.7818 56.162L73.3139 65.5057C74.8286 66.9905 75.6649 68.9688 75.6649 71.0642V125.315C75.6649 133.438 68.9276 140.038 60.6456 140.038H17.4139C9.12763 140.038 2.39453 133.434 2.39453 125.315V68.5798C2.39453 60.4574 9.12763 53.8574 17.4139 53.8574H58.1111Z" fill="#AED6FF"/>
<path opacity="0.32" d="M58.1113 53.8789C60.2447 53.8789 62.2586 54.6945 63.7648 56.1751L73.297 65.5188C74.8075 66.9994 75.6395 68.9693 75.6395 71.0606V125.312C75.6395 133.422 68.9149 140.013 60.6415 140.013H17.414C9.14058 140.013 2.41602 133.422 2.41602 125.312V68.5804C2.41602 60.4705 9.14058 53.8789 17.414 53.8789H58.1113Z" fill="#ADD6FF"/>
<path opacity="0.33" d="M58.111 53.8984C60.2402 53.8984 62.2456 54.714 63.7476 56.1863L73.2797 65.53C74.7859 67.0064 75.6137 68.9721 75.6137 71.055V125.306C75.6137 133.403 68.8977 139.983 60.6413 139.983H17.4138C9.15317 139.983 2.44141 133.399 2.44141 125.306V68.579C2.43714 60.4817 9.15317 53.8984 17.4138 53.8984H58.111Z" fill="#ACD5FF"/>
<path opacity="0.33" d="M58.1112 53.9238C60.2318 53.9238 62.233 54.7352 63.7349 56.2075L73.2671 65.5512C74.769 67.0234 75.5968 68.9808 75.5968 71.0637V125.315C75.5968 133.4 68.8935 139.97 60.6457 139.97H17.4139C9.16612 139.97 2.46289 133.4 2.46289 125.315V68.5793C2.46289 60.4945 9.16612 53.9238 17.4139 53.9238H58.1112Z" fill="#ABD5FF"/>
<path opacity="0.33" d="M58.111 53.9453C60.2274 53.9453 62.22 54.7567 63.7176 56.2206L73.2498 65.5643C74.7432 67.0323 75.571 68.9856 75.571 71.0601V125.311C75.571 133.383 68.8763 139.942 60.6455 139.942H17.4137C9.17871 139.942 2.48828 133.379 2.48828 125.311V68.5799C2.48402 60.5076 9.17871 53.9453 17.4137 53.9453H58.111Z" fill="#AAD4FF"/>
<path opacity="0.34" d="M58.1111 53.9707C60.219 53.9707 62.2073 54.7779 63.7007 56.2418L73.2329 65.5855C74.722 67.0452 75.5498 68.9984 75.5498 71.0646V125.316C75.5498 133.375 68.8679 139.925 60.6456 139.925H17.4139C9.19166 139.925 2.50977 133.375 2.50977 125.316V68.5802C2.50977 60.5205 9.19166 53.9707 17.4139 53.9707H58.1111Z" fill="#A9D4FF"/>
<path opacity="0.34" d="M58.1109 53.9902C60.2145 53.9902 62.1986 54.7975 63.6834 56.253L73.2156 65.5967C74.7005 67.0522 75.524 68.997 75.524 71.059V125.31C75.524 133.357 68.8506 139.899 60.6412 139.899H17.4137C9.20425 139.899 2.53516 133.357 2.53516 125.31V68.5788C2.53089 60.5317 9.20425 53.9902 17.4137 53.9902H58.1109Z" fill="#A8D3FF"/>
<path opacity="0.35" d="M58.1111 54.0156C60.2061 54.0156 62.1859 54.8187 63.6665 56.27L73.1987 65.6137C74.6793 67.065 75.4985 69.0057 75.4985 71.0593V125.31C75.4985 133.345 68.8379 139.874 60.6413 139.874H17.4138C9.2172 139.874 2.55664 133.345 2.55664 125.31V68.5791C2.55664 60.5445 9.2172 54.0156 17.4138 54.0156H58.1111Z" fill="#A7D3FF"/>
<path opacity="0.35" d="M58.1112 54.0371C60.202 54.0371 62.1733 54.836 63.6496 56.2873L73.1818 65.631C74.6581 67.0781 75.4773 69.0104 75.4773 71.0599V125.311C75.4773 133.333 68.8253 139.854 60.6415 139.854H17.414C9.23015 139.854 2.57812 133.333 2.57812 125.311V68.5796C2.57813 60.5576 9.23015 54.0371 17.414 54.0371H58.1112Z" fill="#A6D2FF"/>
<path opacity="0.35" d="M58.111 54.0625C60.1933 54.0625 62.1603 54.8614 63.6323 56.3043L73.1645 65.648C74.6366 67.091 75.4515 69.0191 75.4515 71.0602V125.311C75.4515 133.321 68.8123 139.829 60.6413 139.829H17.4138C9.24274 139.829 2.60352 133.321 2.60352 125.311V68.5799C2.60352 60.5705 9.24274 54.0625 17.4138 54.0625H58.111Z" fill="#A5D2FF"/>
<path opacity="0.36" d="M58.1112 54.082C60.1891 54.082 62.1476 54.8767 63.6154 56.3197L73.1476 65.6634C74.6154 67.1021 75.4303 69.0261 75.4303 71.0588V125.31C75.4303 133.307 68.7996 139.806 60.6414 139.806H17.4139C9.25569 139.806 2.625 133.307 2.625 125.31V68.5786C2.625 60.5816 9.25569 54.082 17.4139 54.082H58.1112Z" fill="#A4D1FF"/>
<path opacity="0.36" d="M58.111 54.1074C60.1804 54.1074 62.1346 54.9021 63.6024 56.3367L73.1345 65.6804C74.5981 67.115 75.4088 69.0306 75.4088 71.0633V125.314C75.4088 133.299 68.7909 139.786 60.6455 139.786H17.4137C9.26828 139.786 2.65039 133.299 2.65039 125.314V68.5788C2.65039 60.5945 9.26828 54.1074 17.4137 54.1074H58.111Z" fill="#A3D1FF"/>
<path opacity="0.36" d="M58.1111 54.1289C60.1763 54.1289 62.1262 54.9194 63.5855 56.3498L73.1176 65.6935C74.5769 67.1239 75.3833 69.0353 75.3833 71.0596V125.311C75.3833 133.283 68.774 139.761 60.6413 139.761H17.4139C9.28123 139.761 2.67188 133.283 2.67188 125.311V68.5794C2.67187 60.6076 9.28123 54.1289 17.4139 54.1289H58.1111Z" fill="#A2D0FF"/>
<path opacity="0.37" d="M58.1109 54.1543C60.1675 54.1543 62.1132 54.9448 63.5682 56.371L73.1004 65.7147C74.5554 67.1409 75.3618 69.044 75.3618 71.0641V125.315C75.3618 133.275 68.7652 139.741 60.6454 139.741H17.4136C9.29382 139.741 2.69727 133.275 2.69727 125.315V68.5797C2.69727 60.6204 9.29382 54.1543 17.4136 54.1543H58.1109Z" fill="#A1D0FF"/>
<path opacity="0.37" d="M58.111 54.1758C60.1634 54.1758 62.1006 54.9621 63.5513 56.3841L73.0834 65.7278C74.5342 67.1499 75.3363 69.0487 75.3363 71.0605V125.312C75.3363 133.258 68.7483 139.716 60.6413 139.716H17.4138C9.30677 139.716 2.71875 133.258 2.71875 125.312V68.5803C2.71875 60.6336 9.30677 54.1758 17.4138 54.1758H58.111Z" fill="#A0CFFF"/>
<path opacity="0.38" d="M58.1108 54.1992C60.1547 54.1992 62.0876 54.9813 63.534 56.3992L73.0662 65.7429C74.5126 67.1608 75.3105 69.0554 75.3105 71.0588V125.31C75.3105 133.244 68.731 139.689 60.6411 139.689H17.4136C9.31936 139.689 2.74414 133.24 2.74414 125.31V68.5786C2.74414 60.6444 9.31936 54.1992 17.4136 54.1992H58.1108Z" fill="#9FCFFF"/>
<path opacity="0.38" d="M58.111 54.2207C60.1506 54.2207 62.0749 55.0028 63.5171 56.4165L73.0492 65.7602C74.4914 67.1739 75.2893 69.0602 75.2893 71.0594V125.311C75.2893 133.232 68.7227 139.669 60.6412 139.669H17.4137C9.33231 139.669 2.76562 133.232 2.76562 125.311V68.5792C2.76562 60.6576 9.33231 54.2207 17.4137 54.2207H58.111Z" fill="#9ECEFF"/>
<path opacity="0.38" d="M58.1108 54.2461C60.1461 54.2461 62.0619 55.024 63.4998 56.4335L73.032 65.7772C74.4699 67.1867 75.2635 69.0689 75.2635 71.0597V125.311C75.2635 133.22 68.7054 139.644 60.641 139.644H17.4135C9.3449 139.644 2.79102 133.216 2.79102 125.311V68.5795C2.79102 60.6704 9.3449 54.2461 17.4135 54.2461H58.1108Z" fill="#9DCEFF"/>
<path opacity="0.39" d="M58.1109 54.2676C60.1377 54.2676 62.0535 55.0455 63.4829 56.4508L73.015 65.7945C74.4487 67.1998 75.2423 69.0736 75.2423 71.0603V125.311C75.2423 133.208 68.697 139.624 60.6412 139.624H17.4137C9.35785 139.624 2.8125 133.208 2.8125 125.311V68.5801C2.8125 60.6835 9.35785 54.2676 17.4137 54.2676H58.1109Z" fill="#9CCDFF"/>
<path opacity="0.39" d="M58.1107 54.293C60.1332 54.293 62.0405 55.0667 63.4699 56.4679L73.002 65.8116C74.4314 67.2127 75.2208 69.0823 75.2208 71.0648V125.316C75.2208 133.2 68.684 139.603 60.6452 139.603H17.4135C9.37044 139.603 2.83789 133.196 2.83789 125.316V68.5804C2.83789 60.6964 9.37044 54.293 17.4135 54.293H58.1107Z" fill="#9BCDFF"/>
<path opacity="0.4" d="M58.1109 54.3125C60.1248 54.3125 62.0278 55.0863 63.453 56.479L72.9851 65.8227C74.4102 67.2197 75.1954 69.0851 75.1954 71.0592V125.31C75.1954 133.182 68.6713 139.577 60.6411 139.577H17.4136C9.3834 139.577 2.85938 133.182 2.85938 125.31V68.579C2.85937 60.7075 9.3834 54.3125 17.4136 54.3125H58.1109Z" fill="#9ACCFF"/>
<path opacity="0.4" d="M58.1107 54.3379C60.1203 54.3379 62.0148 55.1075 63.4357 56.5002L72.9678 65.8439C74.3887 67.2367 75.1738 69.0937 75.1738 71.0637V125.315C75.1738 133.174 68.6583 139.556 60.6452 139.556H17.4134C9.39598 139.556 2.88477 133.17 2.88477 125.315V68.5793C2.88477 60.7204 9.39598 54.3379 17.4134 54.3379H58.1107Z" fill="#99CCFF"/>
<path opacity="0.4" d="M58.1108 54.3594C60.112 54.3594 62.0022 55.1248 63.4188 56.5134L72.9509 65.857C74.3675 67.2456 75.1484 69.0985 75.1484 71.0601V125.311C75.1484 133.158 68.6457 139.532 60.641 139.532H17.4136C9.40894 139.532 2.90625 133.158 2.90625 125.311V68.5799C2.90625 60.7335 9.40894 54.3594 17.4136 54.3594H58.1108Z" fill="#98CBFF"/>
<path opacity="0.41" d="M58.1106 54.3789C60.1075 54.3789 61.9892 55.1443 63.4015 56.5287L72.9336 65.8724C74.346 67.2568 75.1268 69.1013 75.1268 71.0587V125.31C75.1268 133.144 68.6327 139.505 60.6451 139.505H17.4133C9.42153 139.505 2.93164 133.139 2.93164 125.31V68.5785C2.92738 60.7447 9.42153 54.3789 17.4133 54.3789H58.1106Z" fill="#97CBFF"/>
<path opacity="0.41" d="M58.1107 54.4043C60.0991 54.4043 61.9808 55.1655 63.3846 56.5457L72.9167 65.8894C74.3248 67.2696 75.1014 69.1099 75.1014 71.059V125.31C75.1014 133.131 68.62 139.485 60.641 139.485H17.4135C9.43448 139.485 2.95312 133.131 2.95312 125.31V68.5788C2.95312 60.7575 9.43448 54.4043 17.4135 54.4043H58.1107Z" fill="#96CAFF"/>
<path opacity="0.42" d="M58.1115 54.4258C60.0956 54.4258 61.9687 55.187 63.3683 56.5589L72.9004 65.9025C74.3042 67.2786 75.0765 69.1147 75.0765 71.0554V125.306C75.0765 133.115 68.6037 139.456 60.6418 139.456H17.4143C9.44805 139.456 2.97949 133.111 2.97949 125.306V68.5793C2.97523 60.7706 9.44805 54.4258 17.4143 54.4258H58.1115Z" fill="#95CAFF"/>
<path opacity="0.42" d="M58.1107 54.4512C60.0862 54.4512 61.9551 55.2082 63.3546 56.5801L72.8868 65.9238C74.2863 67.2956 75.0586 69.1234 75.0586 71.064V125.315C75.0586 133.111 68.5986 139.444 60.6452 139.444H17.4134C9.46002 139.444 3 133.111 3 125.315V68.5796C3 60.7835 9.46002 54.4512 17.4134 54.4512H58.1107Z" fill="#94C9FF"/>
<path opacity="0.42" d="M58.1108 54.4727C60.0821 54.4727 61.9425 55.2297 63.3377 56.5932L72.8699 65.9369C74.2651 67.3045 75.0332 69.1281 75.0332 71.0604V125.312C75.0332 133.095 68.5817 139.419 60.6411 139.419H17.4136C9.47297 139.419 3.02148 133.095 3.02148 125.312V68.5802C3.02148 60.7966 9.47297 54.4727 17.4136 54.4727H58.1108Z" fill="#93C9FF"/>
<path opacity="0.43" d="M58.1106 54.4961C60.0734 54.4961 61.9295 55.2489 63.3204 56.6124L72.8526 65.9561C74.2436 67.3196 75.0116 69.1348 75.0116 71.063V125.314C75.0116 133.085 68.573 139.397 60.6451 139.397H17.4134C9.48556 139.397 3.04688 133.085 3.04688 125.314V68.5785C3.04688 60.8075 9.48556 54.4961 17.4134 54.4961H58.1106Z" fill="#92C8FF"/>
<path opacity="0.43" d="M58.1108 54.5176C60.0693 54.5176 61.9168 55.2704 63.3035 56.6256L72.8357 65.9692C74.2181 67.3286 74.9862 69.1396 74.9862 71.0593V125.31C74.9862 133.069 68.556 139.372 60.641 139.372H17.4135C9.49851 139.372 3.06836 133.069 3.06836 125.31V68.5791C3.06836 60.8206 9.49851 54.5176 17.4135 54.5176H58.1108Z" fill="#91C8FF"/>
<path opacity="0.44" d="M58.1115 54.543C60.0615 54.543 61.909 55.2916 63.2872 56.6426L72.8194 65.9863C74.1976 67.3414 74.9613 69.1482 74.9613 71.0596V125.311C74.9613 133.057 68.5397 139.347 60.6418 139.347H17.4143C9.51207 139.347 3.09473 133.053 3.09473 125.311V68.5794C3.09473 60.8334 9.51207 54.543 17.4143 54.543H58.1115Z" fill="#90C7FF"/>
<path opacity="0.44" d="M58.1107 54.5645C60.0564 54.5645 61.8954 55.3089 63.2693 56.6599L72.8015 66.0036C74.1754 67.3503 74.9392 69.153 74.9392 71.0602V125.311C74.9392 133.045 68.5304 139.327 60.641 139.327H17.4135C9.52405 139.327 3.11523 133.045 3.11523 125.311V68.58C3.11523 60.8466 9.52405 54.5645 17.4135 54.5645H58.1107Z" fill="#8FC7FF"/>
<path opacity="0.44" d="M58.1115 54.5898C60.0486 54.5898 61.8834 55.3343 63.253 56.6769L72.7852 66.0206C74.1548 67.3632 74.9143 69.1617 74.9143 71.0605V125.312C74.9143 133.033 68.5141 139.302 60.6417 139.302H17.4142C9.53762 139.302 3.1416 133.028 3.1416 125.312V68.5803C3.1416 60.8594 9.53762 54.5898 17.4142 54.5898H58.1115Z" fill="#8EC6FF"/>
<path opacity="0.45" d="M58.1107 54.6094C60.0435 54.6094 61.8698 55.3497 63.2351 56.6923L72.7673 66.0359C74.1327 67.3743 74.8922 69.1645 74.8922 71.0591V125.31C74.8922 133.019 68.5047 139.28 60.6409 139.28H17.4134C9.54959 139.28 3.16211 133.019 3.16211 125.31V68.5789C3.16211 60.8706 9.54959 54.6094 17.4134 54.6094H58.1107Z" fill="#8DC6FF"/>
<path opacity="0.45" d="M58.1114 54.6348C60.04 54.6348 61.8577 55.3751 63.2231 56.7093L72.7553 66.053C74.1164 67.3872 74.8716 69.1731 74.8716 71.0636V125.315C74.8716 133.006 68.4927 139.259 60.6459 139.259H17.4142C9.56742 139.259 3.18848 133.006 3.18848 125.315V68.5792C3.18848 60.8834 9.56316 54.6348 17.4142 54.6348H58.1114Z" fill="#8CC5FF"/>
<path opacity="0.45" d="M58.1106 54.6562C60.0307 54.6562 61.8441 55.3924 63.2052 56.7224L72.7374 66.0661C74.0942 67.3961 74.8452 69.1779 74.8452 71.06V125.311C74.8452 132.99 68.479 139.235 60.6408 139.235H17.4133C9.5794 139.235 3.20898 132.994 3.20898 125.311V68.5798C3.20898 60.8965 9.57513 54.6562 17.4133 54.6562H58.1106Z" fill="#8BC5FF"/>
<path opacity="0.46" d="M58.1114 54.6816C60.0272 54.6816 61.8363 55.4178 63.1889 56.7436L72.7211 66.0873C74.0737 67.4132 74.8246 69.1865 74.8246 71.0645V125.316C74.8246 132.982 68.467 139.214 60.6459 139.214H17.4141C9.59296 139.214 3.23535 132.982 3.23535 125.316V68.5801C3.23535 60.9094 9.5887 54.6816 17.4141 54.6816H58.1114Z" fill="#8AC4FF"/>
<path opacity="0.46" d="M58.1115 54.7012C60.0188 54.7012 61.8237 55.4331 63.172 56.7548L72.7042 66.0985C74.0525 67.4201 74.7992 69.1893 74.7992 71.0589V125.31C74.7992 132.964 68.4544 139.188 60.6418 139.188H17.4143C9.60592 139.188 3.25684 132.968 3.25684 125.31V68.5787C3.25684 60.9205 9.60165 54.7012 17.4143 54.7012H58.1115Z" fill="#89C4FF"/>
<path opacity="0.47" d="M58.1113 54.7266C60.0143 54.7266 61.8107 55.4543 63.1547 56.776L72.6869 66.1197C74.0309 67.4372 74.7776 69.198 74.7776 71.0634V125.314C74.7776 132.956 68.4414 139.167 60.6458 139.167H17.414C9.6185 139.167 3.28223 132.956 3.28223 125.314V68.579C3.28223 60.9334 9.61424 54.7266 17.414 54.7266H58.1113Z" fill="#88C3FF"/>
<path opacity="0.47" d="M58.1115 54.748C60.0059 54.748 61.798 55.4758 63.1378 56.7891L72.67 66.1328C74.0098 67.4461 74.7522 69.2027 74.7522 71.0598V125.311C74.7522 132.94 68.4287 139.142 60.6417 139.142H17.4142C9.63146 139.142 3.30371 132.944 3.30371 125.311V68.5796C3.30371 60.9465 9.62719 54.748 17.4142 54.748H58.1115Z" fill="#87C3FF"/>
<path opacity="0.47" d="M58.1112 54.7734C60.0014 54.7734 61.785 55.497 63.1205 56.8061L72.6527 66.1498C73.9882 67.4589 74.7264 69.2114 74.7264 71.0601V125.311C74.7264 132.928 68.4114 139.118 60.6415 139.118H17.414C9.64404 139.118 3.3291 132.928 3.3291 125.311V68.5798C3.3291 60.9593 9.63978 54.7734 17.414 54.7734H58.1112Z" fill="#86C2FF"/>
<path opacity="0.48" d="M58.1114 54.793C59.9931 54.793 61.7724 55.5165 63.1036 56.8215L72.6358 66.1652C73.967 67.4701 74.7052 69.2142 74.7052 71.0587V125.31C74.7052 132.914 68.403 139.095 60.6416 139.095H17.4141C9.657 139.095 3.35059 132.918 3.35059 125.31V68.5785C3.35059 60.9705 9.65273 54.793 17.4141 54.793H58.1114Z" fill="#85C2FF"/>
<path opacity="0.48" d="M58.1112 54.8184C59.9886 54.8184 61.7636 55.5377 63.0906 56.8385L72.6227 66.1822C73.9497 67.4829 74.6836 69.2229 74.6836 71.0632V125.314C74.6836 132.906 68.39 139.075 60.6457 139.075H17.4139C9.66959 139.075 3.37598 132.906 3.37598 125.314V68.5788C3.37171 60.9834 9.66532 54.8184 17.4139 54.8184H58.1112Z" fill="#84C1FF"/>
<path opacity="0.49" d="M58.1113 54.8398C59.9802 54.8398 61.751 55.5592 63.0737 56.8558L72.6058 66.1995C73.9286 67.4961 74.6625 69.2276 74.6625 71.0637V125.315C74.6625 132.894 68.3817 139.054 60.6459 139.054H17.4141C9.68254 139.054 3.39746 132.898 3.39746 125.315V68.5793C3.39746 60.9965 9.67827 54.8398 17.4141 54.8398H58.1113Z" fill="#83C1FF"/>
<path opacity="0.49" d="M58.1111 54.8613C59.9757 54.8613 61.7379 55.5765 63.0564 56.8689L72.5886 66.2126C73.907 67.505 74.6366 69.2324 74.6366 71.0601V125.311C74.6366 132.877 68.3644 139.026 60.6456 139.026H17.4139C9.69513 139.026 3.42285 132.877 3.42285 125.311V68.5799C3.41859 61.0138 9.69086 54.8613 17.4139 54.8613H58.1111Z" fill="#82C0FF"/>
<path opacity="0.49" d="M58.1113 54.8867C59.9674 54.8867 61.7253 55.6019 63.0395 56.886L72.5716 66.2296C73.8858 67.5178 74.6112 69.241 74.6112 71.0604V125.312C74.6112 132.865 68.3475 139.005 60.6415 139.005H17.414C9.70808 139.005 3.44434 132.865 3.44434 125.312V68.5802C3.44434 61.0266 9.70381 54.8867 17.414 54.8867H58.1113Z" fill="#81C0FF"/>
<path opacity="0.5" d="M58.1111 54.9062C59.9629 54.9062 61.7123 55.6173 63.0222 56.9013L72.5544 66.245C73.8643 67.529 74.5897 69.2438 74.5897 71.059V125.31C74.5897 132.851 68.3387 138.979 60.6456 138.979H17.4138C9.72067 138.979 3.46973 132.851 3.46973 125.31V68.5788C3.46546 61.0378 9.7164 54.9062 17.4138 54.9062H58.1111Z" fill="#80BFFF"/>
<path opacity="0.5" d="M58.1112 54.9316C59.9545 54.9316 61.6996 55.6385 63.0053 56.9183L72.5374 66.262C73.8431 67.5419 74.5642 69.2525 74.5642 71.0593V125.31C74.5642 132.839 68.3218 138.958 60.6415 138.958H17.414C9.73362 138.958 3.49121 132.839 3.49121 125.31V68.5791C3.49121 61.0506 9.73362 54.9316 17.414 54.9316H58.1112Z" fill="#7FBFFF"/>
<path opacity="0.51" d="M58.1114 54.9531C59.9504 54.9531 61.6912 55.66 62.9884 56.9356L72.5205 66.2793C73.8219 67.555 74.543 69.2573 74.543 71.0599V125.311C74.543 132.827 68.3134 138.938 60.6416 138.938H17.4141C9.74657 138.938 3.5127 132.831 3.5127 125.311V68.5797C3.5127 61.0637 9.74657 54.9531 17.4141 54.9531H58.1114Z" fill="#7EBEFF"/>
<path opacity="0.51" d="M58.1111 54.9785C59.9459 54.9785 61.6782 55.6812 62.9711 56.9527L72.5033 66.2963C73.8004 67.5678 74.5172 69.2659 74.5172 71.0602V125.311C74.5172 132.815 68.2961 138.913 60.6414 138.913H17.4139C9.75916 138.913 3.53809 132.815 3.53809 125.311V68.58C3.53809 61.0766 9.75916 54.9785 17.4139 54.9785H58.1111Z" fill="#7DBEFF"/>
<path opacity="0.51" d="M58.1113 54.998C59.9375 54.998 61.6656 55.7007 62.9584 56.9638L72.4906 66.3075C73.7835 67.5748 74.496 69.2687 74.496 71.0588V125.31C74.496 132.801 68.2877 138.89 60.6415 138.89H17.414C9.77211 138.89 3.55957 132.805 3.55957 125.31V68.5786C3.55957 61.0878 9.77211 54.998 17.414 54.998H58.1113Z" fill="#7CBDFF"/>
<path opacity="0.52" d="M58.1111 55.0234C59.933 55.0234 61.6526 55.7219 62.9412 56.985L72.4733 66.3287C73.7619 67.5918 74.4745 69.2774 74.4745 71.0633V125.314C74.4745 132.793 68.2747 138.87 60.6456 138.87H17.4138C9.7847 138.87 3.58496 132.793 3.58496 125.314V68.5789C3.58496 61.1006 9.7847 55.0234 17.4138 55.0234H58.1111Z" fill="#7BBDFF"/>
<path opacity="0.52" d="M58.1112 55.0449C59.9247 55.0449 61.6399 55.7434 62.9243 56.9981L72.4564 66.3418C73.7407 67.6008 74.449 69.2821 74.449 71.0597V125.311C74.449 132.777 68.2621 138.845 60.6415 138.845H17.414C9.79765 138.845 3.60645 132.781 3.60645 125.311V68.5795C3.60645 61.1137 9.79765 55.0449 17.414 55.0449H58.1112Z" fill="#7ABCFF"/>
<path opacity="0.53" d="M58.111 55.0703C59.9202 55.0703 61.6269 55.7646 62.907 57.0194L72.4391 66.363C73.7192 67.6178 74.4275 69.2908 74.4275 71.0642V125.315C74.4275 132.768 68.2491 138.825 60.6455 138.825H17.4138C9.81024 138.825 3.63184 132.768 3.63184 125.315V68.5798C3.63184 61.1266 9.81024 55.0703 17.4138 55.0703H58.111Z" fill="#79BCFF"/>
<path opacity="0.53" d="M58.1112 55.0918C59.9118 55.0918 61.6185 55.7819 62.8901 57.0325L72.4222 66.3762C73.698 67.6267 74.402 69.2955 74.402 71.0606V125.312C74.402 132.752 68.2364 138.8 60.6414 138.8H17.4139C9.82319 138.8 3.65332 132.757 3.65332 125.312V68.5803C3.65332 61.1397 9.82319 55.0918 17.4139 55.0918H58.1112Z" fill="#78BBFF"/>
<path opacity="0.53" d="M58.111 55.1152C59.9073 55.1152 61.6055 55.8053 62.8728 57.0475L72.4049 66.3912C73.6722 67.6376 74.3762 69.3023 74.3762 71.0589V125.31C74.3762 132.738 68.2191 138.773 60.6412 138.773H17.4137C9.83578 138.773 3.67871 132.738 3.67871 125.31V68.5787C3.67871 61.1506 9.83578 55.1152 17.4137 55.1152H58.111Z" fill="#77BBFF"/>
<path opacity="0.54" d="M58.1111 55.1367C59.8989 55.1367 61.5929 55.8226 62.8559 57.0648L72.388 66.4085C73.651 67.6466 74.355 69.307 74.355 71.0595V125.311C74.355 132.726 68.2108 138.753 60.6414 138.753H17.4139C9.84873 138.753 3.7002 132.73 3.7002 125.311V68.5793C3.7002 61.1637 9.84873 55.1367 17.4139 55.1367H58.1111Z" fill="#76BAFF"/>
<path opacity="0.54" d="M58.1109 55.1621C59.8945 55.1621 61.5799 55.848 62.8386 57.0819L72.3707 66.4256C73.6295 67.6594 74.3292 69.3157 74.3292 71.0598V125.311C74.3292 132.714 68.1935 138.728 60.6412 138.728H17.4137C9.86132 138.728 3.72559 132.714 3.72559 125.311V68.5795C3.72559 61.1765 9.86132 55.1621 17.4137 55.1621H58.1109Z" fill="#75BAFF"/>
<path opacity="0.55" d="M58.1111 55.1836C59.8861 55.1836 61.5672 55.8653 62.8259 57.0992L72.3581 66.4429C73.6125 67.6725 74.3123 69.3204 74.3123 71.0645V125.316C74.3123 132.706 68.1851 138.712 60.6456 138.712H17.4138C9.87427 138.712 3.74707 132.706 3.74707 125.316V68.5801C3.74707 61.1897 9.87427 55.1836 17.4138 55.1836H58.1111Z" fill="#74B9FF"/>
<path opacity="0.55" d="M58.1109 55.207C59.8816 55.207 61.5542 55.8888 62.8087 57.1142L72.3408 66.4579C73.591 67.6834 74.2865 69.3271 74.2865 71.0629V125.314C74.2865 132.692 68.1721 138.685 60.6454 138.685H17.4136C9.88686 138.685 3.77246 132.692 3.77246 125.314V68.5785C3.77246 61.2005 9.88686 55.207 17.4136 55.207H58.1109Z" fill="#73B9FF"/>
<path opacity="0.55" d="M58.111 55.2285C59.8732 55.2285 61.5458 55.9061 62.7917 57.1274L72.3239 66.4711C73.5698 67.6923 74.261 69.3277 74.261 71.0593V125.31C74.261 132.676 68.1552 138.661 60.6412 138.661H17.4137C9.89981 138.661 3.79395 132.676 3.79395 125.31V68.579C3.79395 61.2137 9.89981 55.2285 17.4137 55.2285H58.111Z" fill="#72B8FF"/>
<path opacity="0.56" d="M58.1108 55.2539C59.8687 55.2539 61.5328 55.9273 62.7745 57.1486L72.3066 66.4923C73.5483 67.7094 74.2395 69.3405 74.2395 71.0637V125.315C74.2395 132.668 68.1464 138.64 60.6453 138.64H17.4135C9.9124 138.64 3.81934 132.668 3.81934 125.315V68.5793C3.81934 61.2265 9.9124 55.2539 17.4135 55.2539H58.1108Z" fill="#71B8FF"/>
<path opacity="0.56" d="M58.1109 55.2754C59.8604 55.2754 61.5202 55.9488 62.7575 57.1617L72.2897 66.5054C73.5271 67.7183 74.214 69.3453 74.214 71.0601V125.311C74.214 132.652 68.1295 138.616 60.6412 138.616H17.4137C9.92535 138.616 3.84082 132.652 3.84082 125.311V68.5799C3.84082 61.2396 9.92535 55.2754 17.4137 55.2754H58.1109Z" fill="#70B7FF"/>
<path opacity="0.56" d="M58.1107 55.3008C59.8559 55.3008 61.5071 55.97 62.7403 57.1829L72.2724 66.5266C73.5055 67.7353 74.1925 69.354 74.1925 71.0646V125.316C74.1925 132.643 68.1208 138.595 60.6452 138.595H17.4135C9.93794 138.595 3.86621 132.643 3.86621 125.316V68.5802C3.86621 61.2525 9.93794 55.3008 17.4135 55.3008H58.1107Z" fill="#6FB7FF"/>
<path opacity="0.57" d="M58.1109 55.3203C59.8475 55.3203 61.4945 55.9895 62.7233 57.1941L72.2555 66.5378C73.4844 67.7423 74.167 69.3568 74.167 71.059V125.31C74.167 132.625 68.1039 138.569 60.6411 138.569H17.4136C9.95089 138.569 3.8877 132.625 3.8877 125.31V68.5788C3.8877 61.2636 9.95089 55.3203 17.4136 55.3203H58.1109Z" fill="#6EB6FF"/>
<path opacity="0.57" d="M58.1107 55.3418C59.843 55.3418 61.4815 56.0068 62.7103 57.2072L72.2425 66.5509C73.4671 67.7513 74.1455 69.3573 74.1455 71.0596V125.311C74.1455 132.613 68.0951 138.544 60.6452 138.544H17.4134C9.96349 138.544 3.91309 132.613 3.91309 125.311V68.5794C3.91309 61.2768 9.96349 55.346 17.4134 55.346H58.1107V55.3418Z" fill="#6DB6FF"/>
<path opacity="0.58" d="M58.1108 55.3672C59.8389 55.3672 61.4731 56.0322 62.6934 57.2284L72.2256 66.5721C73.4459 67.7683 74.1243 69.3702 74.1243 71.0641V125.315C74.1243 132.605 68.0825 138.528 60.6453 138.528H17.4136C9.97644 138.528 3.93457 132.605 3.93457 125.315V68.5797C3.93457 61.2896 9.97644 55.3672 17.4136 55.3672H58.1108Z" fill="#6CB5FF"/>
<path opacity="0.58" d="M58.1106 55.3887C59.8302 55.3887 61.4601 56.0495 62.6761 57.2415L72.2083 66.5852C73.4243 67.7772 74.0985 69.3749 74.0985 71.0605V125.312C74.0985 132.589 68.0695 138.499 60.6451 138.499H17.4134C9.98903 138.499 3.95996 132.589 3.95996 125.312V68.5803C3.95996 61.3027 9.98903 55.3887 17.4134 55.3887H58.1106Z" fill="#6BB5FF"/>
<path opacity="0.58" d="M58.1108 55.4121C59.826 55.4121 61.4474 56.0729 62.6592 57.2566L72.1914 66.6003C73.4032 67.7881 74.073 69.3775 74.073 71.0588V125.31C74.073 132.575 68.0525 138.476 60.641 138.476H17.4135C10.002 138.476 3.98145 132.575 3.98145 125.31V68.5786C3.98145 61.3136 10.002 55.4121 17.4135 55.4121H58.1108Z" fill="#6AB4FF"/>
<path opacity="0.59" d="M58.1109 55.4336C59.8176 55.4336 61.4348 56.0902 62.6423 57.2739L72.1745 66.6176C73.382 67.8012 74.0519 69.3864 74.0519 71.0594V125.311C74.0519 132.563 68.0441 138.456 60.6411 138.456H17.4137C10.0149 138.456 4.00293 132.567 4.00293 125.311V68.5792C4.00293 61.3267 10.0107 55.4336 17.4137 55.4336H58.1109Z" fill="#69B4FF"/>
<path opacity="0.59" d="M58.1107 55.459C59.8132 55.459 61.4218 56.1115 62.625 57.2909L72.1572 66.6346C73.3604 67.8141 74.0261 69.3909 74.0261 71.0597V125.311C74.0261 132.551 68.0269 138.431 60.6409 138.431H17.4134C10.0275 138.431 4.02832 132.551 4.02832 125.311V68.5795C4.02832 61.3396 10.0275 55.459 17.4134 55.459H58.1107Z" fill="#68B3FF"/>
<path opacity="0.6" d="M58.1109 55.4805C59.8048 55.4805 61.4091 56.1329 62.6081 57.3082L72.1403 66.6519C73.3392 67.8272 74.0049 69.3998 74.0049 71.0603V125.311C74.0049 132.539 68.0185 138.411 60.6411 138.411H17.4136C10.0405 138.411 4.0498 132.543 4.0498 125.311V68.58C4.0498 61.3527 10.0362 55.4805 17.4136 55.4805H58.1109Z" fill="#67B3FF"/>
<path opacity="0.6" d="M58.1106 55.5059C59.8003 55.5059 61.4004 56.1541 62.5908 57.3252L72.123 66.6689C73.3177 67.84 73.9791 69.4085 73.9791 71.0606V125.312C73.9791 132.526 68.0012 138.386 60.6409 138.386H17.4134C10.0531 138.386 4.0752 132.526 4.0752 125.312V68.5803C4.0752 61.3655 10.0531 55.5059 17.4134 55.5059H58.1106Z" fill="#66B2FF"/>
<path opacity="0.6" d="M58.1108 55.5254C59.7919 55.5254 61.3877 56.1737 62.5782 57.3364L72.1103 66.6801C73.3008 67.847 73.9579 69.4071 73.9579 71.0592V125.31C73.9579 132.513 67.9885 138.364 60.641 138.364H17.4135C10.066 138.364 4.09668 132.513 4.09668 125.31V68.579C4.09668 61.3767 10.066 55.5254 17.4135 55.5254H58.1108Z" fill="#65B2FF"/>
<path opacity="0.61" d="M58.1116 55.5508C59.7884 55.5508 61.3757 56.1949 62.5619 57.3576L72.094 66.7013C73.2802 67.864 73.9373 69.4199 73.9373 71.0637V125.315C73.9373 132.504 67.9808 138.343 60.6461 138.343H17.4143C10.0796 138.343 4.12305 132.504 4.12305 125.315V68.5792C4.12305 61.3895 10.0796 55.5508 17.4143 55.5508H58.1116Z" fill="#64B1FF"/>
<path opacity="0.61" d="M58.1107 55.5723C59.7791 55.5723 61.3621 56.2164 62.544 57.3707L72.0761 66.7144C73.2581 67.873 73.9109 69.4205 73.9109 71.06V125.311C73.9109 132.488 67.9629 138.319 60.641 138.319H17.4135C10.0915 138.319 4.14355 132.488 4.14355 125.311V68.5798C4.14355 61.4027 10.0915 55.5723 17.4135 55.5723H58.1107Z" fill="#63B1FF"/>
<path opacity="0.62" d="M58.1115 55.5977C59.7756 55.5977 61.35 56.2376 62.5277 57.3919L72.0598 66.7356C73.2375 67.89 73.8903 69.4333 73.8903 71.0645V125.316C73.8903 132.48 67.9551 138.298 60.646 138.298H17.4142C10.1051 138.298 4.16992 132.48 4.16992 125.316V68.5801C4.16992 61.4155 10.1051 55.5977 17.4142 55.5977H58.1115Z" fill="#62B0FF"/>
<path opacity="0.62" d="M58.1107 55.6172C59.7662 55.6172 61.3364 56.2529 62.5098 57.4031L72.0419 66.7468C73.2153 67.897 73.8639 69.4361 73.8639 71.059V125.31C73.8639 132.462 67.9372 138.272 60.6409 138.272H17.4134C10.1171 138.272 4.19043 132.462 4.19043 125.31V68.5787C4.19043 61.4267 10.1171 55.6172 17.4134 55.6172H58.1107Z" fill="#61B0FF"/>
<path opacity="0.62" d="M58.1114 55.6426C59.7627 55.6426 61.3286 56.2783 62.4935 57.4201L72.0256 66.7638C73.1948 67.9098 73.8391 69.4406 73.8391 71.0592V125.31C73.8391 132.45 67.9252 138.247 60.6417 138.247H17.4142C10.1307 138.247 4.2168 132.45 4.2168 125.31V68.579C4.2168 61.4395 10.1307 55.6426 17.4142 55.6426H58.1114Z" fill="#60AFFF"/>
<path opacity="0.63" d="M58.1106 55.6641C59.7533 55.6641 61.315 56.2956 62.4756 57.4374L72.0077 66.7811C73.1726 67.923 73.8169 69.4496 73.8169 71.0598V125.311C73.8169 132.438 67.9116 138.226 60.6408 138.226H17.4133C10.1426 138.226 4.2373 132.438 4.2373 125.311V68.5796C4.2373 61.4526 10.1426 55.6641 17.4133 55.6641H58.1106Z" fill="#5FAFFF"/>
<path opacity="0.63" d="M58.1114 55.6895C59.7498 55.6895 61.303 56.321 62.4593 57.4545L71.9914 66.7982C73.1478 67.9358 73.7921 69.454 73.7921 71.0601V125.311C73.7921 132.426 67.8995 138.202 60.6416 138.202H17.4141C10.1562 138.202 4.26367 132.426 4.26367 125.311V68.5799C4.26367 61.4655 10.1562 55.6895 17.4141 55.6895H58.1114Z" fill="#5EAEFF"/>
<path opacity="0.64" d="M58.1115 55.709C59.7457 55.709 61.2903 56.3364 62.4466 57.4698L71.9788 66.8135C73.1309 67.947 73.7751 69.461 73.7751 71.0629V125.314C73.7751 132.416 67.8912 138.184 60.646 138.184H17.4143C10.1691 138.184 4.28516 132.416 4.28516 125.314V68.5785C4.28516 61.4766 10.1691 55.709 17.4143 55.709H58.1115Z" fill="#5DAEFF"/>
<path opacity="0.64" d="M58.1113 55.7344C59.737 55.7344 61.2773 56.3617 62.4294 57.4868L71.9615 66.8305C73.1093 67.9556 73.7493 69.4697 73.7493 71.0632V125.314C73.7493 132.404 67.8781 138.159 60.6458 138.159H17.4141C10.1817 138.159 4.31055 132.404 4.31055 125.314V68.5788C4.31055 61.4895 10.1817 55.7344 17.4141 55.7344H58.1113Z" fill="#5CADFF"/>
<path opacity="0.64" d="M58.1115 55.7559C59.7329 55.7559 61.2647 56.3791 62.4125 57.5L71.9446 66.8436C73.0881 67.9646 73.7239 69.4703 73.7239 71.0596V125.311C73.7239 132.388 67.8612 138.134 60.6417 138.134H17.4142C10.1947 138.134 4.33203 132.388 4.33203 125.311V68.5794C4.33203 61.5026 10.1947 55.7559 17.4142 55.7559H58.1115Z" fill="#5BADFF"/>
<path opacity="0.65" d="M58.1112 55.7812C59.7241 55.7812 61.2559 56.4003 62.3952 57.5212L71.9273 66.8649C73.0666 67.9816 73.7023 69.4831 73.7023 71.0641V125.315C73.7023 132.379 67.8525 138.114 60.6458 138.114H17.414C10.2073 138.114 4.35742 132.379 4.35742 125.315V68.5797C4.35742 61.5154 10.2073 55.7812 17.414 55.7812H58.1112Z" fill="#5AACFF"/>
<path opacity="0.65" d="M58.1114 55.8027C59.72 55.8027 61.2433 56.4217 62.3783 57.5343L71.9104 66.878C73.0454 67.9905 73.6769 69.4837 73.6769 71.0605V125.312C73.6769 132.363 67.8356 138.089 60.6416 138.089H17.4141C10.2202 138.089 4.37891 132.363 4.37891 125.312V68.5803C4.37891 61.5286 10.2202 55.8027 17.4141 55.8027H58.1114Z" fill="#59ACFF"/>
<path opacity="0.65" d="M58.1112 55.8223C59.7113 55.8223 61.2303 56.4371 62.361 57.5496L71.8931 66.8933C73.0238 68.0017 73.6553 69.4907 73.6553 71.0591V125.31C73.6553 132.349 67.8268 138.063 60.6457 138.063H17.4139C10.2328 138.063 4.4043 132.349 4.4043 125.31V68.5789C4.4043 61.5397 10.2328 55.8264 17.4139 55.8264H58.1112V55.8223Z" fill="#58ABFF"/>
<path opacity="0.66" d="M58.1113 55.8477C59.7071 55.8477 61.2176 56.4625 62.3441 57.5667L71.8762 66.9104C73.0027 68.0145 73.6299 69.4993 73.6299 71.0594V125.311C73.6299 132.337 67.8099 138.042 60.6416 138.042H17.4141C10.2458 138.042 4.42578 132.337 4.42578 125.311V68.5792C4.42578 61.5526 10.2458 55.8477 17.4141 55.8477H58.1113Z" fill="#57ABFF"/>
<path opacity="0.66" d="M58.1111 55.8691C59.6984 55.8691 61.2046 56.4798 62.3268 57.5798L71.8589 66.9235C72.9811 68.0235 73.6041 69.4999 73.6041 71.0558V125.307C73.6041 132.321 67.7926 138.013 60.6414 138.013H17.4139C10.2584 138.013 4.45117 132.317 4.45117 125.307V68.5797C4.45117 61.5657 10.2626 55.8691 17.4139 55.8691H58.1111Z" fill="#56AAFF"/>
<path opacity="0.67" d="M58.1113 55.8945C59.6943 55.8945 61.1919 56.5052 62.3141 57.601L71.8463 66.9447C72.9642 68.0405 73.5872 69.5127 73.5872 71.0644V125.316C73.5872 132.317 67.7885 138.001 60.6458 138.001H17.414C10.2713 138.001 4.47266 132.317 4.47266 125.316V68.58C4.47266 61.5785 10.2713 55.8945 17.414 55.8945H58.1113Z" fill="#55AAFF"/>
<path opacity="0.67" d="M58.1114 55.9141C59.6859 55.9141 61.1836 56.5205 62.2972 57.6122L71.8294 66.9558C72.943 68.0475 73.5617 69.5113 73.5617 71.0589V125.31C73.5617 132.299 67.7716 137.975 60.6417 137.975H17.4142C10.2843 137.975 4.49414 132.299 4.49414 125.31V68.5787C4.49414 61.5897 10.2843 55.9141 17.4142 55.9141H58.1114Z" fill="#54A9FF"/>
<path opacity="0.67" d="M58.1112 55.9395C59.6814 55.9395 61.1705 56.5459 62.2799 57.6334L71.8121 66.9771C72.9215 68.0645 73.5402 69.5242 73.5402 71.0634V125.314C73.5402 132.291 67.7628 137.954 60.6457 137.954H17.414C10.2969 137.954 4.51953 132.291 4.51953 125.314V68.5789C4.51953 61.6025 10.2969 55.9395 17.414 55.9395H58.1112Z" fill="#53A9FF"/>
<path opacity="0.68" d="M58.1114 55.9609C59.673 55.9609 61.1579 56.5632 62.263 57.6465L71.7952 66.9902C72.9003 68.0734 73.5147 69.5289 73.5147 71.0597V125.311C73.5147 132.275 67.7459 137.929 60.6416 137.929H17.4141C10.3098 137.929 4.54102 132.275 4.54102 125.311V68.5795C4.54102 61.6157 10.3098 55.9609 17.4141 55.9609H58.1114Z" fill="#52A8FF"/>
<path opacity="0.68" d="M58.1112 55.9863C59.6686 55.9863 61.1449 56.5844 62.2457 57.6635L71.7779 67.0072C72.8787 68.0863 73.4889 69.5334 73.4889 71.06V125.311C73.4889 132.262 67.7329 137.905 60.6414 137.905H17.4139C10.3224 137.905 4.56641 132.262 4.56641 125.311V68.5798C4.56641 61.6285 10.3224 55.9863 17.4139 55.9863H58.1112Z" fill="#51A8FF"/>
<path opacity="0.69" d="M58.1113 56.0059C59.6602 56.0059 61.1322 56.604 62.2288 57.6789L71.761 67.0225C72.8575 68.0974 73.4677 69.5404 73.4677 71.0587V125.31C73.4677 132.249 67.7203 137.882 60.6415 137.882H17.4141C10.3353 137.882 4.58789 132.249 4.58789 125.31V68.5784C4.58789 61.6397 10.3353 56.0059 17.4141 56.0059H58.1113Z" fill="#50A7FF"/>
<path opacity="0.69" d="M58.1111 56.0312C59.6557 56.0312 61.1192 56.6252 62.2115 57.6959L71.7437 67.0396C72.836 68.1103 73.4419 69.5449 73.4419 71.0589V125.31C73.4419 132.236 67.7072 137.858 60.6413 137.858H17.4138C10.3479 137.858 4.61328 132.236 4.61328 125.31V68.5787C4.61328 61.6525 10.3479 56.0312 17.4138 56.0312H58.1111Z" fill="#4FA7FF"/>
<path opacity="0.69" d="M58.1112 56.0527C59.6473 56.0527 61.1108 56.6466 62.1946 57.7132L71.7268 67.0569C72.8148 68.1234 73.4207 69.5538 73.4207 71.0595V125.311C73.4207 132.224 67.6946 137.837 60.6415 137.837H17.414C10.3609 137.837 4.63477 132.224 4.63477 125.311V68.5793C4.63477 61.6656 10.3609 56.0527 17.414 56.0527H58.1112Z" fill="#4EA6FF"/>
<path opacity="0.7" d="M58.111 56.0781C59.6428 56.0781 61.0978 56.6679 62.1816 57.7302L71.7138 67.0739C72.7975 68.1363 73.3992 69.5625 73.3992 71.064V125.315C73.3992 132.216 67.6859 137.817 60.6455 137.817H17.4138C10.3735 137.817 4.66016 132.216 4.66016 125.315V68.5796C4.66016 61.6785 10.3735 56.0781 17.4138 56.0781H58.111Z" fill="#4DA6FF"/>
<path opacity="0.7" d="M58.1112 56.0996C59.6387 56.0996 61.0852 56.6893 62.1647 57.7433L71.6968 67.087C72.7764 68.1452 73.3737 69.5631 73.3737 71.0604V125.312C73.3737 132.2 67.6689 137.792 60.6414 137.792H17.4139C10.3864 137.792 4.68164 132.2 4.68164 125.312V68.5802C4.68164 61.6916 10.3864 56.0996 17.4139 56.0996H58.1112Z" fill="#4CA5FF"/>
<path opacity="0.71" d="M58.111 56.123C59.63 56.123 61.0722 56.7086 62.1474 57.7626L71.6796 67.1063C72.7548 68.1603 73.3522 69.5739 73.3522 71.0629V125.314C73.3522 132.19 67.6602 137.77 60.6455 137.77H17.4137C10.399 137.77 4.70703 132.19 4.70703 125.314V68.5785C4.70703 61.7025 10.399 56.123 17.4137 56.123H58.111Z" fill="#4BA5FF"/>
<path opacity="0.71" d="M58.1111 56.1445C59.6259 56.1445 61.0595 56.7259 62.1305 57.7757L71.6627 67.1194C72.7336 68.1692 73.3267 69.5745 73.3267 71.0593V125.31C73.3267 132.174 67.6433 137.745 60.6414 137.745H17.4139C10.412 137.745 4.72852 132.174 4.72852 125.31V68.5791C4.72852 61.7156 10.412 56.1445 17.4139 56.1445H58.1111Z" fill="#4AA4FF"/>
<path opacity="0.71" d="M58.1109 56.1699C59.6171 56.1699 61.0465 56.7513 62.1132 57.7969L71.6454 67.1406C72.7121 68.1862 73.3052 69.5874 73.3052 71.0638V125.315C73.3052 132.166 67.6303 137.724 60.6454 137.724H17.4137C10.4246 137.724 4.75391 132.162 4.75391 125.315V68.5794C4.75391 61.7285 10.4288 56.1699 17.4137 56.1699H58.1109Z" fill="#49A4FF"/>
<path opacity="0.72" d="M58.1111 56.1914C59.613 56.1914 61.0381 56.7686 62.0963 57.81L71.6285 67.1537C72.6909 68.1952 73.2797 69.5921 73.2797 71.0602V125.311C73.2797 132.15 67.6176 137.7 60.6413 137.7H17.4138C10.4375 137.7 4.77539 132.15 4.77539 125.311V68.58C4.77539 61.7416 10.4375 56.1914 17.4138 56.1914H58.1111Z" fill="#48A3FF"/>
<path opacity="0.72" d="M58.1109 56.2168C59.6043 56.2168 61.0251 56.794 62.079 57.8271L71.6112 67.1707C72.6694 68.208 73.2539 69.5966 73.2539 71.0605V125.312C73.2539 132.137 67.6003 137.675 60.6411 137.675H17.4136C10.4501 137.675 4.80078 132.133 4.80078 125.312V68.5802C4.80078 61.7544 10.4544 56.2168 17.4136 56.2168H58.1109Z" fill="#47A3FF"/>
<path opacity="0.73" d="M58.111 56.2363C59.6001 56.2363 61.0125 56.8093 62.0664 57.8424L71.5985 67.1861C72.6524 68.2192 73.237 69.6036 73.237 71.0633V125.314C73.237 132.128 67.5962 137.657 60.6455 137.657H17.4138C10.463 137.657 4.82227 132.128 4.82227 125.314V68.5789C4.82227 61.7656 10.463 56.2363 17.4138 56.2363H58.111Z" fill="#46A2FF"/>
<path opacity="0.73" d="M58.1108 56.2578C59.5914 56.2578 60.9995 56.8308 62.0491 57.8555L71.5812 67.1992C72.6309 68.2281 73.2112 69.6041 73.2112 71.0597V125.311C73.2112 132.112 67.5789 137.628 60.6453 137.628H17.4135C10.4756 137.628 4.84766 132.107 4.84766 125.311V68.5794C4.84766 61.7787 10.4799 56.262 17.4135 56.262H58.1108V56.2578Z" fill="#45A2FF"/>
<path opacity="0.73" d="M58.1109 56.2832C59.5873 56.2832 60.9868 56.852 62.0322 57.8767L71.5643 67.2204C72.6054 68.2451 73.19 69.617 73.19 71.0641V125.315C73.19 132.103 67.5706 137.612 60.6455 137.612H17.4137C10.4886 137.612 4.86914 132.103 4.86914 125.315V68.5797C4.86914 61.7915 10.4886 56.2832 17.4137 56.2832H58.1109Z" fill="#44A1FF"/>
<path opacity="0.74" d="M58.1107 56.3047C59.5785 56.3047 60.9738 56.8735 62.0149 57.8899L71.5471 67.2335C72.5839 68.2499 73.1642 69.6217 73.1642 71.0605V125.312C73.1642 132.087 67.5533 137.583 60.6452 137.583H17.4135C10.5012 137.583 4.89453 132.083 4.89453 125.312V68.5803C4.89453 61.8047 10.5054 56.3089 17.4135 56.3089H58.1107V56.3047Z" fill="#43A1FF"/>
<path opacity="0.74" d="M58.1109 56.3281C59.5744 56.3281 60.9654 56.8928 61.998 57.9049L71.5301 67.2486C72.5627 68.2608 73.1387 69.6243 73.1387 71.0589V125.31C73.1387 132.073 67.5406 137.561 60.6411 137.561H17.4136C10.5141 137.561 4.91602 132.073 4.91602 125.31V68.5786C4.91602 61.8156 10.5141 56.3281 17.4136 56.3281H58.1109Z" fill="#42A0FF"/>
<path opacity="0.75" d="M58.111 56.3496C59.566 56.3496 60.9528 56.9101 61.9811 57.9222L71.5132 67.2659C72.5415 68.2739 73.1176 69.6332 73.1176 71.0594V125.311C73.1176 132.061 67.528 137.536 60.6455 137.536H17.4138C10.5271 137.536 4.9375 132.057 4.9375 125.311V68.5792C4.9375 61.8287 10.5271 56.3496 17.4138 56.3496H58.111Z" fill="#41A0FF"/>
<path opacity="0.75" d="M58.1108 56.375C59.5616 56.375 60.9398 56.9355 61.9638 57.9393L71.4959 67.2829C72.52 68.2867 73.0918 69.6377 73.0918 71.0597V125.311C73.0918 132.049 67.515 137.515 60.6411 137.515H17.4136C10.5397 137.515 4.96289 132.049 4.96289 125.311V68.5795C4.96289 61.8415 10.5397 56.375 17.4136 56.375H58.1108Z" fill="#409FFF"/>
<path opacity="0.75" d="M58.111 56.3965C59.5532 56.3965 60.9271 56.9528 61.9469 57.9566L71.479 67.3002C72.4988 68.2999 73.0706 69.6466 73.0706 71.0603V125.311C73.0706 132.037 67.5023 137.495 60.6412 137.495H17.4137C10.5526 137.495 4.98438 132.037 4.98438 125.311V68.5801C4.98438 61.8546 10.5526 56.3965 17.4137 56.3965H58.111Z" fill="#3F9FFF"/>
<path opacity="0.76" d="M58.1108 56.4199C59.5487 56.4199 60.9141 56.9762 61.9339 57.9716L71.466 67.3153C72.4815 68.3108 73.049 69.6533 73.049 71.0628V125.314C73.049 132.027 67.4936 137.472 60.6453 137.472H17.4135C10.5652 137.472 5.00977 132.027 5.00977 125.314V68.5784C5.00977 61.8655 10.5652 56.4199 17.4135 56.4199H58.1108Z" fill="#3E9EFF"/>
<path opacity="0.76" d="M58.1109 56.4414C59.5403 56.4414 60.9014 56.9935 61.9169 57.9847L71.4491 67.3284C72.4603 68.3197 73.0236 69.6539 73.0236 71.0592V125.31C73.0236 132.011 67.4767 137.448 60.6412 137.448H17.4137C10.5782 137.448 5.03125 132.011 5.03125 125.31V68.579C5.03125 61.8786 10.5782 56.4414 17.4137 56.4414H58.1109Z" fill="#3D9EFF"/>
<path opacity="0.76" d="M58.1107 56.4668C59.5358 56.4668 60.8927 57.0189 61.8997 58.006L71.4318 67.3496C72.4388 68.3367 73.002 69.6667 73.002 71.0637V125.315C73.002 132.003 67.4679 137.427 60.6452 137.427H17.4135C10.5908 137.427 5.05664 132.003 5.05664 125.315V68.5793C5.05664 61.8915 10.5908 56.4668 17.4135 56.4668H58.1107Z" fill="#3C9DFF"/>
<path opacity="0.77" d="M58.1109 56.4883C59.5317 56.4883 60.88 57.0362 61.8828 58.0191L71.4149 67.3628C72.4176 68.3456 72.9766 69.6673 72.9766 71.0601V125.311C72.9766 131.986 67.451 137.403 60.6411 137.403H17.4136C10.6037 137.403 5.07812 131.986 5.07812 125.311V68.5799C5.07812 61.9046 10.6037 56.4883 17.4136 56.4883H58.1109Z" fill="#3B9DFF"/>
<path opacity="0.77" d="M58.1106 56.5137C59.523 56.5137 60.867 57.0574 61.8655 58.0361L71.3976 67.3798C72.3961 68.3585 72.9508 69.676 72.9508 71.0604V125.312C72.9508 131.974 67.4337 137.378 60.6409 137.378H17.4134C10.6163 137.378 5.10352 131.97 5.10352 125.312V68.5802C5.10352 61.9175 10.6206 56.5137 17.4134 56.5137H58.1106Z" fill="#3A9CFF"/>
<path opacity="0.78" d="M58.1108 56.5332C59.5189 56.5332 60.8544 57.0769 61.8486 58.0514L71.3807 67.3951C72.3749 68.3697 72.9296 69.683 72.9296 71.059V125.31C72.9296 131.96 67.4253 137.356 60.641 137.356H17.4135C10.6292 137.356 5.125 131.96 5.125 125.31V68.5788C5.125 61.9286 10.6292 56.5332 17.4135 56.5332H58.1108Z" fill="#399CFF"/>
<path opacity="0.78" d="M58.1106 56.5586C59.5101 56.5586 60.8414 57.0981 61.8313 58.0685L71.3634 67.4122C72.3533 68.3825 72.9038 69.6874 72.9038 71.0593V125.31C72.9038 131.948 67.4081 137.331 60.6408 137.331H17.4133C10.6418 137.331 5.15039 131.944 5.15039 125.31V68.5791C5.15039 61.9415 10.6461 56.5586 17.4133 56.5586H58.1106Z" fill="#389BFF"/>
<path opacity="0.78" d="M58.1107 56.5801C59.506 56.5801 60.8287 57.1196 61.8144 58.0858L71.3465 67.4295C72.3322 68.3956 72.8826 69.6964 72.8826 71.0599V125.311C72.8826 131.936 67.3997 137.311 60.641 137.311H17.4135C10.6548 137.311 5.17188 131.936 5.17188 125.311V68.5796C5.17188 61.9546 10.6548 56.5801 17.4135 56.5801H58.1107Z" fill="#379BFF"/>
<path opacity="0.79" d="M58.1115 56.6055C59.4982 56.6055 60.821 57.1408 61.8023 58.1028L71.3345 67.4465C72.3159 68.4085 72.862 69.7009 72.862 71.0643V125.315C72.862 131.928 67.3876 137.29 60.646 137.29H17.4142C10.6683 137.29 5.19824 131.924 5.19824 125.315V68.5799C5.19824 61.9674 10.6726 56.6055 17.4142 56.6055H58.1115Z" fill="#369AFF"/>
<path opacity="0.79" d="M58.1107 56.625C59.4931 56.625 60.8073 57.1604 61.7844 58.114L71.3166 67.4577C72.2937 68.4154 72.8356 69.7037 72.8356 71.0588V125.31C72.8356 131.91 67.374 137.263 60.6409 137.263H17.4134C10.6803 137.263 5.21875 131.91 5.21875 125.31V68.5786C5.21875 61.9786 10.6803 56.625 17.4134 56.625H58.1107Z" fill="#359AFF"/>
<path opacity="0.8" d="M58.1114 56.6504C59.4854 56.6504 60.7953 57.1816 61.7681 58.1352L71.3003 67.4789C72.2731 68.4325 72.815 69.7165 72.815 71.0633V125.314C72.815 131.902 67.362 137.243 60.646 137.243H17.4142C10.6939 137.243 5.24512 131.898 5.24512 125.314V68.5789C5.24512 61.9914 10.6982 56.6504 17.4142 56.6504H58.1114Z" fill="#3499FF"/>
<path opacity="0.8" d="M58.1106 56.6719C59.4803 56.6719 60.7817 57.1989 61.7502 58.1483L71.2824 67.492C72.251 68.4414 72.7886 69.7171 72.7886 71.0597V125.311C72.7886 131.886 67.3484 137.218 60.6409 137.218H17.4134C10.7059 137.218 5.26562 131.886 5.26562 125.311V68.5794C5.26562 62.0046 10.7059 56.6719 17.4134 56.6719H58.1106Z" fill="#3399FF"/>
<path opacity="0.8" d="M58.1114 56.6973C59.4725 56.6973 60.7696 57.2243 61.7339 58.1695L71.2661 67.5132C72.2304 68.4584 72.768 69.7299 72.768 71.0641V125.315C72.768 131.878 67.3363 137.198 60.6459 137.198H17.4141C10.7194 137.198 5.29199 131.873 5.29199 125.315V68.5797C5.29199 62.0174 10.7237 56.6973 17.4141 56.6973H58.1114Z" fill="#3298FF"/>
<path opacity="0.81" d="M58.1115 56.7188C59.4684 56.7188 60.757 57.2416 61.717 58.1826L71.2492 67.5263C72.2092 68.4674 72.7426 69.7305 72.7426 71.0605V125.312C72.7426 131.861 67.3237 137.173 60.6418 137.173H17.4143C10.7324 137.173 5.31348 131.861 5.31348 125.312V68.5803C5.31348 62.0305 10.7324 56.7188 17.4143 56.7188H58.1115Z" fill="#3198FF"/>
<path opacity="0.81" d="M58.1113 56.7383C59.4596 56.7383 60.7482 57.2611 61.6997 58.1938L71.2319 67.5375C72.1877 68.4744 72.7168 69.7333 72.7168 71.055V125.306C72.7168 131.843 67.3064 137.143 60.6416 137.143H17.4141C10.745 137.143 5.33887 131.839 5.33887 125.306V68.5789C5.33887 62.0417 10.7492 56.7425 17.4141 56.7425H58.1113V56.7383Z" fill="#3097FF"/>
<path opacity="0.82" d="M58.1115 56.7637C59.4555 56.7637 60.7356 57.2823 61.6828 58.215L71.215 67.5587C72.1665 68.4914 72.6956 69.7461 72.6956 71.0594V125.311C72.6956 131.835 67.298 137.126 60.6417 137.126H17.4142C10.7579 137.126 5.36035 131.835 5.36035 125.311V68.5792C5.36035 62.0545 10.7579 56.7637 17.4142 56.7637H58.1115Z" fill="#2F97FF"/>
<path opacity="0.82" d="M58.1113 56.7852C59.4468 56.7852 60.7226 57.3038 61.6698 58.2281L71.202 67.5718C72.1492 68.5003 72.674 69.7467 72.674 71.06V125.311C72.674 131.819 67.285 137.102 60.6458 137.102H17.414C10.7705 137.102 5.38574 131.819 5.38574 125.311V68.5798C5.38574 62.0676 10.7748 56.7893 17.414 56.7893H58.1113V56.7852Z" fill="#2E96FF"/>
<path opacity="0.82" d="M58.1114 56.8105C59.4427 56.8105 60.7099 57.325 61.6529 58.2493L71.1851 67.593C72.128 68.5173 72.6528 69.7595 72.6528 71.0645V125.316C72.6528 131.811 67.2766 137.085 60.6459 137.085H17.4142C10.7835 137.085 5.40723 131.815 5.40723 125.316V68.5801C5.40723 62.0805 10.7835 56.8105 17.4142 56.8105H58.1114Z" fill="#2D96FF"/>
<path opacity="0.83" d="M58.1106 56.8301C59.4376 56.8301 60.6963 57.3445 61.635 58.2605L71.1672 67.6042C72.1059 68.5243 72.6264 69.7582 72.6264 71.0589V125.31C72.6264 131.793 67.2587 137.054 60.6451 137.054H17.4133C10.7954 137.054 5.42773 131.793 5.42773 125.31V68.5787C5.42773 62.0917 10.7954 56.8301 17.4133 56.8301H58.1106Z" fill="#2C95FF"/>
<path opacity="0.83" d="M58.1113 56.8555C59.4298 56.8555 60.6843 57.3657 61.6187 58.2775L71.1508 67.6212C72.081 68.5372 72.6016 69.7668 72.6016 71.0592V125.31C72.6016 131.781 67.2424 137.034 60.6416 137.034H17.4141C10.809 137.034 5.4541 131.781 5.4541 125.31V68.579C5.4541 62.1045 10.8133 56.8555 17.4141 56.8555H58.1113Z" fill="#2B95FF"/>
<path opacity="0.84" d="M58.1115 56.877C59.4257 56.877 60.6759 57.383 61.6018 58.2948L71.1339 67.6385C72.0598 68.5503 72.5804 69.7758 72.5804 71.0598V125.311C72.5804 131.769 67.234 137.014 60.6417 137.014H17.4142C10.8262 137.014 5.47559 131.773 5.47559 125.311V68.5796C5.47559 62.1176 10.822 56.877 17.4142 56.877H58.1115Z" fill="#2A94FF"/>
<path opacity="0.84" d="M58.1113 56.9023C59.4169 56.9023 60.6629 57.4084 61.5845 58.3118L71.1167 67.6555C72.0383 68.559 72.5546 69.7802 72.5546 71.0601V125.311C72.5546 131.756 67.2167 136.989 60.6415 136.989H17.414C10.8388 136.989 5.50098 131.756 5.50098 125.311V68.5799C5.50098 62.1346 10.8388 56.9023 17.414 56.9023H58.1113Z" fill="#2994FF"/>
<path opacity="0.84" d="M58.1114 56.9219C59.4128 56.9219 60.6502 57.4238 61.5676 58.3272L71.0997 67.6709C72.0171 68.5701 72.5334 69.7872 72.5334 71.0587V125.31C72.5334 131.743 67.2084 136.966 60.6417 136.966H17.4142C10.8518 136.966 5.52246 131.747 5.52246 125.31V68.5785C5.52246 62.1458 10.8475 56.9219 17.4142 56.9219H58.1114Z" fill="#2893FF"/>
<path opacity="0.85" d="M58.1112 56.9473C59.4041 56.9473 60.6372 57.4492 61.5503 58.3442L71.0825 67.6879C71.9956 68.583 72.5076 69.7917 72.5076 71.059V125.31C72.5076 131.73 67.1911 136.942 60.6415 136.942H17.414C10.8644 136.942 5.54785 131.73 5.54785 125.31V68.5788C5.54785 62.1587 10.8644 56.9473 17.414 56.9473H58.1112Z" fill="#2793FF"/>
<path opacity="0.85" d="M58.1114 56.9688C59.4 56.9688 60.6245 57.4665 61.5377 58.3573L71.0698 67.701C71.9786 68.5919 72.4864 69.7965 72.4864 71.0596V125.311C72.4864 131.718 67.1827 136.921 60.6416 136.921H17.4141C10.8773 136.921 5.56934 131.722 5.56934 125.311V68.5794C5.56934 62.1718 10.873 56.9688 17.4141 56.9688H58.1114Z" fill="#2692FF"/>
<path opacity="0.85" d="M58.1112 56.9941C59.3912 56.9941 60.6115 57.4919 61.5204 58.3785L71.0525 67.7222C71.9571 68.6089 72.4649 69.8051 72.4649 71.064V125.315C72.4649 131.71 67.1697 136.901 60.6457 136.901H17.4139C10.8899 136.901 5.59473 131.71 5.59473 125.315V68.5796C5.59473 62.1846 10.8899 56.9941 17.4139 56.9941H58.1112Z" fill="#2592FF"/>
<path opacity="0.86" d="M58.1113 57.0156C59.3871 57.0156 60.6032 57.5092 61.5035 58.3917L71.0356 67.7354C71.9359 68.6179 72.4394 69.8099 72.4394 71.0604V125.312C72.4394 131.694 67.157 136.876 60.6416 136.876H17.4141C10.9028 136.876 5.61621 131.698 5.61621 125.312V68.5802C5.61621 62.1977 10.8986 57.0156 17.4141 57.0156H58.1113Z" fill="#2491FF"/>
<path opacity="0.86" d="M58.1111 57.0391C59.3784 57.0391 60.5901 57.5284 61.4862 58.4109L71.0183 67.7546C71.9144 68.6329 72.4179 69.8208 72.4179 71.063V125.314C72.4179 131.684 67.144 136.854 60.6456 136.854H17.4139C10.9154 136.854 5.6416 131.684 5.6416 125.314V68.5786C5.6416 62.2086 10.9154 57.0391 17.4139 57.0391H58.1111Z" fill="#2391FF"/>
<path opacity="0.87" d="M58.1113 57.0605C59.3742 57.0605 60.5775 57.5499 61.4693 58.424L71.0014 67.7677C71.8932 68.6419 72.3924 69.8213 72.3924 71.0594V125.31C72.3924 131.668 67.1314 136.829 60.6415 136.829H17.414C10.9284 136.829 5.66309 131.672 5.66309 125.31V68.5791C5.66309 62.2217 10.9241 57.0605 17.414 57.0605H58.1113Z" fill="#2290FF"/>
<path opacity="0.87" d="M58.111 57.0859C59.3655 57.0859 60.5645 57.5711 61.452 58.4411L70.9841 67.7848C71.8717 68.6547 72.3666 69.83 72.3666 71.0596V125.311C72.3666 131.656 67.1141 136.804 60.6413 136.804H17.4138C10.941 136.804 5.68848 131.656 5.68848 125.311V68.5794C5.68848 62.2346 10.941 57.0859 17.4138 57.0859H58.111Z" fill="#2190FF"/>
<path opacity="0.87" d="M58.1112 57.1074C59.3614 57.1074 60.5518 57.5926 61.4351 58.4584L70.9672 67.8021C71.8505 68.6678 72.3454 69.8347 72.3454 71.0602V125.311C72.3454 131.644 67.1057 136.784 60.6414 136.784H17.4139C10.9539 136.784 5.70996 131.648 5.70996 125.311V68.58C5.70996 62.2477 10.9497 57.1074 17.4139 57.1074H58.1112Z" fill="#208FFF"/>
<path opacity="0.88" d="M58.111 57.1328C59.3526 57.1328 60.5388 57.6138 61.4221 58.4754L70.9542 67.8191C71.8332 68.6807 72.3239 69.8434 72.3239 71.0605V125.312C72.3239 131.631 67.0927 136.759 60.6455 136.759H17.4137C10.9665 136.759 5.73535 131.631 5.73535 125.312V68.5803C5.73535 62.2605 10.9665 57.1328 17.4137 57.1328H58.111Z" fill="#1F8FFF"/>
<path opacity="0.88" d="M58.1111 57.1523C59.3485 57.1523 60.5304 57.6333 61.4051 58.4907L70.9373 67.8344C71.812 68.6918 72.3027 69.8504 72.3027 71.0633V125.314C72.3027 131.622 67.0801 136.741 60.6456 136.741H17.4139C10.9795 136.741 5.75684 131.626 5.75684 125.314V68.5789C5.75684 62.2717 10.9752 57.1523 17.4139 57.1523H58.1111Z" fill="#1E8EFF"/>
<path opacity="0.89" d="M58.1109 57.1777C59.3398 57.1777 60.5174 57.6545 61.3879 58.5078L70.92 67.8515C71.7905 68.7047 72.2769 69.8549 72.2769 71.0636V125.315C72.2769 131.609 67.0671 136.716 60.6454 136.716H17.4137C10.9921 136.716 5.78223 131.609 5.78223 125.315V68.5792C5.78223 62.2846 10.9921 57.1777 17.4137 57.1777H58.1109Z" fill="#1D8EFF"/>
<path opacity="0.89" d="M58.1111 57.1992C59.3357 57.1992 60.5048 57.6718 61.3709 58.5209L70.9031 67.8646C71.7693 68.7136 72.2514 69.8596 72.2514 71.06V125.311C72.2514 131.593 67.0501 136.692 60.6413 136.692H17.4138C11.005 136.692 5.80371 131.593 5.80371 125.311V68.5798C5.80371 62.2977 11.005 57.1992 17.4138 57.1992H58.1111Z" fill="#1C8DFF"/>
<path opacity="0.89" d="M58.1109 57.2207C59.3312 57.2207 60.4918 57.6933 61.3537 58.5382L70.8858 67.8819C71.7477 68.7267 72.2299 69.8644 72.2299 71.0606V125.312C72.2299 131.581 67.0414 136.667 60.6454 136.667H17.4136C11.0176 136.667 5.8291 131.581 5.8291 125.312V68.5804C5.8291 62.3108 11.0176 57.2249 17.4136 57.2249H58.1109V57.2207Z" fill="#1B8DFF"/>
<path opacity="0.9" d="M58.111 57.2441C59.3228 57.2441 60.4791 57.7126 61.3368 58.5533L70.8689 67.8969C71.7265 68.7376 72.2044 69.8711 72.2044 71.0589V125.31C72.2044 131.567 67.0245 136.645 60.6413 136.645H17.4138C11.0305 136.645 5.85059 131.567 5.85059 125.31V68.5787C5.85059 62.3217 11.0305 57.2441 17.4138 57.2441H58.111Z" fill="#1A8CFF"/>
<path opacity="0.9" d="M58.1108 57.2656C59.3183 57.2656 60.4661 57.7341 61.3195 58.5706L70.8516 67.9143C71.705 68.7508 72.1829 69.88 72.1829 71.0595V125.311C72.1829 131.555 67.0157 136.62 60.6453 136.62H17.4135C11.0431 136.62 5.87598 131.555 5.87598 125.311V68.5793C5.87598 62.3348 11.0431 57.2698 17.4135 57.2698H58.1108V57.2656Z" fill="#198CFF"/>
<path opacity="0.91" d="M58.111 57.291C59.3099 57.291 60.4577 57.7553 61.3026 58.5876L70.8347 67.9313C71.6838 68.7636 72.1574 69.8845 72.1574 71.0598V125.311C72.1574 131.543 66.9988 136.599 60.6412 136.599H17.4137C11.0561 136.599 5.89746 131.543 5.89746 125.311V68.5796C5.89746 62.3477 11.0561 57.291 17.4137 57.291H58.111Z" fill="#188BFF"/>
<path opacity="0.91" d="M58.1111 57.3125C59.3058 57.3125 60.4451 57.7768 61.2899 58.6007L70.8221 67.9444C71.6669 68.7725 72.1363 69.8893 72.1363 71.0604V125.311C72.1363 131.531 66.9904 136.575 60.6456 136.575H17.4138C11.069 136.575 5.91895 131.531 5.91895 125.311V68.5801C5.91895 62.3608 11.0648 57.3125 17.4138 57.3125H58.1111Z" fill="#178BFF"/>
<path opacity="0.91" d="M58.1109 57.3359C59.2971 57.3359 60.4321 57.796 61.2726 58.62L70.8048 67.9637C71.6454 68.7876 72.1147 69.896 72.1147 71.0629V125.314C72.1147 131.521 66.9774 136.557 60.6454 136.557H17.4136C11.0816 136.557 5.94434 131.521 5.94434 125.314V68.5785C5.94434 62.3717 11.0816 57.3359 17.4136 57.3359H58.1109Z" fill="#168AFF"/>
<path opacity="0.92" d="M58.111 57.3574C59.293 57.3574 60.4194 57.8175 61.2557 58.6331L70.7879 67.9768C71.6242 68.7965 72.0893 69.9007 72.0893 71.0593V125.31C72.0893 131.505 66.9648 136.532 60.6413 136.532H17.4138C11.0946 136.532 5.96582 131.509 5.96582 125.31V68.5791C5.96582 62.3848 11.0903 57.3574 17.4138 57.3574H58.111Z" fill="#158AFF"/>
<path opacity="0.92" d="M58.1108 57.3828C59.2842 57.3828 60.4064 57.8387 61.2384 58.6543L70.7706 67.998C71.6026 68.8136 72.0677 69.9136 72.0677 71.0637V125.315C72.0677 131.497 66.9518 136.511 60.6453 136.511H17.4136C11.1072 136.511 5.99121 131.497 5.99121 125.315V68.5793C5.99121 62.3976 11.1072 57.3828 17.4136 57.3828H58.1108Z" fill="#1489FF"/>
<path opacity="0.93" d="M58.111 57.4043C59.2801 57.4043 60.3937 57.856 61.2215 58.6674L70.7537 68.0111C71.5814 68.8225 72.0423 69.9141 72.0423 71.0601V125.311C72.0423 131.48 66.9391 136.487 60.6412 136.487H17.4137C11.1201 136.487 6.0127 131.485 6.0127 125.311V68.5799C6.0127 62.4107 11.1159 57.4043 17.4137 57.4043H58.111Z" fill="#1389FF"/>
<path opacity="0.93" d="M58.1108 57.4297C59.2714 57.4297 60.385 57.8814 61.2042 58.6844L70.7364 68.0281C71.5599 68.8353 72.0164 69.9228 72.0164 71.0604V125.312C72.0164 131.468 66.9218 136.462 60.641 136.462H17.4135C11.1327 136.462 6.03809 131.468 6.03809 125.312V68.5802C6.03809 62.4236 11.1327 57.4297 17.4135 57.4297H58.1108Z" fill="#1288FF"/>
<path opacity="0.93" d="M58.1109 57.4492C59.2672 57.4492 60.3724 57.8967 61.1873 58.6998L70.7195 68.0435C71.5344 68.8465 71.9953 69.9256 71.9953 71.0591V125.31C71.9953 131.454 66.9134 136.44 60.6412 136.44H17.4137C11.1457 136.44 6.05957 131.458 6.05957 125.31V68.5788C6.05957 62.4348 11.1414 57.4492 17.4137 57.4492H58.1109Z" fill="#1188FF"/>
<path opacity="0.94" d="M58.1107 57.4746C59.2585 57.4746 60.3593 57.9221 61.17 58.7168L70.7022 68.0605C71.5129 68.8552 71.9695 69.9343 71.9695 71.0593V125.31C71.9695 131.442 66.8962 136.415 60.641 136.415H17.4135C11.1582 136.415 6.08496 131.442 6.08496 125.31V68.5791C6.08496 62.4476 11.1582 57.4746 17.4135 57.4746H58.1107Z" fill="#1087FF"/>
<path opacity="0.94" d="M58.1109 57.4961C59.2544 57.4961 60.3467 57.9394 61.1574 58.7341L70.6895 68.0778C71.496 68.8683 71.9525 69.9432 71.9525 71.0641V125.315C71.9525 131.434 66.8878 136.399 60.6454 136.399H17.4136C11.1712 136.399 6.10645 131.434 6.10645 125.315V68.5797C6.10645 62.4607 11.1712 57.4961 17.4136 57.4961H58.1109Z" fill="#0F87FF"/>
<path opacity="0.95" d="M58.1106 57.5215C59.2456 57.5215 60.3337 57.9648 61.1401 58.7511L70.6723 68.0948C71.4744 68.8811 71.9267 69.9477 71.9267 71.0644V125.316C71.9267 131.422 66.8748 136.374 60.6452 136.374H17.4134C11.1838 136.374 6.13184 131.422 6.13184 125.316V68.58C6.13184 62.4736 11.1838 57.5215 17.4134 57.5215H58.1106Z" fill="#0E86FF"/>
<path opacity="0.95" d="M58.1108 57.541C59.2415 57.541 60.321 57.9802 61.1232 58.7623L70.6554 68.106C71.4533 68.8881 71.9013 69.9505 71.9013 71.0588V125.31C71.9013 131.404 66.8579 136.348 60.641 136.348H17.4135C11.1967 136.348 6.15332 131.404 6.15332 125.31V68.5786C6.15332 62.4847 11.1967 57.541 17.4135 57.541H58.1108Z" fill="#0D86FF"/>
<path opacity="0.95" d="M58.1106 57.5664C59.2328 57.5664 60.3123 58.0014 61.1059 58.7835L70.6381 68.1272C71.4317 68.9051 71.8797 69.9591 71.8797 71.0633V125.314C71.8797 131.396 66.8491 136.327 60.6451 136.327H17.4133C11.2093 136.327 6.17871 131.396 6.17871 125.314V68.5789C6.17871 62.4976 11.2093 57.5664 17.4133 57.5664H58.1106Z" fill="#0C85FF"/>
<path opacity="0.96" d="M58.1107 57.5879C59.2287 57.5879 60.2996 58.0229 61.089 58.7966L70.6212 68.1403C71.4105 68.9141 71.8543 69.9639 71.8543 71.0597V125.311C71.8543 131.38 66.8322 136.302 60.641 136.302H17.4135C11.2223 136.302 6.2002 131.38 6.2002 125.311V68.5795C6.2002 62.5107 11.2223 57.5879 17.4135 57.5879H58.1107Z" fill="#0B85FF"/>
<path opacity="0.96" d="M58.1115 57.6133C59.2252 57.6133 60.2876 58.0441 61.0727 58.8178L70.6049 68.1615C71.39 68.9311 71.8337 69.9767 71.8337 71.0642V125.315C71.8337 131.372 66.8244 136.282 60.646 136.282H17.4143C11.2358 136.282 6.22656 131.372 6.22656 125.315V68.5798C6.22656 62.5235 11.2358 57.6133 17.4143 57.6133H58.1115Z" fill="#0A84FF"/>
<path opacity="0.96" d="M58.1107 57.6348C59.2158 57.6348 60.274 58.0656 61.0548 58.831L70.587 68.1746C71.3678 68.94 71.8073 69.9773 71.8073 71.0606V125.312C71.8073 131.355 66.8065 136.257 60.6409 136.257H17.4134C11.2478 136.257 6.24707 131.355 6.24707 125.312V68.5803C6.24707 62.5366 11.2478 57.6348 17.4134 57.6348H58.1107Z" fill="#0984FF"/>
<path opacity="0.97" d="M58.1114 57.6582C59.2123 57.6582 60.2619 58.0848 61.0385 58.846L70.5707 68.1897C71.3472 68.9509 71.7824 69.984 71.7824 71.0589V125.31C71.7824 131.341 66.7945 136.231 60.6417 136.231H17.4142C11.2614 136.231 6.27344 131.341 6.27344 125.31V68.5787C6.27344 62.5475 11.2614 57.6582 17.4142 57.6582H58.1114Z" fill="#0883FF"/>
<path opacity="0.97" d="M58.1106 57.6797C59.2029 57.6797 60.2483 58.1063 61.0249 58.8633L70.557 68.207C71.3293 68.9641 71.7646 69.9888 71.7646 71.0637V125.315C71.7646 131.333 66.7851 136.214 60.6451 136.214H17.4134C11.2734 136.214 6.29395 131.333 6.29395 125.315V68.5793C6.29395 62.5607 11.2734 57.6797 17.4134 57.6797H58.1106Z" fill="#0783FF"/>
<path opacity="0.98" d="M58.1114 57.7012C59.1994 57.7012 60.2405 58.1236 61.0086 58.8765L70.5407 68.2201C71.3088 68.973 71.7397 69.9935 71.7397 71.0601V125.311C71.7397 131.317 66.7731 136.186 60.6459 136.186H17.4141C11.2869 136.186 6.32031 131.317 6.32031 125.311V68.5798C6.32031 62.5738 11.2869 57.7054 17.4141 57.7054H58.1114V57.7012Z" fill="#0682FF"/>
<path opacity="0.98" d="M58.1115 57.7266C59.1911 57.7266 60.2279 58.1448 60.9917 58.8935L70.5238 68.2372C71.2876 68.9858 71.7143 70.0022 71.7143 71.0604V125.311C71.7143 131.305 66.7562 136.165 60.6418 136.165H17.4143C11.2999 136.165 6.3418 131.305 6.3418 125.311V68.5801C6.3418 62.5866 11.2999 57.7266 17.4143 57.7266H58.1115Z" fill="#0582FF"/>
<path opacity="0.98" d="M58.1107 57.7461C59.186 57.7461 60.2143 58.1643 60.9738 58.9088L70.5059 68.2525C71.2654 68.997 71.6921 70.005 71.6921 71.059V125.31C71.6921 131.291 66.7468 136.139 60.6452 136.139H17.4135C11.3119 136.139 6.3623 131.291 6.3623 125.31V68.5788C6.3623 62.5978 11.3076 57.7461 17.4135 57.7461H58.1107Z" fill="#0481FF"/>
<path opacity="0.99" d="M58.1115 57.7715C59.1782 57.7715 60.2022 58.1856 60.9575 58.9259L70.4896 68.2695C71.2449 69.0098 71.6673 70.0136 71.6673 71.0593V125.31C71.6673 131.279 66.7305 136.118 60.6417 136.118H17.4142C11.3254 136.118 6.38867 131.279 6.38867 125.31V68.579C6.38867 62.6106 11.3254 57.7715 17.4142 57.7715H58.1115Z" fill="#0381FF"/>
<path opacity="0.99" d="M58.1107 57.793C59.1731 57.793 60.1886 58.207 60.9396 58.9432L70.4717 68.2868C71.2227 69.023 71.6451 70.0184 71.6451 71.0598V125.311C71.6451 131.267 66.7212 136.093 60.6452 136.093H17.4134C11.3374 136.093 6.40918 131.267 6.40918 125.311V68.5796C6.40918 62.6237 11.3331 57.793 17.4134 57.793H58.1107Z" fill="#0280FF"/>
<path d="M58.1114 57.8184C59.1653 57.8184 60.1766 58.2282 60.9233 58.9602L70.4554 68.3039C71.2021 69.0358 71.6203 70.0271 71.6203 71.0601V125.311C71.6203 131.255 66.7049 136.073 60.6417 136.073H17.4142C11.351 136.073 6.43555 131.255 6.43555 125.311V68.5799C6.43555 62.6366 11.351 57.8184 17.4142 57.8184H58.1114Z" fill="#0180FF"/>
<path d="M58.1106 57.8379H17.4133C11.3629 57.8379 6.45605 62.6478 6.45605 68.5785V125.31C6.45605 131.241 11.3629 136.051 17.4133 136.051H60.6408C66.6912 136.051 71.5981 131.241 71.5981 125.31V71.0588C71.5981 70.0299 71.18 69.0428 70.4418 68.3192L60.9096 58.9755C60.1672 58.2478 59.1602 57.8421 58.1149 57.8421L58.1106 57.8379Z" fill="#007FFF"/>
</g>
<g opacity="0.8">
<g opacity="0.8">
<path d="M85.3296 84.9153V139.091C85.3296 145.022 80.4227 149.832 74.3723 149.832H31.1448C25.0944 149.832 20.1875 145.022 20.1875 139.091V82.3598C20.1875 76.429 25.0944 71.6191 31.1448 71.6191H71.7695C77.0647 76.8096 80.0344 79.7206 85.3296 84.9111V84.9153Z" fill="url(#paint0_linear_222_8606)" fill-opacity="0.4"/>
<path d="M85.3296 84.9153V139.091C85.3296 145.022 80.4227 149.832 74.3723 149.832H31.1448C25.0944 149.832 20.1875 145.022 20.1875 139.091V82.3598C20.1875 76.429 25.0944 71.6191 31.1448 71.6191H71.7695C77.0647 76.8096 80.0344 79.7206 85.3296 84.9111V84.9153Z" fill="url(#paint1_linear_222_8606)" fill-opacity="0.3"/>
</g>
</g>
<path d="M61.5121 88.3619H32.7748C30.9998 88.3619 29.5576 86.9482 29.5576 85.2083C29.5576 83.4684 30.9998 82.0547 32.7748 82.0547H61.5121C63.2871 82.0547 64.7293 83.4684 64.7293 85.2083C64.7293 86.9482 63.2871 88.3619 61.5121 88.3619Z" fill="white"/>
<path d="M72.7382 100.098H32.7748C30.9998 100.098 29.5576 98.6845 29.5576 96.9446C29.5576 95.2047 30.9998 93.791 32.7748 93.791H72.7382C74.5132 93.791 75.9554 95.2047 75.9554 96.9446C75.9554 98.6845 74.5132 100.098 72.7382 100.098Z" fill="white"/>
<path d="M72.7382 111.835H32.7748C30.9998 111.835 29.5576 110.421 29.5576 108.681C29.5576 106.941 30.9998 105.527 32.7748 105.527H72.7382C74.5132 105.527 75.9554 106.941 75.9554 108.681C75.9554 110.421 74.5132 111.835 72.7382 111.835Z" fill="white"/>
<path d="M72.7382 123.637H32.7748C30.9998 123.637 29.5576 122.224 29.5576 120.484C29.5576 118.744 30.9998 117.33 32.7748 117.33H72.7382C74.5132 117.33 75.9554 118.744 75.9554 120.484C75.9554 122.224 74.5132 123.637 72.7382 123.637Z" fill="white"/>
<path d="M72.7382 135.374H32.7748C30.9998 135.374 29.5576 133.96 29.5576 132.22C29.5576 130.48 30.9998 129.066 32.7748 129.066H72.7382C74.5132 129.066 75.9554 130.48 75.9554 132.22C75.9554 133.96 74.5132 135.374 72.7382 135.374Z" fill="white"/>
<path d="M71.7646 71.6191L85.329 84.9153H71.7646V71.6191Z" fill="#007FFF"/>
<path d="M74.3721 150H31.1446C25.0088 150 20.0166 145.107 20.0166 139.092V82.3611C20.0166 76.3466 25.0088 71.4531 31.1446 71.4531H71.8375L71.8887 71.5033L85.5 84.8455V139.092C85.5 145.107 80.5078 150 74.3721 150ZM31.1446 71.7919C25.2008 71.7919 20.3622 76.5349 20.3622 82.3611V139.092C20.3622 144.923 25.2008 149.662 31.1446 149.662H74.3721C80.32 149.662 85.1544 144.919 85.1544 139.092V84.9835L71.6925 71.7877H31.1403L31.1446 71.7919Z" fill="url(#paint2_linear_222_8606)" fill-opacity="0.4"/>
</g>
<defs>
<linearGradient id="paint0_linear_222_8606" x1="26.758" y1="134.28" x2="85.2615" y2="97.5222" gradientUnits="userSpaceOnUse">
<stop stop-color="#F2F8FF"/>
<stop offset="1" stop-color="#D9F0FF"/>
</linearGradient>
<linearGradient id="paint1_linear_222_8606" x1="28.4858" y1="79.456" x2="99.1716" y2="110.75" gradientUnits="userSpaceOnUse">
<stop stop-color="#5A81FF" stop-opacity="0.9"/>
<stop offset="0.447036" stop-color="#567DFF" stop-opacity="0.955296"/>
<stop offset="1" stop-color="#4E78FF" stop-opacity="0.9"/>
</linearGradient>
<linearGradient id="paint2_linear_222_8606" x1="26.6215" y1="134.382" x2="85.3997" y2="97.4163" gradientUnits="userSpaceOnUse">
<stop stop-color="#F2F8FF"/>
<stop offset="1" stop-color="#D9F0FF"/>
</linearGradient>
<clipPath id="clip0_222_8606">
<rect width="85" height="98" fill="white" transform="translate(0.5 52)"/>
</clipPath>
</defs>
</svg>