<svg width="116" height="150" viewBox="0 0 116 150" fill="none" xmlns="http://www.w3.org/2000/svg">
<path d="M29.0039 11.2461C28.9453 10.6471 28.6751 10.1784 28.1934 9.83984C27.7181 9.5013 27.0964 9.33203 26.3281 9.33203C25.8073 9.33203 25.3516 9.41016 24.9609 9.56641C24.5703 9.72266 24.2708 9.94076 24.0625 10.2207C23.8542 10.5007 23.75 10.8164 23.75 11.168C23.75 11.7083 23.9746 12.1283 24.4238 12.4277C24.873 12.7207 25.4557 12.9518 26.1719 13.1211L27.5 13.4727C28.7174 13.7526 29.7103 14.2181 30.4785 14.8691C31.2533 15.5137 31.6406 16.4023 31.6406 17.5352C31.6406 18.362 31.429 19.0911 31.0059 19.7227C30.5827 20.3542 29.9674 20.8457 29.1602 21.1973C28.3594 21.5423 27.4023 21.7148 26.2891 21.7148C25.1888 21.7148 24.235 21.5456 23.4277 21.207C22.6204 20.862 21.9889 20.3639 21.5332 19.7129C21.084 19.0553 20.8398 18.2643 20.8008 17.3398H23.3008C23.3594 18.056 23.6589 18.6029 24.1992 18.9805C24.7461 19.3581 25.4362 19.5469 26.2695 19.5469C26.8229 19.5469 27.3145 19.4622 27.7441 19.293C28.1738 19.1237 28.5059 18.8861 28.7402 18.5801C28.9811 18.2676 29.1016 17.9128 29.1016 17.5156C29.1016 17.0013 28.8867 16.6009 28.457 16.3145C28.0339 16.0215 27.3958 15.7643 26.543 15.543L24.9414 15.1328C22.4284 14.4753 21.1719 13.2057 21.1719 11.3242C21.1719 10.5039 21.3965 9.78125 21.8457 9.15625C22.2949 8.52474 22.9134 8.03646 23.7012 7.69141C24.4954 7.33984 25.3841 7.16406 26.3672 7.16406C27.3568 7.16406 28.2324 7.33984 28.9941 7.69141C29.7624 8.03646 30.3581 8.51823 30.7812 9.13672C31.2109 9.75521 31.4323 10.4583 31.4453 11.2461H29.0039ZM32.625 7.35938H43.8945V9.48828H39.5391V21.5H37V9.48828H32.625V7.35938ZM45.3867 7.35938H54.5859V9.48828H47.9258V13.3555H54.0977V15.4844H47.9258V19.3516H54.625V21.5H45.3867V7.35938ZM56.5273 7.35938H61.8398C62.8945 7.35938 63.7962 7.55794 64.5449 7.95508C65.2936 8.35221 65.86 8.9056 66.2441 9.61523C66.6283 10.3184 66.8203 11.1289 66.8203 12.0469C66.8203 12.9583 66.625 13.7689 66.2344 14.4785C65.8503 15.1816 65.2806 15.7318 64.5254 16.1289C63.7702 16.5195 62.862 16.7148 61.8008 16.7148H59.0664V21.5H56.5273V7.35938ZM61.4492 14.625C62.3737 14.625 63.0671 14.3939 63.5293 13.9316C63.9915 13.4629 64.2227 12.8346 64.2227 12.0469C64.2227 11.2526 63.9915 10.6276 63.5293 10.1719C63.0671 9.71615 62.3737 9.48828 61.4492 9.48828H59.0664V14.625H61.4492ZM77.6953 21.6953C76.5625 21.6953 75.5892 21.4121 74.7754 20.8457C73.9681 20.2728 73.3464 19.4427 72.9102 18.3555C72.4805 17.2682 72.2656 15.9596 72.2656 14.4297C72.2656 12.9062 72.4805 11.6009 72.9102 10.5137C73.3464 9.41992 73.9714 8.58984 74.7852 8.02344C75.599 7.45052 76.569 7.16406 77.6953 7.16406C78.8151 7.16406 79.7819 7.45052 80.5957 8.02344C81.416 8.58984 82.041 9.41992 82.4707 10.5137C82.9069 11.6009 83.125 12.9062 83.125 14.4297C83.125 15.9596 82.9069 17.2682 82.4707 18.3555C82.041 19.4427 81.4193 20.2728 80.6055 20.8457C79.7982 21.4121 78.8281 21.6953 77.6953 21.6953ZM77.6953 19.5664C78.2943 19.5664 78.8053 19.3743 79.2285 18.9902C79.6582 18.5996 79.987 18.0234 80.2148 17.2617C80.4492 16.4935 80.5664 15.5495 80.5664 14.4297C80.5664 13.3229 80.4492 12.3854 80.2148 11.6172C79.987 10.8424 79.6582 10.2598 79.2285 9.86914C78.7988 9.47201 78.2878 9.27344 77.6953 9.27344C77.1029 9.27344 76.5918 9.47201 76.1621 9.86914C75.7324 10.2598 75.4004 10.8424 75.166 11.6172C74.9382 12.3854 74.8242 13.3229 74.8242 14.4297C74.8242 15.5495 74.9382 16.4935 75.166 17.2617C75.4004 18.0234 75.7292 18.5996 76.1523 18.9902C76.582 19.3743 77.0964 19.5664 77.6953 19.5664ZM89.7734 21.6953C88.8424 21.6953 88.0026 21.5228 87.2539 21.1777C86.5052 20.8327 85.9128 20.3574 85.4766 19.752C85.0469 19.14 84.819 18.4466 84.793 17.6719H87.2734C87.2995 18.0495 87.4232 18.388 87.6445 18.6875C87.8724 18.987 88.1719 19.2214 88.543 19.3906C88.9206 19.5599 89.3307 19.6445 89.7734 19.6445C90.2943 19.6445 90.7598 19.5273 91.1699 19.293C91.5866 19.0586 91.9089 18.7363 92.1367 18.3262C92.3711 17.9095 92.4883 17.444 92.4883 16.9297C92.4883 16.3958 92.3678 15.9206 92.127 15.5039C91.8861 15.0807 91.554 14.752 91.1309 14.5176C90.7077 14.2767 90.2292 14.1562 89.6953 14.1562C88.5755 14.1367 87.7943 14.5404 87.3516 15.3672H84.9883L85.8477 7.35938H94.207V9.48828H87.9375L87.5078 13.2383H87.6445C87.9245 12.9193 88.3086 12.6621 88.7969 12.4668C89.2852 12.265 89.8125 12.1641 90.3789 12.1641C91.2448 12.1641 92.026 12.3659 92.7227 12.7695C93.4193 13.1732 93.9629 13.7331 94.3535 14.4492C94.7507 15.1589 94.9492 15.9596 94.9492 16.8516C94.9492 17.7826 94.7279 18.6159 94.2852 19.3516C93.849 20.0872 93.237 20.6634 92.4492 21.0801C91.668 21.4902 90.776 21.6953 89.7734 21.6953Z" fill="white"/>
<path d="M90.468 60.3977L37.9486 78.6078H23.2144C14.577 78.6078 7.5791 85.5723 7.5791 94.1563C7.5791 101.725 13.0189 108.031 20.2231 109.419C21.0211 109.57 21.6509 110.175 21.8083 110.968L26.7215 136.229C27.2373 138.896 29.2134 141.12 31.8681 141.763C36.6347 142.918 41.0648 138.826 40.2178 133.989L36.309 111.665C36.1299 110.644 36.9225 109.71 37.9594 109.71L90.4789 127.92C94.6103 129.351 98.9317 126.301 98.9317 121.949V66.3688C98.9317 62.0174 94.6103 58.9616 90.4789 60.3977H90.468Z" fill="white"/>
<mask id="mask0_222_9219" style="mask-type:luminance" maskUnits="userSpaceOnUse" x="49" y="71" width="67" height="77">
<path d="M115.783 109.998C115.783 103.724 114.442 97.8505 112.124 92.7919V78.9818C112.124 74.166 107.346 70.7918 102.775 72.379L53.7358 89.3852C50.9942 90.3354 49.1592 92.9052 49.1592 95.7936V123.624C49.1592 126.513 50.9942 129.083 53.7358 130.033L102.775 147.039C107.346 148.626 112.124 145.252 112.124 140.436V127.204C114.442 122.145 115.783 116.277 115.783 109.998Z" fill="white"/>
</mask>
<g mask="url(#mask0_222_9219)">
<path opacity="0.05" d="M23.2193 71.4127H36.7265L82.791 55.4377C82.8941 55.3999 88.2959 53.5913 88.3719 53.6561C89.854 53.2134 91.3687 53.0406 92.8617 53.127C100.196 53.127 106.157 59.8215 106.157 67.1207V117.459C106.157 117.518 106.141 122.053 106.114 122.097C106.043 125.8 104.485 129.218 101.771 131.679C99.2624 134.114 95.5218 135.297 92.0365 135.297C90.5435 135.297 88.8768 134.978 87.4544 134.487L46.8406 120.407C46.8135 120.407 45.1088 119.84 45.0979 119.861C45.0871 119.878 45.2825 121.028 45.2879 121.044L47.2423 132.214C47.9427 136.204 46.9329 140.798 44.3216 143.891C41.7157 147.136 37.8123 149.042 33.6537 149.107C32.5299 149.123 31.3953 149.004 30.2824 148.75C28.822 148.416 27.4485 147.849 26.1944 147.088C22.8393 145.047 20.3963 141.613 19.6145 137.591L15.3582 115.704C14.2073 115.272 13.0618 114.603 12.0249 113.977C11.3517 113.572 10.6948 113.118 10.0487 112.67C4.14205 108.567 0.341797 101.727 0.341797 94.1578C0.341797 81.6164 10.6025 71.4127 23.2139 71.4127H23.2193Z" fill="#FEFEFE"/>
<path opacity="0.09" d="M23.2195 71.752H36.7864L83.1549 55.6744C83.3667 55.6042 88.6219 53.909 88.7684 54.0385C90.2397 53.6714 91.7218 53.585 93.1442 53.7632C100.126 53.7632 105.81 60.9328 105.81 67.8864V117.679C105.81 117.793 105.777 122.171 105.718 122.258C105.582 125.896 103.948 129.211 101.222 131.506C98.8337 133.822 94.8109 134.794 91.4938 134.794C90.0714 134.794 88.2853 134.421 86.9335 133.957L46.4174 119.909C46.3576 119.909 44.7127 119.385 44.6855 119.429C44.6692 119.456 44.8484 120.573 44.8538 120.606L46.8082 131.754C47.476 135.555 46.6128 140.484 44.1209 143.432C41.6616 146.666 37.8776 148.609 33.8059 148.733C32.7039 148.766 31.5909 148.668 30.4943 148.431C29.0611 148.123 27.6984 147.583 26.4552 146.844C23.1327 144.873 20.7114 141.493 19.9459 137.536L15.695 115.666C14.5984 115.255 13.4637 114.456 12.4865 113.846C11.8296 113.436 11.1836 112.966 10.5321 112.529C4.56571 108.539 0.689453 101.726 0.689453 94.1569C0.689453 81.8045 10.7927 71.752 23.2195 71.752Z" fill="#FDFDFD"/>
<path opacity="0.14" d="M23.2193 72.0984H36.8459L83.5239 55.9128C83.8388 55.8048 88.9528 54.223 89.1754 54.4173C90.6412 54.1258 92.0907 54.1312 93.4425 54.3904C100.077 54.3904 105.473 62.035 105.473 68.6431V117.891C105.473 118.064 105.424 122.28 105.337 122.41C105.131 125.984 103.432 129.196 100.696 131.323C98.4263 133.526 94.1212 134.276 90.9669 134.276C89.6151 134.276 87.7096 133.85 86.4229 133.407L45.9991 119.392C45.9122 119.392 44.3216 118.911 44.2836 118.981C44.2564 119.025 44.4247 120.104 44.4356 120.158L46.3846 131.28C47.0197 134.892 46.3031 140.155 43.9361 142.957C41.6288 146.175 37.9588 148.156 33.974 148.345C32.8937 148.399 31.797 148.318 30.7221 148.102C29.3106 147.816 27.9696 147.303 26.7372 146.591C23.4473 144.685 21.0532 141.365 20.2931 137.472L16.0422 115.613C14.9999 115.224 13.8761 114.301 12.9586 113.701C12.318 113.286 11.6828 112.794 11.0205 112.373C4.98894 108.519 1.03125 101.727 1.03125 94.1578C1.03125 81.989 10.9825 72.0984 23.2139 72.0984H23.2193Z" fill="#FCFCFC"/>
<path opacity="0.18" d="M23.2195 72.4368H36.9058L83.8878 56.1433C84.3059 55.9975 89.2733 54.529 89.5719 54.7936C91.0269 54.5776 92.4492 54.6694 93.7251 55.0203C100.012 55.0203 105.126 63.1401 105.126 69.3973V118.1C105.126 118.332 105.061 122.386 104.947 122.559C104.67 126.068 102.905 129.173 100.158 131.138C98.0085 133.222 93.421 133.762 90.4351 133.762C89.1593 133.762 87.1289 133.281 85.9074 132.86L45.5758 118.877C45.4618 118.877 43.9254 118.44 43.8712 118.532C43.8386 118.591 43.9906 119.633 44.0069 119.703L45.9504 130.803C46.5476 134.226 45.9776 139.824 43.7354 142.481C41.5747 145.688 38.0242 147.707 34.1262 147.955C33.0676 148.025 31.9927 147.96 30.934 147.766C29.5496 147.507 28.225 147.021 27.0035 146.33C23.7461 144.489 21.3737 141.228 20.6299 137.4L16.3845 115.557C15.3964 115.184 14.2835 114.137 13.4257 113.554C12.8014 113.127 12.1771 112.62 11.5093 112.215C5.4126 108.495 1.37891 101.731 1.37891 94.1615C1.37891 82.1816 11.1727 72.4422 23.2195 72.4422V72.4368Z" fill="#FBFBFB"/>
<path opacity="0.23" d="M23.2198 72.7839H36.9605L84.2573 56.3824C84.7785 56.1988 89.6048 54.8491 89.974 55.173C91.4235 55.0327 92.8079 55.2108 94.0185 55.6535C99.9524 55.6535 104.784 64.2484 104.784 70.1601V118.323C104.784 118.614 104.703 122.507 104.556 122.723C104.214 126.167 102.374 129.169 99.6158 130.967C97.5854 132.937 92.7156 133.256 89.8925 133.256C88.6873 133.256 86.5375 132.721 85.3865 132.322L45.1527 118.371C45.0116 118.371 43.5295 117.977 43.4643 118.09C43.4209 118.166 43.562 119.17 43.5783 119.262L45.5164 130.335C46.0811 133.569 45.6576 139.507 43.5403 142.007C41.5316 145.198 38.0897 147.255 34.2786 147.568C33.2416 147.654 32.1884 147.611 31.1461 147.433C29.7834 147.195 28.4805 146.736 27.2698 146.072C24.045 144.302 21.6943 141.095 20.9614 137.332L16.716 115.499C15.7822 115.148 14.6801 113.971 13.8821 113.404C13.274 112.972 12.6551 112.443 11.9819 112.055C5.82552 108.464 1.71582 101.727 1.71582 94.1523C1.71582 82.3613 11.3576 72.7785 23.209 72.7785L23.2198 72.7839Z" fill="#FAFAFA"/>
<path opacity="0.27" d="M23.2196 73.1229H37.0199L84.6208 56.6188C85.2506 56.4029 89.9249 55.1611 90.3701 55.5552C91.8087 55.4905 93.166 55.755 94.3006 56.2841C99.887 56.2841 104.431 65.354 104.431 70.9202V118.537C104.431 118.883 104.328 122.619 104.16 122.884C103.747 126.263 101.841 129.162 99.0726 130.793C97.1617 132.645 92.0042 132.752 89.3494 132.752C88.2148 132.752 85.9455 132.164 84.8597 131.792L44.7182 117.873C44.5444 117.873 43.1221 117.523 43.0461 117.657C42.9972 117.744 43.1221 118.716 43.1438 118.824L45.0819 129.875C45.6139 132.914 45.3316 139.193 43.3392 141.547C41.4771 144.727 38.1546 146.822 34.4303 147.194C33.4206 147.297 32.3836 147.275 31.3576 147.119C30.022 146.908 28.7354 146.476 27.5356 145.834C24.3488 144.128 22.0144 140.98 21.2978 137.282L17.0578 115.466C16.1783 115.136 15.0871 113.824 14.3487 113.279C13.7515 112.836 13.1489 112.296 12.4649 111.913C6.24332 108.453 2.05762 101.736 2.05762 94.1674C2.05762 82.5654 11.542 73.1337 23.2087 73.1337L23.2196 73.1229Z" fill="#F9F9F9"/>
<path opacity="0.32" d="M23.2191 73.4642H37.0792L84.9895 56.8522C85.7224 56.5984 90.2556 55.4755 90.7768 55.929C92.21 55.9398 93.5347 56.2961 94.5987 56.9116C99.8377 56.9116 104.099 66.4566 104.099 71.6718V118.744C104.099 119.149 103.98 122.723 103.784 123.03C103.301 126.345 101.325 129.142 98.551 130.605C96.7595 132.343 91.3197 132.23 88.8332 132.23C87.7691 132.23 85.3804 131.588 84.3652 131.237L44.316 117.351C44.1151 117.351 42.747 117.043 42.6547 117.2C42.595 117.302 42.709 118.236 42.7362 118.366L44.6688 129.39C45.1683 132.241 45.0326 138.854 43.165 141.062C41.4549 144.232 38.2464 146.359 34.609 146.796C33.621 146.92 32.6058 146.915 31.596 146.774C30.2822 146.591 29.0172 146.18 27.8283 145.57C24.6741 143.929 22.3668 140.841 21.6556 137.208L17.4156 115.402C16.5958 115.094 15.5155 113.647 14.8314 113.124C14.2451 112.676 13.6588 112.114 12.9693 111.747C6.68804 108.416 2.4209 101.727 2.4209 94.1578C2.4209 82.7448 11.7478 73.4696 23.2246 73.4696L23.2191 73.4642Z" fill="#F8F8F8"/>
<path opacity="0.36" d="M23.2195 73.8098H37.1392L85.3536 57.0897C86.1896 56.7982 90.5762 55.7886 91.1734 56.3123C92.5958 56.3987 93.8879 56.8414 94.8868 57.5432C99.7728 57.5432 103.752 67.5688 103.752 72.4331V118.96C103.752 119.424 103.617 122.836 103.389 123.187C102.835 126.437 100.793 129.126 98.0084 130.427C96.3363 132.046 90.6142 131.723 88.2906 131.723C87.2971 131.723 84.789 131.026 83.8389 130.697L43.8874 116.843C43.6594 116.843 42.3456 116.579 42.2424 116.763C42.1719 116.881 42.275 117.777 42.3022 117.923L44.2294 128.926C44.6963 131.588 44.7072 138.536 42.9591 140.598C41.3955 143.751 38.3065 145.921 34.7559 146.418C33.7896 146.558 32.7961 146.575 31.8026 146.45C30.5159 146.294 29.2619 145.911 28.0892 145.322C24.9676 143.746 22.682 140.717 21.9871 137.148L17.7525 115.359C16.987 115.073 15.923 113.491 15.2932 112.989C14.7232 112.53 14.1477 111.952 13.4474 111.601C7.10639 108.4 2.75781 101.738 2.75781 94.1632C2.75781 82.9391 11.9327 73.8152 23.2195 73.8152V73.8098Z" fill="#F7F7F7"/>
<path opacity="0.41" d="M23.2192 74.1484H37.1933L85.7171 57.3258C86.6563 57.0018 90.9017 56.1056 91.5695 56.6887C92.9865 56.8507 94.246 57.3798 95.1689 58.1734C99.7075 58.1734 103.399 68.674 103.399 73.1928V119.174C103.399 119.698 103.247 122.948 102.992 123.342C102.373 126.527 100.256 129.113 97.4599 130.253C95.9072 131.759 89.9028 131.214 87.7475 131.214C86.8246 131.214 84.1916 130.463 83.3121 130.161L43.4529 116.34C43.1977 116.34 41.9382 116.119 41.8188 116.324C41.7428 116.459 41.8296 117.317 41.8622 117.479L43.784 128.46C44.2183 130.933 44.3704 138.216 42.7525 140.132C41.3356 143.274 38.3605 145.477 34.9023 146.039C33.9577 146.195 32.9859 146.228 32.0087 146.13C30.7492 146.001 29.5114 145.639 28.3496 145.078C25.2605 143.571 22.9966 140.597 22.318 137.093L18.0835 115.314C17.3723 115.044 16.3245 113.333 15.749 112.852C15.1736 112.372 14.6252 111.789 13.9249 111.454C7.51876 108.382 3.09961 101.747 3.09961 94.1725C3.09961 83.1374 12.1171 74.1646 23.2192 74.1646V74.1484Z" fill="#F6F6F6"/>
<path opacity="0.45" d="M23.2199 74.494H37.2537L86.0815 57.5634C87.1293 57.2016 91.2227 56.4188 91.9719 57.0721C93.378 57.3096 94.6103 57.9305 95.4627 58.8051C99.6538 58.8051 103.063 69.7808 103.063 73.9487V119.385C103.063 119.963 102.895 123.056 102.613 123.493C101.923 126.614 99.7407 129.097 96.9339 130.069C95.5007 131.457 89.214 130.695 87.2216 130.695C86.3692 130.695 83.6167 129.891 82.8078 129.61L43.0409 115.822C42.7532 115.822 41.5534 115.644 41.4231 115.87C41.3362 116.016 41.4122 116.842 41.4448 117.026L43.3612 127.98C43.763 130.258 44.0615 137.881 42.5686 139.652C41.3036 142.783 38.4426 145.024 35.0712 145.645C34.1483 145.817 33.1928 145.871 32.2373 145.79C30.9995 145.682 29.7834 145.353 28.6325 144.813C25.576 143.372 23.3393 140.456 22.6661 137.017L18.437 115.255C17.7801 115.006 16.8246 113.047 16.2274 112.701C15.7822 112.123 15.1308 111.616 14.4196 111.292C7.95371 108.35 3.45312 101.736 3.45312 94.1671C3.45312 83.321 12.3186 74.5048 23.2253 74.5048L23.2199 74.494Z" fill="#F5F5F5"/>
<path opacity="0.5" d="M23.2192 74.8353H37.3127L86.45 57.7968C87.6009 57.3973 91.5532 56.7332 92.3729 57.4459C93.7736 57.759 94.968 58.4662 95.7497 59.4326C99.588 59.4326 102.715 70.8834 102.715 74.7058V119.597C102.715 120.234 102.53 123.165 102.216 123.646C101.456 126.701 99.2026 129.082 96.3904 129.887C95.0766 131.161 88.5076 130.184 86.678 130.184C85.8962 130.184 83.0243 129.325 82.2806 129.066L42.6114 115.31C42.2965 115.31 41.151 115.175 41.0044 115.423C40.9121 115.585 40.9718 116.374 41.0044 116.573L42.9208 127.506C43.2845 129.595 43.7351 137.558 42.3616 139.178C41.2433 142.293 38.5017 144.571 35.2172 145.257C34.316 145.446 33.3822 145.522 32.443 145.457C31.2323 145.376 30.0325 145.074 28.8924 144.555C25.8685 143.179 23.6535 140.323 22.9966 136.948L18.7675 115.197C18.1649 114.97 17.2311 112.864 16.6828 112.546C16.2593 111.952 15.6133 111.434 14.8967 111.126C8.37108 108.313 3.78906 101.727 3.78906 94.1576C3.78906 83.5004 12.4971 74.8353 23.2192 74.8353Z" fill="#F4F4F4"/>
<path opacity="0.55" d="M23.2194 75.1799H37.3726L86.8194 58.0333C88.0734 57.596 91.8791 57.0454 92.7749 57.8282C94.1647 58.2169 95.3319 59.0105 96.0431 60.0633C99.5339 60.0633 102.373 71.9892 102.373 75.4606V119.806C102.373 120.503 102.172 123.267 101.83 123.801C101.005 126.792 98.6816 129.065 95.8531 129.708C94.6587 130.868 87.802 129.67 86.1462 129.67C85.435 129.67 82.4436 128.757 81.765 128.525L42.1881 114.802C41.8461 114.802 40.7549 114.71 40.5974 114.98C40.4943 115.158 40.5431 115.908 40.5866 116.13L42.4976 127.035C42.8287 128.936 43.4205 137.234 42.1772 138.702C41.2109 141.806 38.5833 144.122 35.3857 144.867C34.5116 145.078 33.5941 145.17 32.6712 145.121C31.4823 145.062 30.3042 144.786 29.175 144.295C26.189 142.989 23.9903 140.187 23.3443 136.877L19.1151 115.142C18.5668 114.937 17.6548 112.691 17.1553 112.399C16.759 111.784 16.1129 111.26 15.3855 110.968C8.79474 108.285 4.13672 101.726 4.13672 94.1512C4.13672 83.6776 12.6873 75.1745 23.2194 75.1745V75.1799Z" fill="#F4F4F4"/>
<path opacity="0.59" d="M23.2193 75.521H37.4268L87.1776 58.2719C88.5348 57.8022 92.1993 57.3649 93.1657 58.2071C94.5446 58.6714 95.6847 59.5514 96.3199 60.6959C99.4632 60.6959 102.02 73.0969 102.02 76.2228V120.029C102.02 120.779 101.803 123.387 101.429 123.964C100.533 126.896 98.1386 129.061 95.3047 129.536C94.2297 130.578 87.0907 129.169 85.5977 129.169C84.9571 129.169 81.8463 128.202 81.2383 127.992L41.7537 114.3C41.3791 114.3 40.3476 114.252 40.1739 114.543C40.0653 114.732 40.0979 115.45 40.1413 115.688L42.0468 126.572C42.3454 128.283 43.0838 136.916 41.96 138.239C41.1402 141.327 38.6266 143.681 35.5213 144.491C34.6689 144.717 33.7732 144.825 32.8665 144.804C31.7047 144.771 30.5429 144.523 29.4191 144.053C26.4658 142.811 24.2888 140.069 23.659 136.824L19.4353 115.1C18.9413 114.916 18.051 112.524 17.6004 112.265C17.2258 111.633 16.5797 111.099 15.8522 110.818C9.2018 108.265 4.46777 101.727 4.46777 94.1576C4.46777 83.8729 12.8663 75.521 23.2084 75.521H23.2193Z" fill="#F3F3F3"/>
<path opacity="0.64" d="M23.2198 75.8666H37.4871L87.5473 58.5095C89.0131 58.002 92.5256 57.678 93.5734 58.5904C94.9469 59.1303 96.049 60.1021 96.619 61.3276C99.4149 61.3276 101.684 74.2037 101.684 76.9841V120.245C101.684 121.054 101.451 123.5 101.049 124.121C100.083 126.988 97.6234 129.05 94.7786 129.358C93.8231 130.286 86.4018 128.656 85.0771 128.656C84.5071 128.656 81.2768 127.636 80.7339 127.447L41.347 113.788C40.9453 113.788 39.9627 113.788 39.7835 114.101C39.6641 114.306 39.6858 114.986 39.7346 115.24L41.6348 126.097C41.9008 127.619 42.7803 136.587 41.7868 137.764C41.119 140.841 38.7194 143.233 35.7009 144.102C34.8703 144.345 33.9963 144.474 33.1059 144.469C31.9658 144.464 30.8203 144.237 29.7128 143.794C26.7921 142.617 24.6422 139.934 24.0233 136.754L19.7996 115.046C19.3599 114.884 18.4858 112.352 18.0895 112.119C17.742 111.472 17.096 110.932 16.3577 110.662C9.64749 108.238 4.83203 101.727 4.83203 94.1576C4.83203 84.0619 13.0731 75.8666 23.2253 75.8666H23.2198Z" fill="#F2F2F2"/>
<path opacity="0.68" d="M23.2197 76.2065H37.5467L87.9109 58.7414C89.4798 58.1962 92.8512 57.991 93.9696 58.9628C95.3322 59.5783 96.4072 60.6364 96.9012 61.9537C99.3442 61.9537 101.331 75.3049 101.331 77.7344V120.45C101.331 121.319 101.081 123.602 100.653 124.267C99.6211 127.068 97.0858 129.023 94.2356 129.169C93.3995 129.978 85.6959 128.137 84.5341 128.137C84.0346 128.137 80.685 127.063 80.2126 126.896L40.918 113.269C40.4891 113.269 39.5608 113.307 39.3654 113.647C39.2351 113.868 39.2514 114.511 39.2948 114.786L41.1949 125.622C41.4284 126.95 42.4544 136.257 41.5804 137.288C41.0592 140.355 38.779 142.779 35.8474 143.713C35.0385 143.972 34.1862 144.123 33.3121 144.134C32.1992 144.15 31.07 143.956 29.9733 143.535C27.0851 142.428 24.957 139.799 24.3489 136.684L20.1307 114.986C19.7452 114.84 18.8929 112.173 18.5454 111.968C18.2197 111.299 17.5791 110.753 16.8299 110.5C10.0546 108.205 5.16309 101.721 5.16309 94.1521C5.16309 84.2453 13.2522 76.2011 23.2143 76.2011L23.2197 76.2065Z" fill="#F1F1F1"/>
<path opacity="0.73" d="M23.2195 76.5519H37.6062L88.2744 58.9789C89.9465 58.4012 93.1767 58.304 94.3657 59.346C95.7229 60.037 96.7653 61.1816 97.1887 62.5852C99.2843 62.5852 100.989 76.4115 100.989 78.4955V120.665C100.989 121.594 100.718 123.716 100.261 124.423C99.1594 127.16 96.5589 129.012 93.6925 128.99C92.9759 129.687 84.9899 127.624 83.991 127.624C83.5675 127.624 80.093 126.496 79.6858 126.356L40.4835 112.762C40.0275 112.762 39.1534 112.843 38.9471 113.204C38.8114 113.442 38.8114 114.046 38.8602 114.338L40.7549 125.146C40.9558 126.286 42.1285 135.928 41.3793 136.813C41.0047 139.863 38.844 142.331 35.9992 143.324C35.212 143.599 34.3814 143.767 33.5236 143.805C32.4378 143.848 31.3249 143.675 30.2391 143.281C27.3835 142.239 25.2771 139.669 24.6853 136.619L20.467 114.937C20.1359 114.813 19.3052 112 19.0066 111.828C18.708 111.142 18.0674 110.586 17.3128 110.348C10.4778 108.183 5.50488 101.726 5.50488 94.1519C5.50488 84.4341 13.4366 76.5465 23.2086 76.5465L23.2195 76.5519Z" fill="#F0F0F0"/>
<path opacity="0.77" d="M23.2191 76.8914H37.6601L88.6432 59.2158C90.4185 58.6004 93.5021 58.6166 94.7671 59.7233C96.1134 60.4899 97.1232 61.7209 97.4815 63.2163C99.2296 63.2163 100.647 77.5177 100.647 79.2561V120.881C100.647 121.863 100.359 123.828 99.8757 124.579C98.703 127.251 96.032 129.001 93.1601 128.812C92.5629 129.389 84.2946 127.116 83.464 127.116C83.1111 127.116 79.5172 125.934 79.1752 125.815L40.0706 112.253C39.5819 112.253 38.7676 112.378 38.545 112.761C38.3984 113.009 38.3876 113.582 38.4419 113.895L40.3311 124.682C40.4994 125.632 41.8132 135.609 41.1889 136.348C40.9663 139.388 38.9142 141.887 36.1617 142.946C35.4017 143.243 34.5873 143.426 33.7458 143.48C32.6818 143.545 31.5906 143.404 30.5156 143.032C27.6926 142.055 25.6079 139.544 25.027 136.559L20.8141 114.888C20.5427 114.786 19.7283 111.832 19.4786 111.687C19.2017 110.985 18.5611 110.418 17.8011 110.197C10.9063 108.161 5.85742 101.726 5.85742 94.1568C5.85742 84.6279 13.6371 76.8914 23.2191 76.8914Z" fill="#EFEFEF"/>
<path opacity="0.82" d="M23.2198 77.238H37.7205L89.0076 59.4544C90.8914 58.8011 93.8285 58.9361 95.1694 60.1076C96.5104 60.9498 97.4876 62.2725 97.7699 63.849C99.1651 63.849 100.305 78.6255 100.305 80.0129V121.092C100.305 122.134 100.001 123.937 99.4908 124.736C98.2531 127.344 95.5114 128.991 92.6287 128.634C92.1509 129.099 83.5949 126.604 82.9326 126.604C82.6503 126.604 78.9369 125.368 78.6655 125.271L39.6532 111.742C39.1374 111.742 38.3774 111.909 38.1439 112.314C37.9919 112.578 37.9648 113.113 38.0191 113.442L39.9029 124.202C40.0386 124.963 41.499 135.28 40.9995 135.869C40.9235 138.892 38.9908 141.435 36.3252 142.552C35.5869 142.866 34.7888 143.071 33.9691 143.141C32.9321 143.233 31.8572 143.114 30.7931 142.774C28.0081 141.867 25.9451 139.41 25.3751 136.484L21.1622 114.83C20.9451 114.749 20.1524 111.65 19.9516 111.536C19.7018 110.813 19.0612 110.246 18.2957 110.036C11.3359 108.13 6.21094 101.721 6.21094 94.1524C6.21094 84.8125 13.8332 77.2326 23.2252 77.2326L23.2198 77.238Z" fill="#EEEEEE"/>
<path opacity="0.86" d="M23.2197 77.5771H37.7801L89.3712 59.6855C91.3582 58.9945 94.1487 59.2428 95.5656 60.4791C96.8957 61.3915 97.8458 62.806 98.0575 64.4742C99.1053 64.4742 99.9576 79.7258 99.9576 80.7678V121.302C99.9576 122.403 99.6373 124.044 99.0944 124.887C97.7861 127.43 94.9793 128.968 92.0803 128.455C91.7219 128.801 82.8836 126.096 82.3896 126.096C82.1779 126.096 78.3451 124.806 78.1388 124.736L39.2187 111.239C38.6758 111.239 37.9701 111.449 37.7204 111.881C37.5575 112.162 37.5195 112.658 37.5792 113.009L39.4576 123.748C39.5553 124.32 41.1623 134.972 40.7931 135.414C40.8691 138.427 39.0504 141.007 36.4663 142.184C35.7497 142.514 34.9733 142.735 34.1698 142.832C33.1546 142.946 32.1014 142.859 31.0482 142.541C28.2957 141.698 26.2544 139.301 25.7007 136.44L21.4933 114.796C21.3304 114.737 20.5541 111.498 20.4075 111.411C20.1795 110.672 19.5443 110.094 18.7679 109.9C11.7483 108.123 6.54199 101.742 6.54199 94.1676C6.54199 85.0166 14.0068 77.5879 23.2142 77.5879L23.2197 77.5771Z" fill="#EDEDED"/>
<path opacity="0.91" d="M23.2199 77.9235H37.84L89.7406 59.9239C91.8307 59.2005 94.48 59.5622 95.9676 60.8633C97.2922 61.8513 98.2043 63.3522 98.3454 65.1068C99.0458 65.1068 99.6104 80.8334 99.6104 81.5299V121.519C99.6104 122.679 99.2738 124.159 98.7038 125.044C97.3248 127.522 94.4475 128.958 91.543 128.278C91.3041 128.51 82.1835 125.584 81.8523 125.584C81.7112 125.584 77.7535 124.24 77.6232 124.191L38.8009 110.727C38.2309 110.727 37.5794 110.98 37.3188 111.434C37.1505 111.731 37.0962 112.19 37.1559 112.557L39.0344 123.268C39.0995 123.646 40.8531 134.638 40.6033 134.929C40.8259 137.931 39.1212 140.544 36.6293 141.786C35.9344 142.131 35.1798 142.374 34.3926 142.488C33.4046 142.628 32.3676 142.563 31.3253 142.272C28.6054 141.494 26.5858 139.157 26.0429 136.36L21.8355 114.732C21.7269 114.689 20.9723 111.315 20.8746 111.256C20.6737 110.5 20.0385 109.911 19.2568 109.733C12.1774 108.087 6.88965 101.727 6.88965 94.1577C6.88965 85.1903 14.2024 77.9235 23.2144 77.9235H23.2199Z" fill="#ECECEC"/>
<path opacity="0.95" d="M23.22 78.2633H37.8944L90.1044 60.1612C92.2977 59.3999 94.8004 59.875 96.364 61.2409C97.6778 62.3045 98.5627 63.8917 98.6333 65.7381C98.9807 65.7381 99.2684 81.9399 99.2684 82.2854V121.734C99.2684 122.949 98.9156 124.272 98.3184 125.2C96.8743 127.614 93.9264 128.947 91.011 128.099C90.8916 128.213 81.4887 125.071 81.3204 125.071C81.2498 125.071 77.1727 123.672 77.1075 123.645L38.3775 110.219C37.7749 110.219 37.1832 110.516 36.9117 110.991C36.7326 111.298 36.6674 111.725 36.7326 112.108L38.6056 122.798C38.6381 122.987 40.5383 134.313 40.4134 134.459C40.7826 137.445 39.1973 140.101 36.7923 141.402C36.1191 141.769 35.3862 142.028 34.6153 142.158C33.6489 142.32 32.6283 142.287 31.6022 142.018C28.9149 141.31 26.9225 139.027 26.3905 136.295L22.1885 114.683C22.1342 114.662 21.4013 111.142 21.3524 111.115C21.1733 110.343 20.5381 109.744 19.7509 109.576C12.6064 108.059 7.24805 101.726 7.24805 94.1573C7.24805 85.3789 14.4034 78.2633 23.2308 78.2633H23.22Z" fill="#EBEBEB"/>
<path d="M90.468 60.3977L37.9486 78.6078H23.2144C14.577 78.6078 7.5791 85.5723 7.5791 94.1563C7.5791 101.725 13.0189 108.031 20.2231 109.419C21.0211 109.57 21.6509 110.175 21.8083 110.968L26.7215 136.229C27.2373 138.896 29.2134 141.12 31.8681 141.763C36.6347 142.918 41.0648 138.826 40.2178 133.989L36.309 111.665C36.1299 110.644 36.9225 109.71 37.9594 109.71L90.4789 127.92C94.6103 129.351 98.9317 126.301 98.9317 121.949V66.3688C98.9317 62.0174 94.6103 58.9616 90.4789 60.3977H90.468Z" fill="#EAEAEA"/>
</g>
<g opacity="0.8">
<g opacity="0.8">
<path d="M115.783 109.998C115.783 103.724 114.442 97.8505 112.124 92.7919V78.9818C112.124 74.166 107.346 70.7918 102.775 72.379L53.7358 89.3852C50.9942 90.3354 49.1592 92.9052 49.1592 95.7936V123.624C49.1592 126.513 50.9942 129.083 53.7358 130.033L102.775 147.039C107.346 148.626 112.124 145.252 112.124 140.436V127.204C114.442 122.145 115.783 116.277 115.783 109.998Z" fill="url(#paint0_linear_222_9219)" fill-opacity="0.4"/>
<path d="M115.783 109.998C115.783 103.724 114.442 97.8505 112.124 92.7919V78.9818C112.124 74.166 107.346 70.7918 102.775 72.379L53.7358 89.3852C50.9942 90.3354 49.1592 92.9052 49.1592 95.7936V123.624C49.1592 126.513 50.9942 129.083 53.7358 130.033L102.775 147.039C107.346 148.626 112.124 145.252 112.124 140.436V127.204C114.442 122.145 115.783 116.277 115.783 109.998Z" fill="url(#paint1_linear_222_9219)" fill-opacity="0.3"/>
</g>
</g>
<path d="M96.3528 134.151C95.6742 134.151 94.9902 133.984 94.355 133.622C92.4114 132.521 91.7328 130.064 92.8403 128.132C95.8588 122.857 97.4495 116.584 97.4495 109.992C97.4495 103.4 95.8534 97.1263 92.8403 91.8517C91.7328 89.919 92.4169 87.4625 94.355 86.3612C96.2986 85.2652 98.7687 85.9401 99.8762 87.8674C103.584 94.3514 105.544 102.001 105.544 109.986C105.544 117.971 103.584 125.621 99.8762 132.105C99.1325 133.412 97.7644 134.14 96.3528 134.14V134.151Z" fill="white"/>
<path d="M82.7205 126.383C82.2265 126.383 81.7216 126.286 81.2384 126.081C79.3329 125.266 78.448 123.069 79.2677 121.168C80.7824 117.67 81.5479 113.912 81.5479 109.993C81.5479 106.073 80.7824 102.316 79.2677 98.8117C78.448 96.9168 79.3275 94.7141 81.233 93.8989C83.1386 93.0836 85.3536 93.9582 86.1733 95.8532C88.0952 100.291 89.067 105.047 89.067 109.987C89.067 114.927 88.0952 119.678 86.1733 124.11C85.5599 125.525 84.1755 126.373 82.7205 126.373V126.383Z" fill="white"/>
<g opacity="0.8">
<path d="M105.115 147.654C104.311 147.654 103.497 147.519 102.704 147.243L53.6646 130.237C50.8361 129.255 48.9414 126.598 48.9414 123.624V95.7929C48.9414 92.8182 50.8415 90.1566 53.6646 89.1794L102.704 72.1732C104.952 71.3958 107.351 71.7359 109.289 73.1018C111.228 74.4731 112.34 76.6164 112.34 78.9811V92.748C114.735 97.9902 116 103.956 116 109.997C116 116.038 114.735 122.004 112.34 127.252V140.441C112.34 142.806 111.228 144.949 109.289 146.32C108.035 147.206 106.586 147.659 105.115 147.659V147.654ZM105.115 72.1948C104.36 72.1948 103.594 72.3244 102.851 72.5835L53.8112 89.5897C51.1618 90.5075 49.3811 93.0018 49.3811 95.7929V123.624C49.3811 126.415 51.1618 128.909 53.8112 129.827L102.851 146.833C104.963 147.567 107.216 147.249 109.04 145.958C110.864 144.674 111.906 142.66 111.906 140.435L111.928 127.111C114.311 121.912 115.565 115.995 115.565 109.997C115.565 103.999 114.306 98.082 111.928 92.883L111.906 92.7912V78.9811C111.906 76.7568 110.858 74.7431 109.04 73.4581C107.862 72.6267 106.499 72.1948 105.115 72.1948Z" fill="url(#paint2_linear_222_9219)" fill-opacity="0.4"/>
<path d="M105.115 147.654C104.311 147.654 103.497 147.519 102.704 147.243L53.6646 130.237C50.8361 129.255 48.9414 126.598 48.9414 123.624V95.7929C48.9414 92.8182 50.8415 90.1566 53.6646 89.1794L102.704 72.1732C104.952 71.3958 107.351 71.7359 109.289 73.1018C111.228 74.4731 112.34 76.6164 112.34 78.9811V92.748C114.735 97.9902 116 103.956 116 109.997C116 116.038 114.735 122.004 112.34 127.252V140.441C112.34 142.806 111.228 144.949 109.289 146.32C108.035 147.206 106.586 147.659 105.115 147.659V147.654ZM105.115 72.1948C104.36 72.1948 103.594 72.3244 102.851 72.5835L53.8112 89.5897C51.1618 90.5075 49.3811 93.0018 49.3811 95.7929V123.624C49.3811 126.415 51.1618 128.909 53.8112 129.827L102.851 146.833C104.963 147.567 107.216 147.249 109.04 145.958C110.864 144.674 111.906 142.66 111.906 140.435L111.928 127.111C114.311 121.912 115.565 115.995 115.565 109.997C115.565 103.999 114.306 98.082 111.928 92.883L111.906 92.7912V78.9811C111.906 76.7568 110.858 74.7431 109.04 73.4581C107.862 72.6267 106.499 72.1948 105.115 72.1948Z" fill="url(#paint3_linear_222_9219)" fill-opacity="0.3"/>
</g>
<defs>
<linearGradient id="paint0_linear_222_9219" x1="55.8791" y1="132.433" x2="113.686" y2="93.9276" gradientUnits="userSpaceOnUse">
<stop stop-color="#F2F8FF"/>
<stop offset="1" stop-color="#D9F0FF"/>
</linearGradient>
<linearGradient id="paint1_linear_222_9219" x1="57.6463" y1="79.5428" x2="128.501" y2="112.798" gradientUnits="userSpaceOnUse">
<stop stop-color="#5A81FF" stop-opacity="0.9"/>
<stop offset="0.447036" stop-color="#567DFF" stop-opacity="0.955296"/>
<stop offset="1" stop-color="#4E78FF" stop-opacity="0.9"/>
</linearGradient>
<linearGradient id="paint2_linear_222_9219" x1="55.7052" y1="132.568" x2="113.865" y2="93.8025" gradientUnits="userSpaceOnUse">
<stop stop-color="#F2F8FF"/>
<stop offset="1" stop-color="#D9F0FF"/>
</linearGradient>
<linearGradient id="paint3_linear_222_9219" x1="57.4838" y1="79.3684" x2="128.784" y2="112.854" gradientUnits="userSpaceOnUse">
<stop stop-color="#5A81FF" stop-opacity="0.9"/>
<stop offset="0.447036" stop-color="#567DFF" stop-opacity="0.955296"/>
<stop offset="1" stop-color="#4E78FF" stop-opacity="0.9"/>
</linearGradient>
</defs>
</svg>