<svg width="74" height="98" viewBox="0 0 74 98" fill="none" xmlns="http://www.w3.org/2000/svg">
<path d="M49.2146 37.227C48.4176 33.4272 45.8544 30.0607 42.0192 28.412C40.3831 27.7065 38.6743 27.3844 37 27.4074C35.3257 27.3882 33.6207 27.7065 31.9808 28.412C28.1494 30.0645 25.5824 33.431 24.7854 37.227L5.45211 82.1492C5.07663 83.0273 5.81993 83.9705 6.75862 83.8056L18.3257 81.7926C18.7931 81.7121 19.2682 81.9153 19.5326 82.3141L26.0153 92.1068C26.5402 92.9005 27.7395 92.7931 28.1188 91.9189L36.4904 72.4754C36.6858 72.0229 37.3257 72.0229 37.5211 72.4754L45.8927 91.9189C46.2682 92.7931 47.4674 92.9005 47.9962 92.1068L54.4789 82.3141C54.7433 81.9153 55.2146 81.7121 55.6858 81.7926L67.2529 83.8056C68.1916 83.9705 68.9387 83.0234 68.5594 82.1492L49.2222 37.227H49.2146Z" fill="#007FFF"/>
<g opacity="0.8">
<g opacity="0.8">
<path d="M50.8199 66.8535L45.6897 63.1189C45.046 62.6511 44.1379 62.9003 43.8238 63.6327L41.3257 69.4684C40.9387 70.3695 39.7088 70.4845 39.1609 69.6716L35.6169 64.4072C35.1724 63.7477 34.2337 63.671 33.6897 64.2538L29.3487 68.8818C28.6782 69.5949 27.4828 69.2844 27.2452 68.3335L25.7126 62.1756C25.5211 61.405 24.6628 61.01 23.954 61.3704L18.295 64.2346C17.4215 64.6756 16.4023 63.9739 16.5057 63L17.1724 56.6888C17.2567 55.899 16.5824 55.2356 15.7931 55.3276L9.49426 56.0792C8.52107 56.1942 7.8046 55.1858 8.23372 54.3077L11.0153 48.6023C11.364 47.8892 10.9579 47.0341 10.1839 46.8539L4.00766 45.4046C3.05364 45.1822 2.72414 43.9897 3.42912 43.3072L7.99234 38.8978C8.56322 38.3457 8.4751 37.4063 7.81226 36.9692L2.50575 33.4953C1.68583 32.9585 1.78544 31.7277 2.68199 31.329L8.47893 28.7485C9.20307 28.4264 9.44445 27.51 8.96552 26.8736L5.16475 21.7932C4.57855 21.0071 5.09196 19.8837 6.06897 19.8147L12.3946 19.3737C13.1877 19.3201 13.7241 18.5417 13.4943 17.7787L11.659 11.7014C11.3755 10.762 12.2414 9.88393 13.1839 10.1523L19.2797 11.9046C20.0421 12.1231 20.8123 11.5787 20.8582 10.785L21.2107 4.44694C21.2644 3.4692 22.3793 2.93624 23.1724 3.51521L28.3027 7.24979C28.9464 7.71757 29.8544 7.46834 30.1686 6.736L32.6667 0.900243C33.0536 -0.000809237 34.2835 -0.115837 34.8314 0.697027L38.3755 5.96147C38.8199 6.62097 39.7586 6.69765 40.3027 6.11868L44.6437 1.49072C45.3142 0.773713 46.5096 1.08812 46.7471 2.03902L48.2797 8.19685C48.4713 8.96754 49.3295 9.36247 50.0383 9.00205L55.6973 6.13785C56.5709 5.69691 57.59 6.39858 57.4866 7.37248L56.8199 13.6837C56.7356 14.4735 57.41 15.1369 58.1954 15.0449L64.4943 14.2933C65.4674 14.1783 66.1839 15.1829 65.7548 16.0648L62.9732 21.7702C62.6245 22.4833 63.0307 23.3384 63.8046 23.5186L69.9808 24.9679C70.9349 25.1903 71.2644 26.3828 70.5594 27.0653L65.9962 31.4747C65.4253 32.0268 65.5134 32.9662 66.1762 33.4033L71.4828 36.8772C72.3027 37.414 72.2031 38.6448 71.3065 39.0435L65.5096 41.624C64.7854 41.9461 64.5441 42.8624 65.023 43.4989L68.8238 48.5793C69.41 49.3654 68.8966 50.4888 67.9195 50.5578L61.5939 50.9988C60.8008 51.0524 60.2644 51.8308 60.4943 52.5938L62.3295 58.6711C62.613 59.6105 61.7471 60.4886 60.8046 60.2202L54.7088 58.4679C53.9464 58.2494 53.1762 58.7938 53.1303 59.5875L52.7778 65.9256C52.7241 66.9033 51.6054 67.4363 50.8161 66.8573L50.8199 66.8535Z" fill="url(#paint0_linear_222_8258)" fill-opacity="0.4"/>
<path d="M50.8199 66.8535L45.6897 63.1189C45.046 62.6511 44.1379 62.9003 43.8238 63.6327L41.3257 69.4684C40.9387 70.3695 39.7088 70.4845 39.1609 69.6716L35.6169 64.4072C35.1724 63.7477 34.2337 63.671 33.6897 64.2538L29.3487 68.8818C28.6782 69.5949 27.4828 69.2844 27.2452 68.3335L25.7126 62.1756C25.5211 61.405 24.6628 61.01 23.954 61.3704L18.295 64.2346C17.4215 64.6756 16.4023 63.9739 16.5057 63L17.1724 56.6888C17.2567 55.899 16.5824 55.2356 15.7931 55.3276L9.49426 56.0792C8.52107 56.1942 7.8046 55.1858 8.23372 54.3077L11.0153 48.6023C11.364 47.8892 10.9579 47.0341 10.1839 46.8539L4.00766 45.4046C3.05364 45.1822 2.72414 43.9897 3.42912 43.3072L7.99234 38.8978C8.56322 38.3457 8.4751 37.4063 7.81226 36.9692L2.50575 33.4953C1.68583 32.9585 1.78544 31.7277 2.68199 31.329L8.47893 28.7485C9.20307 28.4264 9.44445 27.51 8.96552 26.8736L5.16475 21.7932C4.57855 21.0071 5.09196 19.8837 6.06897 19.8147L12.3946 19.3737C13.1877 19.3201 13.7241 18.5417 13.4943 17.7787L11.659 11.7014C11.3755 10.762 12.2414 9.88393 13.1839 10.1523L19.2797 11.9046C20.0421 12.1231 20.8123 11.5787 20.8582 10.785L21.2107 4.44694C21.2644 3.4692 22.3793 2.93624 23.1724 3.51521L28.3027 7.24979C28.9464 7.71757 29.8544 7.46834 30.1686 6.736L32.6667 0.900243C33.0536 -0.000809237 34.2835 -0.115837 34.8314 0.697027L38.3755 5.96147C38.8199 6.62097 39.7586 6.69765 40.3027 6.11868L44.6437 1.49072C45.3142 0.773713 46.5096 1.08812 46.7471 2.03902L48.2797 8.19685C48.4713 8.96754 49.3295 9.36247 50.0383 9.00205L55.6973 6.13785C56.5709 5.69691 57.59 6.39858 57.4866 7.37248L56.8199 13.6837C56.7356 14.4735 57.41 15.1369 58.1954 15.0449L64.4943 14.2933C65.4674 14.1783 66.1839 15.1829 65.7548 16.0648L62.9732 21.7702C62.6245 22.4833 63.0307 23.3384 63.8046 23.5186L69.9808 24.9679C70.9349 25.1903 71.2644 26.3828 70.5594 27.0653L65.9962 31.4747C65.4253 32.0268 65.5134 32.9662 66.1762 33.4033L71.4828 36.8772C72.3027 37.414 72.2031 38.6448 71.3065 39.0435L65.5096 41.624C64.7854 41.9461 64.5441 42.8624 65.023 43.4989L68.8238 48.5793C69.41 49.3654 68.8966 50.4888 67.9195 50.5578L61.5939 50.9988C60.8008 51.0524 60.2644 51.8308 60.4943 52.5938L62.3295 58.6711C62.613 59.6105 61.7471 60.4886 60.8046 60.2202L54.7088 58.4679C53.9464 58.2494 53.1762 58.7938 53.1303 59.5875L52.7778 65.9256C52.7241 66.9033 51.6054 67.4363 50.8161 66.8573L50.8199 66.8535Z" fill="url(#paint1_linear_222_8258)" fill-opacity="0.3"/>
</g>
</g>
<path d="M38.5632 23.3705L41.5824 28.7538C41.8391 29.2101 42.2797 29.5321 42.7931 29.6357L48.8391 30.8473C50.2107 31.1234 50.7548 32.7951 49.8046 33.8227L45.6245 38.3586C45.2682 38.742 45.0996 39.2635 45.1609 39.785L45.8812 45.916C46.046 47.3078 44.6245 48.3392 43.3525 47.7564L37.751 45.1798C37.2759 44.9612 36.728 44.9612 36.2529 45.1798L30.6513 47.7564C29.3793 48.343 27.9579 47.3078 28.1226 45.916L28.8429 39.785C28.9042 39.2635 28.7356 38.742 28.3793 38.3586L24.1992 33.8227C23.249 32.7913 23.7931 31.1195 25.1648 30.8473L31.2107 29.6357C31.7241 29.5321 32.1648 29.2101 32.4215 28.7538L35.4406 23.3705C36.1264 22.1473 37.8812 22.1473 38.5671 23.3705H38.5632Z" fill="white"/>
<defs>
<linearGradient id="paint0_linear_222_8258" x1="1.94604" y1="35.1825" x2="72.0381" y2="35.1825" gradientUnits="userSpaceOnUse">
<stop stop-color="#F2F8FF"/>
<stop offset="1" stop-color="#D9F0FF"/>
</linearGradient>
<linearGradient id="paint1_linear_222_8258" x1="10.8755" y1="7.17116" x2="81.792" y2="44.8819" gradientUnits="userSpaceOnUse">
<stop stop-color="#5A81FF" stop-opacity="0.9"/>
<stop offset="0.447036" stop-color="#567DFF" stop-opacity="0.955296"/>
<stop offset="1" stop-color="#4E78FF" stop-opacity="0.9"/>
</linearGradient>
</defs>
</svg>
