<svg width="79" height="98" viewBox="0 0 79 98" fill="none" xmlns="http://www.w3.org/2000/svg">
<g clip-path="url(#clip0_222_8203)">
<path d="M55.3116 0H3.51369C1.57313 0 0 1.5784 0 3.52546V73.6472C0 75.5943 1.57313 77.1727 3.51369 77.1727H55.3116C57.2521 77.1727 58.8253 75.5943 58.8253 73.6472V3.52546C58.8253 1.5784 57.2521 0 55.3116 0Z" fill="#007FFF"/>
<path d="M43.7165 47.3851H15.1089C14.0818 47.3851 13.2478 46.5482 13.2478 45.5177C13.2478 44.4872 14.0818 43.6504 15.1089 43.6504H43.7165C44.7435 43.6504 45.5776 44.4872 45.5776 45.5177C45.5776 46.5482 44.7435 47.3851 43.7165 47.3851Z" fill="white"/>
<path d="M43.7165 60.8401H15.1089C14.0818 60.8401 13.2478 60.0033 13.2478 58.9728C13.2478 57.9423 14.0818 57.1055 15.1089 57.1055H43.7165C44.7435 57.1055 45.5776 57.9423 45.5776 58.9728C45.5776 60.0033 44.7435 60.8401 43.7165 60.8401Z" fill="white"/>
<path d="M32.8935 18.2512V11.332H25.9974V18.2512H19.1013V25.1665H25.9974V32.0857H32.8935V25.1665H39.7896V18.2512H32.8935Z" fill="white"/>
<g opacity="0.8">
<g opacity="0.8">
<path d="M20.9764 41.0166C30.3536 31.6081 45.5229 31.5555 54.9657 40.8574L55.1239 41.0166C62.8292 48.744 64.2377 60.3976 59.3534 69.5654L59.1796 69.8916L59.4403 70.1543L76.6493 87.4209C78.8402 89.6227 78.9085 93.147 76.8553 95.4277L76.6493 95.6445C74.4556 97.8418 70.9457 97.9102 68.6737 95.8506L68.4579 95.6445L51.5731 78.7031L51.2889 78.4189L50.9501 78.6338C41.764 84.4731 29.5065 83.487 21.3612 75.6641L20.9764 75.2861C11.6926 65.9709 11.5481 50.9581 20.5419 41.4648L20.9764 41.0166ZM46.4725 49.7051C41.8977 45.1111 34.5221 45.0402 29.8563 49.4902L29.6356 49.7051C25.0578 54.2943 24.9863 61.6925 29.4208 66.373L29.6356 66.5938C34.2107 71.1879 41.5907 71.2554 46.2528 66.8086L46.4725 66.5938C51.0504 62.0043 51.1213 54.6062 46.6864 49.9258L46.4725 49.7051Z" fill="url(#paint0_linear_222_8203)" fill-opacity="0.4"/>
<path d="M20.9764 41.0166C30.3536 31.6081 45.5229 31.5555 54.9657 40.8574L55.1239 41.0166C62.8292 48.744 64.2377 60.3976 59.3534 69.5654L59.1796 69.8916L59.4403 70.1543L76.6493 87.4209C78.8402 89.6227 78.9085 93.147 76.8553 95.4277L76.6493 95.6445C74.4556 97.8418 70.9457 97.9102 68.6737 95.8506L68.4579 95.6445L51.5731 78.7031L51.2889 78.4189L50.9501 78.6338C41.764 84.4731 29.5065 83.487 21.3612 75.6641L20.9764 75.2861C11.6926 65.9709 11.5481 50.9581 20.5419 41.4648L20.9764 41.0166ZM46.4725 49.7051C41.8977 45.1111 34.5221 45.0402 29.8563 49.4902L29.6356 49.7051C25.0578 54.2943 24.9863 61.6925 29.4208 66.373L29.6356 66.5938C34.2107 71.1879 41.5907 71.2554 46.2528 66.8086L46.4725 66.5938C51.0504 62.0043 51.1213 54.6062 46.6864 49.9258L46.4725 49.7051Z" fill="url(#paint1_linear_222_8203)" fill-opacity="0.3"/>
<path d="M20.9764 41.0166C30.3536 31.6081 45.5229 31.5555 54.9657 40.8574L55.1239 41.0166C62.8292 48.744 64.2377 60.3976 59.3534 69.5654L59.1796 69.8916L59.4403 70.1543L76.6493 87.4209C78.8402 89.6227 78.9085 93.147 76.8553 95.4277L76.6493 95.6445C74.4556 97.8418 70.9457 97.9102 68.6737 95.8506L68.4579 95.6445L51.5731 78.7031L51.2889 78.4189L50.9501 78.6338C41.764 84.4731 29.5065 83.487 21.3612 75.6641L20.9764 75.2861C11.6926 65.9709 11.5481 50.9581 20.5419 41.4648L20.9764 41.0166ZM46.4725 49.7051C41.8977 45.1111 34.5221 45.0402 29.8563 49.4902L29.6356 49.7051C25.0578 54.2943 24.9863 61.6925 29.4208 66.373L29.6356 66.5938C34.2107 71.1879 41.5907 71.2554 46.2528 66.8086L46.4725 66.5938C51.0504 62.0043 51.1213 54.6062 46.6864 49.9258L46.4725 49.7051Z" stroke="url(#paint2_linear_222_8203)"/>
<path d="M20.9764 41.0166C30.3536 31.6081 45.5229 31.5555 54.9657 40.8574L55.1239 41.0166C62.8292 48.744 64.2377 60.3976 59.3534 69.5654L59.1796 69.8916L59.4403 70.1543L76.6493 87.4209C78.8402 89.6227 78.9085 93.147 76.8553 95.4277L76.6493 95.6445C74.4556 97.8418 70.9457 97.9102 68.6737 95.8506L68.4579 95.6445L51.5731 78.7031L51.2889 78.4189L50.9501 78.6338C41.764 84.4731 29.5065 83.487 21.3612 75.6641L20.9764 75.2861C11.6926 65.9709 11.5481 50.9581 20.5419 41.4648L20.9764 41.0166ZM46.4725 49.7051C41.8977 45.1111 34.5221 45.0402 29.8563 49.4902L29.6356 49.7051C25.0578 54.2943 24.9863 61.6925 29.4208 66.373L29.6356 66.5938C34.2107 71.1879 41.5907 71.2554 46.2528 66.8086L46.4725 66.5938C51.0504 62.0043 51.1213 54.6062 46.6864 49.9258L46.4725 49.7051Z" stroke="url(#paint3_radial_222_8203)"/>
</g>
</g>
</g>
<defs>
<linearGradient id="paint0_linear_222_8203" x1="13.4032" y1="65.6311" x2="78.8415" y2="65.6311" gradientUnits="userSpaceOnUse">
<stop stop-color="#F2F8FF"/>
<stop offset="1" stop-color="#D9F0FF"/>
</linearGradient>
<linearGradient id="paint1_linear_222_8203" x1="21.7398" y1="39.8754" x2="87.4989" y2="75.3809" gradientUnits="userSpaceOnUse">
<stop stop-color="#5A81FF" stop-opacity="0.9"/>
<stop offset="0.447036" stop-color="#567DFF" stop-opacity="0.955296"/>
<stop offset="1" stop-color="#4E78FF" stop-opacity="0.9"/>
</linearGradient>
<linearGradient id="paint2_linear_222_8203" x1="22.8211" y1="31.119" x2="83.6703" y2="67.2073" gradientUnits="userSpaceOnUse">
<stop offset="0.188941" stop-color="#E7F0FF" stop-opacity="0.523483"/>
<stop offset="0.526042" stop-color="#88A4FF"/>
<stop offset="1" stop-color="#B4D2FF" stop-opacity="0.1"/>
</linearGradient>
<radialGradient id="paint3_radial_222_8203" cx="0" cy="0" r="1" gradientUnits="userSpaceOnUse" gradientTransform="translate(23.1833 95.7366) rotate(-50.5378) scale(50.9134 83.5098)">
<stop stop-color="white"/>
<stop offset="1" stop-color="white" stop-opacity="0"/>
</radialGradient>
<clipPath id="clip0_222_8203">
<rect width="79" height="98" fill="white"/>
</clipPath>
</defs>
</svg>
