<svg width="103" height="90" viewBox="0 0 103 90" fill="none" xmlns="http://www.w3.org/2000/svg">
<g clip-path="url(#clip0_222_8191)">
<path opacity="0.8" d="M28.307 65.7624C31.0717 68.017 25.5473 72.6264 38.0566 83.3818C61.3679 103.175 100.119 74.5897 93.467 50.026C91.1303 41.3092 97.9288 37.94 100.804 31.8091C107.89 16.6902 96.8461 1.70196 81.5872 1.43584C68.806 1.18478 58.2356 12.2264 60.3003 25.8991C60.7938 31.794 65.0089 35.9867 64.5809 38.0555C64.1931 39.9133 60.8895 40.9326 59.7715 39.3108C57.2787 35.6905 55.7528 31.7338 55.1636 26.823C53.5723 20.1549 43.1076 21.3248 41.6321 28.3294C40.2875 37.6939 43.6565 46.1346 50.0169 52.6722C51.7191 54.4246 49.6594 61.5547 41.9796 49.4184C38.4746 43.88 32.4667 41.7661 27.5667 43.0365C20.7934 44.7889 17.2179 51.5173 14.433 56.9753C13.6373 58.4968 11.5323 58.5369 10.6611 57.126C6.53161 50.5884 -2.12013 55.7702 0.478415 61.8509C1.17337 63.2318 5.14673 72.9227 10.8172 74.5847C26.4487 79.164 22.5509 65.7624 26.6905 65.3005C27.3149 65.2252 27.8739 65.411 28.307 65.7574V65.7624Z" fill="#007FFF"/>
<g opacity="0.8">
<path d="M31.3196 18.9154C33.8264 6.49689 45.956 -1.54602 58.4142 0.954018C70.8724 3.45418 78.9368 15.5497 76.4299 27.9683C73.923 40.3867 61.7934 48.4298 49.3353 45.9296C36.8772 43.4294 28.8129 31.3338 31.3196 18.9154Z" fill="url(#paint0_linear_222_8191)" fill-opacity="0.4"/>
<path d="M31.3196 18.9154C33.8264 6.49689 45.956 -1.54602 58.4142 0.954018C70.8724 3.45418 78.9368 15.5497 76.4299 27.9683C73.923 40.3867 61.7934 48.4298 49.3353 45.9296C36.8772 43.4294 28.8129 31.3338 31.3196 18.9154Z" fill="url(#paint1_linear_222_8191)" fill-opacity="0.3"/>
<path d="M31.3196 18.9154C33.8264 6.49689 45.956 -1.54602 58.4142 0.954018C70.8724 3.45418 78.9368 15.5497 76.4299 27.9683C73.923 40.3867 61.7934 48.4298 49.3353 45.9296C36.8772 43.4294 28.8129 31.3338 31.3196 18.9154Z" stroke="url(#paint2_linear_222_8191)"/>
<path d="M31.3196 18.9154C33.8264 6.49689 45.956 -1.54602 58.4142 0.954018C70.8724 3.45418 78.9368 15.5497 76.4299 27.9683C73.923 40.3867 61.7934 48.4298 49.3353 45.9296C36.8772 43.4294 28.8129 31.3338 31.3196 18.9154Z" stroke="url(#paint3_radial_222_8191)"/>
</g>
</g>
<defs>
<linearGradient id="paint0_linear_222_8191" x1="49.2353" y1="46.4195" x2="58.4595" y2="0.455659" gradientUnits="userSpaceOnUse">
<stop stop-color="#F2F8FF"/>
<stop offset="1" stop-color="#D9F0FF"/>
</linearGradient>
<linearGradient id="paint1_linear_222_8191" x1="31.991" y1="36.8674" x2="66.0491" y2="-4.75769" gradientUnits="userSpaceOnUse">
<stop stop-color="#5A81FF" stop-opacity="0.9"/>
<stop offset="0.447036" stop-color="#567DFF" stop-opacity="0.955296"/>
<stop offset="1" stop-color="#4E78FF" stop-opacity="0.9"/>
</linearGradient>
<linearGradient id="paint2_linear_222_8191" x1="25.8799" y1="34.8509" x2="59.689" y2="-3.26167" gradientUnits="userSpaceOnUse">
<stop offset="0.188941" stop-color="#E7F0FF" stop-opacity="0.523483"/>
<stop offset="0.526042" stop-color="#88A4FF"/>
<stop offset="1" stop-color="#B4D2FF" stop-opacity="0.1"/>
</linearGradient>
<radialGradient id="paint3_radial_222_8191" cx="0" cy="0" r="1" gradientUnits="userSpaceOnUse" gradientTransform="translate(72.1596 43.8738) rotate(-129.68) scale(36.8585 60.3007)">
<stop stop-color="white"/>
<stop offset="1" stop-color="white" stop-opacity="0"/>
</radialGradient>
<clipPath id="clip0_222_8191">
<rect width="103" height="90" fill="white"/>
</clipPath>
</defs>
</svg>
