<svg width="92" height="100" viewBox="0 0 92 100" fill="none" xmlns="http://www.w3.org/2000/svg">
<g clip-path="url(#clip0_222_7919)">
<path d="M46.0021 94.0741C40.5069 94.0741 36.0341 89.62 36.0341 84.1479V15.8481C36.0341 10.3759 40.5069 5.92188 46.0021 5.92188C51.4973 5.92188 55.9702 10.3759 55.9702 15.8481V84.1479C55.9702 89.62 51.4973 94.0741 46.0021 94.0741Z" fill="#007FFF"/>
<mask id="mask0_222_7919" style="mask-type:luminance" maskUnits="userSpaceOnUse" x="0" y="21" width="92" height="58">
<path d="M90.3259 58.0431L49.6997 23.0809C48.5879 22.1222 47.2588 21.6641 46.0021 21.6641C44.7455 21.6641 43.4164 22.1222 42.3046 23.0809L1.67414 58.0431C0.719931 58.8661 0.17041 60.0581 0.17041 61.3137V73.819C0.17041 77.0259 3.54847 79.1129 6.43665 77.6961L44.5623 58.9467C45.4697 58.5013 46.5346 58.5013 47.442 58.9467L85.5676 77.6961C88.4516 79.1129 91.8339 77.0259 91.8339 73.819V61.3137C91.8339 60.0581 91.2844 58.8618 90.3302 58.0431H90.3259Z" fill="white"/>
</mask>
<g mask="url(#mask0_222_7919)">
<path opacity="0.01" d="M46.002 99.9284C37.2651 99.9284 30.1554 92.8485 30.1554 84.1483V15.8485C30.1554 7.14819 37.2651 0.0683594 46.002 0.0683594C54.739 0.0683594 61.8487 7.14819 61.8487 15.8485V84.1483C61.8487 92.8485 54.739 99.9284 46.002 99.9284Z" fill="#FCFDFF"/>
<path opacity="0.02" d="M46.0021 99.9071C37.2779 99.9071 30.181 92.84 30.181 84.1525V15.8484C30.1768 7.16086 37.2779 0.09375 46.0021 0.09375C54.7263 0.09375 61.8232 7.16086 61.8232 15.8484V84.1482C61.8232 92.8358 54.7263 99.9029 46.0021 99.9029V99.9071Z" fill="#FBFDFF"/>
<path opacity="0.02" d="M46.0021 99.8819C37.2907 99.8819 30.2023 92.8233 30.2023 84.1485V15.8487C30.2023 7.17386 37.2907 0.115234 46.0021 0.115234C54.7134 0.115234 61.8018 7.17386 61.8018 15.8487V84.1485C61.8018 92.8233 54.7134 99.8819 46.0021 99.8819Z" fill="#FAFCFF"/>
<path opacity="0.02" d="M46.0021 99.8607C37.3035 99.8607 30.2279 92.8148 30.2279 84.1527V15.8486C30.2236 7.18652 37.3035 0.140625 46.0021 0.140625C54.7008 0.140625 61.7764 7.18652 61.7764 15.8486V84.1484C61.7764 92.8105 54.7008 99.8564 46.0021 99.8564V99.8607Z" fill="#F9FCFF"/>
<path opacity="0.03" d="M46.0021 99.8355C37.3162 99.8355 30.2491 92.7981 30.2491 84.1487V15.8489C30.2491 7.19952 37.3162 0.162109 46.0021 0.162109C54.6879 0.162109 61.755 7.19952 61.755 15.8489V84.1487C61.755 92.7981 54.6879 99.8355 46.0021 99.8355Z" fill="#F8FBFF"/>
<path opacity="0.03" d="M46.002 99.8142C37.329 99.8142 30.2747 92.7895 30.2747 84.1529V15.8488C30.2704 7.21219 37.329 0.1875 46.002 0.1875C54.6751 0.1875 61.7294 7.21219 61.7294 15.8488V84.1486C61.7294 92.7853 54.6751 99.81 46.002 99.81V99.8142Z" fill="#F7FBFF"/>
<path opacity="0.04" d="M46.0021 99.7913C37.3418 99.7913 30.296 92.7751 30.296 84.1512V15.8471C30.296 7.22323 37.3418 0.207031 46.0021 0.207031C54.6624 0.207031 61.7082 7.22323 61.7082 15.8471V84.147C61.7082 92.7709 54.6624 99.7871 46.0021 99.7871V99.7913Z" fill="#F6FAFF"/>
<path opacity="0.04" d="M46.002 99.7658C37.3545 99.7658 30.3215 92.7581 30.3215 84.1511V15.8471C30.3173 7.2359 37.3545 0.232422 46.002 0.232422C54.6495 0.232422 61.6826 7.2359 61.6826 15.8471V84.1469C61.6826 92.7581 54.6495 99.7616 46.002 99.7616V99.7658Z" fill="#F5FAFF"/>
<path opacity="0.04" d="M46.0021 99.7449C37.3674 99.7449 30.3429 92.7499 30.3429 84.1514V15.8474C30.3429 7.2489 37.3674 0.253906 46.0021 0.253906C54.6368 0.253906 61.6613 7.2489 61.6613 15.8474V84.1472C61.6613 92.7456 54.6368 99.7406 46.0021 99.7406V99.7449Z" fill="#F4F9FF"/>
<path opacity="0.05" d="M46.0021 99.7194C37.3801 99.7194 30.3684 92.7328 30.3684 84.1514V15.8473C30.3642 7.26157 37.3801 0.279297 46.0021 0.279297C54.624 0.279297 61.6357 7.26581 61.6357 15.8473V84.1471C61.6357 92.7328 54.6197 99.7151 46.0021 99.7151V99.7194Z" fill="#F3F9FF"/>
<path opacity="0.05" d="M46.0021 99.6984C37.393 99.6984 30.3898 92.7246 30.3898 84.1516V15.8476C30.3898 7.27457 37.393 0.300781 46.0021 0.300781C54.6113 0.300781 61.6145 7.27457 61.6145 15.8476V84.1474C61.6145 92.7204 54.6113 99.6942 46.0021 99.6942V99.6984Z" fill="#F2F8FF"/>
<path opacity="0.05" d="M46.0021 99.6729C37.4057 99.6729 30.4153 92.7076 30.4153 84.1473V15.8475C30.411 7.28723 37.4057 0.326172 46.0021 0.326172C54.5985 0.326172 61.5889 7.29147 61.5889 15.8475V84.1473C61.5889 92.7076 54.5942 99.6729 46.0021 99.6729Z" fill="#F1F8FF"/>
<path opacity="0.06" d="M46.0021 99.652C37.4185 99.652 30.4366 92.6994 30.4366 84.1518V15.8478C30.4366 7.30023 37.4185 0.347656 46.0021 0.347656C54.5857 0.347656 61.5676 7.30023 61.5676 15.8478V84.1476C61.5676 92.6952 54.5857 99.6477 46.0021 99.6477V99.652Z" fill="#F0F7FF"/>
<path opacity="0.06" d="M46.0021 99.6265C37.4313 99.6265 30.4579 92.6824 30.4579 84.1475V15.8477C30.4579 7.3129 37.4313 0.373047 46.0021 0.373047C54.5729 0.373047 61.5463 7.31714 61.5463 15.852V84.1518C61.5463 92.6866 54.5729 99.6307 46.0021 99.6307V99.6265Z" fill="#EFF7FF"/>
<path opacity="0.07" d="M46.002 99.6055C37.444 99.6055 30.4834 92.6742 30.4834 84.1521V15.848C30.4834 7.3259 37.444 0.394531 46.002 0.394531C54.5601 0.394531 61.5207 7.3259 61.5207 15.848V84.1478C61.5207 92.6699 54.5601 99.6013 46.002 99.6013V99.6055Z" fill="#EEF6FF"/>
<path opacity="0.07" d="M46.0021 99.58C37.4568 99.58 30.5048 92.6571 30.5048 84.1478V15.8479C30.5048 7.33856 37.4568 0.419922 46.0021 0.419922C54.5474 0.419922 61.4994 7.3428 61.4994 15.8522V84.152C61.4994 92.6614 54.5474 99.5843 46.0021 99.5843V99.58Z" fill="#EDF6FF"/>
<path opacity="0.07" d="M46.0021 99.5591C37.4696 99.5591 30.5303 92.6489 30.5303 84.1523V15.8482C30.5303 7.35156 37.4696 0.441406 46.0021 0.441406C54.5345 0.441406 61.4738 7.35156 61.4738 15.8482V84.148C61.4738 92.6447 54.5345 99.5548 46.0021 99.5548V99.5591Z" fill="#ECF5FF"/>
<path opacity="0.08" d="M46.0021 99.5339C37.4824 99.5339 30.5516 92.6322 30.5516 84.1483V15.8485C30.5516 7.36456 37.4824 0.462891 46.0021 0.462891C54.5218 0.462891 61.4526 7.36456 61.4526 15.8485V84.1483C61.4526 92.6322 54.5218 99.5339 46.0021 99.5339Z" fill="#EBF5FF"/>
<path opacity="0.08" d="M46.0021 99.5126C37.4951 99.5126 30.5771 92.6237 30.5771 84.1525V15.8484C30.5771 7.37723 37.4951 0.488281 46.0021 0.488281C54.509 0.488281 61.427 7.37723 61.427 15.8484V84.1482C61.427 92.6194 54.509 99.5084 46.0021 99.5084V99.5126Z" fill="#EAF4FF"/>
<path opacity="0.09" d="M46.0021 99.4874C37.508 99.4874 30.5985 92.607 30.5985 84.1485V15.8487C30.5985 7.39023 37.508 0.509766 46.0021 0.509766C54.4963 0.509766 61.4057 7.39023 61.4057 15.8487V84.1485C61.4057 92.607 54.4963 99.4874 46.0021 99.4874Z" fill="#E9F4FF"/>
<path opacity="0.09" d="M46.0021 99.4662C37.5207 99.4662 30.624 92.5942 30.624 84.1527V15.8486C30.624 7.40289 37.525 0.535156 46.0021 0.535156C54.4792 0.535156 61.3801 7.40713 61.3801 15.8486V84.1485C61.3801 92.5942 54.4792 99.4619 46.0021 99.4619V99.4662Z" fill="#E8F3FF"/>
<path opacity="0.09" d="M46.0021 99.441C37.5336 99.441 30.6454 92.5817 30.6454 84.1487V15.8489C30.6454 7.41589 37.5336 0.556641 46.0021 0.556641C54.4707 0.556641 61.3589 7.41589 61.3589 15.8489V84.1487C61.3589 92.5817 54.4707 99.441 46.0021 99.441Z" fill="#E7F3FF"/>
<path opacity="0.1" d="M46.0021 99.4197C37.5463 99.4197 30.6709 92.569 30.6709 84.1529V15.8489C30.6709 7.42856 37.5506 0.582031 46.0021 0.582031C54.4536 0.582031 61.3333 7.4328 61.3333 15.8489V84.1487C61.3333 92.569 54.4536 99.4155 46.0021 99.4155V99.4197Z" fill="#E6F2FF"/>
<path opacity="0.1" d="M46.002 99.3926C37.559 99.3926 30.6921 92.5546 30.6921 84.147V15.8472C30.6921 7.43961 37.559 0.601562 46.002 0.601562C54.4451 0.601562 61.3119 7.43961 61.3119 15.8472V84.147C61.3119 92.5546 54.4451 99.3926 46.002 99.3926Z" fill="#E5F2FF"/>
<path opacity="0.11" d="M46.0021 99.3713C37.5719 99.3713 30.7178 92.5418 30.7178 84.1512V15.8471C30.7178 7.45227 37.5761 0.626953 46.0021 0.626953C54.4281 0.626953 61.2865 7.45651 61.2865 15.8471V84.1469C61.2865 92.5418 54.4281 99.3671 46.0021 99.3671V99.3713Z" fill="#E4F1FF"/>
<path opacity="0.11" d="M46.0021 99.3462C37.5846 99.3462 30.739 92.5293 30.739 84.1472V15.8474C30.739 7.46527 37.5846 0.648438 46.0021 0.648438C54.4195 0.648438 61.2651 7.46527 61.2651 15.8474V84.1472C61.2651 92.5293 54.4195 99.3462 46.0021 99.3462Z" fill="#E3F1FF"/>
<path opacity="0.11" d="M46.0021 99.3249C37.5974 99.3249 30.7646 92.5165 30.7646 84.1514V15.8473C30.7646 7.47793 37.6017 0.673828 46.0021 0.673828C54.4026 0.673828 61.2396 7.48218 61.2396 15.8473V84.1471C61.2396 92.5165 54.4026 99.3206 46.0021 99.3206V99.3249Z" fill="#E2F0FF"/>
<path opacity="0.12" d="M46.0021 99.3039C37.6102 99.3039 30.7859 92.5083 30.7859 84.1517V15.8476C30.7859 7.49093 37.6102 0.695312 46.0021 0.695312C54.394 0.695312 61.2183 7.49093 61.2183 15.8476V84.1474C61.2183 92.5041 54.394 99.2997 46.0021 99.2997V99.3039Z" fill="#E1F0FF"/>
<path opacity="0.12" d="M46.002 99.2784C37.6229 99.2784 30.8114 92.4913 30.8114 84.1516V15.8475C30.8114 7.5036 37.6272 0.720703 46.002 0.720703C54.3769 0.720703 61.1927 7.50784 61.1927 15.8475V84.1474C61.1927 92.4913 54.3769 99.2742 46.002 99.2742V99.2784Z" fill="#E0EFFF"/>
<path opacity="0.13" d="M46.0021 99.2575C37.6357 99.2575 30.8328 92.4831 30.8328 84.1519V15.8478C30.8328 7.5166 37.6357 0.742188 46.0021 0.742188C54.3684 0.742188 61.1714 7.5166 61.1714 15.8478V84.1476C61.1714 92.4788 54.3684 99.2533 46.0021 99.2533V99.2575Z" fill="#DFEFFF"/>
<path opacity="0.13" d="M46.002 99.232C37.6527 99.232 30.8583 92.4661 30.8583 84.1518V15.8478C30.8583 7.53351 37.6527 0.767578 46.002 0.767578C54.3514 0.767578 61.1458 7.53351 61.1458 15.8478V84.1476C61.1458 92.4618 54.3514 99.2277 46.002 99.2277V99.232Z" fill="#DEEEFF"/>
<path opacity="0.13" d="M46.0021 99.2111C37.6656 99.2111 30.8796 92.4536 30.8796 84.1521V15.848C30.8796 7.54651 37.6613 0.789062 46.0021 0.789062C54.3429 0.789062 61.1246 7.54226 61.1246 15.848V84.1478C61.1246 92.4494 54.3429 99.2068 46.0021 99.2068V99.2111Z" fill="#DDEEFF"/>
<path opacity="0.14" d="M46.0021 99.1855C37.6783 99.1855 30.9052 92.4408 30.9052 84.1478V15.848C30.9052 7.55917 37.6783 0.814453 46.0021 0.814453C54.3258 0.814453 61.099 7.55917 61.099 15.848V84.1478C61.099 92.4366 54.3258 99.1855 46.0021 99.1855Z" fill="#DCEDFF"/>
<path opacity="0.14" d="M46.0021 99.1646C37.6912 99.1646 30.9265 92.4284 30.9265 84.1523V15.8482C30.9265 7.57217 37.6912 0.835938 46.0021 0.835938C54.3131 0.835938 61.0777 7.57217 61.0777 15.8482V84.1481C61.0777 92.4241 54.3131 99.1604 46.0021 99.1604V99.1646Z" fill="#DBEDFF"/>
<path opacity="0.15" d="M46.0021 99.1394C37.7039 99.1394 30.9478 92.4159 30.9478 84.1483V15.8485C30.9478 7.58517 37.6996 0.857422 46.0021 0.857422C54.3045 0.857422 61.0564 7.58093 61.0564 15.8485V84.1483C61.0564 92.4117 54.3045 99.1394 46.0021 99.1394Z" fill="#DAECFF"/>
<path opacity="0.15" d="M46.0021 99.1182C37.7167 99.1182 30.9734 92.4031 30.9734 84.1525V15.8485C30.9734 7.59784 37.7167 0.882812 46.0021 0.882812C54.2876 0.882812 61.0309 7.59784 61.0309 15.8485V84.1483C61.0309 92.3989 54.2876 99.1139 46.0021 99.1139V99.1182Z" fill="#D9ECFF"/>
<path opacity="0.15" d="M46.0021 99.093C37.7295 99.093 30.9946 92.3907 30.9946 84.1485V15.8487C30.9946 7.61084 37.7252 0.904297 46.0021 0.904297C54.279 0.904297 61.0095 7.6066 61.0095 15.8487V84.1485C61.0095 92.3864 54.279 99.093 46.0021 99.093Z" fill="#D8EBFF"/>
<path opacity="0.16" d="M46.002 99.0717C37.7422 99.0717 31.0201 92.3779 31.0201 84.1527V15.8487C31.0201 7.6235 37.7422 0.929688 46.002 0.929688C54.2619 0.929688 60.9839 7.6235 60.9839 15.8487V84.1485C60.9839 92.3736 54.2619 99.0675 46.002 99.0675V99.0717Z" fill="#D7EBFF"/>
<path opacity="0.16" d="M46.0021 99.0465C37.755 99.0465 31.0415 92.3654 31.0415 84.1488V15.8489C31.0415 7.6365 37.7508 0.951172 46.0021 0.951172C54.2534 0.951172 60.9627 7.63226 60.9627 15.8489V84.1488C60.9627 92.3612 54.2534 99.0465 46.0021 99.0465Z" fill="#D6EAFF"/>
<path opacity="0.16" d="M46.0021 99.0253C37.7678 99.0253 31.067 92.3527 31.067 84.1529V15.8489C31.067 7.64917 37.7678 0.976562 46.0021 0.976562C54.2363 0.976562 60.9371 7.64917 60.9371 15.8489V84.1487C60.9371 92.3484 54.2363 99.021 46.0021 99.021V99.0253Z" fill="#D5EAFF"/>
<path opacity="0.17" d="M46.0021 98.9981C37.7806 98.9981 31.0884 92.3382 31.0884 84.147V15.8472C31.0884 7.66022 37.7763 0.996094 46.0021 0.996094C54.2279 0.996094 60.9159 7.65597 60.9159 15.8472V84.147C60.9159 92.334 54.2279 98.9981 46.0021 98.9981Z" fill="#D4E9FF"/>
<path opacity="0.17" d="M46.0021 98.9769C37.7933 98.9769 31.1139 92.3255 31.1139 84.1512V15.8471C31.1139 7.67288 37.7933 1.02148 46.0021 1.02148C54.2108 1.02148 60.8902 7.67288 60.8902 15.8471V84.1469C60.8902 92.3212 54.2108 98.9726 46.0021 98.9726V98.9769Z" fill="#D3E9FF"/>
<path opacity="0.18" d="M46.0021 98.9517C37.8062 98.9517 31.1353 92.3088 31.1353 84.1472V15.8474C31.1353 7.68588 37.8019 1.04297 46.0021 1.04297C54.2023 1.04297 60.869 7.68164 60.869 15.8474V84.1472C60.869 92.3088 54.2023 98.9517 46.0021 98.9517Z" fill="#D2E8FF"/>
<path opacity="0.18" d="M46.0021 98.9304C37.8189 98.9304 31.1608 92.3002 31.1608 84.1514V15.8474C31.1608 7.69855 37.8189 1.06836 46.0021 1.06836C54.1853 1.06836 60.8434 7.69855 60.8434 15.8474V84.1472C60.8434 92.296 54.1853 98.9262 46.0021 98.9262V98.9304Z" fill="#D1E8FF"/>
<path opacity="0.18" d="M46.002 98.9052C37.8316 98.9052 31.182 92.2835 31.182 84.1474V15.8476C31.182 7.71155 37.8316 1.08984 46.002 1.08984C54.1724 1.08984 60.8221 7.71155 60.8221 15.8476V84.1474C60.8221 92.2835 54.1724 98.9052 46.002 98.9052Z" fill="#D0E7FF"/>
<path opacity="0.19" d="M46.0021 98.884C37.8445 98.884 31.2076 92.275 31.2076 84.1516V15.8476C31.2076 7.72421 37.8445 1.11523 46.0021 1.11523C54.1597 1.11523 60.7966 7.72421 60.7966 15.8476V84.1474C60.7966 92.2707 54.1597 98.8797 46.0021 98.8797V98.884Z" fill="#CFE7FF"/>
<path opacity="0.19" d="M46.002 98.8588C37.8572 98.8588 31.2289 92.2583 31.2289 84.1477V15.8478C31.2289 7.73721 37.8572 1.13672 46.002 1.13672C54.1469 1.13672 60.7752 7.73721 60.7752 15.8478V84.1477C60.7752 92.2583 54.1469 98.8588 46.002 98.8588Z" fill="#CEE6FF"/>
<path opacity="0.2" d="M46.0021 98.8375C37.8701 98.8375 31.2545 92.2497 31.2545 84.1518V15.8478C31.2545 7.74987 37.8701 1.16211 46.0021 1.16211C54.1342 1.16211 60.7497 7.74987 60.7497 15.8478V84.1476C60.7497 92.2455 54.1342 98.8333 46.0021 98.8333V98.8375Z" fill="#CDE6FF"/>
<path opacity="0.2" d="M46.0021 98.8166C37.8828 98.8166 31.2758 92.2373 31.2758 84.1521V15.8481C31.2758 7.76288 37.8828 1.18359 46.0021 1.18359C54.1213 1.18359 60.7284 7.76288 60.7284 15.8481V84.1479C60.7284 92.2331 54.1213 98.8123 46.0021 98.8123V98.8166Z" fill="#CCE5FF"/>
<path opacity="0.2" d="M46.0021 98.7911C37.8956 98.7911 31.3014 92.2245 31.3014 84.1521V15.848C31.3014 7.77554 37.8956 1.20898 46.0021 1.20898C54.1086 1.20898 60.7029 7.77554 60.7029 15.848V84.1478C60.7029 92.2203 54.1086 98.7868 46.0021 98.7868V98.7911Z" fill="#CBE5FF"/>
<path opacity="0.21" d="M46.0021 98.7701C37.9084 98.7701 31.3226 92.2121 31.3226 84.1523V15.8483C31.3226 7.78854 37.9084 1.23047 46.0021 1.23047C54.0958 1.23047 60.6815 7.78854 60.6815 15.8483V84.1481C60.6815 92.2078 54.0958 98.7659 46.0021 98.7659V98.7701Z" fill="#CAE4FF"/>
<path opacity="0.21" d="M46.002 98.7446C37.9211 98.7446 31.3481 92.1993 31.3481 84.148V15.8482C31.3481 7.80121 37.9211 1.25586 46.002 1.25586C54.083 1.25586 60.6559 7.80121 60.6559 15.8482V84.148C60.6559 92.195 54.083 98.7446 46.002 98.7446Z" fill="#C9E4FF"/>
<path opacity="0.22" d="M46.0021 98.7237C37.9339 98.7237 31.3695 92.1868 31.3695 84.1525V15.8485C31.3695 7.81421 37.9339 1.27734 46.0021 1.27734C54.0703 1.27734 60.6347 7.81421 60.6347 15.8485V84.1483C60.6347 92.1826 54.0703 98.7194 46.0021 98.7194V98.7237Z" fill="#C8E3FF"/>
<path opacity="0.22" d="M46.002 98.6982C37.9467 98.6982 31.395 92.1698 31.395 84.1482V15.8484C31.395 7.82687 37.9467 1.30273 46.002 1.30273C54.0574 1.30273 60.6091 7.82687 60.6091 15.8484V84.1482C60.6091 92.1698 54.0574 98.6982 46.002 98.6982Z" fill="#C7E3FF"/>
<path opacity="0.22" d="M46.0021 98.6772C37.9595 98.6772 31.4164 92.1616 31.4164 84.1528V15.8487C31.4164 7.83987 37.9595 1.32422 46.0021 1.32422C54.0447 1.32422 60.5878 7.83987 60.5878 15.8487V84.1485C60.5878 92.1573 54.0447 98.673 46.0021 98.673V98.6772Z" fill="#C6E2FF"/>
<path opacity="0.23" d="M46.0021 98.6501C37.9722 98.6501 31.4376 92.1429 31.4376 84.1468V15.847C31.4376 7.85092 37.9722 1.34375 46.0021 1.34375C54.0319 1.34375 60.5665 7.85092 60.5665 15.847V84.1468C60.5665 92.1429 54.0319 98.6501 46.0021 98.6501Z" fill="#C5E2FF"/>
<path opacity="0.23" d="M46.0021 98.6308C37.9851 98.6308 31.4633 92.1363 31.4633 84.153V15.8489C31.4633 7.86554 37.9851 1.37109 46.0021 1.37109C54.0192 1.37109 60.541 7.86554 60.541 15.8489V84.1487C60.541 92.1321 54.0192 98.6265 46.0021 98.6265V98.6308Z" fill="#C4E1FF"/>
<path opacity="0.24" d="M46.0021 98.6037C37.9978 98.6037 31.4845 92.1177 31.4845 84.147V15.8472C31.4845 7.87658 37.9978 1.39062 46.0021 1.39062C54.0063 1.39062 60.5196 7.87658 60.5196 15.8472V84.147C60.5196 92.1177 54.0063 98.6037 46.0021 98.6037Z" fill="#C3E1FF"/>
<path opacity="0.24" d="M46.0021 98.5824C38.0107 98.5824 31.5101 92.1092 31.5101 84.1512V15.8472C31.5101 7.88925 38.0107 1.41602 46.0021 1.41602C53.9936 1.41602 60.4942 7.88925 60.4942 15.8472V84.147C60.4942 92.1049 53.9936 98.5781 46.0021 98.5781V98.5824Z" fill="#C2E0FF"/>
<path opacity="0.24" d="M46.0021 98.5572C38.0234 98.5572 31.5314 92.0925 31.5314 84.1473V15.8474C31.5314 7.90225 38.0234 1.4375 46.0021 1.4375C53.9808 1.4375 60.4728 7.90225 60.4728 15.8474V84.1473C60.4728 92.0925 53.9808 98.5572 46.0021 98.5572Z" fill="#C1E0FF"/>
<path opacity="0.25" d="M46.002 98.5359C38.0361 98.5359 31.5569 92.0839 31.5569 84.1515V15.8474C31.5569 7.91491 38.0361 1.46289 46.002 1.46289C53.968 1.46289 60.4472 7.91491 60.4472 15.8474V84.1472C60.4472 92.0797 53.968 98.5317 46.002 98.5317V98.5359Z" fill="#C0DFFF"/>
<path opacity="0.25" d="M46.0021 98.5108C38.049 98.5108 31.5782 92.0672 31.5782 84.1475V15.8477C31.5782 7.92791 38.049 1.48438 46.0021 1.48438C53.9552 1.48438 60.426 7.92791 60.426 15.8477V84.1475C60.426 92.0672 53.9552 98.5108 46.0021 98.5108Z" fill="#BFDFFF"/>
<path opacity="0.25" d="M46.0021 98.4895C38.0617 98.4895 31.6038 92.0587 31.6038 84.1517V15.8476C31.6038 7.94058 38.0617 1.50977 46.0021 1.50977C53.9424 1.50977 60.4003 7.94058 60.4003 15.8476V84.1474C60.4003 92.0544 53.9424 98.4853 46.0021 98.4853V98.4895Z" fill="#BEDEFF"/>
<path opacity="0.26" d="M46.0021 98.4643C38.0745 98.4643 31.6251 92.042 31.6251 84.1477V15.8479C31.6251 7.95358 38.0745 1.53125 46.0021 1.53125C53.9297 1.53125 60.3791 7.95358 60.3791 15.8479V84.1477C60.3791 92.042 53.9297 98.4643 46.0021 98.4643Z" fill="#BDDEFF"/>
<path opacity="0.26" d="M46.0021 98.443C38.0873 98.443 31.6506 92.0334 31.6506 84.1519V15.8478C31.6506 7.96625 38.0873 1.55664 46.0021 1.55664C53.9169 1.55664 60.3535 7.96625 60.3535 15.8478V84.1476C60.3535 92.0292 53.9169 98.4388 46.0021 98.4388V98.443Z" fill="#BCDDFF"/>
<path opacity="0.27" d="M46.0021 98.4179C38.1001 98.4179 31.672 92.0167 31.672 84.1479V15.8481C31.672 7.97925 38.1001 1.57812 46.0021 1.57812C53.9042 1.57812 60.3323 7.97925 60.3323 15.8481V84.1479C60.3323 92.0167 53.9042 98.4179 46.0021 98.4179Z" fill="#BBDDFF"/>
<path opacity="0.27" d="M46.0021 98.3966C38.1128 98.3966 31.6975 92.004 31.6975 84.1521V15.848C31.6975 7.99191 38.1171 1.60352 46.0021 1.60352C53.8871 1.60352 60.3067 7.99615 60.3067 15.848V84.1478C60.3067 92.004 53.8871 98.3923 46.0021 98.3923V98.3966Z" fill="#BADCFF"/>
<path opacity="0.27" d="M46.002 98.3714C38.1256 98.3714 31.7188 91.9915 31.7188 84.1481V15.8483C31.7188 8.00491 38.1256 1.625 46.002 1.625C53.8785 1.625 60.2853 8.00491 60.2853 15.8483V84.1481C60.2853 91.9915 53.8785 98.3714 46.002 98.3714Z" fill="#B9DCFF"/>
<path opacity="0.28" d="M46.0021 98.3501C38.1384 98.3501 31.7444 91.9787 31.7444 84.1523V15.8482C31.7444 8.01758 38.1427 1.65039 46.0021 1.65039C53.8615 1.65039 60.2598 8.02182 60.2598 15.8482V84.148C60.2598 91.9787 53.8615 98.3459 46.0021 98.3459V98.3501Z" fill="#B8DBFF"/>
<path opacity="0.28" d="M46.002 98.3292C38.1511 98.3292 31.7656 91.9705 31.7656 84.1526V15.8485C31.7656 8.03058 38.1511 1.67188 46.002 1.67188C53.853 1.67188 60.2385 8.03058 60.2385 15.8485V84.1483C60.2385 91.9663 53.853 98.325 46.002 98.325V98.3292Z" fill="#B7DBFF"/>
<path opacity="0.29" d="M46.0021 98.3037C38.164 98.3037 31.7913 91.9535 31.7913 84.1525V15.8484C31.7913 8.04324 38.1683 1.69727 46.0021 1.69727C53.836 1.69727 60.213 8.04748 60.213 15.8484V84.1483C60.213 91.9535 53.836 98.2994 46.0021 98.2994V98.3037Z" fill="#B6DAFF"/>
<path opacity="0.29" d="M46.0021 98.2828C38.1767 98.2828 31.8125 91.9453 31.8125 84.1528V15.8487C31.8125 8.05624 38.1767 1.71875 46.0021 1.71875C53.8274 1.71875 60.1916 8.05624 60.1916 15.8487V84.1485C60.1916 91.941 53.8274 98.2785 46.0021 98.2785V98.2828Z" fill="#B5DAFF"/>
<path opacity="0.29" d="M46.0021 98.2572C38.1896 98.2572 31.8381 91.9282 31.8381 84.1485V15.8487C31.8381 8.0689 38.1938 1.74414 46.0021 1.74414C53.8104 1.74414 60.1661 8.07315 60.1661 15.8487V84.1485C60.1661 91.9282 53.8104 98.2572 46.0021 98.2572Z" fill="#B4D9FF"/>
<path opacity="0.3" d="M46.0021 98.2363C38.2023 98.2363 31.8594 91.92 31.8594 84.153V15.8489C31.8594 8.08191 38.2023 1.76562 46.0021 1.76562C53.8019 1.76562 60.1448 8.08191 60.1448 15.8489V84.1488C60.1448 91.9158 53.8019 98.2321 46.0021 98.2321V98.2363Z" fill="#B3D9FF"/>
<path opacity="0.3" d="M46.002 98.2108C38.215 98.2108 31.8849 91.903 31.8849 84.1487V15.8489C31.8849 8.09457 38.2193 1.79102 46.002 1.79102C53.7848 1.79102 60.1234 8.09881 60.1234 15.8489V84.1487C60.1234 91.903 53.789 98.2108 46.002 98.2108Z" fill="#B2D8FF"/>
<path opacity="0.31" d="M46.0021 98.1879C38.2279 98.1879 31.9062 91.8928 31.9062 84.1513V15.8472C31.9062 8.10562 38.2279 1.81055 46.0021 1.81055C53.7763 1.81055 60.0979 8.10562 60.0979 15.8472V84.147C60.0979 91.8886 53.7763 98.1837 46.0021 98.1837V98.1879Z" fill="#B1D8FF"/>
<path opacity="0.31" d="M46.002 98.1627C38.2406 98.1627 31.9275 91.8761 31.9275 84.1473V15.8475C31.9275 8.11862 38.2406 1.83203 46.002 1.83203C53.7635 1.83203 60.0766 8.11862 60.0766 15.8475V84.1473C60.0766 91.8761 53.7635 98.1627 46.002 98.1627Z" fill="#B0D7FF"/>
<path opacity="0.31" d="M46.0021 98.1415C38.2534 98.1415 31.9531 91.8634 31.9531 84.1515V15.8474C31.9531 8.13128 38.2534 1.85742 46.0021 1.85742C53.7508 1.85742 60.0511 8.13128 60.0511 15.8474V84.1472C60.0511 91.8633 53.7508 98.1372 46.0021 98.1372V98.1415Z" fill="#AFD7FF"/>
<path opacity="0.32" d="M46.0021 98.1163C38.2662 98.1163 31.9744 91.8509 31.9744 84.1475V15.8477C31.9744 8.14428 38.2662 1.87891 46.0021 1.87891C53.7379 1.87891 60.0297 8.14428 60.0297 15.8477V84.1475C60.0297 91.8509 53.7379 98.1163 46.0021 98.1163Z" fill="#AED6FF"/>
<path opacity="0.32" d="M46.0021 98.095C38.279 98.095 32 91.8381 32 84.1517V15.8476C32 8.15695 38.2833 1.9043 46.0021 1.9043C53.721 1.9043 60.0043 8.16119 60.0043 15.8476V84.1474C60.0043 91.8381 53.721 98.0908 46.0021 98.0908V98.095Z" fill="#ADD6FF"/>
<path opacity="0.33" d="M46.0021 98.0698C38.2917 98.0698 32.0212 91.8257 32.0212 84.1477V15.8479C32.0212 8.16995 38.2917 1.92578 46.0021 1.92578C53.7124 1.92578 59.9829 8.16995 59.9829 15.8479V84.1477C59.9829 91.8257 53.7124 98.0698 46.0021 98.0698Z" fill="#ACD5FF"/>
<path opacity="0.33" d="M46.0021 98.0486C38.3046 98.0486 32.0469 91.8129 32.0469 84.1519V15.8478C32.0469 8.18261 38.3089 1.95117 46.0021 1.95117C53.6954 1.95117 59.9574 8.18686 59.9574 15.8478V84.1477C59.9574 91.8129 53.6954 98.0443 46.0021 98.0443V98.0486Z" fill="#ABD5FF"/>
<path opacity="0.33" d="M46.0021 98.0234C38.3216 98.0234 32.0681 91.8004 32.0681 84.1479V15.8481C32.0681 8.19986 38.3173 1.97266 46.0021 1.97266C53.6869 1.97266 59.9361 8.19561 59.9361 15.8481V84.1479C59.9361 91.7962 53.6869 98.0234 46.0021 98.0234Z" fill="#AAD4FF"/>
<path opacity="0.34" d="M46.002 98.0021C38.3343 98.0021 32.0936 91.7876 32.0936 84.1521V15.8481C32.0936 8.21252 38.3343 1.99805 46.002 1.99805C53.6698 1.99805 59.9105 8.21252 59.9105 15.8481V84.1479C59.9105 91.7834 53.6698 97.9979 46.002 97.9979V98.0021Z" fill="#A9D4FF"/>
<path opacity="0.34" d="M46.0021 97.9769C38.3472 97.9769 32.115 91.7752 32.115 84.1481V15.8483C32.115 8.22552 38.3429 2.01953 46.0021 2.01953C53.6613 2.01953 59.8892 8.22128 59.8892 15.8483V84.1481C59.8892 91.771 53.6613 97.9769 46.0021 97.9769Z" fill="#A8D3FF"/>
<path opacity="0.35" d="M46.0021 97.9557C38.3599 97.9557 32.1405 91.7624 32.1405 84.1523V15.8483C32.1405 8.23819 38.3599 2.04492 46.0021 2.04492C53.6442 2.04492 59.8636 8.23819 59.8636 15.8483V84.1481C59.8636 91.7582 53.6442 97.9514 46.0021 97.9514V97.9557Z" fill="#A7D3FF"/>
<path opacity="0.35" d="M46.0021 97.9305C38.3727 97.9305 32.1619 91.75 32.1619 84.1484V15.8485C32.1619 8.25119 38.3685 2.06641 46.0021 2.06641C53.6358 2.06641 59.8424 8.24694 59.8424 15.8485V84.1484C59.8424 91.7457 53.6358 97.9305 46.0021 97.9305Z" fill="#A6D2FF"/>
<path opacity="0.35" d="M46.0021 97.9092C38.3855 97.9092 32.1874 91.7372 32.1874 84.1525V15.8485C32.1874 8.26385 38.3855 2.0918 46.0021 2.0918C53.6187 2.0918 59.8168 8.26385 59.8168 15.8485V84.1483C59.8168 91.7329 53.6187 97.905 46.0021 97.905V97.9092Z" fill="#A5D2FF"/>
<path opacity="0.36" d="M46.0021 97.8883C38.3983 97.8883 32.2087 91.7247 32.2087 84.1528V15.8488C32.2087 8.27685 38.394 2.11328 46.0021 2.11328C53.6102 2.11328 59.7955 8.27261 59.7955 15.8488V84.1486C59.7955 91.7205 53.6102 97.884 46.0021 97.884V97.8883Z" fill="#A4D1FF"/>
<path opacity="0.36" d="M46.0021 97.8628C38.411 97.8628 32.2343 91.7119 32.2343 84.1528V15.8487C32.2343 8.28952 38.411 2.13867 46.0021 2.13867C53.5931 2.13867 59.7699 8.28952 59.7699 15.8487V84.1485C59.7699 91.7077 53.5931 97.8585 46.0021 97.8585V97.8628Z" fill="#A3D1FF"/>
<path opacity="0.36" d="M46.002 97.8399C38.4238 97.8399 32.2555 91.6975 32.2555 84.1511V15.847C32.2555 8.30056 38.4238 2.1582 46.002 2.1582C53.5803 2.1582 59.7486 8.30056 59.7486 15.847V84.1468C59.7486 91.6933 53.5803 97.8356 46.002 97.8356V97.8399Z" fill="#A2D0FF"/>
<path opacity="0.37" d="M46.0021 97.8163C38.4366 97.8163 32.2811 91.6867 32.2811 84.153V15.8489C32.2811 8.31518 38.4366 2.18555 46.0021 2.18555C53.5676 2.18555 59.7231 8.31518 59.7231 15.8489V84.1487C59.7231 91.6824 53.5676 97.8121 46.0021 97.8121V97.8163Z" fill="#A1D0FF"/>
<path opacity="0.37" d="M46.002 97.7934C38.4493 97.7934 32.3024 91.6723 32.3024 84.1513V15.8472C32.3024 8.32623 38.4493 2.20508 46.002 2.20508C53.5548 2.20508 59.7017 8.32623 59.7017 15.8472V84.147C59.7017 91.668 53.5548 97.7892 46.002 97.7892V97.7934Z" fill="#A0CFFF"/>
<path opacity="0.38" d="M46.0021 97.7679C38.4622 97.7679 32.328 91.6595 32.328 84.147V15.8472C32.328 8.33889 38.4622 2.23047 46.0021 2.23047C53.5421 2.23047 59.6762 8.33889 59.6762 15.8472V84.147C59.6762 91.6553 53.5421 97.7679 46.0021 97.7679Z" fill="#9FCFFF"/>
<path opacity="0.38" d="M46.0021 97.747C38.4749 97.747 32.3492 91.6471 32.3492 84.1515V15.8474C32.3492 8.35189 38.4749 2.25195 46.0021 2.25195C53.5292 2.25195 59.6549 8.35189 59.6549 15.8474V84.1473C59.6549 91.6428 53.5292 97.7428 46.0021 97.7428V97.747Z" fill="#9ECEFF"/>
<path opacity="0.38" d="M46.0021 97.7218C38.4878 97.7218 32.3706 91.6346 32.3706 84.1475V15.8477C32.3706 8.36489 38.4835 2.27344 46.0021 2.27344C53.5208 2.27344 59.6337 8.36065 59.6337 15.8477V84.1475C59.6337 91.6304 53.5208 97.7218 46.0021 97.7218Z" fill="#9DCEFF"/>
<path opacity="0.39" d="M46.0021 97.7005C38.5005 97.7005 32.3961 91.6218 32.3961 84.1517V15.8477C32.3961 8.37756 38.5005 2.29883 46.0021 2.29883C53.5037 2.29883 59.608 8.37756 59.608 15.8477V84.1475C59.608 91.6176 53.5037 97.6963 46.0021 97.6963V97.7005Z" fill="#9CCDFF"/>
<path opacity="0.39" d="M46.0021 97.6754C38.5133 97.6754 32.4175 91.6094 32.4175 84.1478V15.8479C32.4175 8.39056 38.5091 2.32031 46.0021 2.32031C53.4952 2.32031 59.5868 8.38632 59.5868 15.8479V84.1478C59.5868 91.6051 53.4952 97.6754 46.0021 97.6754Z" fill="#9BCDFF"/>
<path opacity="0.4" d="M46.0021 97.6541C38.5261 97.6541 32.443 91.5966 32.443 84.1519V15.8479C32.443 8.40322 38.5261 2.3457 46.0021 2.3457C53.4781 2.3457 59.5612 8.40322 59.5612 15.8479V84.1477C59.5612 91.5923 53.4781 97.6498 46.0021 97.6498V97.6541Z" fill="#9ACCFF"/>
<path opacity="0.4" d="M46.002 97.6289C38.5388 97.6289 32.4642 91.5799 32.4642 84.148V15.8481C32.4642 8.41622 38.5345 2.36719 46.002 2.36719C53.4696 2.36719 59.5398 8.41198 59.5398 15.8481V84.148C59.5398 91.5799 53.4696 97.6289 46.002 97.6289Z" fill="#99CCFF"/>
<path opacity="0.4" d="M46.0021 97.6076C38.5516 97.6076 32.4899 91.5713 32.4899 84.1521V15.8481C32.4899 8.42889 38.5516 2.39258 46.0021 2.39258C53.4526 2.39258 59.5144 8.42889 59.5144 15.8481V84.1479C59.5144 91.5671 53.4526 97.6034 46.0021 97.6034V97.6076Z" fill="#98CBFF"/>
<path opacity="0.41" d="M46.0021 97.5825C38.5644 97.5825 32.5111 91.5546 32.5111 84.1482V15.8484C32.5111 8.44189 38.5644 2.41406 46.0021 2.41406C53.4398 2.41406 59.493 8.44189 59.493 15.8484V84.1482C59.493 91.5546 53.4398 97.5825 46.0021 97.5825Z" fill="#97CBFF"/>
<path opacity="0.41" d="M46.0021 97.5612C38.5772 97.5612 32.5367 91.5461 32.5367 84.1524V15.8483C32.5367 8.45455 38.5772 2.43945 46.0021 2.43945C53.4271 2.43945 59.4675 8.45455 59.4675 15.8483V84.1481C59.4675 91.5418 53.4271 97.5569 46.0021 97.5569V97.5612Z" fill="#96CAFF"/>
<path opacity="0.42" d="M46.0021 97.536C38.5899 97.536 32.558 91.5294 32.558 84.1484V15.8486C32.558 8.46756 38.5899 2.46094 46.0021 2.46094C53.4142 2.46094 59.4462 8.46756 59.4462 15.8486V84.1484C59.4462 91.5294 53.4142 97.536 46.0021 97.536Z" fill="#95CAFF"/>
<path opacity="0.42" d="M46.002 97.5147C38.6027 97.5147 32.5835 91.5209 32.5835 84.1526V15.8485C32.5835 8.48022 38.6027 2.48633 46.002 2.48633C53.4014 2.48633 59.4206 8.48022 59.4206 15.8485V84.1483C59.4206 91.5166 53.4014 97.5105 46.002 97.5105V97.5147Z" fill="#94C9FF"/>
<path opacity="0.42" d="M46.0021 97.4896C38.6155 97.4896 32.6049 91.5042 32.6049 84.1486V15.8488C32.6049 8.49322 38.6155 2.50781 46.0021 2.50781C53.3887 2.50781 59.3993 8.49322 59.3993 15.8488V84.1486C59.3993 91.5042 53.3887 97.4896 46.0021 97.4896Z" fill="#93C9FF"/>
<path opacity="0.43" d="M46.002 97.4683C38.6282 97.4683 32.6304 91.4956 32.6304 84.1528V15.8487C32.6304 8.50589 38.6282 2.5332 46.002 2.5332C53.3758 2.5332 59.3737 8.50589 59.3737 15.8487V84.1485C59.3737 91.4914 53.3758 97.4641 46.002 97.4641V97.4683Z" fill="#92C8FF"/>
<path opacity="0.43" d="M46.0021 97.4412C38.6411 97.4412 32.6517 91.477 32.6517 84.1469V15.847C32.6517 8.51693 38.6411 2.55273 46.0021 2.55273C53.3631 2.55273 59.3525 8.51693 59.3525 15.847V84.1469C59.3525 91.477 53.3631 97.4412 46.0021 97.4412Z" fill="#91C8FF"/>
<path opacity="0.44" d="M46.0021 97.4219C38.6538 97.4219 32.6772 91.4704 32.6772 84.153V15.8489C32.6772 8.53155 38.6538 2.58008 46.0021 2.58008C53.3503 2.58008 59.3269 8.53155 59.3269 15.8489V84.1488C59.3269 91.4661 53.3503 97.4176 46.0021 97.4176V97.4219Z" fill="#90C7FF"/>
<path opacity="0.44" d="M46.0021 97.399C38.6667 97.399 32.6986 91.456 32.6986 84.1513V15.8473C32.6986 8.5426 38.6667 2.59961 46.0021 2.59961C53.3376 2.59961 59.3056 8.5426 59.3056 15.8473V84.1471C59.3056 91.4517 53.3376 97.3947 46.0021 97.3947V97.399Z" fill="#8FC7FF"/>
<path opacity="0.44" d="M46.0021 97.3735C38.6794 97.3735 32.7241 91.4432 32.7241 84.1513V15.8472C32.7241 8.55526 38.6794 2.625 46.0021 2.625C53.3248 2.625 59.28 8.55526 59.28 15.8472V84.147C59.28 91.4389 53.3248 97.3692 46.0021 97.3692V97.3735Z" fill="#8EC6FF"/>
<path opacity="0.45" d="M46.0021 97.3525C38.6922 97.3525 32.7455 91.4307 32.7455 84.1515V15.8475C32.7455 8.56826 38.6922 2.64648 46.0021 2.64648C53.312 2.64648 59.2588 8.56826 59.2588 15.8475V84.1473C59.2588 91.4265 53.312 97.3483 46.0021 97.3483V97.3525Z" fill="#8DC6FF"/>
<path opacity="0.45" d="M46.0021 97.327C38.705 97.327 32.771 91.4137 32.771 84.1515V15.8474C32.771 8.58093 38.7092 2.67188 46.0021 2.67188C53.295 2.67188 59.2332 8.58517 59.2332 15.8474V84.1472C59.2332 91.4137 53.295 97.3228 46.0021 97.3228V97.327Z" fill="#8CC5FF"/>
<path opacity="0.45" d="M46.002 97.3061C38.7177 97.3061 32.7922 91.4055 32.7922 84.1517V15.8477C32.7922 8.59393 38.7177 2.69336 46.002 2.69336C53.2864 2.69336 59.2118 8.59393 59.2118 15.8477V84.1475C59.2118 91.4012 53.2864 97.3018 46.002 97.3018V97.3061Z" fill="#8BC5FF"/>
<path opacity="0.46" d="M46.0021 97.2806C38.7305 97.2806 32.8179 91.3885 32.8179 84.1474V15.8476C32.8179 8.60659 38.7348 2.71875 46.0021 2.71875C53.2694 2.71875 59.1863 8.61084 59.1863 15.8476V84.1474C59.1863 91.3885 53.2694 97.2806 46.0021 97.2806Z" fill="#8AC4FF"/>
<path opacity="0.46" d="M46.0021 97.2596C38.7433 97.2596 32.8391 91.3803 32.8391 84.152V15.8479C32.8391 8.61959 38.7433 2.74023 46.0021 2.74023C53.2608 2.74023 59.165 8.61959 59.165 15.8479V84.1477C59.165 91.376 53.2608 97.2554 46.0021 97.2554V97.2596Z" fill="#89C4FF"/>
<path opacity="0.47" d="M46.0021 97.2344C38.7561 97.2344 32.8605 91.3636 32.8605 84.148V15.8482C32.8605 8.63259 38.7561 2.76172 46.0021 2.76172C53.2481 2.76172 59.1438 8.63259 59.1438 15.8482V84.148C59.1438 91.3636 53.2481 97.2344 46.0021 97.2344Z" fill="#88C3FF"/>
<path opacity="0.47" d="M46.0021 97.2132C38.7688 97.2132 32.886 91.355 32.886 84.1522V15.8481C32.886 8.64526 38.7688 2.78711 46.0021 2.78711C53.2353 2.78711 59.1181 8.64526 59.1181 15.8481V84.1479C59.1181 91.3508 53.2353 97.2089 46.0021 97.2089V97.2132Z" fill="#87C3FF"/>
<path opacity="0.47" d="M46.0021 97.188C38.7817 97.188 32.9073 91.3383 32.9073 84.1482V15.8484C32.9073 8.65826 38.7817 2.80859 46.0021 2.80859C53.2226 2.80859 59.0969 8.65826 59.0969 15.8484V84.1482C59.0969 91.3383 53.2226 97.188 46.0021 97.188Z" fill="#86C2FF"/>
<path opacity="0.48" d="M46.0021 97.1667C38.7944 97.1667 32.9329 91.3298 32.9329 84.1524V15.8483C32.9329 8.67092 38.7944 2.83398 46.0021 2.83398C53.2098 2.83398 59.0713 8.67092 59.0713 15.8483V84.1481C59.0713 91.3255 53.2098 97.1625 46.0021 97.1625V97.1667Z" fill="#85C2FF"/>
<path opacity="0.48" d="M46.0021 97.1415C38.8073 97.1415 32.9542 91.3131 32.9542 84.1484V15.8486C32.9542 8.68392 38.8073 2.85547 46.0021 2.85547C53.197 2.85547 59.0501 8.68392 59.0501 15.8486V84.1484C59.0501 91.3131 53.197 97.1415 46.0021 97.1415Z" fill="#84C1FF"/>
<path opacity="0.49" d="M46.0021 97.1203C38.82 97.1203 32.9797 91.3046 32.9797 84.1526V15.8485C32.9797 8.69659 38.82 2.88086 46.0021 2.88086C53.1842 2.88086 59.0245 8.69659 59.0245 15.8485V84.1484C59.0245 91.3003 53.1842 97.116 46.0021 97.116V97.1203Z" fill="#83C1FF"/>
<path opacity="0.49" d="M46.002 97.0951C38.8327 97.0951 33.001 91.2879 33.001 84.1486V15.8488C33.001 8.70959 38.8327 2.90234 46.002 2.90234C53.1714 2.90234 59.0031 8.70959 59.0031 15.8488V84.1486C59.0031 91.2879 53.1714 97.0951 46.002 97.0951Z" fill="#82C0FF"/>
<path opacity="0.49" d="M46.0021 97.0738C38.8456 97.0738 33.0266 91.2751 33.0266 84.1528V15.8488C33.0266 8.72225 38.8456 2.92773 46.0021 2.92773C53.1587 2.92773 58.9776 8.72225 58.9776 15.8488V84.1486C58.9776 91.2751 53.1587 97.0696 46.0021 97.0696V97.0738Z" fill="#81C0FF"/>
<path opacity="0.5" d="M46.0021 97.0467C38.8583 97.0467 33.0479 91.2607 33.0479 84.1469V15.8471C33.0479 8.7333 38.8583 2.94727 46.0021 2.94727C53.1458 2.94727 58.9563 8.7333 58.9563 15.8471V84.1469C58.9563 91.2607 53.1458 97.0467 46.0021 97.0467Z" fill="#80BFFF"/>
<path opacity="0.5" d="M46.0021 97.0254C38.8711 97.0254 33.0735 91.2479 33.0735 84.1511V15.847C33.0735 8.74597 38.8754 2.97266 46.0021 2.97266C53.1289 2.97266 58.9308 8.75021 58.9308 15.847V84.1468C58.9308 91.2479 53.1289 97.0212 46.0021 97.0212V97.0254Z" fill="#7FBFFF"/>
<path opacity="0.51" d="M46.0021 97.0002C38.8839 97.0002 33.0947 91.2354 33.0947 84.1471V15.8473C33.0947 8.75897 38.8839 2.99414 46.0021 2.99414C53.1203 2.99414 58.9094 8.75897 58.9094 15.8473V84.1471C58.9094 91.2354 53.1203 97.0002 46.0021 97.0002Z" fill="#7EBEFF"/>
<path opacity="0.51" d="M46.002 96.979C38.8966 96.979 33.1202 91.2226 33.1202 84.1513V15.8472C33.1202 8.77163 38.9009 3.01953 46.002 3.01953C53.1032 3.01953 58.8838 8.77587 58.8838 15.8472V84.147C58.8838 91.2226 53.1032 96.9747 46.002 96.9747V96.979Z" fill="#7DBEFF"/>
<path opacity="0.51" d="M46.0021 96.9538C38.9094 96.9538 33.1416 91.2102 33.1416 84.1473V15.8475C33.1416 8.78463 38.9094 3.04102 46.0021 3.04102C53.0947 3.04102 58.8626 8.78463 58.8626 15.8475V84.1473C58.8626 91.2102 53.0947 96.9538 46.0021 96.9538Z" fill="#7CBDFF"/>
<path opacity="0.52" d="M46.002 96.9325C38.9222 96.9325 33.1671 91.1974 33.1671 84.1515V15.8474C33.1671 8.7973 38.9264 3.06641 46.002 3.06641C53.0777 3.06641 58.837 8.80154 58.837 15.8474V84.1473C58.837 91.1974 53.0777 96.9283 46.002 96.9283V96.9325Z" fill="#7BBDFF"/>
<path opacity="0.52" d="M46.0021 96.9116C38.935 96.9116 33.1885 91.1892 33.1885 84.1518V15.8477C33.1885 8.8103 38.935 3.08789 46.0021 3.08789C53.0692 3.08789 58.8157 8.8103 58.8157 15.8477V84.1475C58.8157 91.1849 53.0692 96.9074 46.0021 96.9074V96.9116Z" fill="#7ABCFF"/>
<path opacity="0.53" d="M46.0021 96.8861C38.9477 96.8861 33.214 91.1722 33.214 84.1517V15.8476C33.214 8.82296 38.952 3.11328 46.0021 3.11328C53.0521 3.11328 58.7901 8.8272 58.7901 15.8476V84.1475C58.7901 91.1722 53.0521 96.8818 46.0021 96.8818V96.8861Z" fill="#79BCFF"/>
<path opacity="0.53" d="M46.0021 96.8652C38.9606 96.8652 33.2354 91.164 33.2354 84.152V15.8479C33.2354 8.83596 38.9606 3.13477 46.0021 3.13477C53.0437 3.13477 58.7689 8.83596 58.7689 15.8479V84.1477C58.7689 91.1597 53.0437 96.8609 46.0021 96.8609V96.8652Z" fill="#78BBFF"/>
<path opacity="0.53" d="M46.0021 96.8396C38.9776 96.8396 33.2609 91.1469 33.2609 84.1519V15.8479C33.2609 8.84863 38.9776 3.16016 46.0021 3.16016C53.0266 3.16016 58.7433 8.85287 58.7433 15.8479V84.1477C58.7433 91.1469 53.0266 96.8354 46.0021 96.8354V96.8396Z" fill="#77BBFF"/>
<path opacity="0.54" d="M46.0021 96.8187C38.9904 96.8187 33.2822 91.1345 33.2822 84.1522V15.8481C33.2822 8.86587 38.9862 3.18164 46.0021 3.18164C53.0181 3.18164 58.7221 8.86163 58.7221 15.8481V84.1479C58.7221 91.1302 53.0181 96.8144 46.0021 96.8144V96.8187Z" fill="#76BAFF"/>
<path opacity="0.54" d="M46.0021 96.7932C39.0032 96.7932 33.3077 91.1217 33.3077 84.1479V15.8481C33.3077 8.87853 39.0032 3.20703 46.0021 3.20703C53.001 3.20703 58.6964 8.87853 58.6964 15.8481V84.1479C58.6964 91.1174 53.001 96.7932 46.0021 96.7932Z" fill="#75BAFF"/>
<path opacity="0.55" d="M46.002 96.7722C39.0159 96.7722 33.329 91.1092 33.329 84.1524V15.8484C33.329 8.89153 39.0159 3.22852 46.002 3.22852C52.9882 3.22852 58.6751 8.89153 58.6751 15.8484V84.1482C58.6751 91.105 52.9882 96.768 46.002 96.768V96.7722Z" fill="#74B9FF"/>
<path opacity="0.55" d="M46.0021 96.7471C39.0287 96.7471 33.3503 91.0968 33.3503 84.1484V15.8486C33.3503 8.90453 39.0245 3.25 46.0021 3.25C52.9797 3.25 58.6539 8.90029 58.6539 15.8486V84.1484C58.6539 91.0925 52.9797 96.7471 46.0021 96.7471Z" fill="#73B9FF"/>
<path opacity="0.55" d="M46.0021 96.7258C39.0415 96.7258 33.3759 91.084 33.3759 84.1526V15.8486C33.3759 8.9172 39.0415 3.27539 46.0021 3.27539C52.9626 3.27539 58.6283 8.9172 58.6283 15.8486V84.1484C58.6283 91.0797 52.9626 96.7215 46.0021 96.7215V96.7258Z" fill="#72B8FF"/>
<path opacity="0.56" d="M46.0021 96.7006C39.0543 96.7006 33.3972 91.0715 33.3972 84.1487V15.8488C33.3972 8.9302 39.05 3.29688 46.0021 3.29688C52.9542 3.29688 58.607 8.92596 58.607 15.8488V84.1487C58.607 91.0673 52.9542 96.7006 46.0021 96.7006Z" fill="#71B8FF"/>
<path opacity="0.56" d="M46.0021 96.6794C39.067 96.6794 33.4227 91.0588 33.4227 84.1528V15.8488C33.4227 8.94286 39.067 3.32227 46.0021 3.32227C52.9371 3.32227 58.5814 8.94286 58.5814 15.8488V84.1486C58.5814 91.0545 52.9371 96.6751 46.0021 96.6751V96.6794Z" fill="#70B7FF"/>
<path opacity="0.56" d="M46.0021 96.6522C39.0799 96.6522 33.4441 91.0443 33.4441 84.1469V15.8471C33.4441 8.95391 39.0756 3.3418 46.0021 3.3418C52.9286 3.3418 58.5602 8.94967 58.5602 15.8471V84.1469C58.5602 91.0401 52.9286 96.6522 46.0021 96.6522Z" fill="#6FB7FF"/>
<path opacity="0.57" d="M46.0021 96.631C39.0926 96.631 33.4696 91.0316 33.4696 84.1511V15.847C33.4696 8.96658 39.0926 3.36719 46.0021 3.36719C52.9116 3.36719 58.5346 8.96658 58.5346 15.847V84.1469C58.5346 91.0273 52.9116 96.6267 46.0021 96.6267V96.631Z" fill="#6EB6FF"/>
<path opacity="0.57" d="M46.0021 96.6058C39.1054 96.6058 33.491 91.0191 33.491 84.1471V15.8473C33.491 8.97958 39.1012 3.38867 46.0021 3.38867C52.9031 3.38867 58.5133 8.97534 58.5133 15.8473V84.1471C58.5133 91.0149 52.9031 96.6058 46.0021 96.6058Z" fill="#6DB6FF"/>
<path opacity="0.58" d="M46.0021 96.5845C39.1182 96.5845 33.5165 91.0063 33.5165 84.1513V15.8473C33.5165 8.99224 39.1182 3.41406 46.0021 3.41406C52.886 3.41406 58.4877 8.99224 58.4877 15.8473V84.1471C58.4877 91.0021 52.886 96.5803 46.0021 96.5803V96.5845Z" fill="#6CB5FF"/>
<path opacity="0.58" d="M46.002 96.5593C39.1309 96.5593 33.5377 90.9896 33.5377 84.1473V15.8475C33.5377 9.00524 39.1266 3.43555 46.002 3.43555C52.8774 3.43555 58.4664 9.001 58.4664 15.8475V84.1473C58.4664 90.9896 52.8774 96.5593 46.002 96.5593Z" fill="#6BB5FF"/>
<path opacity="0.58" d="M46.0021 96.5381C39.1438 96.5381 33.5634 90.9811 33.5634 84.1515V15.8475C33.5634 9.01791 39.1438 3.46094 46.0021 3.46094C52.8605 3.46094 58.4409 9.01791 58.4409 15.8475V84.1473C58.4409 90.9768 52.8605 96.5338 46.0021 96.5338V96.5381Z" fill="#6AB4FF"/>
<path opacity="0.59" d="M46.0021 96.5129C39.1565 96.5129 33.5846 90.9644 33.5846 84.1476V15.8477C33.5846 9.03091 39.1565 3.48242 46.0021 3.48242C52.8476 3.48242 58.4195 9.03091 58.4195 15.8477V84.1476C58.4195 90.9644 52.8476 96.5129 46.0021 96.5129Z" fill="#69B4FF"/>
<path opacity="0.59" d="M46.0021 96.4916C39.1693 96.4916 33.6102 90.9558 33.6102 84.1517V15.8477C33.6102 9.04357 39.1693 3.50781 46.0021 3.50781C52.8349 3.50781 58.394 9.04357 58.394 15.8477V84.1475C58.394 90.9516 52.8349 96.4874 46.0021 96.4874V96.4916Z" fill="#68B3FF"/>
<path opacity="0.6" d="M46.0021 96.4664C39.1821 96.4664 33.6315 90.9391 33.6315 84.1478V15.848C33.6315 9.05657 39.1821 3.5293 46.0021 3.5293C52.8221 3.5293 58.3727 9.05657 58.3727 15.848V84.1478C58.3727 90.9391 52.8221 96.4664 46.0021 96.4664Z" fill="#67B3FF"/>
<path opacity="0.6" d="M46.002 96.4452C39.1948 96.4452 33.657 90.9306 33.657 84.152V15.8479C33.657 9.06924 39.1948 3.55469 46.002 3.55469C52.8093 3.55469 58.3471 9.06924 58.3471 15.8479V84.1477C58.3471 90.9264 52.8093 96.4409 46.002 96.4409V96.4452Z" fill="#66B2FF"/>
<path opacity="0.6" d="M46.0021 96.4242C39.2076 96.4242 33.6783 90.9182 33.6783 84.1522V15.8482C33.6783 9.08224 39.2076 3.57617 46.0021 3.57617C52.7966 3.57617 58.3258 9.08224 58.3258 15.8482V84.148C58.3258 90.9139 52.7966 96.42 46.0021 96.42V96.4242Z" fill="#65B2FF"/>
<path opacity="0.61" d="M46.002 96.3987C39.2204 96.3987 33.7039 90.9054 33.7039 84.1522V15.8481C33.7039 9.0949 39.2204 3.60156 46.002 3.60156C52.7837 3.60156 58.3002 9.0949 58.3002 15.8481V84.1479C58.3002 90.9011 52.7837 96.3945 46.002 96.3945V96.3987Z" fill="#64B1FF"/>
<path opacity="0.61" d="M46.0021 96.3778C39.2332 96.3778 33.7252 90.8929 33.7252 84.1525V15.8484C33.7252 9.1079 39.2332 3.62305 46.0021 3.62305C52.771 3.62305 58.279 9.1079 58.279 15.8484V84.1482C58.279 90.8887 52.771 96.3735 46.0021 96.3735V96.3778Z" fill="#63B1FF"/>
<path opacity="0.62" d="M46.0021 96.3523C39.2459 96.3523 33.7507 90.8801 33.7507 84.1524V15.8483C33.7507 9.12057 39.2459 3.64844 46.0021 3.64844C52.7582 3.64844 58.2534 9.12057 58.2534 15.8483V84.1481C58.2534 90.8759 52.7582 96.348 46.0021 96.348V96.3523Z" fill="#62B0FF"/>
<path opacity="0.62" d="M46.0021 96.3313C39.2588 96.3313 33.7721 90.8677 33.7721 84.1527V15.8486C33.7721 9.13357 39.2588 3.66992 46.0021 3.66992C52.7455 3.66992 58.2322 9.13357 58.2322 15.8486V84.1484C58.2322 90.8634 52.7455 96.3271 46.0021 96.3271V96.3313Z" fill="#61B0FF"/>
<path opacity="0.62" d="M46.0021 96.3058C39.2715 96.3058 33.7976 90.8549 33.7976 84.1483V15.8485C33.7976 9.14623 39.2715 3.69531 46.0021 3.69531C52.7326 3.69531 58.2066 9.14623 58.2066 15.8485V84.1483C58.2066 90.8506 52.7326 96.3058 46.0021 96.3058Z" fill="#60AFFF"/>
<path opacity="0.63" d="M46.0021 96.2849C39.2844 96.2849 33.819 90.8425 33.819 84.1529V15.8488C33.819 9.15923 39.2844 3.7168 46.0021 3.7168C52.7199 3.7168 58.1853 9.15923 58.1853 15.8488V84.1486C58.1853 90.8382 52.7199 96.2806 46.0021 96.2806V96.2849Z" fill="#5FAFFF"/>
<path opacity="0.63" d="M46.0021 96.2578C39.2971 96.2578 33.8402 90.8238 33.8402 84.1469V15.8471C33.8402 9.17028 39.2971 3.73633 46.0021 3.73633C52.7071 3.73633 58.164 9.17028 58.164 15.8471V84.1469C58.164 90.8238 52.7071 96.2578 46.0021 96.2578Z" fill="#5EAEFF"/>
<path opacity="0.64" d="M46.002 96.2365C39.3098 96.2365 33.8657 90.8153 33.8657 84.1511V15.8471C33.8657 9.18295 39.3098 3.76172 46.002 3.76172C52.6943 3.76172 58.1384 9.18295 58.1384 15.8471V84.1469C58.1384 90.811 52.6943 96.2322 46.002 96.2322V96.2365Z" fill="#5DAEFF"/>
<path opacity="0.64" d="M46.0021 96.2113C39.3227 96.2113 33.8871 90.7986 33.8871 84.1472V15.8473C33.8871 9.19595 39.3227 3.7832 46.0021 3.7832C52.6815 3.7832 58.1171 9.19595 58.1171 15.8473V84.1472C58.1171 90.7986 52.6815 96.2113 46.0021 96.2113Z" fill="#5CADFF"/>
<path opacity="0.64" d="M46.0021 96.19C39.3354 96.19 33.9126 90.79 33.9126 84.1513V15.8473C33.9126 9.20861 39.3354 3.80859 46.0021 3.80859C52.6687 3.80859 58.0915 9.20861 58.0915 15.8473V84.1471C58.0915 90.7858 52.6687 96.1858 46.0021 96.1858V96.19Z" fill="#5BADFF"/>
<path opacity="0.65" d="M46.0021 96.1648C39.3482 96.1648 33.934 90.7733 33.934 84.1474V15.8476C33.934 9.22161 39.3482 3.83008 46.0021 3.83008C52.656 3.83008 58.0703 9.22161 58.0703 15.8476V84.1474C58.0703 90.7733 52.656 96.1648 46.0021 96.1648Z" fill="#5AACFF"/>
<path opacity="0.65" d="M46.0021 96.1436C39.361 96.1436 33.9595 90.7648 33.9595 84.1516V15.8475C33.9595 9.23428 39.361 3.85547 46.0021 3.85547C52.6432 3.85547 58.0447 9.23428 58.0447 15.8475V84.1473C58.0447 90.7605 52.6432 96.1393 46.0021 96.1393V96.1436Z" fill="#59ACFF"/>
<path opacity="0.65" d="M46.0021 96.1184C39.3738 96.1184 33.9808 90.7481 33.9808 84.1476V15.8478C33.9808 9.24728 39.3738 3.87695 46.0021 3.87695C52.6305 3.87695 58.0234 9.24728 58.0234 15.8478V84.1476C58.0234 90.7481 52.6305 96.1184 46.0021 96.1184Z" fill="#58ABFF"/>
<path opacity="0.66" d="M46.0021 96.0971C39.3865 96.0971 34.0063 90.7395 34.0063 84.1518V15.8477C34.0063 9.25994 39.3865 3.90234 46.0021 3.90234C52.6176 3.90234 57.9978 9.25994 57.9978 15.8477V84.1475C57.9978 90.7353 52.6176 96.0929 46.0021 96.0929V96.0971Z" fill="#57ABFF"/>
<path opacity="0.66" d="M46.002 96.072C39.3993 96.072 34.0276 90.7228 34.0276 84.1478V15.848C34.0276 9.27294 39.3993 3.92383 46.002 3.92383C52.6048 3.92383 57.9765 9.27294 57.9765 15.848V84.1478C57.9765 90.7228 52.6048 96.072 46.002 96.072Z" fill="#56AAFF"/>
<path opacity="0.67" d="M46.0021 96.0507C39.4121 96.0507 34.0532 90.7143 34.0532 84.152V15.8479C34.0532 9.28561 39.4121 3.94922 46.0021 3.94922C52.5921 3.94922 57.951 9.28561 57.951 15.8479V84.1477C57.951 90.7101 52.5921 96.0464 46.0021 96.0464V96.0507Z" fill="#55AAFF"/>
<path opacity="0.67" d="M46.002 96.0255C39.4248 96.0255 34.0745 90.6976 34.0745 84.148V15.8482C34.0745 9.29861 39.4248 3.9707 46.002 3.9707C52.5793 3.9707 57.9296 9.29861 57.9296 15.8482V84.148C57.9296 90.6976 52.5793 96.0255 46.002 96.0255Z" fill="#54A9FF"/>
<path opacity="0.67" d="M46.0021 96.0042C39.4377 96.0042 34.1001 90.6848 34.1001 84.1522V15.8481C34.1001 9.31127 39.4377 3.99609 46.0021 3.99609C52.5665 3.99609 57.9041 9.31127 57.9041 15.8481V84.148C57.9041 90.6848 52.5665 96 46.0021 96V96.0042Z" fill="#53A9FF"/>
<path opacity="0.68" d="M46.0021 95.9791C39.4504 95.9791 34.1213 90.6724 34.1213 84.1482V15.8484C34.1213 9.32427 39.4504 4.01758 46.0021 4.01758C52.5537 4.01758 57.8828 9.32427 57.8828 15.8484V84.1482C57.8828 90.6724 52.5537 95.9791 46.0021 95.9791Z" fill="#52A8FF"/>
<path opacity="0.68" d="M46.0021 95.9578C39.4633 95.9578 34.147 90.6596 34.147 84.1524V15.8483C34.147 9.33694 39.4675 4.04297 46.0021 4.04297C52.5367 4.04297 57.8573 9.34118 57.8573 15.8483V84.1482C57.8573 90.6596 52.5367 95.9536 46.0021 95.9536V95.9578Z" fill="#51A8FF"/>
<path opacity="0.69" d="M46.0021 95.9369C39.476 95.9369 34.1682 90.6514 34.1682 84.1527V15.8486C34.1682 9.34994 39.476 4.06445 46.0021 4.06445C52.5282 4.06445 57.8359 9.34994 57.8359 15.8486V84.1484C57.8359 90.6471 52.5282 95.9326 46.0021 95.9326V95.9369Z" fill="#50A7FF"/>
<path opacity="0.69" d="M46.002 95.9113C39.4887 95.9113 34.1937 90.6343 34.1937 84.1526V15.8486C34.1937 9.3626 39.493 4.08984 46.002 4.08984C52.5111 4.08984 57.8103 9.36684 57.8103 15.8486V84.1484C57.8103 90.6343 52.5111 95.9071 46.002 95.9071V95.9113Z" fill="#4FA7FF"/>
<path opacity="0.69" d="M46.0021 95.8904C39.5016 95.8904 34.2151 90.6261 34.2151 84.1529V15.8488C34.2151 9.3756 39.5016 4.11133 46.0021 4.11133C52.5026 4.11133 57.7891 9.3756 57.7891 15.8488V84.1487C57.7891 90.6219 52.5026 95.8862 46.0021 95.8862V95.8904Z" fill="#4EA6FF"/>
<path opacity="0.7" d="M46.002 95.8649C39.5143 95.8649 34.2406 90.6091 34.2406 84.1486V15.8488C34.2406 9.38827 39.5186 4.13672 46.002 4.13672C52.4855 4.13672 57.7635 9.39251 57.7635 15.8488V84.1486C57.7635 90.6091 52.4855 95.8649 46.002 95.8649Z" fill="#4DA6FF"/>
<path opacity="0.7" d="M46.0021 95.842C39.5271 95.842 34.262 90.5989 34.262 84.1512V15.8471C34.262 9.39931 39.5271 4.15625 46.0021 4.15625C52.4771 4.15625 57.7423 9.39931 57.7423 15.8471V84.1469C57.7423 90.5947 52.4771 95.8378 46.0021 95.8378V95.842Z" fill="#4CA5FF"/>
<path opacity="0.71" d="M46.0021 95.8165C39.5399 95.8165 34.2875 90.5819 34.2875 84.1469V15.847C34.2875 9.41198 39.5441 4.18164 46.0021 4.18164C52.46 4.18164 57.7167 9.41622 57.7167 15.847V84.1469C57.7167 90.5819 52.46 95.8165 46.0021 95.8165Z" fill="#4BA5FF"/>
<path opacity="0.71" d="M46.0021 95.7956C39.5527 95.7956 34.3088 90.5737 34.3088 84.1514V15.8473C34.3088 9.42498 39.5527 4.20312 46.0021 4.20312C52.4515 4.20312 57.6954 9.42498 57.6954 15.8473V84.1471C57.6954 90.5695 52.4515 95.7913 46.0021 95.7913V95.7956Z" fill="#4AA4FF"/>
<path opacity="0.71" d="M46.0021 95.7704C39.5654 95.7704 34.3301 90.557 34.3301 84.1474V15.8476C34.3301 9.43798 39.5654 4.22461 46.0021 4.22461C52.4387 4.22461 57.6741 9.43798 57.6741 15.8476V84.1474C57.6741 90.557 52.4387 95.7704 46.0021 95.7704Z" fill="#49A4FF"/>
<path opacity="0.72" d="M46.0021 95.7491C39.5783 95.7491 34.3557 90.5442 34.3557 84.1516V15.8475C34.3557 9.45064 39.5783 4.25 46.0021 4.25C52.426 4.25 57.6486 9.45064 57.6486 15.8475V84.1473C57.6486 90.5442 52.426 95.7449 46.0021 95.7449V95.7491Z" fill="#48A3FF"/>
<path opacity="0.72" d="M46.0021 95.7239C39.591 95.7239 34.377 90.5318 34.377 84.1476V15.8478C34.377 9.46365 39.591 4.27148 46.0021 4.27148C52.4132 4.27148 57.6272 9.46365 57.6272 15.8478V84.1476C57.6272 90.5318 52.4132 95.7239 46.0021 95.7239Z" fill="#47A3FF"/>
<path opacity="0.73" d="M46.002 95.7027C39.6037 95.7027 34.4025 90.519 34.4025 84.1518V15.8477C34.4025 9.47631 39.608 4.29688 46.002 4.29688C52.3961 4.29688 57.6016 9.48055 57.6016 15.8477V84.1476C57.6016 90.519 52.3961 95.6984 46.002 95.6984V95.7027Z" fill="#46A2FF"/>
<path opacity="0.73" d="M46.0021 95.6775C39.6166 95.6775 34.4238 90.5065 34.4238 84.1478V15.848C34.4238 9.48931 39.6166 4.31836 46.0021 4.31836C52.3876 4.31836 57.5804 9.48931 57.5804 15.848V84.1478C57.5804 90.5065 52.3876 95.6775 46.0021 95.6775Z" fill="#45A2FF"/>
<path opacity="0.73" d="M46.0021 95.6562C39.6293 95.6562 34.4493 90.4937 34.4493 84.152V15.8479C34.4493 9.50198 39.6336 4.34375 46.0021 4.34375C52.3705 4.34375 57.5548 9.50622 57.5548 15.8479V84.1478C57.5548 90.4937 52.3705 95.652 46.0021 95.652V95.6562Z" fill="#44A1FF"/>
<path opacity="0.74" d="M46.0021 95.631C39.6464 95.631 34.4707 90.4813 34.4707 84.148V15.8482C34.4707 9.51922 39.6422 4.36523 46.0021 4.36523C52.3621 4.36523 57.5335 9.51498 57.5335 15.8482V84.148C57.5335 90.4771 52.3621 95.631 46.0021 95.631Z" fill="#43A1FF"/>
<path opacity="0.74" d="M46.0021 95.6098C39.6592 95.6098 34.4962 90.4685 34.4962 84.1522V15.8482C34.4962 9.53188 39.6592 4.39062 46.0021 4.39062C52.345 4.39062 57.5079 9.53188 57.5079 15.8482V84.148C57.5079 90.4643 52.345 95.6055 46.0021 95.6055V95.6098Z" fill="#42A0FF"/>
<path opacity="0.75" d="M46.0021 95.5846C39.672 95.5846 34.5176 90.4561 34.5176 84.1483V15.8484C34.5176 9.54488 39.6677 4.41211 46.0021 4.41211C52.3365 4.41211 57.4867 9.54064 57.4867 15.8484V84.1483C57.4867 90.4518 52.3365 95.5846 46.0021 95.5846Z" fill="#41A0FF"/>
<path opacity="0.75" d="M46.0021 95.5633C39.6847 95.5633 34.5431 90.4433 34.5431 84.1524V15.8484C34.5431 9.55755 39.6847 4.4375 46.0021 4.4375C52.3195 4.4375 57.4611 9.55755 57.4611 15.8484V84.1482C57.4611 90.439 52.3195 95.5591 46.0021 95.5591V95.5633Z" fill="#409FFF"/>
<path opacity="0.75" d="M46.002 95.5381C39.6975 95.5381 34.5643 90.4308 34.5643 84.1485V15.8487C34.5643 9.57055 39.6932 4.45898 46.002 4.45898C52.3109 4.45898 57.4397 9.56631 57.4397 15.8487V84.1485C57.4397 90.4266 52.3109 95.5381 46.002 95.5381Z" fill="#3F9FFF"/>
<path opacity="0.76" d="M46.0021 95.5169C39.7103 95.5169 34.59 90.418 34.59 84.1526V15.8486C34.59 9.58321 39.7103 4.48438 46.0021 4.48438C52.2939 4.48438 57.4142 9.58321 57.4142 15.8486V84.1484C57.4142 90.4138 52.2939 95.5126 46.0021 95.5126V95.5169Z" fill="#3E9EFF"/>
<path opacity="0.76" d="M46.002 95.4917C39.723 95.4917 34.6112 90.4013 34.6112 84.1487V15.8489C34.6112 9.59621 39.7188 4.50586 46.002 4.50586C52.2853 4.50586 57.3929 9.59197 57.3929 15.8489V84.1487C57.3929 90.4013 52.2853 95.4917 46.002 95.4917Z" fill="#3D9EFF"/>
<path opacity="0.76" d="M46.0021 95.4704C39.7359 95.4704 34.6368 90.3928 34.6368 84.1529V15.8488C34.6368 9.60888 39.7359 4.53125 46.0021 4.53125C52.2684 4.53125 57.3674 9.60888 57.3674 15.8488V84.1486C57.3674 90.3885 52.2684 95.4662 46.0021 95.4662V95.4704Z" fill="#3C9DFF"/>
<path opacity="0.77" d="M46.0021 95.4475C39.7486 95.4475 34.6581 90.3784 34.6581 84.1512V15.8471C34.6581 9.61993 39.7486 4.55078 46.0021 4.55078C52.2555 4.55078 57.346 9.61993 57.346 15.8471V84.1469C57.346 90.3741 52.2555 95.4433 46.0021 95.4433V95.4475Z" fill="#3B9DFF"/>
<path opacity="0.77" d="M46.0021 95.422C39.7615 95.422 34.6837 90.3656 34.6837 84.1511V15.8471C34.6837 9.63259 39.7615 4.57617 46.0021 4.57617C52.2428 4.57617 57.3206 9.63259 57.3206 15.8471V84.1469C57.3206 90.3614 52.2428 95.4178 46.0021 95.4178V95.422Z" fill="#3A9CFF"/>
<path opacity="0.78" d="M46.0021 95.4011C39.7742 95.4011 34.705 90.3531 34.705 84.1514V15.8473C34.705 9.64559 39.7742 4.59766 46.0021 4.59766C52.23 4.59766 57.2992 9.64559 57.2992 15.8473V84.1472C57.2992 90.3489 52.23 95.3968 46.0021 95.3968V95.4011Z" fill="#399CFF"/>
<path opacity="0.78" d="M46.002 95.3756C39.7869 95.3756 34.7305 90.3404 34.7305 84.1471V15.8473C34.7305 9.65826 39.7869 4.62305 46.002 4.62305C52.2172 4.62305 57.2736 9.65826 57.2736 15.8473V84.1471C57.2736 90.3361 52.2172 95.3756 46.002 95.3756Z" fill="#389BFF"/>
<path opacity="0.78" d="M46.0021 95.3546C39.7998 95.3546 34.7518 90.3279 34.7518 84.1516V15.8476C34.7518 9.67126 39.7998 4.64453 46.0021 4.64453C52.2044 4.64453 57.2524 9.67126 57.2524 15.8476V84.1474C57.2524 90.3237 52.2044 95.3504 46.0021 95.3504V95.3546Z" fill="#379BFF"/>
<path opacity="0.79" d="M46.002 95.3291C39.8125 95.3291 34.7773 90.3151 34.7773 84.1473V15.8475C34.7773 9.68392 39.8125 4.66992 46.002 4.66992C52.1916 4.66992 57.231 9.68392 57.231 15.8475V84.1473C57.231 90.3109 52.1959 95.3291 46.002 95.3291Z" fill="#369AFF"/>
<path opacity="0.79" d="M46.0021 95.3082C39.8253 95.3082 34.7987 90.3027 34.7987 84.1518V15.8478C34.7987 9.69692 39.8253 4.69141 46.0021 4.69141C52.1789 4.69141 57.2055 9.69692 57.2055 15.8478V84.1476C57.2055 90.2984 52.1789 95.3039 46.0021 95.3039V95.3082Z" fill="#359AFF"/>
<path opacity="0.8" d="M46.0021 95.283C39.8381 95.283 34.8199 90.2902 34.8199 84.1479V15.848C34.8199 9.70992 39.8338 4.71289 46.0021 4.71289C52.1703 4.71289 57.1842 9.70568 57.1842 15.848V84.1479C57.1842 90.286 52.1703 95.283 46.0021 95.283Z" fill="#3499FF"/>
<path opacity="0.8" d="M46.0021 95.2617C39.8509 95.2617 34.8456 90.2774 34.8456 84.152V15.848C34.8456 9.72259 39.8509 4.73828 46.0021 4.73828C52.1534 4.73828 57.1587 9.72259 57.1587 15.848V84.1478C57.1587 90.2732 52.1534 95.2575 46.0021 95.2575V95.2617Z" fill="#3399FF"/>
<path opacity="0.8" d="M46.0021 95.2366C39.8636 95.2366 34.8668 90.265 34.8668 84.1481V15.8483C34.8668 9.73559 39.8594 4.75977 46.0021 4.75977C52.1448 4.75977 57.1373 9.73134 57.1373 15.8483V84.1481C57.1373 90.2607 52.1448 95.2366 46.0021 95.2366Z" fill="#3298FF"/>
<path opacity="0.81" d="M46.0021 95.2153C39.8765 95.2153 34.8925 90.2522 34.8925 84.1523V15.8482C34.8925 9.74825 39.8765 4.78516 46.0021 4.78516C52.1278 4.78516 57.1118 9.74825 57.1118 15.8482V84.148C57.1118 90.248 52.1278 95.2111 46.0021 95.2111V95.2153Z" fill="#3198FF"/>
<path opacity="0.81" d="M46.0021 95.1901C39.8892 95.1901 34.9137 90.2355 34.9137 84.1483V15.8485C34.9137 9.76125 39.8892 4.80664 46.0021 4.80664C52.115 4.80664 57.0905 9.76125 57.0905 15.8485V84.1483C57.0905 90.2355 52.115 95.1901 46.0021 95.1901Z" fill="#3097FF"/>
<path opacity="0.82" d="M46.002 95.1688C39.9019 95.1688 34.9392 90.227 34.9392 84.1525V15.8484C34.9392 9.77392 39.9019 4.83203 46.002 4.83203C52.1021 4.83203 57.0649 9.77392 57.0649 15.8484V84.1482C57.0649 90.2227 52.1021 95.1646 46.002 95.1646V95.1688Z" fill="#2F97FF"/>
<path opacity="0.82" d="M46.0021 95.1437C39.9148 95.1437 34.9606 90.2103 34.9606 84.1485V15.8487C34.9606 9.78692 39.9148 4.85352 46.0021 4.85352C52.0894 4.85352 57.0436 9.78692 57.0436 15.8487V84.1485C57.0436 90.2103 52.0894 95.1437 46.0021 95.1437Z" fill="#2E96FF"/>
<path opacity="0.82" d="M46.0021 95.1224C39.9275 95.1224 34.9861 90.2017 34.9861 84.1527V15.8486C34.9861 9.79958 39.9275 4.87891 46.0021 4.87891C52.0766 4.87891 57.018 9.79958 57.018 15.8486V84.1484C57.018 90.1975 52.0766 95.1181 46.0021 95.1181V95.1224Z" fill="#2D96FF"/>
<path opacity="0.83" d="M46.0021 95.0972C39.9404 95.0972 35.0074 90.185 35.0074 84.1487V15.8489C35.0074 9.81258 39.9404 4.90039 46.0021 4.90039C52.0639 4.90039 56.9968 9.81258 56.9968 15.8489V84.1487C56.9968 90.185 52.0639 95.0972 46.0021 95.0972Z" fill="#2C95FF"/>
<path opacity="0.83" d="M46.0021 95.0759C39.9531 95.0759 35.033 90.1765 35.033 84.1529V15.8488C35.033 9.82525 39.9531 4.92578 46.0021 4.92578C52.0511 4.92578 56.9712 9.82525 56.9712 15.8488V84.1486C56.9712 90.1722 52.0511 95.0717 46.0021 95.0717V95.0759Z" fill="#2B95FF"/>
<path opacity="0.84" d="M46.0021 95.0488C39.9659 95.0488 35.0543 90.1578 35.0543 84.147V15.8472C35.0543 9.83629 39.9659 4.94531 46.0021 4.94531C52.0383 4.94531 56.95 9.83629 56.95 15.8472V84.147C56.95 90.1578 52.0383 95.0488 46.0021 95.0488Z" fill="#2A94FF"/>
<path opacity="0.84" d="M46.0021 95.0275C39.9787 95.0275 35.0798 90.1493 35.0798 84.1512V15.8471C35.0798 9.84896 39.9787 4.9707 46.0021 4.9707C52.0255 4.9707 56.9244 9.84896 56.9244 15.8471V84.1469C56.9244 90.145 52.0255 95.0233 46.0021 95.0233V95.0275Z" fill="#2994FF"/>
<path opacity="0.84" d="M46.002 95.0066C39.9914 95.0066 35.1011 90.1368 35.1011 84.1514V15.8474C35.1011 9.86196 39.9914 4.99219 46.002 4.99219C52.0127 4.99219 56.903 9.86196 56.903 15.8474V84.1472C56.903 90.1326 52.0127 95.0024 46.002 95.0024V95.0066Z" fill="#2893FF"/>
<path opacity="0.85" d="M46.0021 94.9811C40.0042 94.9811 35.1267 90.124 35.1267 84.1514V15.8473C35.1267 9.87462 40.0042 5.01758 46.0021 5.01758C52 5.01758 56.8775 9.87462 56.8775 15.8473V84.1471C56.8775 90.1198 52 94.9768 46.0021 94.9768V94.9811Z" fill="#2793FF"/>
<path opacity="0.85" d="M46.002 94.9602C40.017 94.9602 35.1479 90.1116 35.1479 84.1516V15.8476C35.1479 9.88762 40.017 5.03906 46.002 5.03906C51.9871 5.03906 56.8561 9.88762 56.8561 15.8476V84.1474C56.8561 90.1074 51.9871 94.9559 46.002 94.9559V94.9602Z" fill="#2692FF"/>
<path opacity="0.85" d="M46.0021 94.9346C40.0298 94.9346 35.1736 90.0946 35.1736 84.1516V15.8475C35.1736 9.90029 40.0298 5.06445 46.0021 5.06445C51.9744 5.06445 56.8307 9.90029 56.8307 15.8475V84.1473C56.8307 90.0946 51.9744 94.9304 46.0021 94.9304V94.9346Z" fill="#2592FF"/>
<path opacity="0.86" d="M46.0021 94.9137C40.0425 94.9137 35.1948 90.0864 35.1948 84.1519V15.8478C35.1948 9.91329 40.0425 5.08594 46.0021 5.08594C51.9616 5.08594 56.8093 9.91329 56.8093 15.8478V84.1476C56.8093 90.0821 51.9616 94.9095 46.0021 94.9095V94.9137Z" fill="#2491FF"/>
<path opacity="0.86" d="M46.0021 94.8882C40.0554 94.8882 35.2205 90.0693 35.2205 84.1476V15.8477C35.2205 9.92595 40.0596 5.11133 46.0021 5.11133C51.9446 5.11133 56.7838 9.9302 56.7838 15.8477V84.1476C56.7838 90.0693 51.9446 94.8882 46.0021 94.8882Z" fill="#2391FF"/>
<path opacity="0.87" d="M46.0021 94.8673C40.0681 94.8673 35.2417 90.0611 35.2417 84.1521V15.848C35.2417 9.93895 40.0681 5.13281 46.0021 5.13281C51.9361 5.13281 56.7625 9.93895 56.7625 15.848V84.1478C56.7625 90.0569 51.9361 94.863 46.0021 94.863V94.8673Z" fill="#2290FF"/>
<path opacity="0.87" d="M46.0021 94.8421C40.081 94.8421 35.2631 90.0444 35.2631 84.1481V15.8483C35.2631 9.95196 40.081 5.1543 46.0021 5.1543C51.9233 5.1543 56.7412 9.95196 56.7412 15.8483V84.1481C56.7412 90.0444 51.9233 94.8421 46.0021 94.8421Z" fill="#2190FF"/>
<path opacity="0.87" d="M46.0021 94.8208C40.0937 94.8208 35.2886 90.0359 35.2886 84.1523V15.8482C35.2886 9.96462 40.0937 5.17969 46.0021 5.17969C51.9105 5.17969 56.7156 9.96462 56.7156 15.8482V84.148C56.7156 90.0316 51.9105 94.8166 46.0021 94.8166V94.8208Z" fill="#208FFF"/>
<path opacity="0.88" d="M46.002 94.7956C40.1064 94.7956 35.3098 90.0192 35.3098 84.1483V15.8485C35.3098 9.97762 40.1064 5.20117 46.002 5.20117C51.8977 5.20117 56.6943 9.97762 56.6943 15.8485V84.1483C56.6943 90.0192 51.8977 94.7956 46.002 94.7956Z" fill="#1F8FFF"/>
<path opacity="0.88" d="M46.0021 94.7744C40.1193 94.7744 35.3354 90.0106 35.3354 84.1525V15.8484C35.3354 9.99029 40.1193 5.22656 46.0021 5.22656C51.885 5.22656 56.6688 9.99029 56.6688 15.8484V84.1482C56.6688 90.0064 51.885 94.7701 46.0021 94.7701V94.7744Z" fill="#1E8EFF"/>
<path opacity="0.89" d="M46.0021 94.7492C40.132 94.7492 35.3567 89.9939 35.3567 84.1485V15.8487C35.3567 10.0033 40.132 5.24805 46.0021 5.24805C51.8721 5.24805 56.6474 10.0033 56.6474 15.8487V84.1485C56.6474 89.9939 51.8721 94.7492 46.0021 94.7492Z" fill="#1D8EFF"/>
<path opacity="0.89" d="M46.0021 94.7279C40.1448 94.7279 35.3823 89.9854 35.3823 84.1527V15.8486C35.3823 10.016 40.1448 5.27344 46.0021 5.27344C51.8594 5.27344 56.6219 10.016 56.6219 15.8486V84.1485C56.6219 89.9812 51.8594 94.7237 46.0021 94.7237V94.7279Z" fill="#1C8DFF"/>
<path opacity="0.89" d="M46.0021 94.7027C40.1576 94.7027 35.4036 89.9687 35.4036 84.1487V15.8489C35.4036 10.029 40.1576 5.29492 46.0021 5.29492C51.8466 5.29492 56.6006 10.029 56.6006 15.8489V84.1487C56.6006 89.9687 51.8466 94.7027 46.0021 94.7027Z" fill="#1B8DFF"/>
<path opacity="0.9" d="M46.002 94.6815C40.1703 94.6815 35.4291 89.9559 35.4291 84.1529V15.8489C35.4291 10.0416 40.1703 5.32031 46.002 5.32031C51.8338 5.32031 56.575 10.0416 56.575 15.8489V84.1487C56.575 89.9559 51.8338 94.6772 46.002 94.6772V94.6815Z" fill="#1A8CFF"/>
<path opacity="0.9" d="M46.0021 94.6543C40.1831 94.6543 35.4504 89.9415 35.4504 84.147V15.8472C35.4504 10.0527 40.1831 5.33984 46.0021 5.33984C51.821 5.33984 56.5537 10.0527 56.5537 15.8472V84.147C56.5537 89.9415 51.821 94.6543 46.0021 94.6543Z" fill="#198CFF"/>
<path opacity="0.91" d="M46.002 94.6331C40.1959 94.6331 35.476 89.9287 35.476 84.1512V15.8471C35.476 10.0653 40.2001 5.36523 46.002 5.36523C51.804 5.36523 56.5281 10.0696 56.5281 15.8471V84.1469C56.5281 89.9287 51.804 94.6288 46.002 94.6288V94.6331Z" fill="#188BFF"/>
<path opacity="0.91" d="M46.0021 94.6079C40.2087 94.6079 35.4973 89.9163 35.4973 84.1472V15.8474C35.4973 10.0783 40.2087 5.38672 46.0021 5.38672C51.7955 5.38672 56.5069 10.0783 56.5069 15.8474V84.1472C56.5069 89.9163 51.7955 94.6079 46.0021 94.6079Z" fill="#178BFF"/>
<path opacity="0.91" d="M46.0021 94.5866C40.2214 94.5866 35.5228 89.9035 35.5228 84.1514V15.8473C35.5228 10.091 40.2257 5.41211 46.0021 5.41211C51.7784 5.41211 56.4813 10.0952 56.4813 15.8473V84.1472C56.4813 89.9035 51.7784 94.5824 46.0021 94.5824V94.5866Z" fill="#168AFF"/>
<path opacity="0.92" d="M46.0021 94.5614C40.2343 94.5614 35.5442 89.891 35.5442 84.1474V15.8476C35.5442 10.104 40.2343 5.43359 46.0021 5.43359C51.77 5.43359 56.4601 10.104 56.4601 15.8476V84.1474C56.4601 89.891 51.77 94.5614 46.0021 94.5614Z" fill="#158AFF"/>
<path opacity="0.92" d="M46.0021 94.5402C40.247 94.5402 35.5697 89.8783 35.5697 84.1516V15.8475C35.5697 10.1167 40.2513 5.45898 46.0021 5.45898C51.7529 5.45898 56.4345 10.1209 56.4345 15.8475V84.1474C56.4345 89.8783 51.7529 94.5359 46.0021 94.5359V94.5402Z" fill="#1489FF"/>
<path opacity="0.93" d="M46.0021 94.5192C40.2599 94.5192 35.5911 89.87 35.5911 84.1519V15.8478C35.5911 10.1297 40.2599 5.48047 46.0021 5.48047C51.7444 5.48047 56.4132 10.1297 56.4132 15.8478V84.1476C56.4132 89.8658 51.7444 94.515 46.0021 94.515V94.5192Z" fill="#1389FF"/>
<path opacity="0.93" d="M46.0021 94.4937C40.2726 94.4937 35.6166 89.853 35.6166 84.1518V15.8478C35.6166 10.1423 40.2769 5.50586 46.0021 5.50586C51.7273 5.50586 56.3876 10.1466 56.3876 15.8478V84.1476C56.3876 89.853 51.7273 94.4895 46.0021 94.4895V94.4937Z" fill="#1288FF"/>
<path opacity="0.93" d="M46.002 94.4728C40.2853 94.4728 35.6378 89.8448 35.6378 84.1521V15.848C35.6378 10.1553 40.2853 5.52734 46.002 5.52734C51.7188 5.52734 56.3663 10.1553 56.3663 15.848V84.1479C56.3663 89.8406 51.7188 94.4686 46.002 94.4686V94.4728Z" fill="#1188FF"/>
<path opacity="0.94" d="M46.0021 94.4473C40.3024 94.4473 35.6635 89.8278 35.6635 84.152V15.848C35.6635 10.168 40.3024 5.55273 46.0021 5.55273C51.7018 5.55273 56.3408 10.1722 56.3408 15.848V84.1478C56.3408 89.8278 51.7018 94.443 46.0021 94.443V94.4473Z" fill="#1087FF"/>
<path opacity="0.94" d="M46.0021 94.4263C40.3152 94.4263 35.6847 89.8153 35.6847 84.1523V15.8483C35.6847 10.1852 40.3109 5.57422 46.0021 5.57422C51.6932 5.57422 56.3194 10.181 56.3194 15.8483V84.1481C56.3194 89.8111 51.6932 94.4221 46.0021 94.4221V94.4263Z" fill="#0F87FF"/>
<path opacity="0.95" d="M46.0021 94.4008C40.328 94.4008 35.7103 89.8025 35.7103 84.148V15.8482C35.7103 10.1979 40.328 5.59961 46.0021 5.59961C51.6762 5.59961 56.2939 10.1979 56.2939 15.8482V84.148C56.2939 89.7983 51.6762 94.4008 46.0021 94.4008Z" fill="#0E86FF"/>
<path opacity="0.95" d="M46.0021 94.3799C40.3407 94.3799 35.7316 89.7901 35.7316 84.1525V15.8485C35.7316 10.2109 40.3407 5.62109 46.0021 5.62109C51.6634 5.62109 56.2726 10.2109 56.2726 15.8485V84.1483C56.2726 89.7859 51.6634 94.3757 46.0021 94.3757V94.3799Z" fill="#0D86FF"/>
<path opacity="0.95" d="M46.0021 94.3547C40.3536 94.3547 35.7529 89.7776 35.7529 84.1486V15.8487C35.7529 10.2239 40.3493 5.64258 46.0021 5.64258C51.655 5.64258 56.2513 10.2197 56.2513 15.8487V84.1486C56.2513 89.7734 51.655 94.3547 46.0021 94.3547Z" fill="#0C85FF"/>
<path opacity="0.96" d="M46.0021 94.3335C40.3663 94.3335 35.7784 89.7649 35.7784 84.1527V15.8487C35.7784 10.2366 40.3663 5.66797 46.0021 5.66797C51.6379 5.66797 56.2257 10.2366 56.2257 15.8487V84.1485C56.2257 89.7606 51.6379 94.3292 46.0021 94.3292V94.3335Z" fill="#0B85FF"/>
<path opacity="0.96" d="M46.0021 94.3063C40.3791 94.3063 35.7998 89.7505 35.7998 84.1468V15.847C35.7998 10.2476 40.3749 5.6875 46.0021 5.6875C51.6294 5.6875 56.2045 10.2434 56.2045 15.847V84.1468C56.2045 89.7462 51.6294 94.3063 46.0021 94.3063Z" fill="#0A84FF"/>
<path opacity="0.96" d="M46.0021 94.287C40.3919 94.287 35.8253 89.7396 35.8253 84.153V15.8489C35.8253 10.2622 40.3919 5.71484 46.0021 5.71484C51.6123 5.71484 56.1789 10.2622 56.1789 15.8489V84.1487C56.1789 89.7354 51.6123 94.2828 46.0021 94.2828V94.287Z" fill="#0984FF"/>
<path opacity="0.97" d="M46.002 94.2599C40.4046 94.2599 35.8466 89.7252 35.8466 84.147V15.8472C35.8466 10.2733 40.4003 5.73438 46.002 5.73438C51.6037 5.73438 56.1575 10.269 56.1575 15.8472V84.147C56.1575 89.721 51.6037 94.2599 46.002 94.2599Z" fill="#0883FF"/>
<path opacity="0.97" d="M46.0021 94.2386C40.4175 94.2386 35.8722 89.7124 35.8722 84.1512V15.8471C35.8722 10.2859 40.4175 5.75977 46.0021 5.75977C51.5868 5.75977 56.132 10.2859 56.132 15.8471V84.147C56.132 89.7082 51.5868 94.2343 46.0021 94.2343V94.2386Z" fill="#0783FF"/>
<path opacity="0.98" d="M46.0021 94.2134C40.4302 94.2134 35.8934 89.7 35.8934 84.1472V15.8474C35.8934 10.2989 40.4259 5.78125 46.0021 5.78125C51.5782 5.78125 56.1107 10.2947 56.1107 15.8474V84.1472C56.1107 89.6957 51.5782 94.2134 46.0021 94.2134Z" fill="#0682FF"/>
<path opacity="0.98" d="M46.0021 94.1921C40.443 94.1921 35.9191 89.6872 35.9191 84.1514V15.8474C35.9191 10.3116 40.443 5.80664 46.0021 5.80664C51.5612 5.80664 56.0852 10.3116 56.0852 15.8474V84.1472C56.0852 89.6829 51.5612 94.1879 46.0021 94.1879V94.1921Z" fill="#0582FF"/>
<path opacity="0.98" d="M46.0021 94.167C40.4557 94.167 35.9403 89.6747 35.9403 84.1475V15.8476C35.9403 10.3246 40.4515 5.82812 46.0021 5.82812C51.5527 5.82812 56.0638 10.3204 56.0638 15.8476V84.1475C56.0638 89.6705 51.5527 94.167 46.0021 94.167Z" fill="#0481FF"/>
<path opacity="0.99" d="M46.002 94.1457C40.4685 94.1457 35.9658 89.6619 35.9658 84.1516V15.8476C35.9658 10.3373 40.4685 5.85352 46.002 5.85352C51.5356 5.85352 56.0382 10.3373 56.0382 15.8476V84.1474C56.0382 89.6577 51.5356 94.1414 46.002 94.1414V94.1457Z" fill="#0381FF"/>
<path opacity="0.99" d="M46.0021 94.1205C40.4813 94.1205 35.9872 89.6452 35.9872 84.1477V15.8479C35.9872 10.3503 40.4813 5.875 46.0021 5.875C51.5229 5.875 56.017 10.3503 56.017 15.8479V84.1477C56.017 89.6452 51.5229 94.1205 46.0021 94.1205Z" fill="#0280FF"/>
<path d="M46.002 94.0993C40.4941 94.0993 36.0127 89.6367 36.0127 84.1518V15.8478C36.0127 10.3629 40.4941 5.90039 46.002 5.90039C51.51 5.90039 55.9914 10.3629 55.9914 15.8478V84.1476C55.9914 89.6325 51.51 94.095 46.002 94.095V94.0993Z" fill="#0180FF"/>
<path d="M46.0021 94.0741C40.5069 94.0741 36.0341 89.62 36.0341 84.1479V15.8481C36.0341 10.3759 40.5069 5.92188 46.0021 5.92188C51.4973 5.92188 55.9702 10.3759 55.9702 15.8481V84.1479C55.9702 89.62 51.4973 94.0741 46.0021 94.0741Z" fill="#007FFF"/>
</g>
<g opacity="0.8">
<path d="M90.3259 58.0431L49.6997 23.0809C48.5879 22.1222 47.2588 21.6641 46.0021 21.6641C44.7455 21.6641 43.4164 22.1222 42.3046 23.0809L1.67414 58.0431C0.719931 58.8661 0.17041 60.0581 0.17041 61.3137V73.819C0.17041 77.0259 3.54847 79.1129 6.43665 77.6961L44.5623 58.9467C45.4697 58.5013 46.5346 58.5013 47.442 58.9467L85.5676 77.6961C88.4516 79.1129 91.8339 77.0259 91.8339 73.819V61.3137C91.8339 60.0581 91.2844 58.8618 90.3302 58.0431H90.3259Z" fill="url(#paint0_linear_222_7919)" fill-opacity="0.4"/>
<path d="M90.3259 58.0431L49.6997 23.0809C48.5879 22.1222 47.2588 21.6641 46.0021 21.6641C44.7455 21.6641 43.4164 22.1222 42.3046 23.0809L1.67414 58.0431C0.719931 58.8661 0.17041 60.0581 0.17041 61.3137V73.819C0.17041 77.0259 3.54847 79.1129 6.43665 77.6961L44.5623 58.9467C45.4697 58.5013 46.5346 58.5013 47.442 58.9467L85.5676 77.6961C88.4516 79.1129 91.8339 77.0259 91.8339 73.819V61.3137C91.8339 60.0581 91.2844 58.8618 90.3302 58.0431H90.3259Z" fill="url(#paint1_linear_222_7919)" fill-opacity="0.3"/>
</g>
<path d="M4.51119 78.3152C3.68478 78.3152 2.86263 78.0862 2.1342 77.6365C0.800865 76.8093 0.00427246 75.384 0.00427246 73.8187V61.3134C0.00427246 60.0069 0.575093 58.7683 1.56764 57.9114L42.1896 22.9534C43.2801 22.0117 44.6347 21.4941 46.0021 21.4941C47.3696 21.4941 48.7199 22.0117 49.8147 22.9534L90.4409 57.9156C91.4335 58.7683 92.0043 60.0112 92.0043 61.3177V73.823C92.0043 75.3883 91.2077 76.8136 89.8744 77.6407C88.541 78.4679 86.901 78.5443 85.4952 77.8528L47.3696 59.1076C46.5133 58.6877 45.4952 58.6877 44.639 59.1076L6.51332 77.8486C5.87861 78.1625 5.19277 78.3152 4.51119 78.3152ZM46.0021 21.8377C44.7199 21.8377 43.4462 22.3256 42.4153 23.2121L1.78489 58.1701C0.869022 58.9591 0.340801 60.1045 0.340801 61.3134V73.8187C0.340801 75.2652 1.07775 76.5845 2.30885 77.3438C3.54421 78.1074 5.05646 78.1795 6.35571 77.5389L44.4814 58.7895C45.4313 58.3228 46.5644 58.3228 47.5144 58.7895L85.6401 77.5389C86.9436 78.1795 88.4558 78.1074 89.6869 77.3438C90.918 76.5803 91.655 75.261 91.655 73.8187V61.3134C91.655 60.1045 91.1267 58.9591 90.2109 58.1701L49.5889 23.2121C48.5581 22.3256 47.2844 21.8377 46.0021 21.8377Z" fill="url(#paint2_linear_222_7919)"/>
</g>
<defs>
<linearGradient id="paint0_linear_222_7919" x1="9.41597" y1="66.9169" x2="55.3677" y2="10.6618" gradientUnits="userSpaceOnUse">
<stop stop-color="#F2F8FF"/>
<stop offset="1" stop-color="#D9F0FF"/>
</linearGradient>
<linearGradient id="paint1_linear_222_7919" x1="11.8473" y1="27.3237" x2="80.0541" y2="86.1594" gradientUnits="userSpaceOnUse">
<stop stop-color="#5A81FF" stop-opacity="0.9"/>
<stop offset="0.447036" stop-color="#567DFF" stop-opacity="0.955296"/>
<stop offset="1" stop-color="#4E78FF" stop-opacity="0.9"/>
</linearGradient>
<linearGradient id="paint2_linear_222_7919" x1="46.0021" y1="78.3152" x2="46.0021" y2="21.4941" gradientUnits="userSpaceOnUse">
<stop stop-color="#E6F1FF"/>
<stop offset="1" stop-color="#F7FBFF"/>
</linearGradient>
<clipPath id="clip0_222_7919">
<rect width="92" height="100" fill="white"/>
</clipPath>
</defs>
</svg>
