<svg width="91" height="98" viewBox="0 0 91 98" fill="none" xmlns="http://www.w3.org/2000/svg">
<path d="M84.4726 41.1603V76.5187C84.4726 83.1283 79.1048 88.4916 72.4793 88.4916H18.5208C14.9999 88.4916 11.8297 86.9745 9.6368 84.5613C7.7057 82.4374 6.5274 79.6134 6.5274 76.5187V41.1603C6.5274 37.6268 8.08911 34.2753 10.7964 32.0021L37.7756 9.3307C42.2363 5.58247 48.759 5.58247 53.2197 9.3307L80.199 32.0021C82.9062 34.2753 84.468 37.6268 84.468 41.1603H84.4726Z" fill="#007FFF"/>
<mask id="mask0_222_8222" style="mask-type:luminance" maskUnits="userSpaceOnUse" x="28" y="49" width="35" height="49">
<path d="M28.1201 61.5625L28.1201 85.8397C28.1201 92.4521 33.4897 97.8125 40.1135 97.8125H50.8912C57.5149 97.8125 62.8845 92.4521 62.8845 85.8397V61.5625C62.8845 54.9501 57.5149 49.5897 50.8912 49.5897H40.1135C33.4897 49.5897 28.1201 54.9501 28.1201 61.5625Z" fill="white"/>
</mask>
<g mask="url(#mask0_222_8222)">
<path opacity="0.05" d="M18.5208 94.6628C8.65954 94.6628 0.621879 86.7276 0.509661 76.9392C0.406793 76.8272 0.346008 43.1819 0.346008 43.0185C0.346008 37.8373 2.62311 31.0923 6.59285 27.7595C6.59285 27.5728 32.2348 5.91899 32.3798 5.79763C35.5359 3.14166 40.9785 0.770429 45.0979 0.490363C49.4557 0.196293 53.8182 1.75533 57.2081 4.60734L84.1874 27.2787C88.3021 30.7329 90.6587 35.7928 90.6587 41.1607V76.5191C90.6587 86.5268 82.5041 94.6628 72.4839 94.6628H18.5208Z" fill="#F8FDFF"/>
<path opacity="0.11" d="M18.5207 94.3227C9.01488 94.3227 1.24373 86.7422 1.01462 77.3646C0.813563 77.1406 0.687317 45.2083 0.687317 44.8815C0.687317 39.9897 2.83817 31.6531 6.58815 28.5023C6.58815 28.1289 30.8928 7.49264 31.1781 7.25459C34.1612 4.74799 40.8242 1.50855 44.6911 0.981094C49.0349 0.388286 53.533 1.966 56.9884 4.86935L83.9676 27.5408C88.0028 30.9296 90.3173 35.8961 90.3173 41.1613V76.5197C90.3173 86.3361 82.3171 94.3227 72.4839 94.3227H18.5207Z" fill="#F2FAFF"/>
<path opacity="0.16" d="M18.5207 93.9754C9.36556 93.9754 1.87029 86.7497 1.52428 77.7876C1.22036 77.4515 1.03333 47.2323 1.03333 46.7422C1.03333 42.1398 3.05794 32.2114 6.58347 29.2474C6.58347 28.6919 29.5509 9.06856 29.9764 8.70915C32.7819 6.35192 40.6839 2.20693 44.2796 1.46942C48.6047 0.582544 53.2477 2.17426 56.7639 5.12896L83.7432 27.8004C87.6989 31.1238 89.9713 35.997 89.9713 41.1595V76.518C89.9713 86.1476 82.1254 93.9754 72.4839 93.9754H18.5207Z" fill="#EBF8FF"/>
<path opacity="0.21" d="M18.5208 93.6359C9.71628 93.6359 2.49221 86.7696 2.0293 78.2136C1.62251 77.7654 1.37469 49.2593 1.37469 48.6058C1.37469 44.2881 3.27306 32.7774 6.57884 29.9954C6.57884 29.2532 28.209 10.6475 28.7794 10.1667C31.4119 7.95416 40.5577 2.87095 43.8775 1.9654C48.1699 0.789118 52.9719 2.39483 56.5442 5.39622L83.5234 28.0676C87.3997 31.3257 89.63 36.1009 89.63 41.1607V76.5191C89.63 85.9574 81.9384 93.6359 72.4839 93.6359H18.5208Z" fill="#E4F5FF"/>
<path opacity="0.26" d="M18.5208 93.2907C10.067 93.2907 3.11409 86.7791 2.53896 78.6339C2.0293 78.0737 1.7207 51.2807 1.7207 50.4638C1.7207 46.4355 3.49282 33.3331 6.57884 30.7378C6.57884 29.8089 26.8717 12.2207 27.5824 11.6232C30.0372 9.56008 40.4362 3.5013 43.4707 2.45572C47.721 0.990038 52.6914 2.60509 56.3244 5.65782L83.3037 28.3292C87.1051 31.522 89.284 36.2038 89.284 41.1609V76.5194C89.284 85.7709 81.7513 93.2907 72.4839 93.2907H18.5208Z" fill="#DEF3FF"/>
<path opacity="0.32" d="M18.5208 92.9498C10.4223 92.9498 3.73594 86.7976 3.04393 79.0585C2.43607 78.3863 2.06201 53.3063 2.06201 52.3261C2.06201 48.5872 3.70789 33.8931 6.57414 31.4845C6.57414 30.3689 25.5297 13.7983 26.3807 13.0794C28.6625 11.161 40.3099 4.09396 43.0592 2.94569C47.2534 1.19527 52.4061 2.81499 56.0953 5.91906L83.0745 28.5905C86.7965 31.7179 88.9333 36.3016 88.9333 41.1608V76.5192C88.9333 85.584 81.5549 92.9498 72.4746 92.9498H18.5208Z" fill="#D7F0FF"/>
<path opacity="0.37" d="M18.5208 92.6047C10.773 92.6047 4.35782 86.8074 3.55359 79.479C2.84287 78.6948 2.40802 55.3279 2.40802 54.1843C2.40802 50.7301 3.92765 34.4489 6.57414 32.2224C6.57414 30.92 24.1925 15.367 25.1884 14.5268C27.2925 12.7577 40.193 4.64513 42.6618 3.4315C46.7952 1.40102 52.1349 3.02541 55.8849 6.17616L82.8641 28.8476C86.5066 31.9096 88.6013 36.4 88.6013 41.1565V76.5149C88.6013 85.3884 81.3772 92.6001 72.4886 92.6001H18.5208V92.6047Z" fill="#D0EEFF"/>
<path opacity="0.42" d="M18.5207 92.2624C11.1236 92.2624 4.98435 86.8244 4.05855 79.9021C3.24496 79.0059 2.74933 57.3521 2.74933 56.0451C2.74933 52.8804 4.14271 35.0074 6.56476 32.9676C6.56476 31.4786 22.8411 16.9431 23.982 15.9863C25.9131 14.3665 40.0527 5.17101 42.2456 3.92471C46.3089 1.61416 51.845 3.23855 55.6511 6.44065L82.6303 29.112C86.1979 32.1088 88.2459 36.5058 88.2459 41.1549V76.5133C88.2459 85.2001 81.1762 92.2577 72.4745 92.2577H18.5207V92.2624Z" fill="#CAEBFF"/>
<path opacity="0.47" d="M18.5208 91.9181C11.479 91.9181 5.60627 86.8349 4.56357 80.328C3.64712 79.3198 3.0907 59.3743 3.0907 57.9087C3.0907 55.0286 4.35316 35.5687 6.56013 33.7156C6.56013 32.0445 21.4992 18.5219 22.7851 17.4437C24.5385 15.9687 39.5477 4.41592 41.8435 4.41592C46.2528 2.6375 51.5692 3.44969 55.436 6.70313L82.4153 29.3745C85.9034 32.3059 87.9093 36.6049 87.9093 41.156V76.5144C87.9093 85.0098 80.9938 91.9134 72.4839 91.9134H18.5208V91.9181Z" fill="#C3E9FF"/>
<path opacity="0.53" d="M18.5208 91.577C11.8297 91.577 6.22815 86.8485 5.07323 80.7524C4.05859 79.6321 3.43671 61.3998 3.43671 59.7707C3.43671 57.1801 4.57292 36.1284 6.56013 34.4621C6.56013 32.6043 20.162 20.0993 21.5881 18.9043C23.1685 17.5787 39.3747 4.91501 41.4368 4.91501C45.8507 2.94054 51.2886 3.67339 55.2163 6.9735L82.1955 29.6449C85.6042 32.5109 87.568 36.7166 87.568 41.165V76.5234C87.568 84.832 80.8068 91.5816 72.4839 91.5816H18.5208V91.577Z" fill="#BCE6FF"/>
<path opacity="0.58" d="M18.5207 91.2317C12.1804 91.2317 6.85 86.8627 5.57819 81.1727C4.46068 79.9404 3.77802 63.4211 3.77802 61.6287C3.77802 59.3275 4.78798 36.6841 6.55543 35.2044C6.55543 33.1599 18.82 21.6725 20.3864 20.3562C21.7891 19.1752 39.1924 5.40062 41.0299 5.40062C45.4486 3.2301 51.0034 3.87892 54.9918 7.23039L81.9711 29.9018C85.3002 32.7025 87.2173 36.8101 87.2173 41.1605V76.5189C87.2173 84.6408 80.6104 91.2317 72.4792 91.2317H18.5207Z" fill="#B5E4FF"/>
<path opacity="0.63" d="M18.5207 90.8905C12.5357 90.8905 7.47188 86.8763 6.08785 81.597C4.86747 80.2573 4.12402 65.4465 4.12402 63.4907C4.12402 61.5349 5.00775 37.2484 6.55543 35.9508C6.55543 33.7196 17.4827 23.2498 19.1941 21.8121C20.4238 20.7805 39.024 5.89031 40.6278 5.89031C45.0511 3.52375 50.7275 4.08855 54.7767 7.49136L81.756 30.1628C85.0103 32.8981 86.8806 36.9124 86.8806 41.1554V76.5138C86.8806 84.4443 80.4281 90.8859 72.4839 90.8859H18.5207V90.8905Z" fill="#AFE1FF"/>
<path opacity="0.68" d="M18.5208 90.5447C12.8865 90.5447 8.0938 86.8898 6.59287 82.0167C5.26963 80.565 4.46539 67.4672 4.46539 65.348C4.46539 63.6209 5.22287 37.8035 6.54611 36.6879C6.54611 34.27 16.1361 24.8177 17.9877 23.2633C19.0398 22.3765 38.837 6.37999 40.2164 6.37999C44.6444 3.81271 50.4423 4.30282 54.5477 7.75231L81.5269 30.4237C84.7018 33.0937 86.53 37.0146 86.53 41.1549V76.5134C86.53 84.2572 80.2317 90.54 72.4793 90.54H18.5208V90.5447Z" fill="#A8DFFF"/>
<path opacity="0.74" d="M18.5208 90.2056C13.2372 90.2056 8.72035 86.9055 7.10253 82.4431C5.6811 80.8794 4.8114 69.4947 4.8114 67.2121C4.8114 65.7745 5.44263 38.3653 6.54612 37.4364C6.54612 34.8318 14.7989 26.3971 16.7907 24.7214C17.6698 23.9838 38.664 6.87177 39.8096 6.87177C44.2422 4.10845 50.1618 4.51455 54.3279 8.01538L81.3071 30.6868C84.4025 33.2914 86.1887 37.1143 86.1887 41.1566V76.515C86.1887 84.0675 80.0447 90.201 72.4793 90.201H18.5208V90.2056Z" fill="#A1DCFF"/>
<path opacity="0.79" d="M18.5208 89.8594C13.5925 89.8594 9.34221 86.9187 7.60749 82.8671C6.08319 81.1914 5.15271 71.5197 5.15271 69.0738C5.15271 67.9209 5.65769 38.9246 6.54142 38.1825C6.54142 35.3958 13.4569 27.974 15.5937 26.1816C16.2951 25.5935 38.4863 7.36579 39.4075 7.36579C43.8494 4.40642 49.8859 4.72849 54.1128 8.28067L81.092 30.9521C84.1126 33.4867 85.852 37.2209 85.852 41.1605V76.5189C85.852 83.8847 79.8623 89.8594 72.4886 89.8594H18.5208Z" fill="#9BDAFF"/>
<path opacity="0.84" d="M18.5208 89.518C13.9432 89.518 9.96409 86.932 8.11715 83.2912C6.48998 81.5034 5.49872 73.5448 5.49872 70.9355C5.49872 70.072 5.87746 39.4841 6.54142 38.9286C6.54142 35.9552 12.1149 29.551 14.3967 27.6372C14.9251 27.1938 38.3133 7.85986 39.0007 7.85986C43.4473 4.69977 49.6053 4.94716 53.8883 8.54602L80.8676 31.2174C83.8087 33.6867 85.5013 37.3229 85.5013 41.1645V76.5229C85.5013 83.7019 79.6706 89.5226 72.4792 89.5226H18.5208V89.518Z" fill="#94D7FF"/>
<path opacity="0.89" d="M18.5207 89.1725C14.2938 89.1725 10.5859 86.9413 8.62212 83.7112C6.89208 81.8114 5.84003 75.5659 5.84003 72.7932C5.84003 72.2191 6.09252 40.0394 6.53204 39.6707C6.53204 36.5106 10.7683 31.124 13.1904 29.0888C13.541 28.7948 38.1263 8.34522 38.5845 8.34522C43.0358 4.98908 49.3154 5.15246 53.6592 8.80266L80.6385 31.4741C83.5 33.878 85.1506 37.4208 85.1506 41.155V76.5134C85.1506 83.5011 79.4742 89.1725 72.4699 89.1725H18.5207Z" fill="#8DD5FF"/>
<path opacity="0.95" d="M18.5207 88.8331C14.6445 88.8331 11.2078 86.9613 9.13178 84.1373C7.30355 82.1255 6.18604 77.5931 6.18604 74.6571C6.18604 74.3677 6.31228 40.6009 6.53204 40.4189C6.53204 37.0721 9.43103 32.7031 11.998 30.5512C12.1757 30.4019 37.958 8.84139 38.1871 8.84139C42.6431 5.28921 49.0442 5.36856 53.4441 9.07011L80.4234 31.7415C83.2101 34.0801 84.8139 37.5296 84.8139 41.1611V76.5195C84.8139 83.3204 79.2918 88.8331 72.4792 88.8331H18.5207Z" fill="#87D2FF"/>
<path d="M84.4726 41.1603V76.5187C84.4726 83.1283 79.1048 88.4916 72.4793 88.4916H18.5208C14.9999 88.4916 11.8297 86.9745 9.6368 84.5613C7.7057 82.4374 6.5274 79.6134 6.5274 76.5187V41.1603C6.5274 37.6268 8.08911 34.2753 10.7964 32.0021L37.7756 9.3307C42.2363 5.58247 48.759 5.58247 53.2197 9.3307L80.199 32.0021C82.9062 34.2753 84.468 37.6268 84.468 41.1603H84.4726Z" fill="#80D0FF"/>
</g>
<g opacity="0.8">
<path d="M28.6201 85.8398L28.6201 61.5625C28.6201 55.2271 33.765 50.09 40.1133 50.0898H50.8916C57.2398 50.0901 62.3847 55.2272 62.3848 61.5625V85.8398C62.3847 92.1751 57.2398 97.3123 50.8916 97.3125H40.1133C33.765 97.3124 28.6202 92.1752 28.6201 85.8398Z" fill="url(#paint0_linear_222_8222)" fill-opacity="0.4"/>
<path d="M28.6201 85.8398L28.6201 61.5625C28.6201 55.2271 33.765 50.09 40.1133 50.0898H50.8916C57.2398 50.0901 62.3847 55.2272 62.3848 61.5625V85.8398C62.3847 92.1751 57.2398 97.3123 50.8916 97.3125H40.1133C33.765 97.3124 28.6202 92.1752 28.6201 85.8398Z" fill="url(#paint1_linear_222_8222)" fill-opacity="0.3"/>
<path d="M28.6201 85.8398L28.6201 61.5625C28.6201 55.2271 33.765 50.09 40.1133 50.0898H50.8916C57.2398 50.0901 62.3847 55.2272 62.3848 61.5625V85.8398C62.3847 92.1751 57.2398 97.3123 50.8916 97.3125H40.1133C33.765 97.3124 28.6202 92.1752 28.6201 85.8398Z" stroke="url(#paint2_linear_222_8222)"/>
<path d="M28.6201 85.8398L28.6201 61.5625C28.6201 55.2271 33.765 50.09 40.1133 50.0898H50.8916C57.2398 50.0901 62.3847 55.2272 62.3848 61.5625V85.8398C62.3847 92.1751 57.2398 97.3123 50.8916 97.3125H40.1133C33.765 97.3124 28.6202 92.1752 28.6201 85.8398Z" stroke="url(#paint3_radial_222_8222)"/>
</g>
<defs>
<linearGradient id="paint0_linear_222_8222" x1="45.5014" y1="97.8125" x2="45.5014" y2="49.5927" gradientUnits="userSpaceOnUse">
<stop stop-color="#F2F8FF"/>
<stop offset="1" stop-color="#D9F0FF"/>
</linearGradient>
<linearGradient id="paint1_linear_222_8222" x1="31.6035" y1="91.6695" x2="61.4961" y2="51.1275" gradientUnits="userSpaceOnUse">
<stop stop-color="#5A81FF" stop-opacity="0.9"/>
<stop offset="0.447036" stop-color="#567DFF" stop-opacity="0.955296"/>
<stop offset="1" stop-color="#4E78FF" stop-opacity="0.9"/>
</linearGradient>
<linearGradient id="paint2_linear_222_8222" x1="26.8785" y1="90.8727" x2="56.522" y2="54.2712" gradientUnits="userSpaceOnUse">
<stop offset="0.188941" stop-color="#E7F0FF" stop-opacity="0.523483"/>
<stop offset="0.526042" stop-color="#88A4FF"/>
<stop offset="1" stop-color="#B4D2FF" stop-opacity="0.1"/>
</linearGradient>
<radialGradient id="paint3_radial_222_8222" cx="0" cy="0" r="1" gradientUnits="userSpaceOnUse" gradientTransform="translate(61.7464 90.6058) rotate(-131.654) scale(31.913 52.9749)">
<stop stop-color="white"/>
<stop offset="1" stop-color="white" stop-opacity="0"/>
</radialGradient>
</defs>
</svg>
