<svg width="119" height="100" viewBox="0 0 119 100" fill="none" xmlns="http://www.w3.org/2000/svg">
<path d="M7.72345 23.9614V20.9455C7.72345 13.6345 13.682 7.70185 21.0127 7.70185L97.9818 7.70185C105.318 7.70185 111.271 13.64 111.271 20.9455V23.9614C111.271 31.2725 105.318 37.2051 97.9818 37.2051L21.0182 37.2051C13.682 37.2051 7.72898 31.2725 7.72898 23.9614H7.72345Z" fill="#007FFF"/>
<mask id="mask0_222_6484" style="mask-type:luminance" maskUnits="userSpaceOnUse" x="19" y="15" width="81" height="85">
<path d="M29.8261 94.1604L34.9105 99.2274C35.6464 99.9607 36.8414 99.9607 37.5772 99.2274L42.6617 94.1604C43.3975 93.4271 44.5925 93.4271 45.3284 94.1604L50.4128 99.2274C51.1486 99.9607 52.3437 99.9607 53.0795 99.2274L58.1639 94.1604C58.8997 93.4271 60.0948 93.4271 60.8306 94.1604L65.915 99.2274C66.6509 99.9607 67.8459 99.9607 68.5817 99.2274L73.6662 94.1604C74.402 93.4271 75.597 93.4271 76.3329 94.1604L81.4173 99.2274C82.1531 99.9607 83.3482 99.9607 84.084 99.2274L89.1684 94.1604C89.9043 93.4271 91.0993 93.4271 91.8351 94.1604L96.571 98.8801C97.7605 100.065 99.791 99.2274 99.791 97.5513V30.2414C99.791 22.3404 93.3621 15.9336 85.4339 15.9336H33.5661C25.6379 15.9336 19.2091 22.3404 19.2091 30.2414V97.5458C19.2091 99.2219 21.2396 100.06 22.4291 98.8745L27.1649 94.1549C27.9008 93.4216 29.0958 93.4216 29.8316 94.1549L29.8261 94.1604Z" fill="white"/>
</mask>
<g mask="url(#mask0_222_6484)">
<path opacity="0.05" d="M21.0182 0.402344H97.9818C109.357 0.402344 118.591 9.60453 118.591 20.9405V23.9564C118.591 35.2924 109.357 44.4945 97.9818 44.4945H21.0182C9.64326 44.5 0.40387 35.2979 0.40387 23.9619V20.946C0.40387 9.61004 9.64326 0.402344 21.0182 0.402344Z" fill="#F2F8FF"/>
<path opacity="0.11" d="M21.0182 0.810547H97.9818C109.13 0.810547 118.187 9.83078 118.187 20.9462V23.9621C118.187 35.072 109.135 44.0978 97.9818 44.0978H21.0182C9.86457 44.0978 0.813293 35.072 0.813293 23.9621V20.9462C0.813293 9.83078 9.86457 0.810547 21.0182 0.810547Z" fill="#E4F2FF"/>
<path opacity="0.16" d="M97.9818 1.21289H21.0127C10.0799 1.21289 1.21716 10.0453 1.21716 20.9405V23.962C1.21716 34.8572 10.0799 43.6896 21.0127 43.6896H97.9818C108.915 43.6896 117.777 34.8572 117.777 23.962V20.9405C117.777 10.0453 108.915 1.21289 97.9818 1.21289Z" fill="#D7EBFF"/>
<path opacity="0.21" d="M97.9818 1.62109H21.0182C10.3085 1.62109 1.62659 10.2733 1.62659 20.9462V23.9622C1.62659 34.6351 10.3085 43.2873 21.0182 43.2873H97.9818C108.692 43.2873 117.373 34.6351 117.373 23.9622V20.9462C117.373 10.2733 108.692 1.62109 97.9818 1.62109Z" fill="#C9E4FF"/>
<path opacity="0.26" d="M97.9818 2.02344H21.0127C10.5291 2.02344 2.03046 10.4929 2.03046 20.9406V23.962C2.03046 34.4097 10.5291 42.8791 21.0127 42.8791H97.9818C108.465 42.8791 116.964 34.4097 116.964 23.962V20.9406C116.964 10.4929 108.465 2.02344 97.9818 2.02344Z" fill="#BCDDFF"/>
<path opacity="0.32" d="M97.9818 2.43164H21.0182C10.7577 2.43164 2.43988 10.7209 2.43988 20.9463V23.9622C2.43988 34.1876 10.7577 42.4769 21.0182 42.4769H97.9818C108.242 42.4769 116.56 34.1876 116.56 23.9622V20.9463C116.56 10.7209 108.242 2.43164 97.9818 2.43164Z" fill="#AED7FF"/>
<path opacity="0.37" d="M21.0182 2.83398H97.9818C108.012 2.83398 116.151 10.95 116.151 20.9406V23.9566C116.151 33.9527 108.007 42.0632 97.9818 42.0632H21.0182C10.9877 42.0632 2.84925 33.9472 2.84925 23.9566V20.9406C2.84371 10.95 10.9877 2.83398 21.0182 2.83398Z" fill="#A1D0FF"/>
<path opacity="0.42" d="M21.0182 3.24219H97.9818C107.786 3.24219 115.747 11.1762 115.747 20.9463V23.9623C115.747 33.7323 107.786 41.6664 97.9818 41.6664H21.0182C11.2145 41.6664 3.25317 33.7323 3.25317 23.9623V20.9463C3.25317 11.1762 11.2145 3.24219 21.0182 3.24219Z" fill="#94C9FF"/>
<path opacity="0.47" d="M21.0182 3.64453H97.9818C107.564 3.64453 115.337 11.3966 115.337 20.9407V23.9566C115.337 33.5061 107.559 41.2527 97.9818 41.2527H21.0182C11.4358 41.2527 3.66254 33.5006 3.66254 23.9566V20.9407C3.66254 11.3911 11.4413 3.64453 21.0182 3.64453Z" fill="#86C2FF"/>
<path opacity="0.53" d="M21.0183 4.05273H97.9818C107.337 4.05273 114.934 11.6229 114.934 20.9464V23.9623C114.934 33.2858 107.337 40.856 97.9818 40.856H21.0183C11.6627 40.856 4.06647 33.2858 4.06647 23.9623V20.9464C4.06647 11.6229 11.6627 4.05273 21.0183 4.05273Z" fill="#79BCFF"/>
<path opacity="0.58" d="M21.0182 4.45508H97.9818C107.111 4.45508 114.524 11.8433 114.524 20.9407V23.9567C114.524 33.0541 107.111 40.4423 97.9818 40.4423H21.0182C11.8895 40.4423 4.47583 33.0541 4.47583 23.9567V20.9407C4.47583 11.8433 11.8895 4.45508 21.0182 4.45508Z" fill="#6BB5FF"/>
<path opacity="0.63" d="M21.0182 4.86328H97.9818C106.889 4.86328 114.12 12.0695 114.12 20.9464V23.9624C114.12 32.8392 106.889 40.0455 97.9818 40.0455H21.0182C12.1108 40.0455 4.8797 32.8392 4.8797 23.9624V20.9464C4.8797 12.0695 12.1108 4.86328 21.0182 4.86328Z" fill="#5EAEFF"/>
<path opacity="0.68" d="M21.0182 5.26562H97.9818C106.662 5.26562 113.711 12.2899 113.711 20.9408V23.9567C113.711 32.6075 106.662 39.6318 97.9818 39.6318H21.0182C12.3376 39.6318 5.28912 32.6075 5.28912 23.9567V20.9408C5.28912 12.2899 12.3376 5.26562 21.0182 5.26562Z" fill="#51A7FF"/>
<path opacity="0.74" d="M21.0182 5.67383H97.9818C106.441 5.67383 113.307 12.5162 113.307 20.9465V23.9624C113.307 32.3927 106.441 39.2351 97.9818 39.2351H21.0182C12.5589 39.2351 5.69299 32.3927 5.69299 23.9624V20.9465C5.69299 12.5162 12.5589 5.67383 21.0182 5.67383Z" fill="#43A1FF"/>
<path opacity="0.79" d="M97.9818 6.07617H21.0127C12.7749 6.07617 6.09686 12.7313 6.09686 20.9408V23.9623C6.09686 32.1718 12.7749 38.8269 21.0127 38.8269H97.9818C106.22 38.8269 112.898 32.1718 112.898 23.9623V20.9408C112.898 12.7313 106.22 6.07617 97.9818 6.07617Z" fill="#369AFF"/>
<path opacity="0.84" d="M97.9818 6.48438H21.0182C13.0035 6.48438 6.50629 12.9593 6.50629 20.9465V23.9625C6.50629 31.9497 13.0035 38.4246 21.0182 38.4246H97.9818C105.996 38.4246 112.494 31.9497 112.494 23.9625V20.9465C112.494 12.9593 105.996 6.48438 97.9818 6.48438Z" fill="#2893FF"/>
<path opacity="0.89" d="M97.9818 6.88672H21.0127C13.2241 6.88672 6.91016 13.179 6.91016 20.9409V23.9623C6.91016 31.7242 13.2241 38.0165 21.0127 38.0165H97.9818C105.77 38.0165 112.084 31.7242 112.084 23.9623V20.9409C112.084 13.179 105.77 6.88672 97.9818 6.88672Z" fill="#1B8CFF"/>
<path opacity="0.95" d="M21.0182 7.29492H97.9818C105.539 7.29492 111.68 13.4095 111.68 20.9466V23.9625C111.68 31.4941 105.545 37.6142 97.9818 37.6142H21.0182C13.4552 37.6142 7.31958 31.4996 7.31958 23.9625V20.9466C7.31958 13.4095 13.4552 7.29492 21.0182 7.29492Z" fill="#0D86FF"/>
<path d="M21.0182 7.69727H97.9818C105.318 7.69727 111.271 13.6354 111.271 20.9409V23.9568C111.271 31.2679 105.312 37.2005 97.9818 37.2005H21.0182C13.682 37.2005 7.729 31.2679 7.729 23.9568V20.9409C7.729 13.6299 13.682 7.69727 21.0182 7.69727Z" fill="#007FFF"/>
</g>
<g opacity="0.8">
<g opacity="0.8">
<path d="M29.8261 94.1604L34.9105 99.2274C35.6464 99.9607 36.8414 99.9607 37.5772 99.2274L42.6617 94.1604C43.3975 93.4271 44.5925 93.4271 45.3284 94.1604L50.4128 99.2274C51.1486 99.9607 52.3437 99.9607 53.0795 99.2274L58.1639 94.1604C58.8997 93.4271 60.0948 93.4271 60.8306 94.1604L65.915 99.2274C66.6509 99.9607 67.8459 99.9607 68.5817 99.2274L73.6662 94.1604C74.402 93.4271 75.597 93.4271 76.3329 94.1604L81.4173 99.2274C82.1531 99.9607 83.3482 99.9607 84.084 99.2274L89.1684 94.1604C89.9043 93.4271 91.0993 93.4271 91.8351 94.1604L96.571 98.8801C97.7605 100.065 99.791 99.2274 99.791 97.5513V30.2414C99.791 22.3404 93.3621 15.9336 85.4339 15.9336H33.5661C25.6379 15.9336 19.2091 22.3404 19.2091 30.2414V97.5458C19.2091 99.2219 21.2396 100.06 22.4291 98.8745L27.1649 94.1549C27.9008 93.4216 29.0958 93.4216 29.8316 94.1549L29.8261 94.1604Z" fill="url(#paint0_linear_222_6484)" fill-opacity="0.4"/>
<path d="M29.8261 94.1604L34.9105 99.2274C35.6464 99.9607 36.8414 99.9607 37.5772 99.2274L42.6617 94.1604C43.3975 93.4271 44.5925 93.4271 45.3284 94.1604L50.4128 99.2274C51.1486 99.9607 52.3437 99.9607 53.0795 99.2274L58.1639 94.1604C58.8997 93.4271 60.0948 93.4271 60.8306 94.1604L65.915 99.2274C66.6509 99.9607 67.8459 99.9607 68.5817 99.2274L73.6662 94.1604C74.402 93.4271 75.597 93.4271 76.3329 94.1604L81.4173 99.2274C82.1531 99.9607 83.3482 99.9607 84.084 99.2274L89.1684 94.1604C89.9043 93.4271 91.0993 93.4271 91.8351 94.1604L96.571 98.8801C97.7605 100.065 99.791 99.2274 99.791 97.5513V30.2414C99.791 22.3404 93.3621 15.9336 85.4339 15.9336H33.5661C25.6379 15.9336 19.2091 22.3404 19.2091 30.2414V97.5458C19.2091 99.2219 21.2396 100.06 22.4291 98.8745L27.1649 94.1549C27.9008 93.4216 29.0958 93.4216 29.8316 94.1549L29.8261 94.1604Z" fill="url(#paint1_linear_222_6484)" fill-opacity="0.3"/>
</g>
</g>
<path d="M62.1861 37.7287C63.8016 37.9162 65.1349 38.3462 66.2248 39.0079C67.7905 39.9066 68.554 41.092 68.554 42.4649C68.554 44.7365 67.3203 45.9715 65.1792 45.9715C64.5595 45.9715 63.8458 45.7345 63.0381 45.2603C62.2303 44.742 61.2787 44.5049 60.1888 44.5049C57.9536 44.5049 56.5318 45.5966 56.5318 47.5374C56.5318 49.004 58.0034 50.2832 60.9523 51.3749C64.4212 52.654 66.8445 54.0269 68.2719 55.4494C69.7435 56.8719 70.4572 58.9561 70.4572 61.6522C70.4572 64.9218 69.3175 67.4746 67.0381 69.4208C65.7546 70.5125 64.2829 71.2679 62.6176 71.7421V73.8262C62.6176 76.0537 61.5719 77.2336 59.3368 77.2336C57.1016 77.2336 56.1058 76.0482 56.1058 73.8262V72.1666C54.1583 71.9792 52.5428 71.4554 51.2592 70.6504C49.4556 69.6083 48.5483 68.3788 48.5483 66.9563C48.5483 64.9218 50.0199 63.3559 52.2551 63.3559C52.8747 63.3559 53.7268 63.6867 54.9163 64.3042C56.1058 64.9218 57.2897 65.2526 58.4792 65.2526C61.1902 65.2526 62.6619 63.786 62.6619 61.8893C62.6619 60.7039 62.2801 59.8548 61.5664 59.331C60.8527 58.7631 59.4253 58.1014 57.3838 57.3406C51.6797 55.3061 48.7364 52.3232 48.7364 47.5374C48.7364 44.7916 49.4501 42.6579 50.9218 41.1913C52.3934 39.675 54.0089 38.6826 55.6742 38.2525V36.4992C55.6742 34.2717 56.8637 33.0918 58.9052 33.0918C61.1404 33.0918 62.1861 34.2772 62.1861 36.4992V37.7287Z" fill="white"/>
<path d="M82.7561 99.9995C82.1918 99.9995 81.6662 99.779 81.2679 99.382L76.1834 94.315C75.5583 93.692 74.4628 93.692 73.8321 94.315L68.7477 99.382C67.9233 100.204 66.59 100.204 65.7656 99.382L60.6812 94.315C60.0339 93.6699 58.9771 93.6699 58.3298 94.315L53.2454 99.382C52.4487 100.176 51.06 100.176 50.2634 99.382L45.1789 94.315C44.5537 93.692 43.4583 93.692 42.8276 94.315L37.7432 99.382C36.9465 100.176 35.5578 100.176 34.7611 99.382L29.6767 94.315C29.0294 93.6699 27.9726 93.6699 27.3253 94.315L22.5895 99.0346C21.9753 99.6466 21.0957 99.8231 20.2934 99.4923C19.4912 99.1614 18.9933 98.4171 18.9933 97.5515V30.2471C18.9933 22.2358 25.5328 15.7188 33.5716 15.7188H85.4394C93.4782 15.7188 100.018 22.2358 100.018 30.2471V97.5515C100.018 98.4171 99.5198 99.1614 98.7176 99.4923C97.9154 99.8231 97.0357 99.6466 96.4216 99.0346L91.6857 94.315C91.0605 93.692 89.9651 93.692 89.3344 94.315L84.2499 99.382C83.8516 99.779 83.3204 99.9995 82.7617 99.9995H82.7561ZM75.005 93.3887C75.5693 93.3887 76.0949 93.6093 76.4933 94.0062L81.5777 99.0732C82.2029 99.6963 83.2983 99.7018 83.929 99.0732L89.0135 94.0062C89.8102 93.2123 91.1988 93.2123 91.9955 94.0062L96.7314 98.7259C97.2183 99.2111 97.9098 99.3489 98.5405 99.0843C99.1713 98.8251 99.5641 98.2352 99.5641 97.5515V30.2471C99.5641 22.4784 93.2237 16.1598 85.4284 16.1598H33.5661C25.7707 16.1598 19.4304 22.4784 19.4304 30.2471V97.5515C19.4304 98.2352 19.8232 98.8196 20.4539 99.0843C21.0846 99.3434 21.7817 99.2056 22.263 98.7259L26.9989 94.0062C27.8233 93.1847 29.1566 93.1847 29.981 94.0062L35.0654 99.0732C35.6906 99.7018 36.7916 99.6963 37.4167 99.0732L42.5012 94.0062C43.2979 93.2123 44.6865 93.2123 45.4832 94.0062L50.5676 99.0732C51.1984 99.6963 52.2883 99.6963 52.919 99.0732L58.0034 94.0062C58.8278 93.1902 60.1611 93.1902 60.9855 94.0062L66.0699 99.0732C66.7172 99.7183 67.7739 99.7183 68.4212 99.0732L73.5057 94.0062C73.904 93.6093 74.4351 93.3887 74.9939 93.3887H75.005Z" fill="url(#paint2_linear_222_6484)"/>
<defs>
<linearGradient id="paint0_linear_222_6484" x1="27.3369" y1="83.1063" x2="93.4978" y2="35.1379" gradientUnits="userSpaceOnUse">
<stop stop-color="#F2F8FF"/>
<stop offset="1" stop-color="#D9F0FF"/>
</linearGradient>
<linearGradient id="paint1_linear_222_6484" x1="29.4743" y1="24.3347" x2="112.407" y2="66.7024" gradientUnits="userSpaceOnUse">
<stop stop-color="#5A81FF" stop-opacity="0.9"/>
<stop offset="0.447036" stop-color="#567DFF" stop-opacity="0.955296"/>
<stop offset="1" stop-color="#4E78FF" stop-opacity="0.9"/>
</linearGradient>
<linearGradient id="paint2_linear_222_6484" x1="59.4972" y1="99.9995" x2="59.4972" y2="15.7132" gradientUnits="userSpaceOnUse">
<stop stop-color="#E6F1FF"/>
<stop offset="1" stop-color="#F7FBFF"/>
</linearGradient>
</defs>
</svg>
