<svg width="116" height="98" viewBox="0 0 116 98" fill="none" xmlns="http://www.w3.org/2000/svg">
<path d="M90.468 8.39773L37.9486 26.6078H23.2144C14.577 26.6078 7.5791 33.5723 7.5791 42.1563C7.5791 49.7254 13.0189 56.0312 20.2231 57.4187C21.0211 57.5699 21.6509 58.1745 21.8083 58.9682L26.7215 84.2291C27.2373 86.8961 29.2134 89.1204 31.8681 89.7628C36.6347 90.9182 41.0648 86.8259 40.2178 81.9886L36.309 59.6646C36.1299 58.6442 36.9225 57.7102 37.9594 57.7102L90.4789 75.9203C94.6103 77.351 98.9317 74.3007 98.9317 69.9493V14.3688C98.9317 10.0174 94.6103 6.96165 90.4789 8.39773H90.468Z" fill="white"/>
<mask id="mask0_222_9222" style="mask-type:luminance" maskUnits="userSpaceOnUse" x="49" y="19" width="67" height="77">
<path d="M115.783 57.9978C115.783 51.7244 114.442 45.8505 112.124 40.7919V26.9818C112.124 22.166 107.346 18.7918 102.775 20.379L53.7358 37.3852C50.9942 38.3354 49.1592 40.9052 49.1592 43.7936V71.6243C49.1592 74.5127 50.9942 77.0825 53.7358 78.0327L102.775 95.0389C107.346 96.6261 112.124 93.2519 112.124 88.4362V75.2037C114.442 70.1451 115.783 64.2766 115.783 57.9978Z" fill="white"/>
</mask>
<g mask="url(#mask0_222_9222)">
<path opacity="0.05" d="M23.2193 19.4127H36.7265L82.791 3.4377C82.8941 3.3999 88.2959 1.59131 88.3719 1.6561C89.854 1.21339 91.3687 1.04063 92.8617 1.12701C100.196 1.12701 106.157 7.82151 106.157 15.1207V65.459C106.157 65.5183 106.141 70.0533 106.114 70.0965C106.043 73.8001 104.485 77.2175 101.771 79.6794C99.2624 82.1142 95.5218 83.2965 92.0365 83.2965C90.5435 83.2965 88.8768 82.978 87.4544 82.4867L46.8406 68.4067C46.8135 68.4067 45.1088 67.8398 45.0979 67.8614C45.0871 67.8776 45.2825 69.0275 45.2879 69.0437L47.2423 80.2138C47.9427 84.2035 46.9329 88.7979 44.3216 91.8914C41.7157 95.1361 37.8123 97.0419 33.6537 97.1067C32.5299 97.1228 31.3953 97.0041 30.2824 96.7503C28.822 96.4156 27.4485 95.8487 26.1944 95.0875C22.8393 93.0468 20.3963 89.6131 19.6145 85.591L15.3582 63.7043C14.2073 63.2724 13.0618 62.603 12.0249 61.9767C11.3517 61.5718 10.6948 61.1183 10.0487 60.6702C4.14205 56.5672 0.341797 49.7269 0.341797 42.1578C0.341797 29.6164 10.6025 19.4127 23.2139 19.4127H23.2193Z" fill="#FEFEFE"/>
<path opacity="0.09" d="M23.2195 19.752H36.7864L83.1549 3.67438C83.3667 3.60419 88.6219 1.90898 88.7684 2.03855C90.2397 1.67143 91.7218 1.58505 93.1442 1.76321C100.126 1.76321 105.81 8.9328 105.81 15.8864V65.6794C105.81 65.7928 105.777 70.1712 105.718 70.2576C105.582 73.8964 103.948 77.2113 101.222 79.5057C98.8337 81.8218 94.8109 82.7936 91.4938 82.7936C90.0714 82.7936 88.2853 82.4211 86.9335 81.9568L46.4174 67.9091C46.3576 67.9091 44.7127 67.3855 44.6855 67.4286C44.6692 67.4556 44.8484 68.5732 44.8538 68.6056L46.8082 79.7541C47.476 83.5548 46.6128 88.4839 44.1209 91.4317C41.6616 94.6655 37.8776 96.6091 33.8059 96.7333C32.7039 96.7657 31.5909 96.6685 30.4943 96.4309C29.0611 96.1232 27.6984 95.5833 26.4552 94.8437C23.1327 92.8731 20.7114 89.4935 19.9459 85.5362L15.695 63.6657C14.5984 63.2554 13.4637 62.4564 12.4865 61.8463C11.8296 61.436 11.1836 60.9663 10.5321 60.529C4.56571 56.5393 0.689453 49.726 0.689453 42.1569C0.689453 29.8045 10.7927 19.752 23.2195 19.752Z" fill="#FDFDFD"/>
<path opacity="0.14" d="M23.2193 20.0984H36.8459L83.5239 3.91281C83.8388 3.80483 88.9528 2.22299 89.1754 2.41735C90.6412 2.12581 92.0907 2.13121 93.4425 2.39035C100.077 2.39035 105.473 10.035 105.473 16.6431V65.8909C105.473 66.0636 105.424 70.2801 105.337 70.4097C105.131 73.9837 103.432 77.1959 100.696 79.3231C98.4263 81.5258 94.1212 82.2762 90.9669 82.2762C89.6151 82.2762 87.7096 81.8497 86.4229 81.407L45.9991 67.3917C45.9122 67.3917 44.3216 66.9113 44.2836 66.9814C44.2564 67.0246 44.4247 68.1044 44.4356 68.1584L46.3846 79.2799C47.0197 82.8917 46.3031 88.1555 43.9361 90.9575C41.6288 94.1751 37.9588 96.1565 33.974 96.3454C32.8937 96.3994 31.797 96.3184 30.7221 96.1025C29.3106 95.8164 27.9696 95.3035 26.7372 94.5908C23.4473 92.6851 21.0532 89.3648 20.2931 85.4723L16.0422 63.6126C14.9999 63.2239 13.8761 62.3007 12.9586 61.7014C12.318 61.2857 11.6828 60.7944 11.0205 60.3733C4.98894 56.5186 1.03125 49.7269 1.03125 42.1578C1.03125 29.989 10.9825 20.0984 23.2139 20.0984H23.2193Z" fill="#FCFCFC"/>
<path opacity="0.18" d="M23.2195 20.4368H36.9058L83.8878 4.14328C84.3059 3.99751 89.2733 2.52904 89.5719 2.79358C91.0269 2.57763 92.4492 2.66941 93.7251 3.02033C100.012 3.02033 105.126 11.1401 105.126 17.3973V66.0998C105.126 66.3319 105.061 70.3864 104.947 70.5592C104.67 74.0684 102.905 77.1727 100.158 79.1378C98.0085 81.2218 93.421 81.7616 90.4351 81.7616C89.1593 81.7616 87.1289 81.2812 85.9074 80.86L45.5758 66.8772C45.4618 66.8772 43.9254 66.4399 43.8712 66.5317C43.8386 66.591 43.9906 67.633 44.0069 67.7032L45.9504 78.8031C46.5476 82.2259 45.9776 87.8245 43.7354 90.4807C41.5747 93.6876 38.0242 95.7067 34.1262 95.955C33.0676 96.0252 31.9927 95.9604 30.934 95.7661C29.5496 95.507 28.225 95.0211 27.0035 94.33C23.7461 92.489 21.3737 89.2282 20.6299 85.4004L16.3845 63.5569C15.3964 63.1844 14.2835 62.137 13.4257 61.554C12.8014 61.1275 12.1771 60.62 11.5093 60.2151C5.4126 56.4953 1.37891 49.7306 1.37891 42.1615C1.37891 30.1816 11.1727 20.4422 23.2195 20.4422V20.4368Z" fill="#FBFBFB"/>
<path opacity="0.23" d="M23.2198 20.7839H36.9605L84.2573 4.38235C84.7785 4.19879 89.6048 2.8491 89.974 3.17302C91.4235 3.03266 92.8079 3.21082 94.0185 3.65352C99.9524 3.65352 104.784 12.2484 104.784 18.1601V66.3226C104.784 66.6142 104.703 70.5067 104.556 70.7226C104.214 74.1671 102.374 77.1688 99.6158 78.9666C97.5854 80.9371 92.7156 81.2557 89.8925 81.2557C88.6873 81.2557 86.5375 80.7212 85.3865 80.3217L45.1527 66.3712C45.0116 66.3712 43.5295 65.9771 43.4643 66.0905C43.4209 66.1661 43.562 67.1702 43.5783 67.262L45.5164 78.3349C46.0811 81.5688 45.6576 87.5075 43.5403 90.0071C41.5316 93.1978 38.0897 95.2547 34.2786 95.5679C33.2416 95.6542 32.1884 95.6111 31.1461 95.4329C29.7834 95.1953 28.4805 94.7365 27.2698 94.0724C24.045 92.3016 21.6943 89.0947 20.9614 85.3318L16.716 63.4991C15.7822 63.1481 14.6801 61.9712 13.8821 61.4043C13.274 60.9724 12.6551 60.4434 11.9819 60.0546C5.82552 56.4644 1.71582 49.7268 1.71582 42.1523C1.71582 30.3613 11.3576 20.7785 23.209 20.7785L23.2198 20.7839Z" fill="#FAFAFA"/>
<path opacity="0.27" d="M23.2196 21.1229H37.0199L84.6208 4.6188C85.2506 4.40285 89.9249 3.16113 90.3701 3.55524C91.8087 3.49046 93.166 3.755 94.3006 4.28408C99.887 4.28408 104.431 13.354 104.431 18.9202V66.5375C104.431 66.883 104.328 70.619 104.16 70.8835C103.747 74.2631 101.841 77.1623 99.0726 78.7927C97.1617 80.6445 92.0042 80.7525 89.3494 80.7525C88.2148 80.7525 85.9455 80.164 84.8597 79.7915L44.7182 65.8734C44.5444 65.8734 43.1221 65.5225 43.0461 65.6575C42.9972 65.7439 43.1221 66.7156 43.1438 66.8236L45.0819 77.8749C45.6139 80.9145 45.3316 87.1932 43.3392 89.5471C41.4771 92.727 38.1546 94.8217 34.4303 95.1942C33.4206 95.2968 32.3836 95.2752 31.3576 95.1187C30.022 94.9081 28.7354 94.4762 27.5356 93.8338C24.3488 92.1277 22.0144 88.9802 21.2978 85.2821L17.0578 63.4656C16.1783 63.1362 15.0871 61.8243 14.3487 61.2791C13.7515 60.8364 13.1489 60.2965 12.4649 59.9132C6.24332 56.4526 2.05762 49.7365 2.05762 42.1674C2.05762 30.5654 11.542 21.1337 23.2087 21.1337L23.2196 21.1229Z" fill="#F9F9F9"/>
<path opacity="0.32" d="M23.2191 21.4642H37.0792L84.9895 4.85217C85.7224 4.59843 90.2556 3.47548 90.7768 3.92898C92.21 3.93977 93.5347 4.29609 94.5987 4.91156C99.8377 4.91156 104.099 14.4566 104.099 19.6718V66.7439C104.099 67.1488 103.98 70.7228 103.784 71.0305C103.301 74.3454 101.325 77.1419 98.551 78.605C96.7595 80.3434 91.3197 80.23 88.8332 80.23C87.7691 80.23 85.3804 79.5876 84.3652 79.2366L44.316 65.351C44.1151 65.351 42.747 65.0432 42.6547 65.1998C42.595 65.3024 42.709 66.2364 42.7362 66.3659L44.6688 77.3903C45.1683 80.2408 45.0326 86.8543 43.165 89.0624C41.4549 92.2315 38.2464 94.3587 34.609 94.796C33.621 94.9201 32.6058 94.9147 31.596 94.7744C30.2822 94.5908 29.0172 94.1805 27.8283 93.5704C24.6741 91.9292 22.3668 88.8411 21.6556 85.2077L17.4156 63.402C16.5958 63.0943 15.5155 61.6474 14.8314 61.1237C14.2451 60.6756 13.6588 60.1141 12.9693 59.747C6.68804 56.416 2.4209 49.7269 2.4209 42.1578C2.4209 30.7448 11.7478 21.4696 23.2246 21.4696L23.2191 21.4642Z" fill="#F8F8F8"/>
<path opacity="0.36" d="M23.2195 21.8098H37.1392L85.3536 5.08972C86.1896 4.79818 90.5762 3.78861 91.1734 4.31229C92.5958 4.39867 93.8879 4.84137 94.8868 5.54322C99.7728 5.54322 103.752 15.5688 103.752 20.4331V66.9598C103.752 67.4241 103.617 70.8361 103.389 71.1871C102.835 74.4371 100.793 77.1257 98.0084 78.4268C96.3363 80.0465 90.6142 79.7225 88.2906 79.7225C87.2971 79.7225 84.789 79.0261 83.8389 78.6968L43.8874 64.8435C43.6594 64.8435 42.3456 64.5789 42.2424 64.7625C42.1719 64.8813 42.275 65.7775 42.3022 65.9232L44.2294 76.926C44.6963 79.5876 44.7072 86.5358 42.9591 88.5981C41.3955 91.751 38.3065 93.9214 34.7559 94.418C33.7896 94.5584 32.7961 94.5746 31.8026 94.4504C30.5159 94.2939 29.2619 93.9105 28.0892 93.3221C24.9676 91.7456 22.682 88.7169 21.9871 85.1483L17.7525 63.3588C16.987 63.0727 15.923 61.4908 15.2932 60.9888C14.7232 60.5299 14.1477 59.9522 13.4474 59.6013C7.10639 56.3998 2.75781 49.7377 2.75781 42.1632C2.75781 30.9391 11.9327 21.8152 23.2195 21.8152V21.8098Z" fill="#F7F7F7"/>
<path opacity="0.41" d="M23.2192 22.1484H37.1933L85.7171 5.32576C86.6563 5.00183 90.9017 4.10564 91.5695 4.68871C92.9865 4.85067 94.246 5.37975 95.1689 6.17337C99.7075 6.17337 103.399 16.674 103.399 21.1928V67.1743C103.399 67.6979 103.247 70.948 102.992 71.3421C102.373 74.5274 100.256 77.1134 97.4599 78.2526C95.9072 79.7588 89.9028 79.2136 87.7475 79.2136C86.8246 79.2136 84.1916 78.4631 83.3121 78.1608L43.4529 64.3399C43.1977 64.3399 41.9382 64.1185 41.8188 64.3237C41.7428 64.4587 41.8296 65.3171 41.8622 65.479L43.784 76.4602C44.2183 78.9328 44.3704 86.2158 42.7525 88.1324C41.3356 91.2745 38.3605 93.4771 34.9023 94.0386C33.9577 94.1952 32.9859 94.2276 32.0087 94.1304C30.7492 94.0008 29.5114 93.6391 28.3496 93.0776C25.2605 91.5714 22.9966 88.5966 22.318 85.0928L18.0835 63.3141C17.3723 63.0442 16.3245 61.3328 15.749 60.8523C15.1736 60.3718 14.6252 59.7887 13.9249 59.454C7.51876 56.3821 3.09961 49.747 3.09961 42.1725C3.09961 31.1374 12.1171 22.1646 23.2192 22.1646V22.1484Z" fill="#F6F6F6"/>
<path opacity="0.45" d="M23.2199 22.494H37.2537L86.0815 5.56336C87.1293 5.20164 91.2227 4.41882 91.9719 5.07207C93.378 5.30962 94.6103 5.93048 95.4627 6.80508C99.6538 6.80508 103.063 17.7808 103.063 21.9487V67.3849C103.063 67.9625 102.895 71.056 102.613 71.4933C101.923 74.6138 99.7407 77.0973 96.9339 78.0691C95.5007 79.4566 89.214 78.6953 87.2216 78.6953C86.3692 78.6953 83.6167 77.8909 82.8078 77.6102L43.0409 63.8217C42.7532 63.8217 41.5534 63.6435 41.4231 63.8703C41.3362 64.016 41.4122 64.842 41.4448 65.0256L43.3612 75.9797C43.763 78.258 44.0615 85.8811 42.5686 87.6519C41.3036 90.7832 38.4426 93.0237 35.0712 93.6446C34.1483 93.8173 33.1928 93.8713 32.2373 93.7903C30.9995 93.6824 29.7834 93.353 28.6325 92.8132C25.576 91.3717 23.3393 88.4563 22.6661 85.0173L18.437 63.2548C17.7801 63.0064 16.8246 61.0467 16.2274 60.7012C15.7822 60.1235 15.1308 59.616 14.4196 59.2921C7.95371 56.3497 3.45312 49.7362 3.45312 42.1671C3.45312 31.321 12.3186 22.5048 23.2253 22.5048L23.2199 22.494Z" fill="#F5F5F5"/>
<path opacity="0.5" d="M23.2192 22.8353H37.3127L86.45 5.79678C87.6009 5.39727 91.5532 4.73321 92.3729 5.44585C93.7736 5.75898 94.968 6.46622 95.7497 7.43261C99.588 7.43261 102.715 18.8834 102.715 22.7058V67.5967C102.715 68.2337 102.53 71.1653 102.216 71.6458C101.456 74.7015 99.2026 77.0824 96.3904 77.8868C95.0766 79.1609 88.5076 78.1837 86.678 78.1837C85.8962 78.1837 83.0243 77.3253 82.2806 77.0662L42.6114 63.31C42.2965 63.31 41.151 63.1751 41.0044 63.4234C40.9121 63.5854 40.9718 64.3736 41.0044 64.5734L42.9208 75.5059C43.2845 77.5952 43.7351 85.5585 42.3616 87.1781C41.2433 90.2932 38.5017 92.5715 35.2172 93.2571C34.316 93.4461 33.3822 93.5217 32.443 93.4569C31.2323 93.3759 30.0325 93.0736 28.8924 92.5553C25.8685 91.1786 23.6535 88.3226 22.9966 84.9484L18.7675 63.1967C18.1649 62.9699 17.2311 60.8644 16.6828 60.5459C16.2593 59.952 15.6133 59.4337 14.8967 59.126C8.37108 56.3132 3.78906 49.7267 3.78906 42.1576C3.78906 31.5004 12.4971 22.8353 23.2192 22.8353Z" fill="#F4F4F4"/>
<path opacity="0.55" d="M23.2194 23.1799H37.3726L86.8194 6.03333C88.0734 5.59603 91.8791 5.04536 92.7749 5.82818C94.1647 6.21689 95.3319 7.01052 96.0431 8.06328C99.5339 8.06328 102.373 19.9892 102.373 23.4606V67.8062C102.373 68.5027 102.172 71.2669 101.83 71.8014C101.005 74.7923 98.6816 77.0652 95.8531 77.7076C94.6587 78.8684 87.802 77.6698 86.1462 77.6698C85.435 77.6698 82.4436 76.7574 81.765 76.5253L42.1881 62.8016C41.8461 62.8016 40.7549 62.7098 40.5974 62.9797C40.4943 63.1579 40.5431 63.9083 40.5866 64.1297L42.4976 75.0352C42.8287 76.9356 43.4205 85.2335 42.1772 86.702C41.2109 89.8063 38.5833 92.1224 35.3857 92.8674C34.5116 93.078 33.5941 93.1698 32.6712 93.1212C31.4823 93.0618 30.3042 92.7864 29.175 92.2952C26.189 90.9886 23.9903 88.1867 23.3443 84.8772L19.1151 63.1417C18.5668 62.9365 17.6548 60.6906 17.1553 60.3991C16.759 59.7837 16.1129 59.26 15.3855 58.9684C8.79474 56.2852 4.13672 49.7257 4.13672 42.1512C4.13672 31.6776 12.6873 23.1745 23.2194 23.1745V23.1799Z" fill="#F4F4F4"/>
<path opacity="0.59" d="M23.2193 23.521H37.4268L87.1776 6.27187C88.5348 5.80218 92.1993 5.36488 93.1657 6.20709C94.5446 6.67139 95.6847 7.55139 96.3199 8.69593C99.4632 8.69593 102.02 21.0969 102.02 24.2228V68.0286C102.02 68.779 101.803 71.3866 101.429 71.9643C100.533 74.8959 98.1386 77.0608 95.3047 77.5359C94.2297 78.5778 87.0907 77.1687 85.5977 77.1687C84.9571 77.1687 81.8463 76.2024 81.2383 75.9918L41.7537 62.3005C41.3791 62.3005 40.3476 62.2519 40.1739 62.5434C40.0653 62.7324 40.0979 63.4504 40.1413 63.688L42.0468 74.5719C42.3454 76.2833 43.0838 84.916 41.96 86.2387C41.1402 89.3268 38.6266 91.6807 35.5213 92.4905C34.6689 92.7172 33.7732 92.8252 32.8665 92.8036C31.7047 92.7712 30.5429 92.5229 29.4191 92.0532C26.4658 90.8115 24.2888 88.0689 23.659 84.8242L19.4353 63.0995C18.9413 62.9159 18.051 60.5243 17.6004 60.2651C17.2258 59.6335 16.5797 59.099 15.8522 58.8183C9.2018 56.2646 4.46777 49.7267 4.46777 42.1576C4.46777 31.8729 12.8663 23.521 23.2084 23.521H23.2193Z" fill="#F3F3F3"/>
<path opacity="0.64" d="M23.2198 23.8666H37.4871L87.5473 6.50945C89.0131 6.00197 92.5256 5.67804 93.5734 6.59044C94.9469 7.13032 96.049 8.1021 96.619 9.32762C99.4149 9.32762 101.684 22.2037 101.684 24.9841V68.2446C101.684 69.0544 101.451 71.5001 101.049 72.1209C100.083 74.9877 97.6234 77.05 94.7786 77.3577C93.8231 78.2863 86.4018 76.6559 85.0771 76.6559C84.5071 76.6559 81.2768 75.6355 80.7339 75.4466L41.347 61.7876C40.9453 61.7876 39.9627 61.7876 39.7835 62.1008C39.6641 62.3059 39.6858 62.9862 39.7346 63.2399L41.6348 74.0969C41.9008 75.6193 42.7803 84.5867 41.7868 85.7636C41.119 88.841 38.7194 91.2326 35.7009 92.1018C34.8703 92.3448 33.9963 92.4743 33.1059 92.4689C31.9658 92.4635 30.8203 92.2368 29.7128 91.7941C26.7921 90.6172 24.6422 87.934 24.0233 84.7541L19.7996 63.0455C19.3599 62.8836 18.4858 60.3516 18.0895 60.1194C17.742 59.4715 17.096 58.9317 16.3577 58.6617C9.64749 56.2377 4.83203 49.7267 4.83203 42.1576C4.83203 32.0619 13.0731 23.8666 23.2253 23.8666H23.2198Z" fill="#F2F2F2"/>
<path opacity="0.68" d="M23.2197 24.2065H37.5467L87.9109 6.74144C89.4798 6.19616 92.8512 5.99101 93.9696 6.96279C95.3322 7.57825 96.4072 8.63642 96.9012 9.95372C99.3442 9.95372 101.331 23.3049 101.331 25.7344V68.4496C101.331 69.3188 101.081 71.6025 100.653 72.2665C99.6211 75.0685 97.0858 77.0228 94.2356 77.1686C93.3995 77.9784 85.6959 76.1374 84.5341 76.1374C84.0346 76.1374 80.685 75.0631 80.2126 74.8957L40.918 61.2692C40.4891 61.2692 39.5608 61.307 39.3654 61.6471C39.2351 61.8685 39.2514 62.5109 39.2948 62.7862L41.1949 73.6216C41.4284 74.9497 42.4544 84.2572 41.5804 85.2884C41.0592 88.3549 38.779 90.7789 35.8474 91.7129C35.0385 91.9721 34.1862 92.1232 33.3121 92.134C32.1992 92.1502 31.07 91.9559 29.9733 91.5348C27.0851 90.428 24.957 87.7988 24.3489 84.6837L20.1307 62.986C19.7452 62.8402 18.8929 60.1732 18.5454 59.9681C18.2197 59.2986 17.5791 58.7534 16.8299 58.4996C10.0546 56.2051 5.16309 49.7212 5.16309 42.1521C5.16309 32.2453 13.2522 24.2011 23.2143 24.2011L23.2197 24.2065Z" fill="#F1F1F1"/>
<path opacity="0.73" d="M23.2195 24.5519H37.6062L88.2744 6.97885C89.9465 6.40118 93.1767 6.304 94.3657 7.34597C95.7229 8.03701 96.7653 9.18156 97.1887 10.5852C99.2843 10.5852 100.989 24.4115 100.989 26.4955V68.6654C100.989 69.594 100.718 71.7157 100.261 72.4229C99.1594 75.1601 96.5589 77.0119 93.6925 76.9903C92.9759 77.6868 84.9899 75.6244 83.991 75.6244C83.5675 75.6244 80.093 74.4961 79.6858 74.3557L40.4835 60.7616C40.0275 60.7616 39.1534 60.8425 38.9471 61.2043C38.8114 61.4418 38.8114 62.0465 38.8602 62.338L40.7549 73.1464C40.9558 74.2855 42.1285 83.9278 41.3793 84.8132C41.0047 87.8635 38.844 90.3307 35.9992 91.3241C35.212 91.5994 34.3814 91.7668 33.5236 91.8046C32.4378 91.8478 31.3249 91.675 30.2391 91.2809C27.3835 90.2389 25.2771 87.6691 24.6853 84.6188L20.467 62.9373C20.1359 62.8131 19.3052 60.0003 19.0066 59.8276C18.708 59.1419 18.0674 58.5859 17.3128 58.3483C10.4778 56.1834 5.50488 49.7264 5.50488 42.1519C5.50488 32.4341 13.4366 24.5465 23.2086 24.5465L23.2195 24.5519Z" fill="#F0F0F0"/>
<path opacity="0.77" d="M23.2191 24.8914H37.6601L88.6432 7.21582C90.4185 6.60036 93.5021 6.61655 94.7671 7.7233C96.1134 8.48993 97.1232 9.72085 97.4815 11.2163C99.2296 11.2163 100.647 25.5177 100.647 27.2561V68.8808C100.647 69.8633 100.359 71.8285 99.8757 72.5789C98.703 75.2513 96.032 77.0005 93.1601 76.8116C92.5629 77.3893 84.2946 75.1164 83.464 75.1164C83.1111 75.1164 79.5172 73.934 79.1752 73.8152L40.0706 60.2535C39.5819 60.2535 38.7676 60.3777 38.545 60.761C38.3984 61.0093 38.3876 61.5816 38.4419 61.8947L40.3311 72.6815C40.4994 73.6317 41.8132 83.6086 41.1889 84.3483C40.9663 87.3878 38.9142 89.8874 36.1617 90.9456C35.4017 91.2425 34.5873 91.4261 33.7458 91.4801C32.6818 91.5449 31.5906 91.4045 30.5156 91.032C27.6926 90.0548 25.6079 87.5444 25.027 84.5588L20.8141 62.8881C20.5427 62.7855 19.7283 59.8324 19.4786 59.6866C19.2017 58.9848 18.5611 58.4179 17.8011 58.1966C10.9063 56.1612 5.85742 49.7259 5.85742 42.1568C5.85742 32.6279 13.6371 24.8914 23.2191 24.8914Z" fill="#EFEFEF"/>
<path opacity="0.82" d="M23.2198 25.238H37.7205L89.0076 7.45436C90.8914 6.80111 93.8285 6.93608 95.1694 8.10762C96.5104 8.94983 97.4876 10.2725 97.7699 11.849C99.1651 11.849 100.305 26.6255 100.305 28.0129V69.0923C100.305 70.1343 100.001 71.9375 99.4908 72.7365C98.2531 75.3441 95.5114 76.9907 92.6287 76.6344C92.1509 77.0987 83.5949 74.6045 82.9326 74.6045C82.6503 74.6045 78.9369 73.3681 78.6655 73.271L39.6532 59.7416C39.1374 59.7416 38.3774 59.909 38.1439 60.3139C37.9919 60.5784 37.9648 61.1129 38.0191 61.4422L39.9029 72.202C40.0386 72.9632 41.499 83.2803 40.9995 83.8688C40.9235 86.8921 38.9908 89.4349 36.3252 90.5525C35.5869 90.8656 34.7888 91.0708 33.9691 91.141C32.9321 91.2327 31.8572 91.114 30.7931 90.7738C28.0081 89.8668 25.9451 87.4104 25.3751 84.4842L21.1622 62.8297C20.9451 62.7487 20.1524 59.6498 19.9516 59.5365C19.7018 58.813 19.0612 58.2461 18.2957 58.0356C11.3359 56.1298 6.21094 49.7215 6.21094 42.1524C6.21094 32.8125 13.8332 25.2326 23.2252 25.2326L23.2198 25.238Z" fill="#EEEEEE"/>
<path opacity="0.86" d="M23.2197 25.5771H37.7801L89.3712 7.68552C91.3582 6.99448 94.1487 7.24282 95.5656 8.47914C96.8957 9.39154 97.8458 10.806 98.0575 12.4742C99.1053 12.4742 99.9576 27.7258 99.9576 28.7678V69.3019C99.9576 70.4032 99.6373 72.0445 99.0944 72.8867C97.7861 75.4295 94.9793 76.9682 92.0803 76.4553C91.7219 76.8008 82.8836 74.096 82.3896 74.096C82.1779 74.096 78.3451 72.8057 78.1388 72.7355L39.2187 59.2385C38.6758 59.2385 37.9701 59.4491 37.7204 59.881C37.5575 60.1617 37.5195 60.6584 37.5792 61.0093L39.4576 71.7475C39.5553 72.3198 41.1623 82.9716 40.7931 83.4143C40.8691 86.4268 39.0504 89.0074 36.4663 90.1844C35.7497 90.5137 34.9733 90.7351 34.1698 90.8322C33.1546 90.9456 32.1014 90.8592 31.0482 90.5407C28.2957 89.6985 26.2544 87.3014 25.7007 84.4401L21.4933 62.7963C21.3304 62.737 20.5541 59.4977 20.4075 59.4113C20.1795 58.6717 19.5443 58.094 18.7679 57.8996C11.7483 56.1234 6.54199 49.7421 6.54199 42.1676C6.54199 33.0166 14.0068 25.5879 23.2142 25.5879L23.2197 25.5771Z" fill="#EDEDED"/>
<path opacity="0.91" d="M23.2199 25.9235H37.84L89.7406 7.92395C91.8307 7.20051 94.48 7.56223 95.9676 8.86334C97.2922 9.85131 98.2043 11.3522 98.3454 13.1068C99.0458 13.1068 99.6104 28.8334 99.6104 29.5299V69.5187C99.6104 70.6794 99.2738 72.1587 98.7038 73.0441C97.3248 75.5222 94.4475 76.9582 91.543 76.278C91.3041 76.5101 82.1835 73.584 81.8523 73.584C81.7112 73.584 77.7535 72.2397 77.6232 72.1911L38.8009 58.7265C38.2309 58.7265 37.5794 58.9803 37.3188 59.4338C37.1505 59.7307 37.0962 60.1896 37.1559 60.5567L39.0344 71.2679C39.0995 71.6458 40.8531 82.6378 40.6033 82.9293C40.8259 85.931 39.1212 88.544 36.6293 89.7858C35.9344 90.1313 35.1798 90.3742 34.3926 90.4876C33.4046 90.628 32.3676 90.5632 31.3253 90.2716C28.6054 89.4942 26.5858 87.1565 26.0429 84.36L21.8355 62.7324C21.7269 62.6892 20.9723 59.315 20.8746 59.2556C20.6737 58.4998 20.0385 57.9113 19.2568 57.7332C12.1774 56.0865 6.88965 49.7268 6.88965 42.1577C6.88965 33.1903 14.2024 25.9235 23.2144 25.9235H23.2199Z" fill="#ECECEC"/>
<path opacity="0.95" d="M23.22 26.2633H37.8944L90.1044 8.16115C92.2977 7.39992 94.8004 7.87502 96.364 9.24091C97.6778 10.3045 98.5627 11.8917 98.6333 13.7381C98.9807 13.7381 99.2684 29.9399 99.2684 30.2854V69.7343C99.2684 70.949 98.9156 72.2717 98.3184 73.2003C96.8743 75.6136 93.9264 76.9471 91.011 76.0995C90.8916 76.2129 81.4887 73.0708 81.3204 73.0708C81.2498 73.0708 77.1727 71.6725 77.1075 71.6455L38.3775 58.2187C37.7749 58.2187 37.1832 58.5156 36.9117 58.9907C36.7326 59.2985 36.6674 59.725 36.7326 60.1083L38.6056 70.7979C38.6381 70.9868 40.5383 82.3135 40.4134 82.4593C40.7826 85.4448 39.1973 88.101 36.7923 89.4021C36.1191 89.7692 35.3862 90.0284 34.6153 90.1579C33.6489 90.3199 32.6283 90.2875 31.6022 90.0176C28.9149 89.3103 26.9225 87.0266 26.3905 84.2948L22.1885 62.6835C22.1342 62.6619 21.4013 59.1419 21.3524 59.1149C21.1733 58.3429 20.5381 57.7436 19.7509 57.5762C12.6064 56.0592 7.24805 49.7264 7.24805 42.1573C7.24805 33.3789 14.4034 26.2633 23.2308 26.2633H23.22Z" fill="#EBEBEB"/>
<path d="M90.468 8.39773L37.9486 26.6078H23.2144C14.577 26.6078 7.5791 33.5723 7.5791 42.1563C7.5791 49.7254 13.0189 56.0312 20.2231 57.4187C21.0211 57.5699 21.6509 58.1745 21.8083 58.9682L26.7215 84.2291C27.2373 86.8961 29.2134 89.1204 31.8681 89.7628C36.6347 90.9182 41.0648 86.8259 40.2178 81.9886L36.309 59.6646C36.1299 58.6442 36.9225 57.7102 37.9594 57.7102L90.4789 75.9203C94.6103 77.351 98.9317 74.3007 98.9317 69.9493V14.3688C98.9317 10.0174 94.6103 6.96165 90.4789 8.39773H90.468Z" fill="#EAEAEA"/>
</g>
<g opacity="0.8">
<g opacity="0.8">
<path d="M115.783 57.9978C115.783 51.7244 114.442 45.8505 112.124 40.7919V26.9818C112.124 22.166 107.346 18.7918 102.775 20.379L53.7358 37.3852C50.9942 38.3354 49.1592 40.9052 49.1592 43.7936V71.6243C49.1592 74.5127 50.9942 77.0825 53.7358 78.0327L102.775 95.0389C107.346 96.6261 112.124 93.2519 112.124 88.4362V75.2037C114.442 70.1451 115.783 64.2766 115.783 57.9978Z" fill="url(#paint0_linear_222_9222)" fill-opacity="0.4"/>
<path d="M115.783 57.9978C115.783 51.7244 114.442 45.8505 112.124 40.7919V26.9818C112.124 22.166 107.346 18.7918 102.775 20.379L53.7358 37.3852C50.9942 38.3354 49.1592 40.9052 49.1592 43.7936V71.6243C49.1592 74.5127 50.9942 77.0825 53.7358 78.0327L102.775 95.0389C107.346 96.6261 112.124 93.2519 112.124 88.4362V75.2037C114.442 70.1451 115.783 64.2766 115.783 57.9978Z" fill="url(#paint1_linear_222_9222)" fill-opacity="0.3"/>
</g>
</g>
<path d="M96.3528 82.1512C95.6742 82.1512 94.9902 81.9839 94.355 81.6221C92.4114 80.5208 91.7328 78.0643 92.8403 76.1316C95.8588 70.857 97.4495 64.5836 97.4495 57.9917C97.4495 51.3997 95.8534 45.1263 92.8403 39.8517C91.7328 37.919 92.4169 35.4625 94.355 34.3612C96.2986 33.2652 98.7687 33.9401 99.8762 35.8674C103.584 42.3514 105.544 50.0014 105.544 57.9863C105.544 65.9711 103.584 73.6211 99.8762 80.1051C99.1325 81.4116 97.7644 82.1404 96.3528 82.1404V82.1512Z" fill="white"/>
<path d="M82.7205 74.3834C82.2265 74.3834 81.7216 74.2862 81.2384 74.081C79.3329 73.2658 78.448 71.0685 79.2677 69.1681C80.7824 65.6697 81.5479 61.9122 81.5479 57.9926C81.5479 54.0731 80.7824 50.3156 79.2677 46.8117C78.448 44.9168 79.3275 42.7141 81.233 41.8989C83.1386 41.0836 85.3536 41.9582 86.1733 43.8532C88.0952 48.291 89.067 53.0473 89.067 57.9872C89.067 62.9271 88.0952 67.6781 86.1733 72.1105C85.5599 73.5249 84.1755 74.3726 82.7205 74.3726V74.3834Z" fill="white"/>
<g opacity="0.8">
<path d="M105.115 95.6537C104.311 95.6537 103.497 95.5187 102.704 95.2434L53.6646 78.2372C50.8361 77.2546 48.9414 74.5984 48.9414 71.6237V43.7929C48.9414 40.8182 50.8415 38.1566 53.6646 37.1794L102.704 20.1732C104.952 19.3958 107.351 19.7359 109.289 21.1018C111.228 22.4731 112.34 24.6164 112.34 26.9811V40.748C114.735 45.9902 116 51.9559 116 57.9971C116 64.0384 114.735 70.004 112.34 75.2517V88.4409C112.34 90.8056 111.228 92.9489 109.289 94.3202C108.035 95.2056 106.586 95.6591 105.115 95.6591V95.6537ZM105.115 20.1948C104.36 20.1948 103.594 20.3244 102.851 20.5835L53.8112 37.5897C51.1618 38.5075 49.3811 41.0018 49.3811 43.7929V71.6237C49.3811 74.4148 51.1618 76.9091 53.8112 77.8269L102.851 94.8331C104.963 95.5673 107.216 95.2488 109.04 93.9585C110.864 92.6735 111.906 90.6598 111.906 88.4355L111.928 75.1113C114.311 69.9123 115.565 63.9952 115.565 57.9971C115.565 51.9991 114.306 46.082 111.928 40.883L111.906 40.7912V26.9811C111.906 24.7568 110.858 22.7431 109.04 21.4581C107.862 20.6267 106.499 20.1948 105.115 20.1948Z" fill="url(#paint2_linear_222_9222)" fill-opacity="0.4"/>
<path d="M105.115 95.6537C104.311 95.6537 103.497 95.5187 102.704 95.2434L53.6646 78.2372C50.8361 77.2546 48.9414 74.5984 48.9414 71.6237V43.7929C48.9414 40.8182 50.8415 38.1566 53.6646 37.1794L102.704 20.1732C104.952 19.3958 107.351 19.7359 109.289 21.1018C111.228 22.4731 112.34 24.6164 112.34 26.9811V40.748C114.735 45.9902 116 51.9559 116 57.9971C116 64.0384 114.735 70.004 112.34 75.2517V88.4409C112.34 90.8056 111.228 92.9489 109.289 94.3202C108.035 95.2056 106.586 95.6591 105.115 95.6591V95.6537ZM105.115 20.1948C104.36 20.1948 103.594 20.3244 102.851 20.5835L53.8112 37.5897C51.1618 38.5075 49.3811 41.0018 49.3811 43.7929V71.6237C49.3811 74.4148 51.1618 76.9091 53.8112 77.8269L102.851 94.8331C104.963 95.5673 107.216 95.2488 109.04 93.9585C110.864 92.6735 111.906 90.6598 111.906 88.4355L111.928 75.1113C114.311 69.9123 115.565 63.9952 115.565 57.9971C115.565 51.9991 114.306 46.082 111.928 40.883L111.906 40.7912V26.9811C111.906 24.7568 110.858 22.7431 109.04 21.4581C107.862 20.6267 106.499 20.1948 105.115 20.1948Z" fill="url(#paint3_linear_222_9222)" fill-opacity="0.3"/>
</g>
<defs>
<linearGradient id="paint0_linear_222_9222" x1="55.8791" y1="80.4328" x2="113.686" y2="41.9276" gradientUnits="userSpaceOnUse">
<stop stop-color="#F2F8FF"/>
<stop offset="1" stop-color="#D9F0FF"/>
</linearGradient>
<linearGradient id="paint1_linear_222_9222" x1="57.6463" y1="27.5428" x2="128.501" y2="60.7982" gradientUnits="userSpaceOnUse">
<stop stop-color="#5A81FF" stop-opacity="0.9"/>
<stop offset="0.447036" stop-color="#567DFF" stop-opacity="0.955296"/>
<stop offset="1" stop-color="#4E78FF" stop-opacity="0.9"/>
</linearGradient>
<linearGradient id="paint2_linear_222_9222" x1="55.7052" y1="80.5684" x2="113.865" y2="41.8025" gradientUnits="userSpaceOnUse">
<stop stop-color="#F2F8FF"/>
<stop offset="1" stop-color="#D9F0FF"/>
</linearGradient>
<linearGradient id="paint3_linear_222_9222" x1="57.4838" y1="27.3684" x2="128.784" y2="60.8545" gradientUnits="userSpaceOnUse">
<stop stop-color="#5A81FF" stop-opacity="0.9"/>
<stop offset="0.447036" stop-color="#567DFF" stop-opacity="0.955296"/>
<stop offset="1" stop-color="#4E78FF" stop-opacity="0.9"/>
</linearGradient>
</defs>
</svg>
