<svg width="104" height="98" viewBox="0 0 104 98" fill="none" xmlns="http://www.w3.org/2000/svg">
<g clip-path="url(#clip0_222_9161)">
<path d="M60.8161 20.2484C62.5486 29.1042 56.8021 37.6971 47.9783 39.4359C39.1544 41.1747 30.5925 35.4074 28.86 26.5516C27.1274 17.6958 32.874 9.10283 41.6978 7.36402C50.5217 5.62522 59.0836 11.3926 60.8161 20.2484Z" fill="#007FFF"/>
<path d="M81.9538 82.2797C81.43 62.152 65.0213 45.9922 44.8353 45.9922C24.6493 45.9922 8.24059 62.152 7.7168 82.2797H81.9538Z" fill="#007FFF"/>
<mask id="mask0_222_9161" style="mask-type:luminance" maskUnits="userSpaceOnUse" x="24" y="20" width="80" height="78">
<path d="M24.7402 85.6556L24.7402 33.1173C24.7402 26.4148 30.1594 20.976 36.8377 20.976H91.1959C97.8742 20.976 103.293 26.4148 103.293 33.1173V85.6556C103.293 92.358 97.8692 97.7969 91.1959 97.7969H36.8428C30.1645 97.7969 24.7453 92.358 24.7453 85.6556H24.7402Z" fill="white"/>
</mask>
<g mask="url(#mask0_222_9161)">
<path opacity="0.05" d="M44.6893 0.389457C55.6738 0.298473 65.2329 8.12816 67.3533 18.9603C69.7858 31.3695 61.7376 43.4502 49.4085 45.9573C47.9529 46.2556 46.4672 46.4072 44.9865 46.4173C34.002 46.5083 24.4429 38.6786 22.3225 27.8464C19.8899 15.4372 27.9331 3.35149 40.2673 0.849432C41.7229 0.551206 43.2086 0.399566 44.6893 0.389457Z" fill="#F2F8FF"/>
<path opacity="0.11" d="M44.5231 0.772684C55.3867 0.590716 64.8904 8.30415 66.9906 19.0302C69.3728 31.1917 61.5311 43.0298 49.4789 45.552C48.0536 45.8503 46.6031 46.012 45.1526 46.0322C34.2891 46.2142 24.7853 38.5008 22.6851 27.7747C20.3029 15.6132 28.1446 3.77516 40.1968 1.25288C41.6221 0.954652 43.0726 0.792903 44.5231 0.772684Z" fill="#E4F2FF"/>
<path opacity="0.16" d="M44.3568 1.16215C55.0996 0.914474 64.5479 8.48637 66.6279 19.1012C68.9598 31.01 61.3195 42.6054 49.5494 45.1429C48.1594 45.4411 46.7391 45.6079 45.3188 45.6382C34.5761 45.9112 25.1278 38.314 23.0477 27.6992C20.7159 15.7904 28.3561 4.19496 40.1262 1.65751C41.5163 1.35929 42.9366 1.19248 44.3568 1.16215Z" fill="#D7EBFF"/>
<path opacity="0.21" d="M44.1909 1.55178C54.8128 1.21817 64.2057 8.67381 66.2656 19.1774C68.5521 30.8386 61.1083 42.1913 49.6252 44.744C48.2654 45.0472 46.8753 45.2191 45.4903 45.2595C34.8685 45.6285 25.4756 38.1375 23.4157 27.6339C21.1291 15.9728 28.573 4.61997 40.056 2.06736C41.4108 1.76408 42.8009 1.59727 44.1909 1.55178Z" fill="#C9E4FF"/>
<path opacity="0.26" d="M44.0247 1.94095C54.5307 1.52141 63.8632 8.85574 65.8979 19.2481C68.1341 30.6616 60.8917 41.7667 49.6907 44.3345C48.3661 44.6378 47.0063 44.8197 45.6515 44.8652C35.1505 45.3252 25.813 37.9504 23.7783 27.558C21.5421 16.1446 28.7845 5.03946 39.9855 2.47169C41.3101 2.16841 42.6699 1.99149 44.0247 1.94095Z" fill="#BCDDFF"/>
<path opacity="0.32" d="M43.8587 2.32577C54.2438 1.82031 63.5209 9.03332 65.5355 19.3196C67.7213 30.4803 60.6854 41.3428 49.7614 43.9308C48.4671 44.2391 47.1425 44.4211 45.8179 44.4817C35.4328 45.0327 26.1557 37.7742 24.1411 27.4879C21.9553 16.3272 28.9912 5.46473 39.9152 2.87673C41.2045 2.5684 42.5341 2.39148 43.8587 2.32577Z" fill="#AED7FF"/>
<path opacity="0.37" d="M43.6917 2.7141C53.956 2.1227 63.1827 9.21441 65.1721 19.3895C67.3075 30.3025 60.4731 40.9224 49.8311 43.5205C48.572 43.8288 47.2777 44.0209 45.9783 44.0866C35.714 44.7285 26.4873 37.5863 24.4979 27.4112C22.3625 16.4982 29.1969 5.87832 39.8389 3.28022C41.098 2.97188 42.3923 2.78486 43.6917 2.7141Z" fill="#A1D0FF"/>
<path opacity="0.42" d="M43.5259 3.10399C53.6743 2.42666 62.8406 9.39705 64.8098 19.466C66.9 30.1263 60.2619 40.5035 49.907 43.1218C48.6832 43.4302 47.419 43.6273 46.1499 43.7082C36.0065 44.4411 26.8352 37.4151 24.8659 27.3462C22.7758 16.6859 29.4138 6.30865 39.7687 3.69033C40.9926 3.38199 42.2567 3.18992 43.5259 3.10399Z" fill="#94C9FF"/>
<path opacity="0.47" d="M43.3597 3.48832C53.3873 2.72001 62.4982 9.5792 64.4473 19.5319C66.487 29.9445 60.0505 40.0791 49.9776 42.7126C48.784 43.026 47.5551 43.2282 46.3161 43.3141C36.2936 44.138 27.1777 37.2232 25.2286 27.2706C23.1888 16.8579 29.6254 6.72331 39.6983 4.08983C40.8919 3.77644 42.1208 3.57931 43.3597 3.48832Z" fill="#86C2FF"/>
<path opacity="0.53" d="M43.1938 3.87641C53.1005 3.01712 62.156 9.76005 64.0849 19.6066C66.0743 29.7664 59.8443 39.6584 50.0484 42.3071C48.89 42.6205 47.6914 42.8328 46.4826 42.9288C36.581 43.8437 27.5205 37.0452 25.5915 27.1987C23.6021 17.0388 29.8322 7.14679 39.628 4.49814C40.7864 4.18475 41.9851 3.98256 43.1938 3.87641Z" fill="#79BCFF"/>
<path opacity="0.58" d="M43.0276 4.2663C52.8184 3.31602 61.8135 9.9427 63.7223 19.678C65.6613 29.5902 59.6327 39.2345 50.1239 41.9034C48.9958 42.2218 47.8323 42.4341 46.6538 42.5403C36.8731 43.5462 27.8679 36.8639 25.9591 27.1286C24.0201 17.2164 30.0487 7.57206 39.5575 4.90319C40.6856 4.58475 41.8491 4.3775 43.0276 4.2663Z" fill="#6BB5FF"/>
<path opacity="0.63" d="M42.861 4.65605C52.531 3.61479 61.4706 10.1252 63.3593 19.7544C65.253 29.4138 59.4208 38.8206 50.1941 41.4996C49.1012 41.818 47.968 42.0404 46.8197 42.1567C37.1547 43.2586 28.21 36.6875 26.3214 27.0584C24.4277 17.3989 30.2599 7.99214 39.4866 5.31316C40.5795 4.99472 41.7127 4.78242 42.861 4.65605Z" fill="#5EAEFF"/>
<path opacity="0.68" d="M42.6951 5.03889C52.2442 3.90158 61.1335 10.3008 62.997 19.8187C64.8403 29.2306 59.2096 38.3896 50.2649 41.0888C49.2022 41.4073 48.1042 41.6347 46.9811 41.7661C37.4371 42.959 28.5428 36.5042 26.6793 26.9863C24.8359 17.5745 30.4667 8.41541 39.4114 5.71621C40.4741 5.39777 41.572 5.17536 42.6951 5.03889Z" fill="#51A7FF"/>
<path opacity="0.74" d="M42.5235 5.42949C51.9517 4.19615 60.7856 10.4892 62.6289 19.8909C64.4219 29.05 58.9976 37.9715 50.3299 40.6808C49.3025 41.0043 48.2348 41.2368 47.1419 41.3733C37.7187 42.6572 28.8798 36.3135 27.0364 26.9119C25.2435 17.7477 30.6677 8.83129 39.3354 6.12198C40.3628 5.79848 41.4306 5.57102 42.5235 5.42949Z" fill="#43A1FF"/>
<path opacity="0.79" d="M42.3578 5.8183C51.6702 4.48893 60.4437 10.6708 62.2618 19.9663C64.0094 28.8777 58.7816 37.5515 50.401 40.2811C49.4038 40.6046 48.3713 40.8472 47.3087 40.9938C38.0064 42.3686 29.2228 36.1413 27.4047 26.8457C25.657 17.9344 30.8849 9.26054 39.2655 6.53101C40.2627 6.20751 41.2952 5.96994 42.3578 5.8183Z" fill="#369AFF"/>
<path opacity="0.84" d="M42.1909 6.20648C51.3824 4.776 60.1005 10.8517 61.8985 20.0361C63.5957 28.6998 58.5694 37.1259 50.4708 39.8757C49.5089 40.2042 48.5066 40.4468 47.4741 40.6035C38.2927 42.0694 29.5646 35.9583 27.7666 26.7739C26.0693 18.1102 31.0957 9.68409 39.1942 6.93435C40.1562 6.6058 41.1635 6.36823 42.1909 6.20648Z" fill="#2893FF"/>
<path opacity="0.89" d="M42.025 6.59099C51.0956 5.05943 59.7583 11.029 61.5361 20.1072C63.183 28.5182 58.3581 36.7067 50.5416 39.4666C49.6099 39.7951 48.6378 40.0479 47.6406 40.2147C38.5751 41.7715 29.9074 35.7767 28.1295 26.6985C26.4826 18.2875 31.3075 10.0989 39.124 7.33908C40.0558 7.01053 41.0278 6.76285 42.025 6.59099Z" fill="#1B8CFF"/>
<path opacity="0.95" d="M41.8591 6.97983C50.8038 5.332 59.4161 11.2106 61.1739 20.1776C62.7704 28.3409 58.152 36.2818 50.6125 39.0618C49.716 39.3954 48.7742 39.6482 47.8072 39.8251C38.8625 41.4729 30.2502 35.5943 28.4925 26.6273C26.8959 18.464 31.5194 10.5232 39.0539 7.74308C39.9503 7.40947 40.8922 7.15674 41.8591 6.97983Z" fill="#0D86FF"/>
<path d="M60.8161 20.2484C62.5486 29.1042 56.8021 37.6971 47.9783 39.4359C39.1544 41.1747 30.5925 35.4074 28.86 26.5516C27.1274 17.6958 32.874 9.10283 41.6978 7.36402C50.5217 5.62522 59.0836 11.3926 60.8161 20.2484Z" fill="#007FFF"/>
<path opacity="0.05" d="M14.2496 52.049C22.459 44.002 33.3176 39.5488 44.8359 39.5488C56.3542 39.5488 67.2127 44.002 75.4221 52.049C79.5167 56.0624 82.74 60.7582 84.9762 65.8938C87.1822 70.9586 88.4262 76.453 88.5924 82.1243C88.6024 82.2002 88.7888 89.1352 88.7888 89.211H0.87793C0.87793 89.1352 1.06428 82.1951 1.07435 82.1243C1.24055 76.4479 2.48455 70.9586 4.69051 65.8938C6.92668 60.7633 10.15 56.0624 14.2496 52.049Z" fill="#F2F8FF"/>
<path opacity="0.11" d="M14.5116 52.3159C22.6353 44.3548 33.4032 39.9219 44.841 39.9219C56.2787 39.9219 67.0415 44.3498 75.1703 52.3159C79.2247 56.2889 82.4228 60.9443 84.6388 66.0293C86.7995 70.9828 88.0233 76.356 88.2097 81.906C88.2298 82.0576 88.4111 88.6894 88.4162 88.841H1.26074C1.26074 88.6843 1.44709 82.0526 1.46724 81.906C1.65358 76.356 2.87744 70.9879 5.03806 66.0293C7.25913 60.9392 10.4522 56.2889 14.5066 52.3109L14.5116 52.3159Z" fill="#E4F2FF"/>
<path opacity="0.16" d="M14.7686 52.5848C22.8118 44.7045 33.479 40.2969 44.8361 40.2969C56.1933 40.2969 66.8655 44.7045 74.9036 52.5848C78.9176 56.5173 82.0855 61.1272 84.2865 66.1717C86.4018 71.0192 87.6105 76.2659 87.812 81.6896C87.8422 81.912 88.0235 88.2404 88.0285 88.473H1.63867C1.64371 88.2404 1.82502 81.9171 1.85524 81.6896C2.06173 76.2609 3.27047 71.0141 5.38074 66.1717C7.58166 61.1272 10.7496 56.5173 14.7636 52.5848H14.7686Z" fill="#D7EBFF"/>
<path opacity="0.21" d="M15.0255 52.8458C22.9831 45.0465 33.5546 40.6641 44.8362 40.6641C56.1178 40.6641 66.6892 45.0465 74.6468 52.8458C78.6205 56.7379 81.7582 61.3023 83.944 66.3064C86.009 71.0426 87.2076 76.1681 87.4292 81.4704C87.4695 81.7687 87.6458 87.7888 87.6559 88.1022H2.02148C2.03156 87.7938 2.2028 81.7737 2.24812 81.4704C2.46973 76.1681 3.66336 71.0426 5.73333 66.3064C7.91914 61.3023 11.0619 56.7379 15.0306 52.8458H15.0255Z" fill="#C9E4FF"/>
<path opacity="0.26" d="M15.2867 53.1147C23.1586 45.4012 33.6394 41.0391 44.8404 41.0391C56.0414 41.0391 66.5172 45.4012 74.3942 53.1147C78.3226 56.9663 81.4401 61.4852 83.6058 66.4438C85.6254 71.0689 86.8039 76.073 87.0457 81.254C87.1011 81.6281 87.2723 87.3449 87.2824 87.7291H2.39844C2.40851 87.3449 2.57975 81.6281 2.63515 81.254C2.8769 76.073 4.05542 71.0689 6.07503 66.4438C8.24069 61.4852 11.3582 56.9663 15.2867 53.1147Z" fill="#BCDDFF"/>
<path opacity="0.32" d="M15.5436 53.3777C23.3299 45.7451 33.715 41.4082 44.8354 41.4082C55.9559 41.4082 66.341 45.7451 74.1273 53.3777C78.0154 57.1889 81.1028 61.6673 83.2533 66.5805C85.2276 71.0943 86.391 75.9771 86.6479 81.0318C86.7133 81.4817 86.8795 86.8902 86.8896 87.3552H2.78125C2.79132 86.8902 2.96256 81.4817 3.023 81.0318C3.27986 75.9771 4.44327 71.0943 6.41755 66.5805C8.56811 61.6673 11.6554 57.1889 15.5436 53.3777Z" fill="#AED7FF"/>
<path opacity="0.37" d="M15.8006 53.6446C23.5063 46.0979 33.7958 41.7812 44.8356 41.7812C55.8755 41.7812 66.1649 46.0979 73.8706 53.6446C77.7185 57.4153 80.7756 61.8483 82.911 66.716C84.8349 71.1186 85.9832 75.8801 86.2603 80.8134C86.3358 81.3341 86.497 86.4443 86.5121 86.9852H3.15918C3.17429 86.4443 3.33545 81.3391 3.411 80.8134C3.688 75.8801 4.83631 71.1186 6.76023 66.716C8.89567 61.8432 11.9528 57.4103 15.8006 53.6446Z" fill="#A1D0FF"/>
<path opacity="0.42" d="M16.0627 53.9076C23.6828 46.4418 33.8766 42.1504 44.8358 42.1504C55.7951 42.1504 65.9939 46.4418 73.614 53.9076C77.4165 57.6379 80.4484 62.0254 82.5687 66.8526C84.4473 71.144 85.5805 75.7842 85.8777 80.5962C85.9633 81.1927 86.1245 85.9946 86.1396 86.6113H3.53711C3.55222 85.9946 3.71338 81.1927 3.799 80.5962C4.09112 75.7842 5.22431 71.149 7.10794 66.8526C9.22324 62.0254 12.2552 57.6379 16.0627 53.9076Z" fill="#94C9FF"/>
<path opacity="0.47" d="M16.3196 54.1764C23.8541 46.7915 33.9521 42.5254 44.8359 42.5254C55.7196 42.5254 65.8176 46.7966 73.3521 54.1764C77.1143 57.8613 80.1211 62.2083 82.2213 66.9951C84.0545 71.1803 85.1726 75.6942 85.4849 80.3798C85.5806 81.0521 85.7367 85.5508 85.7569 86.2433H3.91992C3.94007 85.5508 4.0962 81.0521 4.19189 80.3798C4.50415 75.6942 5.62223 71.1753 7.45549 66.9951C9.55569 62.2133 12.5574 57.8663 16.3246 54.1764H16.3196Z" fill="#86C2FF"/>
<path opacity="0.53" d="M16.5767 54.4433C24.0255 47.1444 34.0329 42.8984 44.8361 42.8984C55.6392 42.8984 65.6416 47.1444 73.0955 54.4433C76.8174 58.0877 79.7939 62.3893 81.874 67.1305C83.6619 71.2046 84.7598 75.5971 85.0922 80.1615C85.198 80.9096 85.3541 85.0999 85.3743 85.8733H4.29785C4.318 85.0999 4.46909 80.9096 4.57989 80.1615C4.9123 75.5971 6.01024 71.2046 7.79817 67.1305C9.87821 62.3893 12.8598 58.0877 16.5767 54.4433Z" fill="#79BCFF"/>
<path opacity="0.58" d="M16.8386 54.7075C24.2069 47.4894 34.1136 43.2637 44.8361 43.2637C55.5587 43.2637 65.4704 47.4894 72.8387 54.7075C76.5203 58.3114 79.4666 62.5725 81.5315 67.2683C83.2691 71.2312 84.357 75.5024 84.7045 79.9454C84.8203 80.7693 84.9714 84.6513 84.9915 85.5005H4.68066C4.70081 84.6513 4.8519 80.7643 4.96774 79.9454C5.31525 75.5074 6.40312 71.2312 8.14069 67.2683C10.2056 62.5725 13.157 58.3165 16.8336 54.7075H16.8386Z" fill="#6BB5FF"/>
<path opacity="0.63" d="M17.0947 54.9743C24.3774 47.8372 34.1883 43.6367 44.8353 43.6367C55.4823 43.6367 65.2933 47.8372 72.576 54.9743C76.2123 58.5379 79.1384 62.7535 81.1832 67.4038C82.8755 71.2555 83.9482 75.4053 84.3109 79.722C84.4368 80.6167 84.5828 84.2005 84.608 85.1255H5.05762C5.0828 84.2005 5.22886 80.6167 5.35477 79.722C5.72243 75.4053 6.79015 71.2555 8.48239 67.4038C10.5322 62.7535 13.4533 58.5379 17.0896 54.9743H17.0947Z" fill="#5EAEFF"/>
<path opacity="0.68" d="M17.3516 55.2373C24.5486 48.1861 34.2689 44.0059 44.8354 44.0059C55.4018 44.0059 65.1221 48.181 72.3192 55.2373C75.9152 58.7605 78.8111 62.9306 80.8408 67.5404C82.4877 71.2809 83.5403 75.3094 83.9281 79.5048C84.0641 80.4753 84.2102 83.7508 84.2354 84.7566H5.44043C5.46561 83.7508 5.61167 80.4753 5.74765 79.5048C6.13042 75.3145 7.18807 71.2809 8.83498 67.5404C10.8647 62.9306 13.7606 58.7605 17.3566 55.2373H17.3516Z" fill="#51A7FF"/>
<path opacity="0.74" d="M17.6137 55.5062C24.7251 48.5358 34.3497 44.3809 44.8356 44.3809C55.3214 44.3809 64.946 48.5358 72.0575 55.5062C75.6132 58.9889 78.4789 63.1135 80.4935 67.6778C82.0951 71.3071 83.1326 75.2194 83.5355 79.2884C83.6866 80.3347 83.8226 83.3069 83.8528 84.3886H5.81836C5.84858 83.3069 5.98456 80.3347 6.13565 79.2884C6.53857 75.2194 7.57607 71.3122 9.17766 67.6778C11.1922 63.1135 14.058 58.9889 17.6137 55.5062Z" fill="#43A1FF"/>
<path opacity="0.79" d="M17.8706 55.7731C24.9014 48.8836 34.4304 44.7539 44.8356 44.7539C55.2409 44.7539 64.7748 48.8836 71.8007 55.7731C75.311 59.2153 78.1516 63.2995 80.151 67.8184C81.7023 71.3415 82.7297 75.1274 83.1477 79.0701C83.3089 80.1922 83.4449 82.856 83.4751 84.0136H6.20117C6.23139 82.856 6.36737 80.1872 6.52854 79.0701C6.94656 75.1224 7.97399 71.3364 9.52521 67.8184C11.5196 63.2995 14.3602 59.2153 17.8756 55.7731H17.8706Z" fill="#369AFF"/>
<path opacity="0.84" d="M18.1276 56.0361C25.0729 49.2325 34.5061 45.123 44.8358 45.123C55.1655 45.123 64.5988 49.2325 71.544 56.0361C75.0141 59.4379 77.8295 63.4766 79.8088 67.955C81.3147 71.3669 82.322 75.0315 82.7601 78.8529C82.9314 80.0508 83.0623 82.4114 83.0976 83.6447H6.5791C6.60932 82.4114 6.7453 80.0508 6.91654 78.8529C7.35471 75.0315 8.362 71.3669 9.86789 67.955C11.8472 63.4766 14.6626 59.4379 18.1327 56.0361H18.1276Z" fill="#2893FF"/>
<path opacity="0.89" d="M18.3897 56.3049C25.2493 49.5822 34.5869 45.498 44.836 45.498C55.0851 45.498 64.4227 49.5822 71.2823 56.3049C74.7121 59.6663 77.4972 63.6595 79.4615 68.0924C80.922 71.3931 81.9142 74.9365 82.3675 78.6314C82.5488 79.9002 82.6797 81.9574 82.71 83.2716H6.95703C6.99229 81.9574 7.1182 79.9052 7.29951 78.6314C7.75279 74.9314 8.75 71.3881 10.2055 68.0924C12.1697 63.6595 14.9549 59.6663 18.3847 56.3049H18.3897Z" fill="#1B8CFF"/>
<path opacity="0.95" d="M18.6466 56.5679C25.4206 49.9311 34.6675 45.8672 44.8361 45.8672C55.0046 45.8672 64.2515 49.9311 71.0255 56.5679C74.415 59.8889 77.1699 63.8365 79.114 68.2291C80.5242 71.4186 81.5063 74.8406 81.9797 78.4142C82.1711 79.7588 82.297 81.5127 82.3323 82.8977H7.33984C7.3751 81.5077 7.50101 79.7588 7.69239 78.4142C8.16582 74.8406 9.14288 71.4186 10.5581 68.2291C12.5022 63.8416 15.2621 59.8889 18.6466 56.5679Z" fill="#0D86FF"/>
<path d="M81.9538 82.5277C81.8228 77.4933 80.6997 72.7116 78.7707 68.3645C76.8418 64.0175 74.112 60.1103 70.7678 56.8348C64.0744 50.2789 54.9283 46.2402 44.8353 46.2402C34.7423 46.2402 25.5961 50.2789 18.9027 56.8348C15.5585 60.1153 12.8237 64.0226 10.8998 68.3645C8.97087 72.7116 7.84774 77.4933 7.7168 82.5277H81.9538Z" fill="#007FFF"/>
</g>
<g opacity="0.8">
<g opacity="0.8">
<path d="M24.7402 85.6556L24.7402 33.1173C24.7402 26.4148 30.1594 20.976 36.8377 20.976H91.1959C97.8742 20.976 103.293 26.4148 103.293 33.1173V85.6556C103.293 92.358 97.8692 97.7969 91.1959 97.7969H36.8428C30.1645 97.7969 24.7453 92.358 24.7453 85.6556H24.7402Z" fill="url(#paint0_linear_222_9161)" fill-opacity="0.4"/>
<path d="M24.7402 85.6556L24.7402 33.1173C24.7402 26.4148 30.1594 20.976 36.8377 20.976H91.1959C97.8742 20.976 103.293 26.4148 103.293 33.1173V85.6556C103.293 92.358 97.8692 97.7969 91.1959 97.7969H36.8428C30.1645 97.7969 24.7453 92.358 24.7453 85.6556H24.7402Z" fill="url(#paint1_linear_222_9161)" fill-opacity="0.3"/>
</g>
</g>
<path d="M72.9537 53.3022C73.7141 48.3497 70.3302 43.7162 65.3956 42.9531C60.461 42.1899 55.8442 45.5861 55.0838 50.5386C54.3235 55.4911 57.7073 60.1245 62.642 60.8877C67.5766 61.6508 72.1933 58.2547 72.9537 53.3022Z" fill="white"/>
<path d="M68.1537 58.7095L70.0071 73.6916C70.1531 74.8744 69.2315 75.9207 68.0479 75.9207H60.0047C58.8161 75.9207 57.8945 74.8744 58.0456 73.6916L59.8939 58.7095C60.0148 57.7137 60.8559 56.9707 61.8581 56.9707H66.1995C67.1967 56.9707 68.0378 57.7188 68.1587 58.7095H68.1537Z" fill="white"/>
<path d="M91.2012 97.9991H36.8431C30.059 97.9991 24.5391 92.4592 24.5391 85.6505V33.1122C24.5391 26.3036 30.059 20.7637 36.8431 20.7637H91.2012C97.9853 20.7637 103.505 26.3036 103.505 33.1122V85.6505C103.505 92.4592 97.9853 97.9991 91.2012 97.9991ZM36.8431 21.1731C30.2806 21.1731 24.947 26.5311 24.947 33.1122V85.6505C24.947 92.2367 30.2856 97.5896 36.8431 97.5896H91.2012C97.7587 97.5896 103.097 92.2317 103.097 85.6505V33.1122C103.097 26.5311 97.7587 21.1731 91.2012 21.1731H36.8431Z" fill="url(#paint2_linear_222_9161)"/>
</g>
<defs>
<linearGradient id="paint0_linear_222_9161" x1="87.6743" y1="90.0484" x2="41.7032" y2="27.7349" gradientUnits="userSpaceOnUse">
<stop stop-color="#F2F8FF"/>
<stop offset="1" stop-color="#D9F0FF"/>
</linearGradient>
<linearGradient id="paint1_linear_222_9161" x1="32.6112" y1="88.0108" x2="73.411" y2="9.52299" gradientUnits="userSpaceOnUse">
<stop stop-color="#5A81FF" stop-opacity="0.9"/>
<stop offset="0.447036" stop-color="#567DFF" stop-opacity="0.955296"/>
<stop offset="1" stop-color="#4E78FF" stop-opacity="0.9"/>
</linearGradient>
<linearGradient id="paint2_linear_222_9161" x1="64.0196" y1="97.9991" x2="64.0196" y2="20.7637" gradientUnits="userSpaceOnUse">
<stop stop-color="#E6F1FF"/>
<stop offset="1" stop-color="#F7FBFF"/>
</linearGradient>
<clipPath id="clip0_222_9161">
<rect width="103" height="98" fill="white" transform="translate(0.5)"/>
</clipPath>
</defs>
</svg>
