<svg width="86" height="98" viewBox="0 0 86 98" fill="none" xmlns="http://www.w3.org/2000/svg">
<g clip-path="url(#clip0_222_8609)">
<path d="M58.1106 5.83789H17.4133C11.3629 5.83789 6.45605 10.6478 6.45605 16.5785V73.3099C6.45605 79.2406 11.3629 84.0505 17.4133 84.0505H60.6408C66.6912 84.0505 71.5981 79.2406 71.5981 73.3099V19.0588C71.5981 18.0299 71.18 17.0428 70.4418 16.3192L60.9096 6.97553C60.1672 6.24778 59.1602 5.84207 58.1149 5.84207L58.1106 5.83789Z" fill="#007FFF"/>
<mask id="mask0_222_8609" style="mask-type:luminance" maskUnits="userSpaceOnUse" x="20" y="19" width="66" height="79">
<path d="M85.3296 32.9153V87.0911C85.3296 93.0219 80.4227 97.8318 74.3723 97.8318H31.1448C25.0944 97.8318 20.1875 93.0219 20.1875 87.0911V30.3598C20.1875 24.429 25.0944 19.6191 31.1448 19.6191H71.7695C77.0647 24.8096 80.0344 27.7206 85.3296 32.9111V32.9153Z" fill="white"/>
</mask>
<g mask="url(#mask0_222_8609)">
<path opacity="0.01" d="M58.1112 0.0664062C60.7395 0.0664062 63.2143 1.0702 65.0704 2.89377L74.6025 12.2375C76.4629 14.061 77.4869 16.4827 77.4869 19.0591V73.3102C77.4869 82.4155 69.9303 89.8227 60.6414 89.8227H17.4139C8.12496 89.8227 0.568359 82.4155 0.568359 73.3102V16.5789C0.568359 7.4736 8.12496 0.0664062 17.4139 0.0664062H58.1112Z" fill="#FCFDFF"/>
<path opacity="0.02" d="M58.1109 0.0917969C60.7351 0.0917969 63.2013 1.09141 65.0531 2.9108L74.5853 12.2545C76.4413 14.0739 77.4611 16.4914 77.4611 19.0594V73.3105C77.4611 82.4033 69.9173 89.7979 60.6412 89.7979H17.4137C8.13755 89.7979 0.59375 82.4033 0.59375 73.3105V16.5792C0.59375 7.48644 8.13755 0.0917969 17.4137 0.0917969H58.1109Z" fill="#FBFDFF"/>
<path opacity="0.02" d="M58.1111 0.113281C60.7267 0.113281 63.1886 1.1129 65.0362 2.92392L74.5683 12.2676C76.4202 14.0828 77.4357 16.4919 77.4357 19.0558V73.3069C77.4357 82.3871 69.9004 89.7734 60.6371 89.7734H17.4138C8.1505 89.7776 0.615234 82.3913 0.615234 73.3111V16.5798C0.615234 7.49956 8.1505 0.113281 17.4138 0.113281H58.1111Z" fill="#FAFCFF"/>
<path opacity="0.02" d="M58.1109 0.138672C60.7222 0.138672 63.1756 1.13411 65.0232 2.94512L74.5553 12.2888C76.4029 14.0998 77.4184 16.5048 77.4184 19.0645V73.3156C77.4184 82.3832 69.8959 89.757 60.6454 89.757H17.4136C8.16309 89.7528 0.640625 82.379 0.640625 73.3114V16.5801C0.640625 7.51241 8.16309 0.138672 17.4136 0.138672H58.1109Z" fill="#F9FCFF"/>
<path opacity="0.03" d="M58.111 0.158203C60.7138 0.158203 63.163 1.15364 65.0063 2.95629L74.5384 12.3C76.3817 14.1068 77.3929 16.5034 77.3929 19.0589V73.31C77.3929 82.3651 69.879 89.7305 60.6413 89.7305H17.4138C8.17604 89.7305 0.662109 82.3651 0.662109 73.31V16.5787C0.662109 7.52357 8.17604 0.158203 17.4138 0.158203H58.111Z" fill="#F8FBFF"/>
<path opacity="0.03" d="M58.1108 0.183594C60.7093 0.183594 63.15 1.17484 64.989 2.9775L74.5211 12.3212C76.3559 14.1238 77.3714 16.5162 77.3714 19.0634V73.3145C77.3714 82.357 69.8703 89.7099 60.6453 89.7099H17.4136C8.18863 89.7057 0.6875 82.3529 0.6875 73.3103V16.579C0.6875 7.53642 8.18863 0.183594 17.4136 0.183594H58.1108Z" fill="#F7FBFF"/>
<path opacity="0.04" d="M58.111 0.205078C60.701 0.205078 63.1416 1.19633 64.9721 2.99062L74.5042 12.3343C76.3347 14.1328 77.3459 16.521 77.3459 19.0598V73.3109C77.3459 82.3409 69.8533 89.6853 60.6412 89.6853H17.4137C8.20158 89.6853 0.708984 82.3409 0.708984 73.3109V16.5795C0.708984 7.54954 8.20158 0.205078 17.4137 0.205078H58.111Z" fill="#F6FAFF"/>
<path opacity="0.04" d="M58.1108 0.230469C60.6965 0.230469 63.1286 1.21754 64.9548 3.00764L74.4869 12.3513C76.3132 14.1414 77.3201 16.5255 77.3201 19.0601V73.3112C77.3201 82.3286 69.8361 89.6605 60.641 89.6605H17.4135C8.21417 89.6605 0.734375 82.3244 0.734375 73.3112V16.5798C0.734375 7.56238 8.21417 0.230469 17.4135 0.230469H58.1108Z" fill="#F5FAFF"/>
<path opacity="0.04" d="M58.1109 0.25C60.6881 0.25 63.1159 1.23289 64.9379 3.02299L74.47 12.3667C76.292 14.1526 77.299 16.5324 77.299 19.0587V73.3098C77.299 82.3147 69.8277 89.6383 60.6412 89.6383H17.4137C8.22712 89.6383 0.755859 82.3147 0.755859 73.3098V16.5785C0.755859 7.57355 8.22712 0.25 17.4137 0.25H58.1109Z" fill="#F4F9FF"/>
<path opacity="0.05" d="M58.1107 0.275391C60.6836 0.275391 63.1029 1.25828 64.9206 3.04002L74.4528 12.3837C76.2704 14.1655 77.2731 16.5369 77.2731 19.059V73.3101C77.2731 82.3025 69.8104 89.6134 60.6409 89.6134H17.4134C8.23971 89.6134 0.78125 82.2983 0.78125 73.3101V16.5788C0.78125 7.58639 8.23971 0.275391 17.4134 0.275391H58.1107Z" fill="#F3F9FF"/>
<path opacity="0.05" d="M58.1108 0.296875C60.6752 0.296875 63.0903 1.27558 64.9037 3.05732L74.4358 12.401C76.2492 14.1786 77.252 16.5459 77.252 19.0595V73.3107C77.252 82.2905 69.802 89.5931 60.6411 89.5931H17.4136C8.25266 89.5931 0.802734 82.2905 0.802734 73.3107V16.5793C0.802734 7.59951 8.25266 0.296875 17.4136 0.296875H58.1108Z" fill="#F2F8FF"/>
<path opacity="0.05" d="M58.1106 0.322266C60.6707 0.322266 63.0773 1.30097 64.8907 3.07435L74.4228 12.418C76.232 14.1914 77.2304 16.5545 77.2304 19.064V73.3151C77.2304 82.2824 69.789 89.5725 60.6451 89.5725H17.4134C8.26525 89.5725 0.828125 82.2782 0.828125 73.3151V16.5796C0.828125 7.61235 8.26525 0.322266 17.4134 0.322266H58.1106Z" fill="#F1F8FF"/>
<path opacity="0.06" d="M58.1108 0.34375C60.6624 0.34375 63.0689 1.31827 64.8737 3.08747L74.4059 12.4312C76.2108 14.2004 77.205 16.5551 77.205 19.0604V73.3115C77.205 82.2662 69.7764 89.548 60.641 89.548H17.4135C8.2782 89.548 0.849609 82.2662 0.849609 73.3115V16.5802C0.849609 7.62547 8.2782 0.34375 17.4135 0.34375H58.1108Z" fill="#F0F7FF"/>
<path opacity="0.06" d="M58.1106 0.367188C60.6579 0.367188 63.0559 1.34171 64.8565 3.10672L74.3886 12.4504C76.1892 14.2154 77.1834 16.566 77.1834 19.0629V73.314C77.1834 82.2562 69.7634 89.5254 60.6451 89.5254H17.4133C8.29079 89.5254 0.875 82.252 0.875 73.314V16.5785C0.875 7.63636 8.29079 0.367188 17.4133 0.367188H58.1106Z" fill="#EFF7FF"/>
<path opacity="0.07" d="M58.1107 0.388672C60.6538 0.388672 63.0432 1.35901 64.8396 3.11984L74.3717 12.4635C76.1681 14.2244 77.158 16.5666 77.158 19.0593V73.3104C77.158 82.2401 69.7507 89.5009 60.641 89.5009H17.4135C8.30801 89.5009 0.896484 82.2401 0.896484 73.3104V16.5791C0.896484 7.64948 8.30374 0.388672 17.4135 0.388672H58.1107Z" fill="#EEF6FF"/>
<path opacity="0.07" d="M58.1115 0.414062C60.646 0.414062 63.0312 1.38022 64.8233 3.14105L74.3554 12.4847C76.1475 14.2414 77.1374 16.5794 77.1374 19.0638V73.3149C77.1374 82.232 69.7387 89.4803 60.646 89.4803H17.4142C8.32158 89.4803 0.922852 82.2278 0.922852 73.3149V16.5794C0.922852 7.66232 8.31731 0.414062 17.4142 0.414062H58.1115Z" fill="#EDF6FF"/>
<path opacity="0.07" d="M58.1107 0.435547C60.6409 0.435547 63.0176 1.4017 64.8054 3.15417L74.3375 12.4979C76.1253 14.2503 77.111 16.5842 77.111 19.0602V73.3113C77.111 82.2158 69.7251 89.4557 60.6409 89.4557H17.4134C8.33355 89.4557 0.943359 82.2158 0.943359 73.3113V16.58C0.943359 7.67544 8.32928 0.435547 17.4134 0.435547H58.1107Z" fill="#ECF5FF"/>
<path opacity="0.08" d="M58.1114 0.460938C60.6331 0.460938 63.0055 1.42291 64.7891 3.17119L74.3212 12.5149C76.1048 14.2632 77.0861 16.5886 77.0861 19.0605V73.3116C77.0861 82.2036 69.7087 89.4309 60.6417 89.4309H17.4142C8.34712 89.4309 0.969727 82.1994 0.969727 73.3116V16.5803C0.969727 7.68829 8.34285 0.460938 17.4142 0.460938H58.1114Z" fill="#EBF5FF"/>
<path opacity="0.08" d="M58.1106 0.480469C60.6281 0.480469 62.9962 1.44244 64.7754 3.18654L74.3076 12.5302C76.0869 14.2743 77.0682 16.5956 77.0682 19.0591V73.3102C77.0682 82.1897 69.7037 89.4086 60.6451 89.4086H17.4134C8.35909 89.4086 0.990234 82.1897 0.990234 73.3102V16.5789C0.990234 7.69945 8.35482 0.480469 17.4134 0.480469H58.1106Z" fill="#EAF4FF"/>
<path opacity="0.09" d="M58.1114 0.501953C60.6203 0.501953 62.9841 1.45974 64.7591 3.19966L74.2913 12.5434C76.0663 14.2833 77.0434 16.5962 77.0434 19.0597V73.3108C77.0434 82.1735 69.6874 89.3841 60.6459 89.3841H17.4141C8.37266 89.3841 1.0166 82.1735 1.0166 73.3108V16.5795C1.01234 7.71257 8.36839 0.501953 17.4141 0.501953H58.1114Z" fill="#E9F4FF"/>
<path opacity="0.09" d="M58.1115 0.527344C60.6162 0.527344 62.9715 1.48513 64.7422 3.22087L74.2744 12.5646C76.0451 14.3003 77.0222 16.609 77.0222 19.0642V73.3153C77.0222 82.1654 69.679 89.3677 60.646 89.3677H17.4143C8.38561 89.3677 1.03809 82.1696 1.03809 73.3153V16.5798C1.03809 7.72541 8.38134 0.527344 17.4143 0.527344H58.1115Z" fill="#E8F3FF"/>
<path opacity="0.09" d="M58.1113 0.548828C60.6074 0.548828 62.9585 1.50244 64.7249 3.23399L74.2571 12.5777C76.0236 14.3092 76.9964 16.6138 76.9964 19.0605V73.3117C76.9964 82.1493 69.6617 89.3432 60.6416 89.3432H17.4141C8.3982 89.3432 1.06348 82.1535 1.06348 73.3117V16.5803C1.05921 7.73853 8.39393 0.548828 17.4141 0.548828H58.1113Z" fill="#E7F3FF"/>
<path opacity="0.1" d="M58.1115 0.572266C60.6033 0.572266 62.9458 1.52587 64.708 3.24906L74.2402 12.5928C76.0024 14.3201 76.971 16.6163 76.971 19.0589V73.31C76.971 82.1351 69.6448 89.3164 60.6417 89.3164H17.4142C8.41115 89.3164 1.08496 82.1351 1.08496 73.31V16.5787C1.08496 7.74942 8.40688 0.572266 17.4142 0.572266H58.1115Z" fill="#E6F2FF"/>
<path opacity="0.1" d="M58.1106 0.59375C60.5939 0.59375 62.9322 1.54318 64.6901 3.26636L74.2223 12.6101C75.9802 14.3332 76.9488 16.6252 76.9488 19.0595V73.3106C76.9488 82.1231 69.6354 89.2961 60.6409 89.2961H17.4134C8.42312 89.2961 1.10547 82.1273 1.10547 73.3106V16.5792C1.10547 7.76254 8.41886 0.59375 17.4134 0.59375H58.1106Z" fill="#E5F2FF"/>
<path opacity="0.11" d="M58.1114 0.619141C60.5905 0.619141 62.9244 1.56438 64.6738 3.28339L74.206 12.6271C75.9597 14.3461 76.924 16.6297 76.924 19.0598V73.3109C76.924 82.1108 69.6191 89.2713 60.6416 89.2713H17.4142C8.43669 89.2713 1.13184 82.1108 1.13184 73.3109V16.5795C1.13184 7.77539 8.43242 0.619141 17.4142 0.619141H58.1114Z" fill="#E4F1FF"/>
<path opacity="0.11" d="M58.1106 0.640625C60.5811 0.640625 62.9108 1.58587 64.6559 3.30069L74.1881 12.6444C75.9375 14.3592 76.9018 16.6387 76.9018 19.0603V73.3114C76.9018 82.0989 69.6097 89.2509 60.6408 89.2509H17.4133C8.44866 89.2509 1.15234 82.1031 1.15234 73.3114V16.5801C1.15234 7.78851 8.4444 0.640625 17.4133 0.640625H58.1106Z" fill="#E3F1FF"/>
<path opacity="0.11" d="M58.1113 0.664062C60.5776 0.664062 62.8988 1.60512 64.6439 3.31576L74.176 12.6595C75.9212 14.3701 76.8812 16.6454 76.8812 19.0629V73.314C76.8812 82.0888 69.5977 89.2284 60.6459 89.2284H17.4141C8.46223 89.2284 1.17871 82.0888 1.17871 73.314V16.5784C1.17871 7.80358 8.45796 0.664062 17.4141 0.664062H58.1113Z" fill="#E2F0FF"/>
<path opacity="0.12" d="M58.1115 0.685547C60.5692 0.685547 62.8861 1.62661 64.627 3.32888L74.1591 12.6726C75.9 14.379 76.8558 16.6459 76.8558 19.0592V73.3104C76.8558 82.0727 69.5851 89.2038 60.6417 89.2038H17.4142C8.47518 89.2038 1.2002 82.0769 1.2002 73.3104V16.579C1.2002 7.8167 8.47518 0.685547 17.4142 0.685547H58.1115Z" fill="#E1F0FF"/>
<path opacity="0.12" d="M58.1113 0.710938C60.5647 0.710938 62.8731 1.64782 64.6097 3.35009L74.1419 12.6938C75.8785 14.3961 76.8342 16.6588 76.8342 19.0637V73.3148C76.8342 82.0646 69.5721 89.1832 60.6458 89.1832H17.414C8.48777 89.1832 1.22559 82.0646 1.22559 73.3148V16.5793C1.22559 7.82954 8.48777 0.710938 17.414 0.710938H58.1113Z" fill="#E0EFFF"/>
<path opacity="0.13" d="M58.1114 0.732422C60.5606 0.732422 62.8604 1.6693 64.5928 3.36321L74.1249 12.7069C75.8573 14.405 76.8088 16.6594 76.8088 19.0601V73.3112C76.8088 82.0485 69.5594 89.1587 60.6417 89.1587H17.4142C8.50072 89.1587 1.24707 82.0526 1.24707 73.3112V16.5799C1.24707 7.84266 8.50072 0.732422 17.4142 0.732422H58.1114Z" fill="#DFEFFF"/>
<path opacity="0.13" d="M58.1112 0.757812C60.5519 0.757812 62.8517 1.69051 64.5755 3.38442L74.1077 12.7281C75.8357 14.422 76.7872 16.6722 76.7872 19.0646V73.3157C76.7872 82.0404 69.5464 89.1381 60.6457 89.1381H17.414C8.51331 89.1381 1.27246 82.0404 1.27246 73.3157V16.5802C1.27246 7.8555 8.51331 0.757812 17.414 0.757812H58.1112Z" fill="#DEEEFF"/>
<path opacity="0.13" d="M58.1114 0.777344C60.5477 0.777344 62.839 1.70586 64.5586 3.39558L74.0907 12.7393C75.8103 14.429 76.7618 16.675 76.7618 19.059V73.3101C76.7618 82.0223 69.5337 89.1116 60.6416 89.1116H17.4141C8.52626 89.1116 1.29395 82.0265 1.29395 73.3101V16.5788C1.29395 7.86667 8.52626 0.777344 17.4141 0.777344H58.1114Z" fill="#DDEEFF"/>
<path opacity="0.14" d="M58.1112 0.802734C60.539 0.802734 62.826 1.73125 64.5413 3.41261L74.0735 12.7563C75.7887 14.4377 76.736 16.6795 76.736 19.0593V73.3104C76.736 82.01 69.5165 89.0868 60.6414 89.0868H17.4139C8.53885 89.0868 1.31934 82.01 1.31934 73.3104V16.5791C1.31934 7.87951 8.53885 0.802734 17.4139 0.802734H58.1112Z" fill="#DCEDFF"/>
<path opacity="0.14" d="M58.1113 0.824219C60.5349 0.824219 62.8134 1.74855 64.5244 3.42991L74.0565 12.7736C75.7676 14.4508 76.7148 16.6884 76.7148 19.0599V73.311C76.7148 81.998 69.5081 89.0665 60.6416 89.0665H17.4141C8.5518 89.0665 1.34082 82.0022 1.34082 73.311V16.5797C1.34082 7.89263 8.5518 0.824219 17.4141 0.824219H58.1113Z" fill="#DBEDFF"/>
<path opacity="0.15" d="M58.1111 0.849609C60.5261 0.849609 62.8004 1.77394 64.5114 3.44694L74.0435 12.7906C75.7503 14.4636 76.6933 16.6929 76.6933 19.0644V73.3155C76.6933 81.99 69.4951 89.0458 60.6456 89.0458H17.4138C8.56439 89.0458 1.36621 81.99 1.36621 73.3155V16.58C1.36621 7.90548 8.56439 0.849609 17.4138 0.849609H58.1111Z" fill="#DAECFF"/>
<path opacity="0.15" d="M58.1113 0.869141C60.522 0.869141 62.7877 1.78929 64.4945 3.46229L74.0266 12.806C75.7291 14.4748 76.6721 16.6999 76.6721 19.063V73.3141C76.6721 81.976 69.4824 89.0236 60.6458 89.0236H17.414C8.57734 89.0236 1.3877 81.976 1.3877 73.3141V16.5786C1.3877 7.91664 8.57734 0.869141 17.414 0.869141H58.1113Z" fill="#D9ECFF"/>
<path opacity="0.15" d="M58.111 0.894531C60.5133 0.894531 62.779 1.81468 64.4772 3.47931L74.0093 12.823C75.7076 14.4876 76.6463 16.7085 76.6463 19.0633V73.3144C76.6463 81.9638 69.4694 88.9987 60.6456 88.9987H17.4138C8.58993 88.9987 1.41309 81.9638 1.41309 73.3144V16.5789C1.41309 7.92948 8.58993 0.894531 17.4138 0.894531H58.111Z" fill="#D8EBFF"/>
<path opacity="0.16" d="M58.1112 0.916016C60.5092 0.916016 62.7663 1.83198 64.4603 3.49243L73.9924 12.8361C75.6864 14.4966 76.6208 16.7091 76.6208 19.0597V73.3108C76.6208 81.9476 69.4525 88.9742 60.6414 88.9742H17.4139C8.60289 88.9742 1.43457 81.9476 1.43457 73.3108V16.5795C1.43457 7.94261 8.60289 0.916016 17.4139 0.916016H58.1112Z" fill="#D7EBFF"/>
<path opacity="0.16" d="M58.111 0.941406C60.5004 0.941406 62.7533 1.85737 64.443 3.51364L73.9751 12.8573C75.6648 14.5136 76.5993 16.722 76.5993 19.0641V73.3153C76.5993 81.9396 69.4438 88.9536 60.6455 88.9536H17.4137C8.61548 88.9536 1.45996 81.9396 1.45996 73.3153V16.5797C1.4557 7.95545 8.61548 0.941406 17.4137 0.941406H58.111Z" fill="#D6EAFF"/>
<path opacity="0.16" d="M58.1111 0.962891C60.4963 0.962891 62.7407 1.87467 64.4261 3.52676L73.9582 12.8704C75.6436 14.5225 76.5738 16.7225 76.5738 19.0605V73.3117C76.5738 81.9234 69.4268 88.9291 60.6414 88.9291H17.4139C8.62843 88.9291 1.48145 81.9234 1.48145 73.3117V16.5803C1.48145 7.96857 8.62843 0.962891 17.4139 0.962891H58.1111Z" fill="#D5EAFF"/>
<path opacity="0.17" d="M58.1109 0.982422C60.4876 0.982422 62.7277 1.89002 64.4088 3.53793L73.9409 12.8816C75.6221 14.5295 76.5523 16.7253 76.5523 19.055V73.3061C76.5523 81.9053 69.4181 88.8984 60.6454 88.8984H17.4137C8.64102 88.8984 1.50684 81.9053 1.50684 73.3061V16.5789C1.50257 7.97973 8.64102 0.982422 17.4137 0.982422H58.1109Z" fill="#D4E9FF"/>
<path opacity="0.17" d="M58.1111 1.00781C60.4834 1.00781 62.715 1.91541 64.3919 3.55913L73.924 12.9028C75.6009 14.5465 76.5268 16.7382 76.5268 19.0595V73.3106C76.5268 81.8972 69.4012 88.882 60.6413 88.882H17.4138C8.65397 88.882 1.52832 81.8972 1.52832 73.3106V16.5792C1.52832 7.99258 8.65397 1.00781 17.4138 1.00781H58.1111Z" fill="#D3E9FF"/>
<path opacity="0.18" d="M58.1109 1.0293C60.4747 1.0293 62.7063 1.93272 64.3789 3.57225L73.911 12.9159C75.5836 14.5555 76.5053 16.7387 76.5053 19.06V73.3111C76.5053 81.8853 69.3924 88.8617 60.6411 88.8617H17.4136C8.66656 88.8617 1.55371 81.8894 1.55371 73.3111V16.5798C1.54945 8.0057 8.66656 1.0293 17.4136 1.0293H58.1109Z" fill="#D2E8FF"/>
<path opacity="0.18" d="M58.111 1.05469C60.4706 1.05469 62.6936 1.95811 64.3619 3.59346L73.8941 12.9372C75.5624 14.5725 76.4841 16.7516 76.4841 19.0645V73.3156C76.4841 81.8772 69.3798 88.841 60.6455 88.841H17.4138C8.67951 88.841 1.5752 81.8772 1.5752 73.3156V16.5801C1.5752 8.01854 8.67951 1.05469 17.4138 1.05469H58.111Z" fill="#D1E8FF"/>
<path opacity="0.18" d="M58.1112 1.07422C60.4622 1.07422 62.681 1.97345 64.345 3.60463L73.8772 12.9483C75.5413 14.5795 76.4586 16.7502 76.4586 19.0589V73.3101C76.4586 81.8591 69.3671 88.8146 60.6414 88.8146H17.4139C8.69246 88.8146 1.59668 81.8633 1.59668 73.3101V16.5787C1.59668 8.0297 8.69246 1.07422 17.4139 1.07422H58.1112Z" fill="#D0E7FF"/>
<path opacity="0.19" d="M58.111 1.09961C60.4577 1.09961 62.6679 1.99885 64.3278 3.62165L73.8599 12.9653C75.5197 14.5923 76.4328 16.7589 76.4328 19.0592V73.3103C76.4328 81.8468 69.3498 88.7898 60.6412 88.7898H17.4137C8.70505 88.7898 1.62207 81.8468 1.62207 73.3103V16.579C1.62207 8.04255 8.70505 1.09961 17.4137 1.09961H58.111Z" fill="#CFE7FF"/>
<path opacity="0.19" d="M58.1111 1.12109C60.4536 1.12109 62.6553 2.01615 64.3108 3.63895L73.843 12.9826C75.4985 14.6055 76.4116 16.7678 76.4116 19.0598V73.3109C76.4116 81.8349 69.3415 88.7694 60.6413 88.7694H17.4138C8.718 88.7694 1.64355 81.839 1.64355 73.3109V16.5796C1.64355 8.05567 8.718 1.12109 17.4138 1.12109H58.1111Z" fill="#CEE6FF"/>
<path opacity="0.2" d="M58.1109 1.14648C60.4449 1.14648 62.6423 2.03736 64.2936 3.65598L73.8257 12.9997C75.477 14.6183 76.3858 16.7723 76.3858 19.0601V73.3112C76.3858 81.8226 69.3242 88.7446 60.6411 88.7446H17.4136C8.73059 88.7446 1.66895 81.8226 1.66895 73.3112V16.5799C1.66895 8.06851 8.73059 1.14648 17.4136 1.14648H58.1109Z" fill="#CDE6FF"/>
<path opacity="0.2" d="M58.111 1.16602C60.4407 1.16602 62.6339 2.05689 64.2766 3.67133L73.8088 13.015C75.4558 14.6295 76.3646 16.7793 76.3646 19.0587V73.3098C76.3646 81.8087 69.3158 88.7223 60.6413 88.7223H17.4138C8.74354 88.7223 1.69043 81.8129 1.69043 73.3098V16.5785C1.69043 8.07968 8.74354 1.16602 17.4138 1.16602H58.111Z" fill="#CCE5FF"/>
<path opacity="0.2" d="M58.1108 1.19141C60.432 1.19141 62.6209 2.07809 64.2594 3.68835L73.7915 13.032C75.4343 14.6423 76.3388 16.7837 76.3388 19.059V73.3101C76.3388 81.7964 69.2985 88.6975 60.6411 88.6975H17.4136C8.75613 88.6975 1.71582 81.7964 1.71582 73.3101V16.5788C1.71582 8.09252 8.75613 1.19141 17.4136 1.19141H58.1108Z" fill="#CBE5FF"/>
<path opacity="0.21" d="M58.111 1.21289C60.4279 1.21289 62.6082 2.09958 64.2467 3.70147L73.7789 13.0452C75.4173 14.6512 76.3176 16.7885 76.3176 19.0596V73.3107C76.3176 81.7844 69.2859 88.6772 60.6412 88.6772H17.4137C8.76908 88.6772 1.7373 81.7844 1.7373 73.3107V16.5794C1.7373 8.10564 8.76908 1.21289 17.4137 1.21289H58.111Z" fill="#CAE4FF"/>
<path opacity="0.21" d="M58.1108 1.23828C60.4191 1.23828 62.5952 2.12079 64.2294 3.72268L73.7616 13.0664C75.3958 14.6683 76.2961 16.8013 76.2961 19.0641V73.3152C76.2961 81.7764 69.2771 88.6566 60.6453 88.6566H17.4135C8.78167 88.6566 1.7627 81.7764 1.7627 73.3152V16.5797C1.7627 8.11848 8.78167 1.23828 17.4135 1.23828H58.1108Z" fill="#C9E4FF"/>
<path opacity="0.22" d="M58.1109 1.25977C60.415 1.25977 62.5826 2.14227 64.2125 3.7358L73.7447 13.0795C75.3746 14.6772 76.2707 16.8019 76.2707 19.0605V73.3116C76.2707 81.7602 69.2602 88.6321 60.6412 88.6321H17.4137C8.79462 88.6321 1.78418 81.7602 1.78418 73.3116V16.5802C1.78418 8.1316 8.79462 1.25977 17.4137 1.25977H58.1109Z" fill="#C8E3FF"/>
<path opacity="0.22" d="M58.1107 1.2832C60.4063 1.2832 62.5696 2.16153 64.1952 3.75506L73.7274 13.0987C75.3531 14.6923 76.2491 16.8128 76.2491 19.063V73.3141C76.2491 81.7502 69.2515 88.6095 60.6452 88.6095H17.4135C8.80721 88.6095 1.80957 81.7502 1.80957 73.3141V16.5786C1.80957 8.14249 8.80721 1.2832 17.4135 1.2832H58.1107Z" fill="#C7E3FF"/>
<path opacity="0.22" d="M58.1109 1.30469C60.4022 1.30469 62.5612 2.17883 64.1783 3.76818L73.7105 13.1119C75.3319 14.7012 76.2237 16.8134 76.2237 19.0594V73.3105C76.2237 81.734 69.2346 88.585 60.6411 88.585H17.4136C8.82016 88.585 1.83105 81.734 1.83105 73.3105V16.5792C1.83105 8.15561 8.82016 1.30469 17.4136 1.30469H58.1109Z" fill="#C6E2FF"/>
<path opacity="0.23" d="M58.1107 1.33008C60.3934 1.33008 62.5482 2.20422 64.161 3.7852L73.6932 13.1289C75.3103 14.7141 76.1978 16.822 76.1978 19.0597V73.3108C76.1978 81.7218 69.2215 88.5602 60.6409 88.5602H17.4134C8.83275 88.5602 1.85645 81.7218 1.85645 73.3108V16.5794C1.85645 8.16845 8.83275 1.33008 17.4134 1.33008H58.1107Z" fill="#C5E2FF"/>
<path opacity="0.23" d="M58.1108 1.35156C60.3893 1.35156 62.5355 2.22152 64.1441 3.8025L73.6763 13.1462C75.2849 14.7272 76.1767 16.831 76.1767 19.0602V73.3114C76.1767 81.7098 69.2089 88.5398 60.641 88.5398H17.4135C8.8457 88.5398 1.87793 81.7098 1.87793 73.3114V16.58C1.87793 8.18157 8.8457 1.35156 17.4135 1.35156H58.1108Z" fill="#C4E1FF"/>
<path opacity="0.24" d="M58.1106 1.37695C60.3806 1.37695 62.5225 2.24691 64.1269 3.81953L73.659 13.1632C75.2633 14.74 76.1508 16.8354 76.1508 19.0605V73.3117C76.1508 81.6976 69.1959 88.515 60.6408 88.515H17.4133C8.85829 88.515 1.90332 81.6976 1.90332 73.3117V16.5803C1.90332 8.19442 8.85829 1.37695 17.4133 1.37695H58.1106Z" fill="#C3E1FF"/>
<path opacity="0.24" d="M58.1107 1.39648C60.3764 1.39648 62.5099 2.26226 64.1142 3.83488L73.6463 13.1786C75.2464 14.747 76.1339 16.8424 76.1339 19.0633V73.3145C76.1339 81.6878 69.1875 88.4969 60.6453 88.4969H17.4135C8.87124 88.4969 1.9248 81.6878 1.9248 73.3145V16.5789C1.9248 8.20558 8.87124 1.39648 17.4135 1.39648H58.1107Z" fill="#C2E0FF"/>
<path opacity="0.24" d="M58.1115 1.41797C60.3687 1.41797 62.4978 2.28374 64.0979 3.848L73.6301 13.1917C75.2259 14.7559 76.1091 16.843 76.1091 19.0597V73.3108C76.1091 81.6716 69.1755 88.4682 60.646 88.4682H17.4143C8.88481 88.4682 1.95117 81.6716 1.95117 73.3108V16.5795C1.94691 8.2187 8.88481 1.41797 17.4143 1.41797H58.1115Z" fill="#C1E0FF"/>
<path opacity="0.25" d="M58.1107 1.44336C60.3636 1.44336 62.4885 2.30495 64.08 3.86502L73.6122 13.2087C75.2037 14.7688 76.0827 16.8517 76.0827 19.06V73.3111C76.0827 81.6594 69.1576 88.4476 60.6409 88.4476H17.4134C8.89678 88.4476 1.97168 81.6594 1.97168 73.3111V16.5798C1.97168 8.23155 8.89678 1.44336 17.4134 1.44336H58.1107Z" fill="#C0DFFF"/>
<path opacity="0.25" d="M58.1114 1.46484C60.3558 1.46484 62.4764 2.32644 64.0637 3.88232L73.5959 13.226C75.1831 14.7819 76.0621 16.8606 76.0621 19.0606V73.3117C76.0621 81.6474 69.1498 88.4231 60.646 88.4231H17.4142C8.91035 88.4231 1.99805 81.6474 1.99805 73.3117V16.5804C1.99378 8.24467 8.91035 1.46484 17.4142 1.46484H58.1114Z" fill="#BFDFFF"/>
<path opacity="0.25" d="M58.1106 1.48828C60.3507 1.48828 62.4628 2.34569 64.0458 3.8974L73.578 13.2411C75.161 14.7928 76.0357 16.8631 76.0357 19.0589V73.3101C76.0357 81.6332 69.1319 88.4005 60.6409 88.4005H17.4134C8.92232 88.4005 2.01855 81.6332 2.01855 73.3101V16.5787C2.01855 8.25555 8.92232 1.48828 17.4134 1.48828H58.1106Z" fill="#BEDEFF"/>
<path opacity="0.26" d="M58.1114 1.50977C60.3472 1.50977 62.4508 2.36299 64.0295 3.9147L73.5617 13.2584C75.1404 14.8059 76.0151 16.8721 76.0151 19.0595V73.3106C76.0151 81.6212 69.1241 88.3801 60.6416 88.3801H17.4141C8.93589 88.3801 2.04492 81.6254 2.04492 73.3106V16.5793C2.04066 8.26867 8.93589 1.50977 17.4141 1.50977H58.1114Z" fill="#BDDEFF"/>
<path opacity="0.26" d="M58.1115 1.53516C60.3388 1.53516 62.4381 2.38838 64.0126 3.93172L73.5447 13.2754C75.1192 14.8188 75.9896 16.8765 75.9896 19.0598V73.3109C75.9896 81.609 69.1072 88.3554 60.6418 88.3554H17.4143C8.94884 88.3554 2.06641 81.609 2.06641 73.3109V16.5796C2.06641 8.28152 8.94884 1.53516 17.4143 1.53516H58.1115Z" fill="#BCDDFF"/>
<path opacity="0.27" d="M58.1107 1.55664C60.3337 1.55664 62.4245 2.40569 63.999 3.94484L73.5311 13.2885C75.1013 14.8277 75.9675 16.8813 75.9675 19.0604V73.3115C75.9675 81.597 69.0936 88.335 60.6409 88.335H17.4135C8.96081 88.335 2.08691 81.597 2.08691 73.3115V16.5802C2.08691 8.29464 8.96081 1.55664 17.4135 1.55664H58.1107Z" fill="#BBDDFF"/>
<path opacity="0.27" d="M58.1115 1.58008C60.326 1.58008 62.4167 2.42912 63.9827 3.9641L73.5148 13.3078C75.0808 14.8428 75.9469 16.888 75.9469 19.0629V73.314C75.9469 81.587 69.0858 88.3124 60.646 88.3124H17.4142C8.97438 88.3124 2.11328 81.587 2.11328 73.314V16.5785C2.11328 8.30553 8.97438 1.58008 17.4142 1.58008H58.1115Z" fill="#BADCFF"/>
<path opacity="0.27" d="M58.1106 1.60156C60.3209 1.60156 62.4031 2.44643 63.9648 3.97722L73.4969 13.3209C75.0586 14.8517 75.9205 16.8928 75.9205 19.0593V73.3104C75.9205 81.5708 69.0679 88.2879 60.6409 88.2879H17.4134C8.98635 88.2879 2.13379 81.5708 2.13379 73.3104V16.5791C2.13379 8.31865 8.98635 1.60156 17.4134 1.60156H58.1106Z" fill="#B9DCFF"/>
<path opacity="0.28" d="M58.1114 1.62695C60.3131 1.62695 62.3911 2.47182 63.9485 3.99843L73.4806 13.3421C75.038 14.8687 75.8999 16.9056 75.8999 19.0638V73.3149C75.8999 81.5628 69.0602 88.2673 60.6459 88.2673H17.4142C8.99992 88.2673 2.16016 81.5628 2.16016 73.3149V16.5794C2.16016 8.33149 8.99992 1.62695 17.4142 1.62695H58.1114Z" fill="#B8DBFF"/>
<path opacity="0.28" d="M58.1106 1.64844C60.308 1.64844 62.3774 2.48912 63.9306 4.01155L73.4627 13.3552C75.0159 14.8777 75.8735 16.9062 75.8735 19.0602V73.3113C75.8735 81.5466 69.0423 88.2428 60.6408 88.2428H17.4133C9.0119 88.2428 2.18066 81.5466 2.18066 73.3113V16.5799C2.18066 8.34461 9.0119 1.64844 17.4133 1.64844H58.1106Z" fill="#B7DBFF"/>
<path opacity="0.29" d="M58.1114 1.67383C60.3003 1.67383 62.3654 2.51033 63.9143 4.02857L73.4464 13.3723C74.9953 14.8905 75.8487 16.9148 75.8487 19.0605V73.3116C75.8487 81.5344 69.0302 88.218 60.6416 88.218H17.4141C9.02546 88.218 2.20703 81.5344 2.20703 73.3116V16.5802C2.20703 8.35745 9.02546 1.67383 17.4141 1.67383H58.1114Z" fill="#B6DAFF"/>
<path opacity="0.29" d="M58.1115 1.69336C60.2961 1.69336 62.3528 2.52986 63.8974 4.04392L73.4295 13.3876C74.9741 14.9017 75.8275 16.9176 75.8275 19.0591V73.3102C75.8275 81.5204 69.0176 88.1957 60.6417 88.1957H17.4142C9.03841 88.1957 2.22852 81.5204 2.22852 73.3102V16.5789C2.22852 8.36862 9.03841 1.69336 17.4142 1.69336H58.1115Z" fill="#B5DAFF"/>
<path opacity="0.29" d="M58.1113 1.71875C60.2874 1.71875 62.344 2.55107 63.8801 4.06095L73.4122 13.4046C74.9526 14.9145 75.8017 16.9263 75.8017 19.0594V73.3105C75.8017 81.5082 69.0046 88.1709 60.6415 88.1709H17.414C9.051 88.1709 2.25391 81.5082 2.25391 73.3105V16.5791C2.25391 8.38146 9.051 1.71875 17.414 1.71875H58.1113Z" fill="#B4D9FF"/>
<path opacity="0.3" d="M58.1114 1.74023C60.2833 1.74023 62.3314 2.57255 63.8674 4.07825L73.3996 13.4219C74.9356 14.9276 75.7848 16.9352 75.7848 19.0641V73.3152C75.7848 81.5004 68.9962 88.1547 60.646 88.1547H17.4142C9.06396 88.1547 2.27539 81.5004 2.27539 73.3152V16.5797C2.27539 8.39458 9.06396 1.74023 17.4142 1.74023H58.1114Z" fill="#B3D9FF"/>
<path opacity="0.3" d="M58.1112 1.76562C60.2745 1.76562 62.3183 2.59376 63.8502 4.09527L73.3823 13.439C74.9141 14.9405 75.7589 16.9397 75.7589 19.0644V73.3155C75.7589 81.4881 68.9832 88.1299 60.6457 88.1299H17.414C9.07654 88.1299 2.30078 81.4881 2.30078 73.3155V16.58C2.30078 8.40742 9.07654 1.76562 17.414 1.76562H58.1112Z" fill="#B2D8FF"/>
<path opacity="0.31" d="M58.1114 1.78516C60.2704 1.78516 62.3057 2.61329 63.8332 4.10644L73.3654 13.4501C74.8929 14.9475 75.7335 16.9425 75.7335 19.0589V73.31C75.7335 81.47 68.9663 88.1035 60.6416 88.1035H17.4141C9.0895 88.1035 2.32227 81.47 2.32227 73.31V16.5786C2.32227 8.41859 9.0895 1.78516 17.4141 1.78516H58.1114Z" fill="#B1D8FF"/>
<path opacity="0.31" d="M58.1112 1.81055C60.2617 1.81055 62.2927 2.6345 63.816 4.12765L73.3481 13.4713C74.8714 14.9645 75.7119 16.9512 75.7119 19.0633V73.3145C75.7119 81.4619 68.9575 88.0828 60.6457 88.0828H17.4139C9.10209 88.0828 2.34766 81.4619 2.34766 73.3145V16.5789C2.34766 8.43143 9.10209 1.81055 17.4139 1.81055H58.1112Z" fill="#B0D7FF"/>
<path opacity="0.31" d="M58.1113 1.83203C60.2575 1.83203 62.28 2.6518 63.799 4.14077L73.3312 13.4845C74.8502 14.9734 75.6865 16.9559 75.6865 19.0597V73.3108C75.6865 81.4458 68.9406 88.0583 60.6416 88.0583H17.4141C9.11504 88.0583 2.36914 81.4458 2.36914 73.3108V16.5795C2.36914 8.44455 9.11504 1.83203 17.4141 1.83203H58.1113Z" fill="#AFD7FF"/>
<path opacity="0.32" d="M58.1111 1.85742C60.2531 1.85742 62.2713 2.67719 63.7818 4.16198L73.3139 13.5057C74.8286 14.9905 75.6649 16.9688 75.6649 19.0642V73.3153C75.6649 81.4377 68.9276 88.0377 60.6456 88.0377H17.4139C9.12763 88.0377 2.39453 81.4335 2.39453 73.3153V16.5798C2.39453 8.4574 9.12763 1.85742 17.4139 1.85742H58.1111Z" fill="#AED6FF"/>
<path opacity="0.32" d="M58.1113 1.87891C60.2447 1.87891 62.2586 2.69449 63.7648 4.1751L73.297 13.5188C74.8075 14.9994 75.6395 16.9693 75.6395 19.0606V73.3117C75.6395 81.4216 68.9149 88.0132 60.6415 88.0132H17.414C9.14058 88.0132 2.41602 81.4216 2.41602 73.3117V16.5804C2.41602 8.47052 9.14058 1.87891 17.414 1.87891H58.1113Z" fill="#ADD6FF"/>
<path opacity="0.33" d="M58.111 1.89844C60.2402 1.89844 62.2456 2.71402 63.7476 4.18626L73.2797 13.53C74.7859 15.0064 75.6137 16.9721 75.6137 19.055V73.3061C75.6137 81.4035 68.8977 87.9825 60.6413 87.9825H17.4138C9.15317 87.9825 2.44141 81.3993 2.44141 73.3061V16.579C2.43714 8.48168 9.15317 1.89844 17.4138 1.89844H58.111Z" fill="#ACD5FF"/>
<path opacity="0.33" d="M58.1112 1.92383C60.2318 1.92383 62.233 2.73523 63.7349 4.20747L73.2671 13.5512C74.769 15.0234 75.5968 16.9808 75.5968 19.0637V73.3148C75.5968 81.3996 68.8935 87.9703 60.6457 87.9703H17.4139C9.16612 87.9703 2.46289 81.3996 2.46289 73.3148V16.5793C2.46289 8.49453 9.16612 1.92383 17.4139 1.92383H58.1112Z" fill="#ABD5FF"/>
<path opacity="0.33" d="M58.111 1.94531C60.2274 1.94531 62.22 2.75672 63.7176 4.22059L73.2498 13.5643C74.7432 15.0323 75.571 16.9856 75.571 19.0601V73.3112C75.571 81.3834 68.8763 87.9416 60.6455 87.9416H17.4137C9.17871 87.9416 2.48828 81.3792 2.48828 73.3112V16.5799C2.48402 8.50764 9.17871 1.94531 17.4137 1.94531H58.111Z" fill="#AAD4FF"/>
<path opacity="0.34" d="M58.1111 1.9707C60.219 1.9707 62.2073 2.77792 63.7007 4.2418L73.2329 13.5855C74.722 15.0452 75.5498 16.9984 75.5498 19.0646V73.3157C75.5498 81.3753 68.8679 87.9251 60.6456 87.9251H17.4139C9.19166 87.9251 2.50977 81.3753 2.50977 73.3157V16.5802C2.50977 8.52049 9.19166 1.9707 17.4139 1.9707H58.1111Z" fill="#A9D4FF"/>
<path opacity="0.34" d="M58.1109 1.99023C60.2145 1.99023 62.1986 2.79746 63.6834 4.25296L73.2156 13.5967C74.7005 15.0522 75.524 16.997 75.524 19.059V73.3101C75.524 81.3572 68.8506 87.8987 60.6412 87.8987H17.4137C9.20425 87.8987 2.53516 81.3572 2.53516 73.3101V16.5788C2.53089 8.53165 9.20425 1.99023 17.4137 1.99023H58.1109Z" fill="#A8D3FF"/>
<path opacity="0.35" d="M58.1111 2.01562C60.2061 2.01562 62.1859 2.81866 63.6665 4.26999L73.1987 13.6137C74.6793 15.065 75.4985 17.0057 75.4985 19.0593V73.3104C75.4985 81.345 68.8379 87.8738 60.6413 87.8738H17.4138C9.2172 87.8738 2.55664 81.345 2.55664 73.3104V16.5791C2.55664 8.5445 9.2172 2.01562 17.4138 2.01562H58.1111Z" fill="#A7D3FF"/>
<path opacity="0.35" d="M58.1112 2.03711C60.202 2.03711 62.1733 2.83597 63.6496 4.28729L73.1818 13.631C74.6581 15.0781 75.4773 17.0104 75.4773 19.0599V73.311C75.4773 81.333 68.8253 87.8535 60.6415 87.8535H17.414C9.23015 87.8535 2.57812 81.333 2.57812 73.311V16.5796C2.57813 8.55762 9.23015 2.03711 17.414 2.03711H58.1112Z" fill="#A6D2FF"/>
<path opacity="0.35" d="M58.111 2.0625C60.1933 2.0625 62.1603 2.86136 63.6323 4.30432L73.1645 13.648C74.6366 15.091 75.4515 17.0191 75.4515 19.0602V73.3113C75.4515 81.3208 68.8123 87.8287 60.6413 87.8287H17.4138C9.24274 87.8287 2.60352 81.3208 2.60352 73.3113V16.5799C2.60352 8.57046 9.24274 2.0625 17.4138 2.0625H58.111Z" fill="#A5D2FF"/>
<path opacity="0.36" d="M58.1112 2.08203C60.1891 2.08203 62.1476 2.8767 63.6154 4.31967L73.1476 13.6634C74.6154 15.1021 75.4303 17.0261 75.4303 19.0588V73.3099C75.4303 81.3068 68.7996 87.8064 60.6414 87.8064H17.4139C9.25569 87.8064 2.625 81.3068 2.625 73.3099V16.5786C2.625 8.58163 9.25569 2.08203 17.4139 2.08203H58.1112Z" fill="#A4D1FF"/>
<path opacity="0.36" d="M58.111 2.10742C60.1804 2.10742 62.1346 2.9021 63.6024 4.33669L73.1345 13.6804C74.5981 15.115 75.4088 17.0306 75.4088 19.0633V73.3144C75.4088 81.2988 68.7909 87.7858 60.6455 87.7858H17.4137C9.26828 87.7858 2.65039 81.2988 2.65039 73.3144V16.5788C2.65039 8.59447 9.26828 2.10742 17.4137 2.10742H58.111Z" fill="#A3D1FF"/>
<path opacity="0.36" d="M58.1111 2.12891C60.1763 2.12891 62.1262 2.9194 63.5855 4.34981L73.1176 13.6935C74.5769 15.1239 75.3833 17.0353 75.3833 19.0596V73.3108C75.3833 81.2826 68.774 87.7613 60.6413 87.7613H17.4139C9.28123 87.7613 2.67188 81.2826 2.67188 73.3108V16.5794C2.67187 8.60759 9.28123 2.12891 17.4139 2.12891H58.1111Z" fill="#A2D0FF"/>
<path opacity="0.37" d="M58.1109 2.1543C60.1675 2.1543 62.1132 2.94479 63.5682 4.37102L73.1004 13.7147C74.5554 15.1409 75.3618 17.044 75.3618 19.0641V73.3152C75.3618 81.2745 68.7652 87.7407 60.6454 87.7407H17.4136C9.29382 87.7407 2.69727 81.2745 2.69727 73.3152V16.5797C2.69727 8.62043 9.29382 2.1543 17.4136 2.1543H58.1109Z" fill="#A1D0FF"/>
<path opacity="0.37" d="M58.111 2.17578C60.1634 2.17578 62.1006 2.96209 63.5513 4.38414L73.0834 13.7278C74.5342 15.1499 75.3363 17.0487 75.3363 19.0605V73.3116C75.3363 81.2584 68.7483 87.7161 60.6413 87.7161H17.4138C9.30677 87.7161 2.71875 81.2584 2.71875 73.3116V16.5803C2.71875 8.63355 9.30677 2.17578 17.4138 2.17578H58.111Z" fill="#A0CFFF"/>
<path opacity="0.38" d="M58.1108 2.19922C60.1547 2.19922 62.0876 2.98135 63.534 4.39921L73.0662 13.7429C74.5126 15.1608 75.3105 17.0554 75.3105 19.0588V73.31C75.3105 81.2442 68.731 87.6894 60.6411 87.6894H17.4136C9.31936 87.6894 2.74414 81.24 2.74414 73.31V16.5786C2.74414 8.64444 9.31936 2.19922 17.4136 2.19922H58.1108Z" fill="#9FCFFF"/>
<path opacity="0.38" d="M58.111 2.2207C60.1506 2.2207 62.0749 3.00283 63.5171 4.41651L73.0492 13.7602C74.4914 15.1739 75.2893 17.0602 75.2893 19.0594V73.3105C75.2893 81.2322 68.7227 87.669 60.6412 87.669H17.4137C9.33231 87.669 2.76562 81.2322 2.76562 73.3105V16.5792C2.76562 8.65756 9.33231 2.2207 17.4137 2.2207H58.111Z" fill="#9ECEFF"/>
<path opacity="0.38" d="M58.1108 2.24609C60.1461 2.24609 62.0619 3.02404 63.4998 4.43354L73.032 13.7772C74.4699 15.1867 75.2635 17.0689 75.2635 19.0597V73.3108C75.2635 81.2199 68.7054 87.6442 60.641 87.6442H17.4135C9.3449 87.6442 2.79102 81.2158 2.79102 73.3108V16.5795C2.79102 8.6704 9.3449 2.24609 17.4135 2.24609H58.1108Z" fill="#9DCEFF"/>
<path opacity="0.39" d="M58.1109 2.26758C60.1377 2.26758 62.0535 3.04552 63.4829 4.45084L73.015 13.7945C74.4487 15.1998 75.2423 17.0736 75.2423 19.0603V73.3114C75.2423 81.208 68.697 87.6239 60.6412 87.6239H17.4137C9.35785 87.6239 2.8125 81.208 2.8125 73.3114V16.5801C2.8125 8.68352 9.35785 2.26758 17.4137 2.26758H58.1109Z" fill="#9CCDFF"/>
<path opacity="0.39" d="M58.1107 2.29297C60.1332 2.29297 62.0405 3.06673 63.4699 4.46787L73.002 13.8116C74.4314 15.2127 75.2208 17.0823 75.2208 19.0648V73.3159C75.2208 81.1999 68.684 87.6033 60.6452 87.6033H17.4135C9.37044 87.6033 2.83789 81.1957 2.83789 73.3159V16.5804C2.83789 8.69637 9.37044 2.29297 17.4135 2.29297H58.1107Z" fill="#9BCDFF"/>
<path opacity="0.4" d="M58.1109 2.3125C60.1248 2.3125 62.0278 3.08626 63.453 4.47903L72.9851 13.8227C74.4102 15.2197 75.1954 17.0851 75.1954 19.0592V73.3103C75.1954 81.1818 68.6713 87.5768 60.6411 87.5768H17.4136C9.3834 87.5768 2.85938 81.1818 2.85938 73.3103V16.579C2.85937 8.70753 9.3834 2.3125 17.4136 2.3125H58.1109Z" fill="#9ACCFF"/>
<path opacity="0.4" d="M58.1107 2.33789C60.1203 2.33789 62.0148 3.10747 63.4357 4.50024L72.9678 13.8439C74.3887 15.2367 75.1738 17.0937 75.1738 19.0637V73.3148C75.1738 81.1737 68.6583 87.5562 60.6452 87.5562H17.4134C9.39598 87.5562 2.88477 81.1695 2.88477 73.3148V16.5793C2.88477 8.72038 9.39598 2.33789 17.4134 2.33789H58.1107Z" fill="#99CCFF"/>
<path opacity="0.4" d="M58.1108 2.35938C60.112 2.35938 62.0022 3.12477 63.4188 4.51336L72.9509 13.857C74.3675 15.2456 75.1484 17.0985 75.1484 19.0601V73.3112C75.1484 81.1575 68.6457 87.5317 60.641 87.5317H17.4136C9.40894 87.5317 2.90625 81.1575 2.90625 73.3112V16.5799C2.90625 8.73349 9.40894 2.35938 17.4136 2.35938H58.1108Z" fill="#98CBFF"/>
<path opacity="0.41" d="M58.1106 2.37891C60.1075 2.37891 61.9892 3.1443 63.4015 4.52871L72.9336 13.8724C74.346 15.2568 75.1268 17.1013 75.1268 19.0587V73.3098C75.1268 81.1436 68.6327 87.5052 60.6451 87.5052H17.4133C9.42153 87.5052 2.93164 81.1394 2.93164 73.3098V16.5785C2.92738 8.74466 9.42153 2.37891 17.4133 2.37891H58.1106Z" fill="#97CBFF"/>
<path opacity="0.41" d="M58.1107 2.4043C60.0991 2.4043 61.9808 3.16551 63.3846 4.54573L72.9167 13.8894C74.3248 15.2696 75.1014 17.1099 75.1014 19.059V73.3101C75.1014 81.1314 68.62 87.4846 60.641 87.4846H17.4135C9.43448 87.4846 2.95312 81.1314 2.95312 73.3101V16.5788C2.95312 8.7575 9.43448 2.4043 17.4135 2.4043H58.1107Z" fill="#96CAFF"/>
<path opacity="0.42" d="M58.1115 2.42578C60.0956 2.42578 61.9687 3.18699 63.3683 4.55885L72.9004 13.9025C74.3042 15.2786 75.0765 17.1147 75.0765 19.0554V73.3065C75.0765 81.1152 68.6037 87.4559 60.6418 87.4559H17.4143C9.44805 87.4559 2.97949 81.111 2.97949 73.3065V16.5793C2.97523 8.77062 9.44805 2.42578 17.4143 2.42578H58.1115Z" fill="#95CAFF"/>
<path opacity="0.42" d="M58.1107 2.45117C60.0862 2.45117 61.9551 3.2082 63.3546 4.58006L72.8868 13.9238C74.2863 15.2956 75.0586 17.1234 75.0586 19.064V73.3151C75.0586 81.1113 68.5986 87.4436 60.6452 87.4436H17.4134C9.46002 87.4436 3 81.1113 3 73.3151V16.5796C3 8.78347 9.46002 2.45117 17.4134 2.45117H58.1107Z" fill="#94C9FF"/>
<path opacity="0.42" d="M58.1108 2.47266C60.0821 2.47266 61.9425 3.22969 63.3377 4.59318L72.8699 13.9369C74.2651 15.3045 75.0332 17.1281 75.0332 19.0604V73.3115C75.0332 81.0952 68.5817 87.4191 60.6411 87.4191H17.4136C9.47297 87.4191 3.02148 81.0952 3.02148 73.3115V16.5802C3.02148 8.79659 9.47297 2.47266 17.4136 2.47266H58.1108Z" fill="#93C9FF"/>
<path opacity="0.43" d="M58.1106 2.49609C60.0734 2.49609 61.9295 3.24894 63.3204 4.61244L72.8526 13.9561C74.2436 15.3196 75.0116 17.1348 75.0116 19.063V73.3141C75.0116 81.0851 68.573 87.3965 60.6451 87.3965H17.4134C9.48556 87.3965 3.04688 81.0851 3.04688 73.3141V16.5785C3.04688 8.80748 9.48556 2.49609 17.4134 2.49609H58.1106Z" fill="#92C8FF"/>
<path opacity="0.43" d="M58.1108 2.51758C60.0693 2.51758 61.9168 3.27043 63.3035 4.62555L72.8357 13.9692C74.2181 15.3286 74.9862 17.1396 74.9862 19.0593V73.3105C74.9862 81.069 68.556 87.372 60.641 87.372H17.4135C9.49851 87.372 3.06836 81.069 3.06836 73.3105V16.5791C3.06836 8.8206 9.49851 2.51758 17.4135 2.51758H58.1108Z" fill="#91C8FF"/>
<path opacity="0.44" d="M58.1115 2.54297C60.0615 2.54297 61.909 3.29164 63.2872 4.64258L72.8194 13.9863C74.1976 15.3414 74.9613 17.1482 74.9613 19.0596V73.3108C74.9613 81.0567 68.5397 87.3472 60.6418 87.3472H17.4143C9.51207 87.3472 3.09473 81.0525 3.09473 73.3108V16.5794C3.09473 8.83344 9.51207 2.54297 17.4143 2.54297H58.1115Z" fill="#90C7FF"/>
<path opacity="0.44" d="M58.1107 2.56445C60.0564 2.56445 61.8954 3.30894 63.2693 4.65988L72.8015 14.0036C74.1754 15.3503 74.9392 17.153 74.9392 19.0602V73.3113C74.9392 81.0448 68.5304 87.3269 60.641 87.3269H17.4135C9.52405 87.3269 3.11523 81.0448 3.11523 73.3113V16.58C3.11523 8.84656 9.52405 2.56445 17.4135 2.56445H58.1107Z" fill="#8FC7FF"/>
<path opacity="0.44" d="M58.1115 2.58984C60.0486 2.58984 61.8834 3.33433 63.253 4.67691L72.7852 14.0206C74.1548 15.3632 74.9143 17.1617 74.9143 19.0605V73.3116C74.9143 81.0325 68.5141 87.3021 60.6417 87.3021H17.4142C9.53762 87.3021 3.1416 81.0283 3.1416 73.3116V16.5803C3.1416 8.8594 9.53762 2.58984 17.4142 2.58984H58.1115Z" fill="#8EC6FF"/>
<path opacity="0.45" d="M58.1107 2.60938C60.0435 2.60938 61.8698 3.34968 63.2351 4.69226L72.7673 14.0359C74.1327 15.3743 74.8922 17.1645 74.8922 19.0591V73.3102C74.8922 81.0186 68.5047 87.2798 60.6409 87.2798H17.4134C9.54959 87.2798 3.16211 81.0186 3.16211 73.3102V16.5789C3.16211 8.87057 9.54959 2.60938 17.4134 2.60938H58.1107Z" fill="#8DC6FF"/>
<path opacity="0.45" d="M58.1114 2.63477C60.04 2.63477 61.8577 3.37507 63.2231 4.70928L72.7553 14.053C74.1164 15.3872 74.8716 17.1731 74.8716 19.0636V73.3147C74.8716 81.0063 68.4927 87.2592 60.6459 87.2592H17.4142C9.56742 87.2592 3.18848 81.0063 3.18848 73.3147V16.5792C3.18848 8.88341 9.56316 2.63477 17.4142 2.63477H58.1114Z" fill="#8CC5FF"/>
<path opacity="0.45" d="M58.1106 2.65625C60.0307 2.65625 61.8441 3.39237 63.2052 4.7224L72.7374 14.0661C74.0942 15.3961 74.8452 17.1779 74.8452 19.06V73.3111C74.8452 80.9902 68.479 87.2346 60.6408 87.2346H17.4133C9.5794 87.2346 3.20898 80.9943 3.20898 73.3111V16.5798C3.20898 8.89653 9.57513 2.65625 17.4133 2.65625H58.1106Z" fill="#8BC5FF"/>
<path opacity="0.46" d="M58.1114 2.68164C60.0272 2.68164 61.8363 3.41776 63.1889 4.74361L72.7211 14.0873C74.0737 15.4132 74.8246 17.1865 74.8246 19.0645V73.3156C74.8246 80.9821 68.467 87.214 60.6459 87.214H17.4141C9.59296 87.214 3.23535 80.9821 3.23535 73.3156V16.5801C3.23535 8.90937 9.5887 2.68164 17.4141 2.68164H58.1114Z" fill="#8AC4FF"/>
<path opacity="0.46" d="M58.1115 2.70117C60.0188 2.70117 61.8237 3.43311 63.172 4.75478L72.7042 14.0985C74.0525 15.4201 74.7992 17.1893 74.7992 19.0589V73.31C74.7992 80.964 68.4544 87.1875 60.6418 87.1875H17.4143C9.60592 87.1875 3.25684 80.9682 3.25684 73.31V16.5787C3.25684 8.92054 9.60165 2.70117 17.4143 2.70117H58.1115Z" fill="#89C4FF"/>
<path opacity="0.47" d="M58.1113 2.72656C60.0143 2.72656 61.8107 3.45432 63.1547 4.77598L72.6869 14.1197C74.0309 15.4372 74.7776 17.198 74.7776 19.0634V73.3145C74.7776 80.9559 68.4414 87.1669 60.6458 87.1669H17.414C9.6185 87.1669 3.28223 80.9559 3.28223 73.3145V16.579C3.28223 8.93338 9.61424 2.72656 17.414 2.72656H58.1113Z" fill="#88C3FF"/>
<path opacity="0.47" d="M58.1115 2.74805C60.0059 2.74805 61.798 3.4758 63.1378 4.7891L72.67 14.1328C74.0098 15.4461 74.7522 17.2027 74.7522 19.0598V73.3109C74.7522 80.9398 68.4287 87.1424 60.6417 87.1424H17.4142C9.63146 87.1424 3.30371 80.9439 3.30371 73.3109V16.5796C3.30371 8.9465 9.62719 2.74805 17.4142 2.74805H58.1115Z" fill="#87C3FF"/>
<path opacity="0.47" d="M58.1112 2.77344C60.0014 2.77344 61.785 3.49701 63.1205 4.80613L72.6527 14.1498C73.9882 15.4589 74.7264 17.2114 74.7264 19.0601V73.3112C74.7264 80.9275 68.4114 87.1176 60.6415 87.1176H17.414C9.64404 87.1176 3.3291 80.9275 3.3291 73.3112V16.5798C3.3291 8.95934 9.63978 2.77344 17.414 2.77344H58.1112Z" fill="#86C2FF"/>
<path opacity="0.48" d="M58.1114 2.79297C59.9931 2.79297 61.7724 3.51654 63.1036 4.82148L72.6358 14.1652C73.967 15.4701 74.7052 17.2142 74.7052 19.0587V73.3098C74.7052 80.9136 68.403 87.0953 60.6416 87.0953H17.4141C9.657 87.0953 3.35059 80.9178 3.35059 73.3098V16.5785C3.35059 8.97051 9.65273 2.79297 17.4141 2.79297H58.1114Z" fill="#85C2FF"/>
<path opacity="0.48" d="M58.1112 2.81836C59.9886 2.81836 61.7636 3.53775 63.0906 4.8385L72.6227 14.1822C73.9497 15.4829 74.6836 17.2229 74.6836 19.0632V73.3143C74.6836 80.9055 68.39 87.0747 60.6457 87.0747H17.4139C9.66959 87.0747 3.37598 80.9055 3.37598 73.3143V16.5788C3.37171 8.98336 9.66532 2.81836 17.4139 2.81836H58.1112Z" fill="#84C1FF"/>
<path opacity="0.49" d="M58.1113 2.83984C59.9802 2.83984 61.751 3.55923 63.0737 4.85581L72.6058 14.1995C73.9286 15.4961 74.6625 17.2276 74.6625 19.0637V73.3148C74.6625 80.8935 68.3817 87.0543 60.6459 87.0543H17.4141C9.68254 87.0543 3.39746 80.8977 3.39746 73.3148V16.5793C3.39746 8.99647 9.67827 2.83984 17.4141 2.83984H58.1113Z" fill="#83C1FF"/>
<path opacity="0.49" d="M58.1111 2.86133C59.9757 2.86133 61.7379 3.57653 63.0564 4.86892L72.5886 14.2126C73.907 15.505 74.6366 17.2324 74.6366 19.0601V73.3112C74.6366 80.8774 68.3644 87.0256 60.6456 87.0256H17.4139C9.69513 87.0256 3.42285 80.8774 3.42285 73.3112V16.5799C3.41859 9.01377 9.69086 2.86133 17.4139 2.86133H58.1111Z" fill="#82C0FF"/>
<path opacity="0.49" d="M58.1113 2.88672C59.9674 2.88672 61.7253 3.60193 63.0395 4.88595L72.5716 14.2296C73.8858 15.5178 74.6112 17.241 74.6112 19.0604V73.3115C74.6112 80.8651 68.3475 87.005 60.6415 87.005H17.414C9.70808 87.005 3.44434 80.8651 3.44434 73.3115V16.5802C3.44434 9.02662 9.70381 2.88672 17.414 2.88672H58.1113Z" fill="#81C0FF"/>
<path opacity="0.5" d="M58.1111 2.90625C59.9629 2.90625 61.7123 3.61727 63.0222 4.9013L72.5544 14.245C73.8643 15.529 74.5897 17.2438 74.5897 19.059V73.3102C74.5897 80.8512 68.3387 86.9786 60.6456 86.9786H17.4138C9.72067 86.9786 3.46973 80.8512 3.46973 73.3102V16.5788C3.46546 9.03778 9.7164 2.90625 17.4138 2.90625H58.1111Z" fill="#80BFFF"/>
<path opacity="0.5" d="M58.1112 2.93164C59.9545 2.93164 61.6996 3.63848 63.0053 4.91832L72.5374 14.262C73.8431 15.5419 74.5642 17.2525 74.5642 19.0593V73.3105C74.5642 80.8389 68.3218 86.9579 60.6415 86.9579H17.414C9.73362 86.9579 3.49121 80.8389 3.49121 73.3105V16.5791C3.49121 9.05063 9.73362 2.93164 17.414 2.93164H58.1112Z" fill="#7FBFFF"/>
<path opacity="0.51" d="M58.1114 2.95312C59.9504 2.95312 61.6912 3.65997 62.9884 4.93563L72.5205 14.2793C73.8219 15.555 74.543 17.2573 74.543 19.0599V73.311C74.543 80.827 68.3134 86.9376 60.6416 86.9376H17.4141C9.74657 86.9376 3.5127 80.8312 3.5127 73.311V16.5797C3.5127 9.06375 9.74657 2.95312 17.4141 2.95312H58.1114Z" fill="#7EBEFF"/>
<path opacity="0.51" d="M58.1111 2.97852C59.9459 2.97852 61.6782 3.68117 62.9711 4.95265L72.5033 14.2963C73.8004 15.5678 74.5172 17.2659 74.5172 19.0602V73.3113C74.5172 80.8147 68.2961 86.9128 60.6414 86.9128H17.4139C9.75916 86.9128 3.53809 80.8147 3.53809 73.3113V16.58C3.53809 9.07659 9.75916 2.97852 17.4139 2.97852H58.1111Z" fill="#7DBEFF"/>
<path opacity="0.51" d="M58.1113 2.99805C59.9375 2.99805 61.6656 3.70071 62.9584 4.96382L72.4906 14.3075C73.7835 15.5748 74.496 17.2687 74.496 19.0588V73.3099C74.496 80.8008 68.2877 86.8905 60.6415 86.8905H17.414C9.77211 86.8905 3.55957 80.805 3.55957 73.3099V16.5786C3.55957 9.08776 9.77211 2.99805 17.414 2.99805H58.1113Z" fill="#7CBDFF"/>
<path opacity="0.52" d="M58.1111 3.02344C59.933 3.02344 61.6526 3.72191 62.9412 4.98503L72.4733 14.3287C73.7619 15.5918 74.4745 17.2774 74.4745 19.0633V73.3144C74.4745 80.7927 68.2747 86.8699 60.6456 86.8699H17.4138C9.7847 86.8699 3.58496 80.7927 3.58496 73.3144V16.5789C3.58496 9.1006 9.7847 3.02344 17.4138 3.02344H58.1111Z" fill="#7BBDFF"/>
<path opacity="0.52" d="M58.1112 3.04492C59.9247 3.04492 61.6399 3.7434 62.9243 4.99815L72.4564 14.3418C73.7407 15.6008 74.449 17.2821 74.449 19.0597V73.3108C74.449 80.7766 68.2621 86.8454 60.6415 86.8454H17.414C9.79765 86.8454 3.60645 80.7807 3.60645 73.3108V16.5795C3.60645 9.11372 9.79765 3.04492 17.414 3.04492H58.1112Z" fill="#7ABCFF"/>
<path opacity="0.53" d="M58.111 3.07031C59.9202 3.07031 61.6269 3.76461 62.907 5.01935L72.4391 14.363C73.7192 15.6178 74.4275 17.2908 74.4275 19.0642V73.3153C74.4275 80.7685 68.2491 86.8247 60.6455 86.8247H17.4138C9.81024 86.8247 3.63184 80.7685 3.63184 73.3153V16.5798C3.63184 9.12656 9.81024 3.07031 17.4138 3.07031H58.111Z" fill="#79BCFF"/>
<path opacity="0.53" d="M58.1112 3.0918C59.9118 3.0918 61.6185 3.78191 62.8901 5.03247L72.4222 14.3762C73.698 15.6267 74.402 17.2955 74.402 19.0606V73.3117C74.402 80.7523 68.2364 86.8002 60.6414 86.8002H17.4139C9.82319 86.8002 3.65332 80.7565 3.65332 73.3117V16.5803C3.65332 9.13968 9.82319 3.0918 17.4139 3.0918H58.1112Z" fill="#78BBFF"/>
<path opacity="0.53" d="M58.111 3.11523C59.9073 3.11523 61.6055 3.80535 62.8728 5.04755L72.4049 14.3912C73.6722 15.6376 74.3762 17.3023 74.3762 19.0589V73.31C74.3762 80.7381 68.2191 86.7735 60.6412 86.7735H17.4137C9.83578 86.7735 3.67871 80.7381 3.67871 73.31V16.5787C3.67871 9.15057 9.83578 3.11523 17.4137 3.11523H58.111Z" fill="#77BBFF"/>
<path opacity="0.54" d="M58.1111 3.13672C59.8989 3.13672 61.5929 3.82265 62.8559 5.06485L72.388 14.4085C73.651 15.6466 74.355 17.307 74.355 19.0595V73.3106C74.355 80.7262 68.2108 86.7531 60.6414 86.7531H17.4139C9.84873 86.7531 3.7002 80.7303 3.7002 73.3106V16.5793C3.7002 9.16369 9.84873 3.13672 17.4139 3.13672H58.1111Z" fill="#76BAFF"/>
<path opacity="0.54" d="M58.1109 3.16211C59.8945 3.16211 61.5799 3.84804 62.8386 5.08187L72.3707 14.4256C73.6295 15.6594 74.3292 17.3157 74.3292 19.0598V73.3109C74.3292 80.7139 68.1935 86.7283 60.6412 86.7283H17.4137C9.86132 86.7283 3.72559 80.7139 3.72559 73.3109V16.5795C3.72559 9.17653 9.86132 3.16211 17.4137 3.16211H58.1109Z" fill="#75BAFF"/>
<path opacity="0.55" d="M58.1111 3.18359C59.8861 3.18359 61.5672 3.86534 62.8259 5.09918L72.3581 14.4429C73.6125 15.6725 74.3123 17.3204 74.3123 19.0645V73.3156C74.3123 80.7061 68.1851 86.7122 60.6456 86.7122H17.4138C9.87427 86.7122 3.74707 80.7061 3.74707 73.3156V16.5801C3.74707 9.18965 9.87427 3.18359 17.4138 3.18359H58.1111Z" fill="#74B9FF"/>
<path opacity="0.55" d="M58.1109 3.20703C59.8816 3.20703 61.5542 3.88878 62.8087 5.11425L72.3408 14.4579C73.591 15.6834 74.2865 17.3271 74.2865 19.0629V73.314C74.2865 80.6919 68.1721 86.6854 60.6454 86.6854H17.4136C9.88686 86.6854 3.77246 80.6919 3.77246 73.314V16.5785C3.77246 9.20054 9.88686 3.20703 17.4136 3.20703H58.1109Z" fill="#73B9FF"/>
<path opacity="0.55" d="M58.111 3.22852C59.8732 3.22852 61.5458 3.90608 62.7917 5.12737L72.3239 14.4711C73.5698 15.6923 74.261 17.3277 74.261 19.0593V73.3104C74.261 80.6757 68.1552 86.6609 60.6412 86.6609H17.4137C9.89981 86.6609 3.79395 80.6757 3.79395 73.3104V16.579C3.79395 9.21366 9.89981 3.22852 17.4137 3.22852H58.111Z" fill="#72B8FF"/>
<path opacity="0.56" d="M58.1108 3.25391C59.8687 3.25391 61.5328 3.92729 62.7745 5.14858L72.3066 14.4923C73.5483 15.7094 74.2395 17.3405 74.2395 19.0637V73.3148C74.2395 80.6677 68.1464 86.6403 60.6453 86.6403H17.4135C9.9124 86.6403 3.81934 80.6677 3.81934 73.3148V16.5793C3.81934 9.22651 9.9124 3.25391 17.4135 3.25391H58.1108Z" fill="#71B8FF"/>
<path opacity="0.56" d="M58.1109 3.27539C59.8604 3.27539 61.5202 3.94877 62.7575 5.1617L72.2897 14.5054C73.5271 15.7183 74.214 17.3453 74.214 19.0601V73.3112C74.214 80.6515 68.1295 86.6158 60.6412 86.6158H17.4137C9.92535 86.6158 3.84082 80.6515 3.84082 73.3112V16.5799C3.84082 9.23963 9.92535 3.27539 17.4137 3.27539H58.1109Z" fill="#70B7FF"/>
<path opacity="0.56" d="M58.1107 3.30078C59.8559 3.30078 61.5071 3.96998 62.7403 5.1829L72.2724 14.5266C73.5055 15.7353 74.1925 17.354 74.1925 19.0646V73.3157C74.1925 80.6435 68.1208 86.5951 60.6452 86.5951H17.4135C9.93794 86.5951 3.86621 80.6435 3.86621 73.3157V16.5802C3.86621 9.25247 9.93794 3.30078 17.4135 3.30078H58.1107Z" fill="#6FB7FF"/>
<path opacity="0.57" d="M58.1109 3.32031C59.8475 3.32031 61.4945 3.98951 62.7233 5.19407L72.2555 14.5378C73.4844 15.7423 74.167 17.3568 74.167 19.059V73.3102C74.167 80.6253 68.1039 86.5687 60.6411 86.5687H17.4136C9.95089 86.5687 3.8877 80.6253 3.8877 73.3102V16.5788C3.8877 9.26364 9.95089 3.32031 17.4136 3.32031H58.1109Z" fill="#6EB6FF"/>
<path opacity="0.57" d="M58.1107 3.3418C59.843 3.3418 61.4815 4.00681 62.7103 5.20719L72.2425 14.5509C73.4671 15.7513 74.1455 17.3573 74.1455 19.0596V73.3107C74.1455 80.6134 68.0951 86.5441 60.6452 86.5441H17.4134C9.96349 86.5441 3.91309 80.6134 3.91309 73.3107V16.5794C3.91309 9.27676 9.96349 3.34598 17.4134 3.34598H58.1107V3.3418Z" fill="#6DB6FF"/>
<path opacity="0.58" d="M58.1108 3.36719C59.8389 3.36719 61.4731 4.0322 62.6934 5.2284L72.2256 14.5721C73.4459 15.7683 74.1243 17.3702 74.1243 19.0641V73.3152C74.1243 80.6053 68.0825 86.5277 60.6453 86.5277H17.4136C9.97644 86.5277 3.93457 80.6053 3.93457 73.3152V16.5797C3.93457 9.2896 9.97644 3.36719 17.4136 3.36719H58.1108Z" fill="#6CB5FF"/>
<path opacity="0.58" d="M58.1106 3.38867C59.8302 3.38867 61.4601 4.04951 62.6761 5.24152L72.2083 14.5852C73.4243 15.7772 74.0985 17.3749 74.0985 19.0605V73.3116C74.0985 80.5891 68.0695 86.499 60.6451 86.499H17.4134C9.98903 86.499 3.95996 80.5891 3.95996 73.3116V16.5803C3.95996 9.30272 9.98903 3.38867 17.4134 3.38867H58.1106Z" fill="#6BB5FF"/>
<path opacity="0.58" d="M58.1108 3.41211C59.826 3.41211 61.4474 4.07294 62.6592 5.25659L72.1914 14.6003C73.4032 15.7881 74.073 17.3775 74.073 19.0588V73.3099C74.073 80.5749 68.0525 86.4764 60.641 86.4764H17.4135C10.002 86.4764 3.98145 80.5749 3.98145 73.3099V16.5786C3.98145 9.31361 10.002 3.41211 17.4135 3.41211H58.1108Z" fill="#6AB4FF"/>
<path opacity="0.59" d="M58.1109 3.43359C59.8176 3.43359 61.4348 4.09025 62.6423 5.27389L72.1745 14.6176C73.382 15.8012 74.0519 17.3864 74.0519 19.0594V73.3105C74.0519 80.563 68.0441 86.4561 60.6411 86.4561H17.4137C10.0149 86.4561 4.00293 80.5671 4.00293 73.3105V16.5792C4.00293 9.32673 10.0107 3.43359 17.4137 3.43359H58.1109Z" fill="#69B4FF"/>
<path opacity="0.59" d="M58.1107 3.45898C59.8132 3.45898 61.4218 4.11145 62.625 5.29092L72.1572 14.6346C73.3604 15.8141 74.0261 17.3909 74.0261 19.0597V73.3108C74.0261 80.5507 68.0269 86.4313 60.6409 86.4313H17.4134C10.0275 86.4313 4.02832 80.5507 4.02832 73.3108V16.5795C4.02832 9.33957 10.0275 3.45898 17.4134 3.45898H58.1107Z" fill="#68B3FF"/>
<path opacity="0.6" d="M58.1109 3.48047C59.8048 3.48047 61.4091 4.13294 62.6081 5.30822L72.1403 14.6519C73.3392 15.8272 74.0049 17.3998 74.0049 19.0603V73.3114C74.0049 80.5387 68.0185 86.4109 60.6411 86.4109H17.4136C10.0405 86.4109 4.0498 80.5429 4.0498 73.3114V16.58C4.0498 9.35269 10.0362 3.48047 17.4136 3.48047H58.1109Z" fill="#67B3FF"/>
<path opacity="0.6" d="M58.1106 3.50586C59.8003 3.50586 61.4004 4.15415 62.5908 5.32524L72.123 14.6689C73.3177 15.84 73.9791 17.4085 73.9791 19.0606V73.3117C73.9791 80.5265 68.0012 86.3861 60.6409 86.3861H17.4134C10.0531 86.3861 4.0752 80.5265 4.0752 73.3117V16.5803C4.0752 9.36553 10.0531 3.50586 17.4134 3.50586H58.1106Z" fill="#66B2FF"/>
<path opacity="0.6" d="M58.1108 3.52539C59.7919 3.52539 61.3877 4.17368 62.5782 5.33641L72.1103 14.6801C73.3008 15.847 73.9579 17.4071 73.9579 19.0592V73.3103C73.9579 80.5126 67.9885 86.3639 60.641 86.3639H17.4135C10.066 86.3639 4.09668 80.5126 4.09668 73.3103V16.579C4.09668 9.3767 10.066 3.52539 17.4135 3.52539H58.1108Z" fill="#65B2FF"/>
<path opacity="0.61" d="M58.1116 3.55078C59.7884 3.55078 61.3757 4.19489 62.5619 5.35762L72.094 14.7013C73.2802 15.864 73.9373 17.4199 73.9373 19.0637V73.3148C73.9373 80.5045 67.9808 86.3432 60.6461 86.3432H17.4143C10.0796 86.3432 4.12305 80.5045 4.12305 73.3148V16.5792C4.12305 9.38954 10.0796 3.55078 17.4143 3.55078H58.1116Z" fill="#64B1FF"/>
<path opacity="0.61" d="M58.1107 3.57227C59.7791 3.57227 61.3621 4.21637 62.544 5.37074L72.0761 14.7144C73.2581 15.873 73.9109 17.4205 73.9109 19.06V73.3112C73.9109 80.4883 67.9629 86.3187 60.641 86.3187H17.4135C10.0915 86.3187 4.14355 80.4883 4.14355 73.3112V16.5798C4.14355 9.40266 10.0915 3.57227 17.4135 3.57227H58.1107Z" fill="#63B1FF"/>
<path opacity="0.62" d="M58.1115 3.59766C59.7756 3.59766 61.35 4.23758 62.5277 5.39195L72.0598 14.7356C73.2375 15.89 73.8903 17.4333 73.8903 19.0645V73.3156C73.8903 80.4802 67.9551 86.2981 60.646 86.2981H17.4142C10.1051 86.2981 4.16992 80.4802 4.16992 73.3156V16.5801C4.16992 9.4155 10.1051 3.59766 17.4142 3.59766H58.1115Z" fill="#62B0FF"/>
<path opacity="0.62" d="M58.1107 3.61719C59.7662 3.61719 61.3364 4.25293 62.5098 5.40311L72.0419 14.7468C73.2153 15.897 73.8639 17.4361 73.8639 19.059V73.3101C73.8639 80.4621 67.9372 86.2716 60.6409 86.2716H17.4134C10.1171 86.2716 4.19043 80.4621 4.19043 73.3101V16.5787C4.19043 9.42667 10.1171 3.61719 17.4134 3.61719H58.1107Z" fill="#61B0FF"/>
<path opacity="0.62" d="M58.1114 3.64258C59.7627 3.64258 61.3286 4.27832 62.4935 5.42014L72.0256 14.7638C73.1948 15.9098 73.8391 17.4406 73.8391 19.0592V73.3104C73.8391 80.4499 67.9252 86.2468 60.6417 86.2468H17.4142C10.1307 86.2468 4.2168 80.4499 4.2168 73.3104V16.579C4.2168 9.43951 10.1307 3.64258 17.4142 3.64258H58.1114Z" fill="#60AFFF"/>
<path opacity="0.63" d="M58.1106 3.66406C59.7533 3.66406 61.315 4.29562 62.4756 5.43744L72.0077 14.7811C73.1726 15.923 73.8169 17.4496 73.8169 19.0598V73.3109C73.8169 80.4379 67.9116 86.2265 60.6408 86.2265H17.4133C10.1426 86.2265 4.2373 80.4379 4.2373 73.3109V16.5796C4.2373 9.45263 10.1426 3.66406 17.4133 3.66406H58.1106Z" fill="#5FAFFF"/>
<path opacity="0.63" d="M58.1114 3.68945C59.7498 3.68945 61.303 4.32101 62.4593 5.45447L71.9914 14.7982C73.1478 15.9358 73.7921 17.454 73.7921 19.0601V73.3112C73.7921 80.4257 67.8995 86.2017 60.6416 86.2017H17.4141C10.1562 86.2017 4.26367 80.4257 4.26367 73.3112V16.5799C4.26367 9.46548 10.1562 3.68945 17.4141 3.68945H58.1114Z" fill="#5EAEFF"/>
<path opacity="0.64" d="M58.1115 3.70898C59.7457 3.70898 61.2903 4.33636 62.4466 5.46981L71.9788 14.8135C73.1309 15.947 73.7751 17.461 73.7751 19.0629V73.314C73.7751 80.4159 67.8912 86.1836 60.646 86.1836H17.4143C10.1691 86.1836 4.28516 80.4159 4.28516 73.314V16.5785C4.28516 9.47664 10.1691 3.70898 17.4143 3.70898H58.1115Z" fill="#5DAEFF"/>
<path opacity="0.64" d="M58.1113 3.73438C59.737 3.73438 61.2773 4.36175 62.4294 5.48684L71.9615 14.8305C73.1093 15.9556 73.7493 17.4697 73.7493 19.0632V73.3143C73.7493 80.4037 67.8781 86.1588 60.6458 86.1588H17.4141C10.1817 86.1588 4.31055 80.4037 4.31055 73.3143V16.5788C4.31055 9.48949 10.1817 3.73438 17.4141 3.73438H58.1113Z" fill="#5CADFF"/>
<path opacity="0.64" d="M58.1115 3.75586C59.7329 3.75586 61.2647 4.37905 62.4125 5.49996L71.9446 14.8436C73.0881 15.9646 73.7239 17.4703 73.7239 19.0596V73.3107C73.7239 80.3875 67.8612 86.1343 60.6417 86.1343H17.4142C10.1947 86.1343 4.33203 80.3875 4.33203 73.3107V16.5794C4.33203 9.5026 10.1947 3.75586 17.4142 3.75586H58.1115Z" fill="#5BADFF"/>
<path opacity="0.65" d="M58.1112 3.78125C59.7241 3.78125 61.2559 4.40026 62.3952 5.52117L71.9273 14.8649C73.0666 15.9816 73.7023 17.4831 73.7023 19.0641V73.3152C73.7023 80.3794 67.8525 86.1136 60.6458 86.1136H17.414C10.2073 86.1136 4.35742 80.3794 4.35742 73.3152V16.5797C4.35742 9.51545 10.2073 3.78125 17.414 3.78125H58.1112Z" fill="#5AACFF"/>
<path opacity="0.65" d="M58.1114 3.80273C59.72 3.80273 61.2433 4.42174 62.3783 5.53429L71.9104 14.878C73.0454 15.9905 73.6769 17.4837 73.6769 19.0605V73.3116C73.6769 80.3633 67.8356 86.0891 60.6416 86.0891H17.4141C10.2202 86.0891 4.37891 80.3633 4.37891 73.3116V16.5803C4.37891 9.52857 10.2202 3.80273 17.4141 3.80273H58.1114Z" fill="#59ACFF"/>
<path opacity="0.65" d="M58.1112 3.82227C59.7113 3.82227 61.2303 4.43709 62.361 5.54964L71.8931 14.8933C73.0238 16.0017 73.6553 17.4907 73.6553 19.0591V73.3102C73.6553 80.3493 67.8268 86.0626 60.6457 86.0626H17.4139C10.2328 86.0626 4.4043 80.3493 4.4043 73.3102V16.5789C4.4043 9.53973 10.2328 3.82645 17.4139 3.82645H58.1112V3.82227Z" fill="#58ABFF"/>
<path opacity="0.66" d="M58.1113 3.84766C59.7071 3.84766 61.2176 4.46248 62.3441 5.56666L71.8762 14.9104C73.0027 16.0145 73.6299 17.4993 73.6299 19.0594V73.3105C73.6299 80.3371 67.8099 86.042 60.6416 86.042H17.4141C10.2458 86.042 4.42578 80.3371 4.42578 73.3105V16.5792C4.42578 9.55258 10.2458 3.84766 17.4141 3.84766H58.1113Z" fill="#57ABFF"/>
<path opacity="0.66" d="M58.1111 3.86914C59.6984 3.86914 61.2046 4.47978 62.3268 5.57978L71.8589 14.9235C72.9811 16.0235 73.6041 17.4999 73.6041 19.0558V73.3069C73.6041 80.3209 67.7926 86.0133 60.6414 86.0133H17.4139C10.2584 86.0133 4.45117 80.3168 4.45117 73.3069V16.5797C4.45117 9.5657 10.2626 3.86914 17.4139 3.86914H58.1111Z" fill="#56AAFF"/>
<path opacity="0.67" d="M58.1113 3.89453C59.6943 3.89453 61.1919 4.50518 62.3141 5.60099L71.8463 14.9447C72.9642 16.0405 73.5872 17.5127 73.5872 19.0644V73.3156C73.5872 80.317 67.7885 86.0011 60.6458 86.0011H17.414C10.2713 86.0011 4.47266 80.317 4.47266 73.3156V16.58C4.47266 9.57854 10.2713 3.89453 17.414 3.89453H58.1113Z" fill="#55AAFF"/>
<path opacity="0.67" d="M58.1114 3.91406C59.6859 3.91406 61.1836 4.52052 62.2972 5.61215L71.8294 14.9558C72.943 16.0475 73.5617 17.5113 73.5617 19.0589V73.31C73.5617 80.2989 67.7716 85.9746 60.6417 85.9746H17.4142C10.2843 85.9746 4.49414 80.2989 4.49414 73.31V16.5787C4.49414 9.58971 10.2843 3.91406 17.4142 3.91406H58.1114Z" fill="#54A9FF"/>
<path opacity="0.67" d="M58.1112 3.93945C59.6814 3.93945 61.1705 4.54591 62.2799 5.63336L71.8121 14.9771C72.9215 16.0645 73.5402 17.5242 73.5402 19.0634V73.3145C73.5402 80.2909 67.7628 85.954 60.6457 85.954H17.414C10.2969 85.954 4.51953 80.2909 4.51953 73.3145V16.5789C4.51953 9.60255 10.2969 3.93945 17.414 3.93945H58.1112Z" fill="#53A9FF"/>
<path opacity="0.68" d="M58.1114 3.96094C59.673 3.96094 61.1579 4.56322 62.263 5.64648L71.7952 14.9902C72.9003 16.0734 73.5147 17.5289 73.5147 19.0597V73.3109C73.5147 80.2747 67.7459 85.9294 60.6416 85.9294H17.4141C10.3098 85.9294 4.54102 80.2747 4.54102 73.3109V16.5795C4.54102 9.61567 10.3098 3.96094 17.4141 3.96094H58.1114Z" fill="#52A8FF"/>
<path opacity="0.68" d="M58.1112 3.98633C59.6686 3.98633 61.1449 4.58442 62.2457 5.66351L71.7779 15.0072C72.8787 16.0863 73.4889 17.5334 73.4889 19.06V73.3111C73.4889 80.2625 67.7329 85.9046 60.6414 85.9046H17.4139C10.3224 85.9046 4.56641 80.2625 4.56641 73.3111V16.5798C4.56641 9.62851 10.3224 3.98633 17.4139 3.98633H58.1112Z" fill="#51A8FF"/>
<path opacity="0.69" d="M58.1113 4.00586C59.6602 4.00586 61.1322 4.60396 62.2288 5.67886L71.761 15.0225C72.8575 16.0974 73.4677 17.5404 73.4677 19.0587V73.3098C73.4677 80.2485 67.7203 85.8823 60.6415 85.8823H17.4141C10.3353 85.8823 4.58789 80.2485 4.58789 73.3098V16.5784C4.58789 9.63968 10.3353 4.00586 17.4141 4.00586H58.1113Z" fill="#50A7FF"/>
<path opacity="0.69" d="M58.1111 4.03125C59.6557 4.03125 61.1192 4.62516 62.2115 5.69588L71.7437 15.0396C72.836 16.1103 73.4419 17.5449 73.4419 19.0589V73.3101C73.4419 80.2363 67.7072 85.8576 60.6413 85.8576H17.4138C10.3479 85.8576 4.61328 80.2363 4.61328 73.3101V16.5787C4.61328 9.65252 10.3479 4.03125 17.4138 4.03125H58.1111Z" fill="#4FA7FF"/>
<path opacity="0.69" d="M58.1112 4.05273C59.6473 4.05273 61.1108 4.64665 62.1946 5.71318L71.7268 15.0569C72.8148 16.1234 73.4207 17.5538 73.4207 19.0595V73.3106C73.4207 80.2243 67.6946 85.8372 60.6415 85.8372H17.414C10.3609 85.8372 4.63477 80.2243 4.63477 73.3106V16.5793C4.63477 9.66564 10.3609 4.05273 17.414 4.05273H58.1112Z" fill="#4EA6FF"/>
<path opacity="0.7" d="M58.111 4.07812C59.6428 4.07812 61.0978 4.66786 62.1816 5.73021L71.7138 15.0739C72.7975 16.1363 73.3992 17.5625 73.3992 19.064V73.3151C73.3992 80.2162 67.6859 85.8166 60.6455 85.8166H17.4138C10.3735 85.8166 4.66016 80.2162 4.66016 73.3151V16.5796C4.66016 9.67848 10.3735 4.07812 17.4138 4.07812H58.111Z" fill="#4DA6FF"/>
<path opacity="0.7" d="M58.1112 4.09961C59.6387 4.09961 61.0852 4.68934 62.1647 5.74333L71.6968 15.087C72.7764 16.1452 73.3737 17.5631 73.3737 19.0604V73.3115C73.3737 80.2001 67.6689 85.7921 60.6414 85.7921H17.4139C10.3864 85.7921 4.68164 80.2001 4.68164 73.3115V16.5802C4.68164 9.6916 10.3864 4.09961 17.4139 4.09961H58.1112Z" fill="#4CA5FF"/>
<path opacity="0.71" d="M58.111 4.12305C59.63 4.12305 61.0722 4.7086 62.1474 5.76258L71.6796 15.1063C72.7548 16.1603 73.3522 17.5739 73.3522 19.0629V73.314C73.3522 80.19 67.6602 85.7695 60.6455 85.7695H17.4137C10.399 85.7695 4.70703 80.19 4.70703 73.314V16.5785C4.70703 9.70249 10.399 4.12305 17.4137 4.12305H58.111Z" fill="#4BA5FF"/>
<path opacity="0.71" d="M58.1111 4.14453C59.6259 4.14453 61.0595 4.7259 62.1305 5.7757L71.6627 15.1194C72.7336 16.1692 73.3267 17.5745 73.3267 19.0593V73.3104C73.3267 80.1739 67.6433 85.745 60.6414 85.745H17.4139C10.412 85.745 4.72852 80.1739 4.72852 73.3104V16.5791C4.72852 9.71561 10.412 4.14453 17.4139 4.14453H58.1111Z" fill="#4AA4FF"/>
<path opacity="0.71" d="M58.1109 4.16992C59.6171 4.16992 61.0465 4.75129 62.1132 5.79691L71.6454 15.1406C72.7121 16.1862 73.3052 17.5874 73.3052 19.0638V73.3149C73.3052 80.1658 67.6303 85.7244 60.6454 85.7244H17.4137C10.4246 85.7244 4.75391 80.1616 4.75391 73.3149V16.5794C4.75391 9.72845 10.4288 4.16992 17.4137 4.16992H58.1109Z" fill="#49A4FF"/>
<path opacity="0.72" d="M58.1111 4.19141C59.613 4.19141 61.0381 4.76859 62.0963 5.81003L71.6285 15.1537C72.6909 16.1952 73.2797 17.5921 73.2797 19.0602V73.3113C73.2797 80.1497 67.6176 85.6998 60.6413 85.6998H17.4138C10.4375 85.6998 4.77539 80.1497 4.77539 73.3113V16.58C4.77539 9.74157 10.4375 4.19141 17.4138 4.19141H58.1111Z" fill="#48A3FF"/>
<path opacity="0.72" d="M58.1109 4.2168C59.6043 4.2168 61.0251 4.79398 62.079 5.82706L71.6112 15.1707C72.6694 16.208 73.2539 17.5966 73.2539 19.0605V73.3116C73.2539 80.1374 67.6003 85.675 60.6411 85.675H17.4136C10.4501 85.675 4.80078 80.1332 4.80078 73.3116V16.5802C4.80078 9.75442 10.4544 4.2168 17.4136 4.2168H58.1109Z" fill="#47A3FF"/>
<path opacity="0.73" d="M58.111 4.23633C59.6001 4.23633 61.0125 4.80933 62.0664 5.84241L71.5985 15.1861C72.6524 16.2192 73.237 17.6036 73.237 19.0633V73.3144C73.237 80.1277 67.5962 85.6569 60.6455 85.6569H17.4138C10.463 85.6569 4.82227 80.1277 4.82227 73.3144V16.5789C4.82227 9.76558 10.463 4.23633 17.4138 4.23633H58.111Z" fill="#46A2FF"/>
<path opacity="0.73" d="M58.1108 4.25781C59.5914 4.25781 60.9995 4.83081 62.0491 5.85552L71.5812 15.1992C72.6309 16.2281 73.2112 17.6041 73.2112 19.0597V73.3108C73.2112 80.1115 67.5789 85.6282 60.6453 85.6282H17.4135C10.4756 85.6282 4.84766 80.1073 4.84766 73.3108V16.5794C4.84766 9.7787 10.4799 4.26199 17.4135 4.26199H58.1108V4.25781Z" fill="#45A2FF"/>
<path opacity="0.73" d="M58.1109 4.2832C59.5873 4.2832 60.9868 4.85202 62.0322 5.87673L71.5643 15.2204C72.6054 16.2451 73.19 17.617 73.19 19.0641V73.3152C73.19 80.1034 67.5706 85.6118 60.6455 85.6118H17.4137C10.4886 85.6118 4.86914 80.1034 4.86914 73.3152V16.5797C4.86914 9.79155 10.4886 4.2832 17.4137 4.2832H58.1109Z" fill="#44A1FF"/>
<path opacity="0.74" d="M58.1107 4.30469C59.5785 4.30469 60.9738 4.87351 62.0149 5.88985L71.5471 15.2335C72.5839 16.2499 73.1642 17.6217 73.1642 19.0605V73.3116C73.1642 80.0873 67.5533 85.5831 60.6452 85.5831H17.4135C10.5012 85.5831 4.89453 80.0831 4.89453 73.3116V16.5803C4.89453 9.80467 10.5054 4.30887 17.4135 4.30887H58.1107V4.30469Z" fill="#43A1FF"/>
<path opacity="0.74" d="M58.1109 4.32812C59.5744 4.32812 60.9654 4.89276 61.998 5.90492L71.5301 15.2486C72.5627 16.2608 73.1387 17.6243 73.1387 19.0589V73.31C73.1387 80.0731 67.5406 85.5605 60.6411 85.5605H17.4136C10.5141 85.5605 4.91602 80.0731 4.91602 73.31V16.5786C4.91602 9.81556 10.5141 4.32812 17.4136 4.32812H58.1109Z" fill="#42A0FF"/>
<path opacity="0.75" d="M58.111 4.34961C59.566 4.34961 60.9528 4.91006 61.9811 5.92223L71.5132 15.2659C72.5415 16.2739 73.1176 17.6332 73.1176 19.0594V73.3106C73.1176 80.0611 67.528 85.536 60.6455 85.536H17.4138C10.5271 85.536 4.9375 80.0569 4.9375 73.3106V16.5792C4.9375 9.82868 10.5271 4.34961 17.4138 4.34961H58.111Z" fill="#41A0FF"/>
<path opacity="0.75" d="M58.1108 4.375C59.5616 4.375 60.9398 4.93545 61.9638 5.93925L71.4959 15.2829C72.52 16.2867 73.0918 17.6377 73.0918 19.0597V73.3108C73.0918 80.0488 67.515 85.5154 60.6411 85.5154H17.4136C10.5397 85.5154 4.96289 80.0488 4.96289 73.3108V16.5795C4.96289 9.84152 10.5397 4.375 17.4136 4.375H58.1108Z" fill="#409FFF"/>
<path opacity="0.75" d="M58.111 4.39648C59.5532 4.39648 60.9271 4.95276 61.9469 5.95655L71.479 15.3002C72.4988 16.2999 73.0706 17.6466 73.0706 19.0603V73.3114C73.0706 80.0369 67.5023 85.495 60.6412 85.495H17.4137C10.5526 85.495 4.98438 80.0369 4.98438 73.3114V16.5801C4.98438 9.85464 10.5526 4.39648 17.4137 4.39648H58.111Z" fill="#3F9FFF"/>
<path opacity="0.76" d="M58.1108 4.41992C59.5487 4.41992 60.9141 4.97619 61.9339 5.97163L71.466 15.3153C72.4815 16.3108 73.049 17.6533 73.049 19.0628V73.314C73.049 80.0269 67.4936 85.4725 60.6453 85.4725H17.4135C10.5652 85.4725 5.00977 80.0269 5.00977 73.314V16.5784C5.00977 9.86553 10.5652 4.41992 17.4135 4.41992H58.1108Z" fill="#3E9EFF"/>
<path opacity="0.76" d="M58.1109 4.44141C59.5403 4.44141 60.9014 4.9935 61.9169 5.98475L71.4491 15.3284C72.4603 16.3197 73.0236 17.6539 73.0236 19.0592V73.3103C73.0236 80.0107 67.4767 85.4479 60.6412 85.4479H17.4137C10.5782 85.4479 5.03125 80.0107 5.03125 73.3103V16.579C5.03125 9.87865 10.5782 4.44141 17.4137 4.44141H58.1109Z" fill="#3D9EFF"/>
<path opacity="0.76" d="M58.1107 4.4668C59.5358 4.4668 60.8927 5.01889 61.8997 6.00595L71.4318 15.3496C72.4388 16.3367 73.002 17.6667 73.002 19.0637V73.3148C73.002 80.0026 67.4679 85.4273 60.6452 85.4273H17.4135C10.5908 85.4273 5.05664 80.0026 5.05664 73.3148V16.5793C5.05664 9.89149 10.5908 4.4668 17.4135 4.4668H58.1107Z" fill="#3C9DFF"/>
<path opacity="0.77" d="M58.1109 4.48828C59.5317 4.48828 60.88 5.03619 61.8828 6.01907L71.4149 15.3628C72.4176 16.3456 72.9766 17.6673 72.9766 19.0601V73.3112C72.9766 79.9865 67.451 85.4028 60.6411 85.4028H17.4136C10.6037 85.4028 5.07812 79.9865 5.07812 73.3112V16.5799C5.07812 9.90461 10.6037 4.48828 17.4136 4.48828H58.1109Z" fill="#3B9DFF"/>
<path opacity="0.77" d="M58.1106 4.51367C59.523 4.51367 60.867 5.0574 61.8655 6.0361L71.3976 15.3798C72.3961 16.3585 72.9508 17.676 72.9508 19.0604V73.3115C72.9508 79.9742 67.4337 85.378 60.6409 85.378H17.4134C10.6163 85.378 5.10352 79.97 5.10352 73.3115V16.5802C5.10352 9.91745 10.6206 4.51367 17.4134 4.51367H58.1106Z" fill="#3A9CFF"/>
<path opacity="0.78" d="M58.1108 4.5332C59.5189 4.5332 60.8544 5.07693 61.8486 6.05145L71.3807 15.3951C72.3749 16.3697 72.9296 17.683 72.9296 19.059V73.3101C72.9296 79.9603 67.4253 85.3557 60.641 85.3557H17.4135C10.6292 85.3557 5.125 79.9603 5.125 73.3101V16.5788C5.125 9.92862 10.6292 4.5332 17.4135 4.5332H58.1108Z" fill="#399CFF"/>
<path opacity="0.78" d="M58.1106 4.55859C59.5101 4.55859 60.8414 5.09814 61.8313 6.06847L71.3634 15.4122C72.3533 16.3825 72.9038 17.6874 72.9038 19.0593V73.3104C72.9038 79.948 67.4081 85.3309 60.6408 85.3309H17.4133C10.6418 85.3309 5.15039 79.9439 5.15039 73.3104V16.5791C5.15039 9.94146 10.6461 4.55859 17.4133 4.55859H58.1106Z" fill="#389BFF"/>
<path opacity="0.78" d="M58.1107 4.58008C59.506 4.58008 60.8287 5.11962 61.8144 6.08578L71.3465 15.4295C72.3322 16.3956 72.8826 17.6964 72.8826 19.0599V73.311C72.8826 79.9361 67.3997 85.3106 60.641 85.3106H17.4135C10.6548 85.3106 5.17188 79.9361 5.17188 73.311V16.5796C5.17188 9.95458 10.6548 4.58008 17.4135 4.58008H58.1107Z" fill="#379BFF"/>
<path opacity="0.79" d="M58.1115 4.60547C59.4982 4.60547 60.821 5.14083 61.8023 6.1028L71.3345 15.4465C72.3159 16.4085 72.862 17.7009 72.862 19.0643V73.3155C72.862 79.928 67.3876 85.2899 60.646 85.2899H17.4142C10.6683 85.2899 5.19824 79.9238 5.19824 73.3155V16.5799C5.19824 9.96742 10.6726 4.60547 17.4142 4.60547H58.1115Z" fill="#369AFF"/>
<path opacity="0.79" d="M58.1107 4.625C59.4931 4.625 60.8073 5.16036 61.7844 6.11397L71.3166 15.4577C72.2937 16.4154 72.8356 17.7037 72.8356 19.0588V73.3099C72.8356 79.9099 67.374 85.2635 60.6409 85.2635H17.4134C10.6803 85.2635 5.21875 79.9099 5.21875 73.3099V16.5786C5.21875 9.97859 10.6803 4.625 17.4134 4.625H58.1107Z" fill="#359AFF"/>
<path opacity="0.8" d="M58.1114 4.65039C59.4854 4.65039 60.7953 5.18157 61.7681 6.13518L71.3003 15.4789C72.2731 16.4325 72.815 17.7165 72.815 19.0633V73.3144C72.815 79.9018 67.362 85.2429 60.646 85.2429H17.4142C10.6939 85.2429 5.24512 79.8976 5.24512 73.3144V16.5789C5.24512 9.99143 10.6982 4.65039 17.4142 4.65039H58.1114Z" fill="#3499FF"/>
<path opacity="0.8" d="M58.1106 4.67188C59.4803 4.67188 60.7817 5.19887 61.7502 6.14829L71.2824 15.492C72.251 16.4414 72.7886 17.7171 72.7886 19.0597V73.3108C72.7886 79.8857 67.3484 85.2183 60.6409 85.2183H17.4134C10.7059 85.2183 5.26562 79.8857 5.26562 73.3108V16.5794C5.26562 10.0046 10.7059 4.67188 17.4134 4.67188H58.1106Z" fill="#3399FF"/>
<path opacity="0.8" d="M58.1114 4.69727C59.4725 4.69727 60.7696 5.22426 61.7339 6.1695L71.2661 15.5132C72.2304 16.4584 72.768 17.7299 72.768 19.0641V73.3153C72.768 79.8776 67.3363 85.1977 60.6459 85.1977H17.4141C10.7194 85.1977 5.29199 79.8734 5.29199 73.3153V16.5797C5.29199 10.0174 10.7237 4.69727 17.4141 4.69727H58.1114Z" fill="#3298FF"/>
<path opacity="0.81" d="M58.1115 4.71875C59.4684 4.71875 60.757 5.24156 61.717 6.18262L71.2492 15.5263C72.2092 16.4674 72.7426 17.7305 72.7426 19.0605V73.3116C72.7426 79.8614 67.3237 85.1732 60.6418 85.1732H17.4143C10.7324 85.1732 5.31348 79.8614 5.31348 73.3116V16.5803C5.31348 10.0305 10.7324 4.71875 17.4143 4.71875H58.1115Z" fill="#3198FF"/>
<path opacity="0.81" d="M58.1113 4.73828C59.4596 4.73828 60.7482 5.26109 61.6997 6.19379L71.2319 15.5375C72.1877 16.4744 72.7168 17.7333 72.7168 19.055V73.3061C72.7168 79.8433 67.3064 85.1425 60.6416 85.1425H17.4141C10.745 85.1425 5.33887 79.8391 5.33887 73.3061V16.5789C5.33887 10.0417 10.7492 4.74246 17.4141 4.74246H58.1113V4.73828Z" fill="#3097FF"/>
<path opacity="0.82" d="M58.1115 4.76367C59.4555 4.76367 60.7356 5.2823 61.6828 6.215L71.215 15.5587C72.1665 16.4914 72.6956 17.7461 72.6956 19.0594V73.3106C72.6956 79.8352 67.298 85.1261 60.6417 85.1261H17.4142C10.7579 85.1261 5.36035 79.8352 5.36035 73.3106V16.5792C5.36035 10.0545 10.7579 4.76367 17.4142 4.76367H58.1115Z" fill="#2F97FF"/>
<path opacity="0.82" d="M58.1113 4.78516C59.4468 4.78516 60.7226 5.30379 61.6698 6.22812L71.202 15.5718C72.1492 16.5003 72.674 17.7467 72.674 19.06V73.3111C72.674 79.8191 67.285 85.1016 60.6458 85.1016H17.414C10.7705 85.1016 5.38574 79.8191 5.38574 73.3111V16.5798C5.38574 10.0676 10.7748 4.78934 17.414 4.78934H58.1113V4.78516Z" fill="#2E96FF"/>
<path opacity="0.82" d="M58.1114 4.81055C59.4427 4.81055 60.7099 5.32499 61.6529 6.24932L71.1851 15.593C72.128 16.5173 72.6528 17.7595 72.6528 19.0645V73.3156C72.6528 79.811 67.2766 85.0851 60.6459 85.0851H17.4142C10.7835 85.0851 5.40723 79.8152 5.40723 73.3156V16.5801C5.40723 10.0805 10.7835 4.81055 17.4142 4.81055H58.1114Z" fill="#2D96FF"/>
<path opacity="0.83" d="M58.1106 4.83008C59.4376 4.83008 60.6963 5.34452 61.635 6.26049L71.1672 15.6042C72.1059 16.5243 72.6264 17.7582 72.6264 19.0589V73.31C72.6264 79.7929 67.2587 85.0545 60.6451 85.0545H17.4133C10.7954 85.0545 5.42773 79.7929 5.42773 73.31V16.5787C5.42773 10.0917 10.7954 4.83008 17.4133 4.83008H58.1106Z" fill="#2C95FF"/>
<path opacity="0.83" d="M58.1113 4.85547C59.4298 4.85547 60.6843 5.36573 61.6187 6.27752L71.1508 15.6212C72.081 16.5372 72.6016 17.7668 72.6016 19.0592V73.3103C72.6016 79.7807 67.2424 85.0339 60.6416 85.0339H17.4141C10.809 85.0339 5.4541 79.7807 5.4541 73.3103V16.579C5.4541 10.1045 10.8133 4.85547 17.4141 4.85547H58.1113Z" fill="#2B95FF"/>
<path opacity="0.84" d="M58.1115 4.87695C59.4257 4.87695 60.6759 5.38303 61.6018 6.29482L71.1339 15.6385C72.0598 16.5503 72.5804 17.7758 72.5804 19.0598V73.3109C72.5804 79.7687 67.234 85.0135 60.6417 85.0135H17.4142C10.8262 85.0135 5.47559 79.7729 5.47559 73.3109V16.5796C5.47559 10.1176 10.822 4.87695 17.4142 4.87695H58.1115Z" fill="#2A94FF"/>
<path opacity="0.84" d="M58.1113 4.90234C59.4169 4.90234 60.6629 5.40843 61.5845 6.31184L71.1167 15.6555C72.0383 16.559 72.5546 17.7802 72.5546 19.0601V73.3112C72.5546 79.7564 67.2167 84.9887 60.6415 84.9887H17.414C10.8388 84.9887 5.50098 79.7564 5.50098 73.3112V16.5799C5.50098 10.1346 10.8388 4.90234 17.414 4.90234H58.1113Z" fill="#2994FF"/>
<path opacity="0.84" d="M58.1114 4.92188C59.4128 4.92188 60.6502 5.42377 61.5676 6.32719L71.0997 15.6709C72.0171 16.5701 72.5334 17.7872 72.5334 19.0587V73.3098C72.5334 79.7425 67.2084 84.9664 60.6417 84.9664H17.4142C10.8518 84.9664 5.52246 79.7467 5.52246 73.3098V16.5785C5.52246 10.1458 10.8475 4.92188 17.4142 4.92188H58.1114Z" fill="#2893FF"/>
<path opacity="0.85" d="M58.1112 4.94727C59.4041 4.94727 60.6372 5.44916 61.5503 6.34422L71.0825 15.6879C71.9956 16.583 72.5076 17.7917 72.5076 19.059V73.3101C72.5076 79.7303 67.1911 84.9416 60.6415 84.9416H17.414C10.8644 84.9416 5.54785 79.7303 5.54785 73.3101V16.5788C5.54785 10.1587 10.8644 4.94727 17.414 4.94727H58.1112Z" fill="#2793FF"/>
<path opacity="0.85" d="M58.1114 4.96875C59.4 4.96875 60.6245 5.46647 61.5377 6.35734L71.0698 15.701C71.9786 16.5919 72.4864 17.7965 72.4864 19.0596V73.3107C72.4864 79.7183 67.1827 84.9213 60.6416 84.9213H17.4141C10.8773 84.9213 5.56934 79.7225 5.56934 73.3107V16.5794C5.56934 10.1718 10.873 4.96875 17.4141 4.96875H58.1114Z" fill="#2692FF"/>
<path opacity="0.85" d="M58.1112 4.99414C59.3912 4.99414 60.6115 5.49186 61.5204 6.37855L71.0525 15.7222C71.9571 16.6089 72.4649 17.8051 72.4649 19.064V73.3152C72.4649 79.7102 67.1697 84.9007 60.6457 84.9007H17.4139C10.8899 84.9007 5.59473 79.7102 5.59473 73.3152V16.5796C5.59473 10.1846 10.8899 4.99414 17.4139 4.99414H58.1112Z" fill="#2592FF"/>
<path opacity="0.86" d="M58.1113 5.01562C59.3871 5.01562 60.6032 5.50916 61.5035 6.39167L71.0356 15.7354C71.9359 16.6179 72.4394 17.8099 72.4394 19.0604V73.3116C72.4394 79.694 67.157 84.8761 60.6416 84.8761H17.4141C10.9028 84.8761 5.61621 79.6982 5.61621 73.3116V16.5802C5.61621 10.1977 10.8986 5.01562 17.4141 5.01562H58.1113Z" fill="#2491FF"/>
<path opacity="0.86" d="M58.1111 5.03906C59.3784 5.03906 60.5901 5.52841 61.4862 6.41092L71.0183 15.7546C71.9144 16.6329 72.4179 17.8208 72.4179 19.063V73.3141C72.4179 79.684 67.144 84.8536 60.6456 84.8536H17.4139C10.9154 84.8536 5.6416 79.684 5.6416 73.3141V16.5786C5.6416 10.2086 10.9154 5.03906 17.4139 5.03906H58.1111Z" fill="#2391FF"/>
<path opacity="0.87" d="M58.1113 5.06055C59.3742 5.06055 60.5775 5.5499 61.4693 6.42404L71.0014 15.7677C71.8932 16.6419 72.3924 17.8213 72.3924 19.0594V73.3105C72.3924 79.6679 67.1314 84.8291 60.6415 84.8291H17.414C10.9284 84.8291 5.66309 79.672 5.66309 73.3105V16.5791C5.66309 10.2217 10.9241 5.06055 17.414 5.06055H58.1113Z" fill="#2290FF"/>
<path opacity="0.87" d="M58.111 5.08594C59.3655 5.08594 60.5645 5.57111 61.452 6.44107L70.9841 15.7848C71.8717 16.6547 72.3666 17.83 72.3666 19.0596V73.3108C72.3666 79.6556 67.1141 84.8043 60.6413 84.8043H17.4138C10.941 84.8043 5.68848 79.6556 5.68848 73.3108V16.5794C5.68848 10.2346 10.941 5.08594 17.4138 5.08594H58.111Z" fill="#2190FF"/>
<path opacity="0.87" d="M58.1112 5.10742C59.3614 5.10742 60.5518 5.59259 61.4351 6.45837L70.9672 15.8021C71.8505 16.6678 72.3454 17.8347 72.3454 19.0602V73.3113C72.3454 79.6436 67.1057 84.7839 60.6414 84.7839H17.4139C10.9539 84.7839 5.70996 79.6478 5.70996 73.3113V16.58C5.70996 10.2477 10.9497 5.10742 17.4139 5.10742H58.1112Z" fill="#208FFF"/>
<path opacity="0.88" d="M58.111 5.13281C59.3526 5.13281 60.5388 5.6138 61.4221 6.47539L70.9542 15.8191C71.8332 16.6807 72.3239 17.8434 72.3239 19.0605V73.3116C72.3239 79.6314 67.0927 84.7591 60.6455 84.7591H17.4137C10.9665 84.7591 5.73535 79.6314 5.73535 73.3116V16.5803C5.73535 10.2605 10.9665 5.13281 17.4137 5.13281H58.111Z" fill="#1F8FFF"/>
<path opacity="0.88" d="M58.1111 5.15234C59.3485 5.15234 60.5304 5.63333 61.4051 6.49074L70.9373 15.8344C71.812 16.6918 72.3027 17.8504 72.3027 19.0633V73.3144C72.3027 79.6216 67.0801 84.741 60.6456 84.741H17.4139C10.9795 84.741 5.75684 79.6258 5.75684 73.3144V16.5789C5.75684 10.2717 10.9752 5.15234 17.4139 5.15234H58.1111Z" fill="#1E8EFF"/>
<path opacity="0.89" d="M58.1109 5.17773C59.3398 5.17773 60.5174 5.65454 61.3879 6.50777L70.92 15.8515C71.7905 16.7047 72.2769 17.8549 72.2769 19.0636V73.3147C72.2769 79.6094 67.0671 84.7162 60.6454 84.7162H17.4137C10.9921 84.7162 5.78223 79.6094 5.78223 73.3147V16.5792C5.78223 10.2846 10.9921 5.17773 17.4137 5.17773H58.1109Z" fill="#1D8EFF"/>
<path opacity="0.89" d="M58.1111 5.19922C59.3357 5.19922 60.5048 5.67184 61.3709 6.52089L70.9031 15.8646C71.7693 16.7136 72.2514 17.8596 72.2514 19.06V73.3111C72.2514 79.5932 67.0501 84.6917 60.6413 84.6917H17.4138C11.005 84.6917 5.80371 79.5932 5.80371 73.3111V16.5798C5.80371 10.2977 11.005 5.19922 17.4138 5.19922H58.1111Z" fill="#1C8DFF"/>
<path opacity="0.89" d="M58.1109 5.2207C59.3312 5.2207 60.4918 5.69333 61.3537 6.53819L70.8858 15.8819C71.7477 16.7267 72.2299 17.8644 72.2299 19.0606V73.3117C72.2299 79.5813 67.0414 84.6672 60.6454 84.6672H17.4136C11.0176 84.6672 5.8291 79.5813 5.8291 73.3117V16.5804C5.8291 10.3108 11.0176 5.22489 17.4136 5.22489H58.1109V5.2207Z" fill="#1B8DFF"/>
<path opacity="0.9" d="M58.111 5.24414C59.3228 5.24414 60.4791 5.71258 61.3368 6.55326L70.8689 15.8969C71.7265 16.7376 72.2044 17.8711 72.2044 19.0589V73.31C72.2044 79.567 67.0245 84.6446 60.6413 84.6446H17.4138C11.0305 84.6446 5.85059 79.567 5.85059 73.31V16.5787C5.85059 10.3217 11.0305 5.24414 17.4138 5.24414H58.111Z" fill="#1A8CFF"/>
<path opacity="0.9" d="M58.1108 5.26562C59.3183 5.26562 60.4661 5.73406 61.3195 6.57056L70.8516 15.9143C71.705 16.7508 72.1829 17.88 72.1829 19.0595V73.3106C72.1829 79.5551 67.0157 84.6201 60.6453 84.6201H17.4135C11.0431 84.6201 5.87598 79.5551 5.87598 73.3106V16.5793C5.87598 10.3348 11.0431 5.26981 17.4135 5.26981H58.1108V5.26562Z" fill="#198CFF"/>
<path opacity="0.91" d="M58.111 5.29102C59.3099 5.29102 60.4577 5.75527 61.3026 6.58759L70.8347 15.9313C71.6838 16.7636 72.1574 17.8845 72.1574 19.0598V73.3109C72.1574 79.5428 66.9988 84.5995 60.6412 84.5995H17.4137C11.0561 84.5995 5.89746 79.5428 5.89746 73.3109V16.5796C5.89746 10.3477 11.0561 5.29102 17.4137 5.29102H58.111Z" fill="#188BFF"/>
<path opacity="0.91" d="M58.1111 5.3125C59.3058 5.3125 60.4451 5.77676 61.2899 6.60071L70.8221 15.9444C71.6669 16.7725 72.1363 17.8893 72.1363 19.0604V73.3115C72.1363 79.5308 66.9904 84.5749 60.6456 84.5749H17.4138C11.069 84.5749 5.91895 79.5308 5.91895 73.3115V16.5801C5.91895 10.3608 11.0648 5.3125 17.4138 5.3125H58.1111Z" fill="#178BFF"/>
<path opacity="0.91" d="M58.1109 5.33594C59.2971 5.33594 60.4321 5.79601 61.2726 6.61996L70.8048 15.9637C71.6454 16.7876 72.1147 17.896 72.1147 19.0629V73.314C72.1147 79.5208 66.9774 84.5565 60.6454 84.5565H17.4136C11.0816 84.5565 5.94434 79.5208 5.94434 73.314V16.5785C5.94434 10.3717 11.0816 5.33594 17.4136 5.33594H58.1109Z" fill="#168AFF"/>
<path opacity="0.92" d="M58.111 5.35742C59.293 5.35742 60.4194 5.8175 61.2557 6.63308L70.7879 15.9768C71.6242 16.7965 72.0893 17.9007 72.0893 19.0593V73.3104C72.0893 79.5047 66.9648 84.532 60.6413 84.532H17.4138C11.0946 84.532 5.96582 79.5089 5.96582 73.3104V16.5791C5.96582 10.3848 11.0903 5.35742 17.4138 5.35742H58.111Z" fill="#158AFF"/>
<path opacity="0.92" d="M58.1108 5.38281C59.2842 5.38281 60.4064 5.8387 61.2384 6.65429L70.7706 15.998C71.6026 16.8136 72.0677 17.9136 72.0677 19.0637V73.3149C72.0677 79.4966 66.9518 84.5114 60.6453 84.5114H17.4136C11.1072 84.5114 5.99121 79.4966 5.99121 73.3149V16.5793C5.99121 10.3976 11.1072 5.38281 17.4136 5.38281H58.1108Z" fill="#1489FF"/>
<path opacity="0.93" d="M58.111 5.4043C59.2801 5.4043 60.3937 5.85601 61.2215 6.66741L70.7537 16.0111C71.5814 16.8225 72.0423 17.9141 72.0423 19.0601V73.3113C72.0423 79.4804 66.9391 84.4869 60.6412 84.4869H17.4137C11.1201 84.4869 6.0127 79.4846 6.0127 73.3113V16.5799C6.0127 10.4107 11.1159 5.4043 17.4137 5.4043H58.111Z" fill="#1389FF"/>
<path opacity="0.93" d="M58.1108 5.42969C59.2714 5.42969 60.385 5.8814 61.2042 6.68444L70.7364 16.0281C71.5599 16.8353 72.0164 17.9228 72.0164 19.0604V73.3116C72.0164 79.4682 66.9218 84.4621 60.641 84.4621H17.4135C11.1327 84.4621 6.03809 79.4682 6.03809 73.3116V16.5802C6.03809 10.4236 11.1327 5.42969 17.4135 5.42969H58.1108Z" fill="#1288FF"/>
<path opacity="0.93" d="M58.1109 5.44922C59.2672 5.44922 60.3724 5.89675 61.1873 6.69978L70.7195 16.0435C71.5344 16.8465 71.9953 17.9256 71.9953 19.0591V73.3102C71.9953 79.4543 66.9134 84.4398 60.6412 84.4398H17.4137C11.1457 84.4398 6.05957 79.4584 6.05957 73.3102V16.5788C6.05957 10.4348 11.1414 5.44922 17.4137 5.44922H58.1109Z" fill="#1188FF"/>
<path opacity="0.94" d="M58.1107 5.47461C59.2585 5.47461 60.3593 5.92214 61.17 6.71681L70.7022 16.0605C71.5129 16.8552 71.9695 17.9343 71.9695 19.0593V73.3105C71.9695 79.442 66.8962 84.415 60.641 84.415H17.4135C11.1582 84.415 6.08496 79.442 6.08496 73.3105V16.5791C6.08496 10.4476 11.1582 5.47461 17.4135 5.47461H58.1107Z" fill="#1087FF"/>
<path opacity="0.94" d="M58.1109 5.49609C59.2544 5.49609 60.3467 5.93944 61.1574 6.73411L70.6895 16.0778C71.496 16.8683 71.9525 17.9432 71.9525 19.0641V73.3152C71.9525 79.4342 66.8878 84.3988 60.6454 84.3988H17.4136C11.1712 84.3988 6.10645 79.4342 6.10645 73.3152V16.5797C6.10645 10.4607 11.1712 5.49609 17.4136 5.49609H58.1109Z" fill="#0F87FF"/>
<path opacity="0.95" d="M58.1106 5.52148C59.2456 5.52148 60.3337 5.96483 61.1401 6.75114L70.6723 16.0948C71.4744 16.8811 71.9267 17.9477 71.9267 19.0644V73.3155C71.9267 79.422 66.8748 84.374 60.6452 84.374H17.4134C11.1838 84.374 6.13184 79.422 6.13184 73.3155V16.58C6.13184 10.4736 11.1838 5.52148 17.4134 5.52148H58.1106Z" fill="#0E86FF"/>
<path opacity="0.95" d="M58.1108 5.54102C59.2415 5.54102 60.321 5.98018 61.1232 6.7623L70.6554 16.106C71.4533 16.8881 71.9013 17.9505 71.9013 19.0588V73.31C71.9013 79.4038 66.8579 84.3476 60.641 84.3476H17.4135C11.1967 84.3476 6.15332 79.4038 6.15332 73.31V16.5786C6.15332 10.4847 11.1967 5.54102 17.4135 5.54102H58.1108Z" fill="#0D86FF"/>
<path opacity="0.95" d="M58.1106 5.56641C59.2328 5.56641 60.3123 6.00139 61.1059 6.78351L70.6381 16.1272C71.4317 16.9051 71.8797 17.9591 71.8797 19.0633V73.3144C71.8797 79.3958 66.8491 84.3269 60.6451 84.3269H17.4133C11.2093 84.3269 6.17871 79.3958 6.17871 73.3144V16.5789C6.17871 10.4976 11.2093 5.56641 17.4133 5.56641H58.1106Z" fill="#0C85FF"/>
<path opacity="0.96" d="M58.1107 5.58789C59.2287 5.58789 60.2996 6.02287 61.089 6.79663L70.6212 16.1403C71.4105 16.9141 71.8543 17.9639 71.8543 19.0597V73.3108C71.8543 79.3796 66.8322 84.3024 60.641 84.3024H17.4135C11.2223 84.3024 6.2002 79.3796 6.2002 73.3108V16.5795C6.2002 10.5107 11.2223 5.58789 17.4135 5.58789H58.1107Z" fill="#0B85FF"/>
<path opacity="0.96" d="M58.1115 5.61328C59.2252 5.61328 60.2876 6.04408 61.0727 6.81784L70.6049 16.1615C71.39 16.9311 71.8337 17.9767 71.8337 19.0642V73.3153C71.8337 79.3716 66.8244 84.2818 60.646 84.2818H17.4143C11.2358 84.2818 6.22656 79.3716 6.22656 73.3153V16.5798C6.22656 10.5235 11.2358 5.61328 17.4143 5.61328H58.1115Z" fill="#0A84FF"/>
<path opacity="0.96" d="M58.1107 5.63477C59.2158 5.63477 60.274 6.06556 61.0548 6.83096L70.587 16.1746C71.3678 16.94 71.8073 17.9773 71.8073 19.0606V73.3117C71.8073 79.3554 66.8065 84.2573 60.6409 84.2573H17.4134C11.2478 84.2573 6.24707 79.3554 6.24707 73.3117V16.5803C6.24707 10.5366 11.2478 5.63477 17.4134 5.63477H58.1107Z" fill="#0984FF"/>
<path opacity="0.97" d="M58.1114 5.6582C59.2123 5.6582 60.2619 6.08482 61.0385 6.84603L70.5707 16.1897C71.3472 16.9509 71.7824 17.984 71.7824 19.0589V73.31C71.7824 79.3412 66.7945 84.2305 60.6417 84.2305H17.4142C11.2614 84.2305 6.27344 79.3412 6.27344 73.31V16.5787C6.27344 10.5475 11.2614 5.6582 17.4142 5.6582H58.1114Z" fill="#0883FF"/>
<path opacity="0.97" d="M58.1106 5.67969C59.2029 5.67969 60.2483 6.1063 61.0249 6.86333L70.557 16.207C71.3293 16.9641 71.7646 17.9888 71.7646 19.0637V73.3148C71.7646 79.3334 66.7851 84.2144 60.6451 84.2144H17.4134C11.2734 84.2144 6.29395 79.3334 6.29395 73.3148V16.5793C6.29395 10.5607 11.2734 5.67969 17.4134 5.67969H58.1106Z" fill="#0783FF"/>
<path opacity="0.98" d="M58.1114 5.70117C59.1994 5.70117 60.2405 6.1236 61.0086 6.87645L70.5407 16.2201C71.3088 16.973 71.7397 17.9935 71.7397 19.0601V73.3112C71.7397 79.3172 66.7731 84.1857 60.6459 84.1857H17.4141C11.2869 84.1857 6.32031 79.3172 6.32031 73.3112V16.5798C6.32031 10.5738 11.2869 5.70535 17.4141 5.70535H58.1114V5.70117Z" fill="#0682FF"/>
<path opacity="0.98" d="M58.1115 5.72656C59.1911 5.72656 60.2279 6.14481 60.9917 6.89348L70.5238 16.2372C71.2876 16.9858 71.7143 18.0022 71.7143 19.0604V73.3115C71.7143 79.305 66.7562 84.165 60.6418 84.165H17.4143C11.2999 84.165 6.3418 79.305 6.3418 73.3115V16.5801C6.3418 10.5866 11.2999 5.72656 17.4143 5.72656H58.1115Z" fill="#0582FF"/>
<path opacity="0.98" d="M58.1107 5.74609C59.186 5.74609 60.2143 6.16434 60.9738 6.90883L70.5059 16.2525C71.2654 16.997 71.6921 18.005 71.6921 19.059V73.3101C71.6921 79.2911 66.7468 84.1386 60.6452 84.1386H17.4135C11.3119 84.1386 6.3623 79.2911 6.3623 73.3101V16.5788C6.3623 10.5978 11.3076 5.74609 17.4135 5.74609H58.1107Z" fill="#0481FF"/>
<path opacity="0.99" d="M58.1115 5.77148C59.1782 5.77148 60.2022 6.18555 60.9575 6.92585L70.4896 16.2695C71.2449 17.0098 71.6673 18.0136 71.6673 19.0593V73.3104C71.6673 79.2788 66.7305 84.1179 60.6417 84.1179H17.4142C11.3254 84.1179 6.38867 79.2788 6.38867 73.3104V16.579C6.38867 10.6106 11.3254 5.77148 17.4142 5.77148H58.1115Z" fill="#0381FF"/>
<path opacity="0.99" d="M58.1107 5.79297C59.1731 5.79297 60.1886 6.20704 60.9396 6.94315L70.4717 16.2868C71.2227 17.023 71.6451 18.0184 71.6451 19.0598V73.311C71.6451 79.2668 66.7212 84.0934 60.6452 84.0934H17.4134C11.3374 84.0934 6.40918 79.2668 6.40918 73.311V16.5796C6.40918 10.6237 11.3331 5.79297 17.4134 5.79297H58.1107Z" fill="#0280FF"/>
<path d="M58.1114 5.81836C59.1653 5.81836 60.1766 6.22824 60.9233 6.96018L70.4554 16.3039C71.2021 17.0358 71.6203 18.0271 71.6203 19.0601V73.3113C71.6203 79.2546 66.7049 84.0728 60.6417 84.0728H17.4142C11.351 84.0728 6.43555 79.2546 6.43555 73.3113V16.5799C6.43555 10.6366 11.351 5.81836 17.4142 5.81836H58.1114Z" fill="#0180FF"/>
<path d="M58.1106 5.83789H17.4133C11.3629 5.83789 6.45605 10.6478 6.45605 16.5785V73.3099C6.45605 79.2406 11.3629 84.0505 17.4133 84.0505H60.6408C66.6912 84.0505 71.5981 79.2406 71.5981 73.3099V19.0588C71.5981 18.0299 71.18 17.0428 70.4418 16.3192L60.9096 6.97553C60.1672 6.24778 59.1602 5.84207 58.1149 5.84207L58.1106 5.83789Z" fill="#007FFF"/>
</g>
<g opacity="0.8">
<g opacity="0.8">
<path d="M85.3296 32.9153V87.0911C85.3296 93.0219 80.4227 97.8318 74.3723 97.8318H31.1448C25.0944 97.8318 20.1875 93.0219 20.1875 87.0911V30.3598C20.1875 24.429 25.0944 19.6191 31.1448 19.6191H71.7695C77.0647 24.8096 80.0344 27.7206 85.3296 32.9111V32.9153Z" fill="url(#paint0_linear_222_8609)" fill-opacity="0.4"/>
<path d="M85.3296 32.9153V87.0911C85.3296 93.0219 80.4227 97.8318 74.3723 97.8318H31.1448C25.0944 97.8318 20.1875 93.0219 20.1875 87.0911V30.3598C20.1875 24.429 25.0944 19.6191 31.1448 19.6191H71.7695C77.0647 24.8096 80.0344 27.7206 85.3296 32.9111V32.9153Z" fill="url(#paint1_linear_222_8609)" fill-opacity="0.3"/>
</g>
</g>
<path d="M61.5121 36.3619H32.7748C30.9998 36.3619 29.5576 34.9482 29.5576 33.2083C29.5576 31.4684 30.9998 30.0547 32.7748 30.0547H61.5121C63.2871 30.0547 64.7293 31.4684 64.7293 33.2083C64.7293 34.9482 63.2871 36.3619 61.5121 36.3619Z" fill="white"/>
<path d="M72.7382 48.0982H32.7748C30.9998 48.0982 29.5576 46.6845 29.5576 44.9446C29.5576 43.2047 30.9998 41.791 32.7748 41.791H72.7382C74.5132 41.791 75.9554 43.2047 75.9554 44.9446C75.9554 46.6845 74.5132 48.0982 72.7382 48.0982Z" fill="white"/>
<path d="M72.7382 59.8345H32.7748C30.9998 59.8345 29.5576 58.4209 29.5576 56.6809C29.5576 54.941 30.9998 53.5273 32.7748 53.5273H72.7382C74.5132 53.5273 75.9554 54.941 75.9554 56.6809C75.9554 58.4209 74.5132 59.8345 72.7382 59.8345Z" fill="white"/>
<path d="M72.7382 71.6373H32.7748C30.9998 71.6373 29.5576 70.2236 29.5576 68.4837C29.5576 66.7438 30.9998 65.3301 32.7748 65.3301H72.7382C74.5132 65.3301 75.9554 66.7438 75.9554 68.4837C75.9554 70.2236 74.5132 71.6373 72.7382 71.6373Z" fill="white"/>
<path d="M72.7382 83.3736H32.7748C30.9998 83.3736 29.5576 81.9599 29.5576 80.22C29.5576 78.4801 30.9998 77.0664 32.7748 77.0664H72.7382C74.5132 77.0664 75.9554 78.4801 75.9554 80.22C75.9554 81.9599 74.5132 83.3736 72.7382 83.3736Z" fill="white"/>
<path d="M71.7646 19.6191L85.329 32.9153H71.7646V19.6191Z" fill="#007FFF"/>
<path d="M74.3721 98.0004H31.1446C25.0088 98.0004 20.0166 93.1068 20.0166 87.0924V30.3611C20.0166 24.3466 25.0088 19.4531 31.1446 19.4531H71.8375L71.8887 19.5033L85.5 32.8455V87.0924C85.5 93.1068 80.5078 98.0004 74.3721 98.0004ZM31.1446 19.7919C25.2008 19.7919 20.3622 24.5349 20.3622 30.3611V87.0924C20.3622 92.9228 25.2008 97.6616 31.1446 97.6616H74.3721C80.32 97.6616 85.1544 92.9186 85.1544 87.0924V32.9835L71.6925 19.7877H31.1403L31.1446 19.7919Z" fill="url(#paint2_linear_222_8609)" fill-opacity="0.4"/>
</g>
<defs>
<linearGradient id="paint0_linear_222_8609" x1="26.758" y1="82.2803" x2="85.2615" y2="45.5222" gradientUnits="userSpaceOnUse">
<stop stop-color="#F2F8FF"/>
<stop offset="1" stop-color="#D9F0FF"/>
</linearGradient>
<linearGradient id="paint1_linear_222_8609" x1="28.4858" y1="27.456" x2="99.1716" y2="58.7497" gradientUnits="userSpaceOnUse">
<stop stop-color="#5A81FF" stop-opacity="0.9"/>
<stop offset="0.447036" stop-color="#567DFF" stop-opacity="0.955296"/>
<stop offset="1" stop-color="#4E78FF" stop-opacity="0.9"/>
</linearGradient>
<linearGradient id="paint2_linear_222_8609" x1="26.6215" y1="82.3824" x2="85.3997" y2="45.4163" gradientUnits="userSpaceOnUse">
<stop stop-color="#F2F8FF"/>
<stop offset="1" stop-color="#D9F0FF"/>
</linearGradient>
<clipPath id="clip0_222_8609">
<rect width="85" height="98" fill="white" transform="translate(0.5)"/>
</clipPath>
</defs>
</svg>
